<svg width="15" height="15" viewBox="0 0 15 15" fill="none" xmlns="http://www.w3.org/2000/svg">
<path d="M12.8033 2.19668C11.3867 0.780147 9.50332 0 7.5 0C5.49668 0 3.61327 0.780147 2.19668 2.19668C0.780147 3.61327 0 5.49668 0 7.5C0 9.50332 0.780147 11.3867 2.19668 12.8033C3.61327 14.2199 5.49668 15 7.5 15C9.50332 15 11.3867 14.2199 12.8033 12.8033C14.2199 11.3867 15 9.50332 15 7.5C15 5.49668 14.2199 3.61327 12.8033 2.19668ZM7.5 14.1211C3.84911 14.1211 0.878906 11.1509 0.878906 7.5C0.878906 3.84911 3.84911 0.878906 7.5 0.878906C11.1509 0.878906 14.1211 3.84911 14.1211 7.5C14.1211 11.1509 11.1509 14.1211 7.5 14.1211Z" fill="#F43232"/>
<path d="M6.18164 9.25778H8.81827V2.27051H6.18164V9.25778ZM7.06055 3.14941H7.93936V8.37888H7.06055V3.14941Z" fill="#F43232"/>
<path d="M6.18164 12.7881H8.81827V10.1514H6.18164V12.7881ZM7.06055 11.0303H7.93936V11.9092H7.06055V11.0303Z" fill="#F43232"/>
</svg>
