<svg width="14" height="15" viewBox="0 0 14 15" fill="none" xmlns="http://www.w3.org/2000/svg">
<g clip-path="url(#clip0)">
<path d="M1.11074 8.54189L7.34092 14.7719C7.48502 14.9162 7.67737 14.9956 7.88248 14.9956C8.08758 14.9956 8.27994 14.9162 8.42403 14.7719L8.88284 14.3133C9.18139 14.0144 9.18139 13.5286 8.88284 13.2301L3.65121 7.99851L8.88865 2.76107C9.03275 2.61686 9.11231 2.42462 9.11231 2.21963C9.11231 2.01441 9.03275 1.82217 8.88865 1.67784L8.42984 1.21926C8.28563 1.07505 8.09339 0.995606 7.88828 0.995606C7.68318 0.995606 7.49082 1.07505 7.34673 1.21926L1.11074 7.45502C0.966305 7.59968 0.886973 7.79283 0.887429 7.99817C0.886973 8.20429 0.966305 8.39733 1.11074 8.54189Z" fill="black"/>
</g>
<defs>
<clipPath id="clip0">
<rect width="14" height="14" fill="white" transform="translate(14 14.9956) rotate(-180)"/>
</clipPath>
</defs>
</svg>
