<svg width="14" height="9" viewBox="0 0 14 9" fill="none" xmlns="http://www.w3.org/2000/svg">
<path d="M6.45372 8.00156L0.223657 1.77138C0.0794464 1.62729 -6.27228e-08 1.43493 -5.37575e-08 1.22983C-4.47921e-08 1.02472 0.0794465 0.832367 0.223657 0.688271L0.682352 0.229462C0.981244 -0.0690887 1.46703 -0.0690887 1.76547 0.229462L6.9971 5.46109L12.2345 0.223657C12.3787 0.0795609 12.571 5.49495e-07 12.776 5.58456e-07C12.9812 5.67426e-07 13.1734 0.0795609 13.3178 0.223657L13.7763 0.682467C13.9206 0.826677 14 1.01892 14 1.22402C14 1.42913 13.9206 1.62148 13.7763 1.76558L7.54059 8.00156C7.39592 8.146 7.20277 8.22533 6.99744 8.22488C6.79131 8.22533 6.59827 8.146 6.45372 8.00156Z" fill="black" fill-opacity="0.29"/>
</svg>
