<svg width="14" height="15" viewBox="0 0 14 15" fill="none" xmlns="http://www.w3.org/2000/svg">
<g clip-path="url(#clip0)">
<path d="M12.8893 8.54189L6.65908 14.7719C6.51498 14.9162 6.32263 14.9956 6.11752 14.9956C5.91242 14.9956 5.72006 14.9162 5.57597 14.7719L5.11716 14.3133C4.81861 14.0144 4.81861 13.5286 5.11716 13.2301L10.3488 7.99851L5.11135 2.76107C4.96725 2.61686 4.88769 2.42462 4.88769 2.21963C4.88769 2.01441 4.96725 1.82217 5.11135 1.67784L5.57016 1.21926C5.71437 1.07505 5.90661 0.995606 6.11172 0.995606C6.31682 0.995606 6.50918 1.07505 6.65327 1.21926L12.8893 7.45502C13.0337 7.59968 13.113 7.79283 13.1126 7.99817C13.113 8.20429 13.0337 8.39733 12.8893 8.54189Z" fill="black"/>
</g>
<defs>
<clipPath id="clip0">
<rect width="14" height="14" fill="white" transform="matrix(1 -8.74228e-08 -8.74228e-08 -1 0 14.9956)"/>
</clipPath>
</defs>
</svg>
