<svg width="660" height="436" viewBox="0 0 660 436" fill="none" xmlns="http://www.w3.org/2000/svg">
<path opacity="0.7" d="M625.998 347.423C669.009 305.187 665.355 259.588 639.628 210.464C620.438 173.822 652.867 131.711 600.334 78.2681C561.864 39.133 471.617 17.8304 393.147 46.0521C353.91 60.163 222.782 -64.2894 103.791 46.0521C35.6052 109.283 28.5196 184.095 41.9226 207.092C66.3402 248.985 -21.107 271.985 31.6468 347.423C197.432 347.423 625.998 347.423 625.998 347.423Z" fill="#CFEEFF"/>
<path opacity="0.7" d="M68.2393 326C27.1856 339.373 30.6733 353.81 55.2299 369.364C73.5461 380.965 42.593 394.298 92.7358 411.219C129.454 423.61 215.595 430.355 290.494 421.419C327.946 416.951 453.107 456.355 566.682 421.419C631.766 401.399 638.529 377.712 625.736 370.431C602.429 357.167 685.897 349.885 635.544 326C477.303 326 68.2393 326 68.2393 326Z" fill="#CFEEFF"/>
<path opacity="0.8" d="M471.746 62.7044C472.617 59.9136 476.015 57.8337 480.074 57.8337C480.819 57.8337 481.543 57.905 482.232 58.035C484.236 54.8857 488.585 52.7031 493.626 52.7031C494.93 52.7031 496.187 52.8498 497.371 53.1203C500.086 49.8159 505.017 47.606 510.652 47.606C517.355 47.606 523.066 50.7342 525.228 55.1122C526.76 54.4853 528.523 54.1246 530.4 54.1246C536.276 54.1246 541.039 57.6261 541.039 61.9454C541.039 62.2012 541.02 62.4549 540.988 62.7044H471.746Z" fill="#F0FBFF"/>
<path opacity="0.8" d="M595.625 221.547C596.542 218.61 600.116 216.421 604.39 216.421C605.175 216.421 605.934 216.494 606.661 216.634C608.77 213.32 613.345 211.022 618.653 211.022C620.026 211.022 621.348 211.175 622.593 211.46C625.449 207.981 630.64 205.656 636.571 205.656C636.854 205.656 637.138 205.662 637.419 205.673C638.067 207.279 638.8 208.877 639.629 210.462C641.574 214.177 643.392 217.872 645.075 221.547H595.625Z" fill="#F0FBFF"/>
<path d="M2.70118 345.758H657.299C658.791 345.758 660 345.5 660 345.181C660 344.862 658.791 344.603 657.299 344.603H2.70118C1.20892 344.603 0 344.862 0 345.181C0 345.5 1.20892 345.758 2.70118 345.758Z" fill="black"/>
<path d="M271.549 336.764L603.723 336.764L603.723 105.725L271.549 105.725L271.549 336.764Z" fill="#ACE2FF"/>
<path d="M271.549 110.463H274.938H295.276H305.445H325.782H335.951H356.288H366.457H386.795H396.963H417.301H427.47H429.892H447.805H457.974H478.311H488.48H508.818H518.986H539.324H549.493H569.83H579.999H600.337H603.726V140.452C601.764 139.802 600.337 137.976 600.337 135.798V137.88C600.337 143.319 595.923 147.73 590.476 147.73H589.857C584.413 147.73 579.997 143.321 579.997 137.88V135.798C579.997 138.517 577.789 140.723 575.067 140.723H574.758C572.036 140.723 569.828 138.517 569.828 135.798V137.88C569.828 143.319 565.414 147.73 559.968 147.73H559.349C553.905 147.73 549.489 143.321 549.489 137.88V135.798C549.489 138.517 547.281 140.723 544.558 140.723H544.25C541.528 140.723 539.32 138.517 539.32 135.798V137.88C539.32 143.319 534.906 147.73 529.46 147.73H528.84C523.396 147.73 518.98 143.321 518.98 137.88V135.798C518.98 138.517 516.772 140.723 514.05 140.723H513.742C511.019 140.723 508.811 138.517 508.811 135.798V137.88C508.811 143.319 504.398 147.73 498.951 147.73H498.332C492.888 147.73 488.472 143.321 488.472 137.88V135.798C488.472 138.517 486.264 140.723 483.542 140.723H483.233C480.511 140.723 478.303 138.517 478.303 135.798V137.88C478.303 143.319 473.889 147.73 468.443 147.73H467.824C462.379 147.73 457.963 143.321 457.963 137.88V135.798C457.963 138.517 455.755 140.723 453.033 140.723H452.725C450.003 140.723 447.795 138.517 447.795 135.798V137.88C447.795 143.319 443.381 147.73 437.934 147.73H437.315C431.871 147.73 427.455 143.321 427.455 137.88V137.077C426.147 139.02 424.172 140.721 422.525 140.721H422.216C419.494 140.721 417.286 138.515 417.286 135.796V137.878C417.286 143.316 412.872 147.728 407.426 147.728H406.807C401.363 147.728 396.947 143.319 396.947 137.878V135.796C396.947 138.515 394.739 140.721 392.017 140.721H391.708C388.986 140.721 386.778 138.515 386.778 135.796V137.878C386.778 143.316 382.364 147.728 376.918 147.728H376.298C370.854 147.728 366.438 143.319 366.438 137.878V135.796C366.438 138.515 364.23 140.721 361.508 140.721H361.2C358.477 140.721 356.269 138.515 356.269 135.796V137.878C356.269 143.316 351.856 147.728 346.409 147.728H345.79C340.346 147.728 335.93 143.319 335.93 137.878V135.796C335.93 138.515 333.722 140.721 331 140.721H330.691C327.969 140.721 325.761 138.515 325.761 135.796V137.878C325.761 143.316 321.347 147.728 315.901 147.728H315.282C309.837 147.728 305.421 143.319 305.421 137.878V135.796C305.421 138.515 303.213 140.721 300.491 140.721H300.183C297.461 140.721 295.253 138.515 295.253 135.796V137.878C295.253 143.316 290.839 147.728 285.392 147.728H284.773C279.327 147.728 274.913 143.319 274.913 137.878V135.796C274.913 137.974 273.488 139.802 271.523 140.45V110.463H271.549Z" fill="#63BAE8"/>
<path d="M501.037 341.219L584.973 341.219L584.973 169.947L501.037 169.947L501.037 341.219Z" fill="#145A9E"/>
<path d="M579.613 335.869L579.613 175.301L506.392 175.301L506.392 335.869L579.613 335.869Z" fill="#9FDEFF"/>
<path d="M561.128 216.811H524.879C524.209 216.811 523.668 216.27 523.668 215.601V206.245C523.668 205.576 524.209 205.035 524.879 205.035H561.128C561.797 205.035 562.339 205.576 562.339 206.245V213.504C562.339 214.171 561.795 216.811 561.128 216.811Z" fill="white"/>
<path d="M527.027 210.919C527.027 205.302 535.37 205.302 535.37 210.919C535.37 216.546 527.027 216.546 527.027 210.919ZM533.242 210.919C533.242 207.994 529.164 207.994 529.164 210.919C529.166 213.867 533.242 213.867 533.242 210.919Z" fill="#ACE2FF"/>
<path d="M536.941 214.97C536.941 212.265 536.941 209.56 536.941 206.845C538.115 206.845 539.324 206.845 540.52 206.845C544.411 206.855 544.411 212.892 540.52 212.892H539.019V214.97C538.325 214.97 537.628 214.97 536.941 214.97ZM540.509 208.701C540.022 208.69 539.5 208.701 539.021 208.701C539.021 209.363 539.021 210.359 539.021 211.022H540.509C541.647 211.022 541.718 208.711 540.509 208.701Z" fill="#ACE2FF"/>
<path d="M550.087 208.7C548.878 208.7 548.274 208.7 547.077 208.7V209.849H549.844C549.844 210.464 549.844 211.08 549.844 211.695H547.077C547.077 212.171 547.077 212.634 547.077 213.122C548.274 213.122 548.97 213.122 550.19 213.122C550.19 213.726 550.19 214.353 550.19 214.968C548.284 214.968 546.89 214.968 545.008 214.968C545.008 212.25 545.008 209.535 545.008 206.843C546.89 206.843 548.179 206.843 550.085 206.843C550.087 207.447 550.087 208.074 550.087 208.7Z" fill="#ACE2FF"/>
<path d="M554.134 210.975V214.97C553.414 214.97 552.692 214.97 551.984 214.97V206.809H552.74L556.854 210.827V206.845C557.563 206.845 558.27 206.845 558.98 206.845V214.982H558.237L554.134 210.975Z" fill="#ACE2FF"/>
<path d="M511.366 280.377L513.973 280.377L513.973 234.472L511.366 234.472L511.366 280.377Z" fill="#145A9E"/>
<path d="M483.573 167.674H286.348V282.991H483.573V167.674Z" fill="white"/>
<path d="M480.5 277.64L480.5 170.844L293.989 170.844L293.989 277.64L480.5 277.64Z" fill="#CFEEFF"/>
<path d="M391.719 133.361H392.028C394.75 133.361 396.958 131.156 396.958 128.436V103.104H386.789V128.436C386.791 131.158 388.997 133.361 391.719 133.361Z" fill="white"/>
<path d="M422.227 133.361H422.536C425.258 133.361 427.466 131.156 427.466 128.436V103.104H417.297V128.436C417.297 131.158 419.505 133.361 422.227 133.361Z" fill="white"/>
<path d="M452.735 133.361H453.043C455.765 133.361 457.973 131.156 457.973 128.436V103.104H447.805V128.436C447.805 131.158 450.013 133.361 452.735 133.361Z" fill="white"/>
<path d="M483.243 133.361H483.551C486.273 133.361 488.481 131.156 488.481 128.436V103.104H478.312V128.436C478.312 131.158 480.52 133.361 483.243 133.361Z" fill="white"/>
<path d="M513.747 133.361H514.055C516.777 133.361 518.985 131.156 518.985 128.436V103.104H508.816V128.436C508.816 131.158 511.022 133.361 513.747 133.361Z" fill="white"/>
<path d="M269.7 133.361H270.008C272.73 133.361 274.938 131.156 274.938 128.436V103.104H264.77V128.436C264.772 131.158 266.977 133.361 269.7 133.361Z" fill="white"/>
<path d="M300.204 133.361H300.512C303.234 133.361 305.442 131.156 305.442 128.436V103.104H295.273V128.436C295.273 131.158 297.481 133.361 300.204 133.361Z" fill="white"/>
<path d="M330.711 133.361H331.02C333.742 133.361 335.95 131.156 335.95 128.436V103.104H325.781V128.436C325.781 131.158 327.989 133.361 330.711 133.361Z" fill="white"/>
<path d="M361.219 133.361H361.528C364.25 133.361 366.458 131.156 366.458 128.436V103.104H356.289V128.436C356.289 131.158 358.497 133.361 361.219 133.361Z" fill="white"/>
<path d="M544.254 133.361H544.563C547.285 133.361 549.493 131.156 549.493 128.436V103.104H539.324V128.436C539.324 131.158 541.532 133.361 544.254 133.361Z" fill="white"/>
<path d="M574.758 133.361H575.067C577.789 133.361 579.997 131.156 579.997 128.436V103.104H569.828V128.436C569.828 131.158 572.036 133.361 574.758 133.361Z" fill="white"/>
<path d="M605.262 133.361H605.571C608.293 133.361 610.501 131.156 610.501 128.436V103.104H600.332V128.436C600.332 131.158 602.54 133.361 605.262 133.361Z" fill="white"/>
<path d="M406.819 140.369H407.438C412.883 140.369 417.298 135.959 417.298 130.518V103.104H396.961V130.52C396.961 135.959 401.375 140.369 406.819 140.369Z" fill="#145A9E"/>
<path d="M437.323 140.369H437.942C443.387 140.369 447.802 135.959 447.802 130.518V103.104H427.465V130.52C427.463 135.959 431.879 140.369 437.323 140.369Z" fill="#145A9E"/>
<path d="M467.831 140.369H468.45C473.894 140.369 478.31 135.959 478.31 130.518V103.104H457.973V130.52C457.971 135.959 462.384 140.369 467.831 140.369Z" fill="#145A9E"/>
<path d="M498.339 140.369H498.958C504.402 140.369 508.818 135.959 508.818 130.518V103.104H488.48V130.52C488.478 135.959 492.892 140.369 498.339 140.369Z" fill="#145A9E"/>
<path d="M528.843 140.369H529.462C534.906 140.369 539.322 135.959 539.322 130.518V103.104H518.984V130.52C518.984 135.959 523.398 140.369 528.843 140.369Z" fill="#145A9E"/>
<path d="M284.796 140.369H285.415C290.859 140.369 295.275 135.959 295.275 130.518V103.104H274.938V130.52C274.938 135.959 279.351 140.369 284.796 140.369Z" fill="#145A9E"/>
<path d="M315.3 140.369H315.919C321.363 140.369 325.779 135.959 325.779 130.518V103.104H305.441V130.52C305.439 135.959 309.855 140.369 315.3 140.369Z" fill="#145A9E"/>
<path d="M345.807 140.369H346.427C351.871 140.369 356.287 135.959 356.287 130.518V103.104H335.949V130.52C335.947 135.959 340.361 140.369 345.807 140.369Z" fill="#145A9E"/>
<path d="M376.311 140.369H376.93C382.375 140.369 386.791 135.959 386.791 130.518V103.104H366.453V130.52C366.453 135.959 370.867 140.369 376.311 140.369Z" fill="#145A9E"/>
<path d="M559.35 140.369H559.969C565.414 140.369 569.83 135.959 569.83 130.518V103.104H549.492V130.52C549.49 135.959 553.906 140.369 559.35 140.369Z" fill="#145A9E"/>
<path d="M589.854 140.369H590.473C595.918 140.369 600.334 135.959 600.334 130.518V103.104H579.996V130.52C579.994 135.959 584.408 140.369 589.854 140.369Z" fill="#145A9E"/>
<path d="M262.626 345.754H612.826V336.764H262.445L262.626 345.754Z" fill="#145A9E"/>
<path opacity="0.2" d="M290.984 273.57L391.242 273.57L391.242 241.528L290.984 241.528L290.984 273.57Z" fill="#3CB4C5"/>
<path opacity="0.2" d="M290.984 203.697L391.242 203.697L391.242 171.655L290.984 171.655L290.984 203.697Z" fill="#3CB4C5"/>
<path opacity="0.2" d="M290.984 238.57L391.242 238.57L391.242 206.528L290.984 206.528L290.984 238.57Z" fill="#3CB4C5"/>
<g opacity="0.5">
<path opacity="0.5" d="M317.399 237.824L341.109 237.824L341.109 225.789L317.399 225.789L317.399 237.824Z" fill="#96D9C9"/>
<path opacity="0.5" d="M321.588 225.787C325.019 228.741 331.097 233.974 335.564 237.822H317.398V225.787H321.588Z" fill="#50BFA5"/>
<path opacity="0.5" d="M327.747 228.026L339.641 228.026L339.641 227.332L327.747 227.332L327.747 228.026Z" fill="white"/>
<path opacity="0.5" d="M331.014 230.069L339.645 230.069L339.645 229.375L331.014 229.375L331.014 230.069Z" fill="white"/>
</g>
<g opacity="0.5">
<path opacity="0.5" d="M317.399 225.975L341.109 225.975L341.109 213.939L317.399 213.939L317.399 225.975Z" fill="#96D9C9"/>
<path opacity="0.5" d="M321.588 213.938C325.019 216.892 331.097 222.126 335.564 225.973H317.398V213.938H321.588Z" fill="#50BFA5"/>
<path opacity="0.5" d="M327.747 216.176L339.641 216.176L339.641 215.482L327.747 215.482L327.747 216.176Z" fill="white"/>
<path opacity="0.5" d="M331.014 218.221L339.645 218.221L339.645 217.527L331.014 217.527L331.014 218.221Z" fill="white"/>
</g>
<g opacity="0.5">
<path opacity="0.5" d="M305.94 237.823L312.91 237.823L312.91 219.076L305.94 219.076L305.94 237.823Z" fill="#8CD2F7"/>
<path opacity="0.5" d="M306.568 221.565L312.281 221.565L312.281 221.068L306.568 221.068L306.568 221.565Z" fill="#EAFCFC"/>
<path opacity="0.5" d="M306.568 223.39L312.281 223.39L312.281 222.893L306.568 222.893L306.568 223.39Z" fill="#EAFCFC"/>
<g opacity="0.5">
<path opacity="0.5" d="M312.908 237.402V237.824H305.938V232.028L312.908 237.402Z" fill="#50BFA5"/>
<path opacity="0.5" d="M305.938 228.37V225.162L312.908 231.716V234.507C311.426 233.215 308.42 230.563 305.938 228.37Z" fill="#50BFA5"/>
</g>
</g>
<g opacity="0.5">
<path opacity="0.5" d="M296.221 237.823L303.191 237.823L303.191 219.076L296.221 219.076L296.221 237.823Z" fill="#8CD2F7"/>
<path opacity="0.5" d="M296.853 221.565L302.566 221.565L302.566 221.068L296.853 221.068L296.853 221.565Z" fill="#EAFCFC"/>
<path opacity="0.5" d="M296.853 223.39L302.566 223.39L302.566 222.893L296.853 222.893L296.853 223.39Z" fill="#EAFCFC"/>
<g opacity="0.5">
<path opacity="0.5" d="M303.193 237.402V237.824H296.223V232.028L303.193 237.402Z" fill="#50BFA5"/>
<path opacity="0.5" d="M296.223 228.37V225.162L303.193 231.716V234.507C301.711 233.215 298.706 230.563 296.223 228.37Z" fill="#50BFA5"/>
</g>
</g>
<g opacity="0.5">
<path opacity="0.5" d="M305.94 202.836L312.91 202.836L312.91 184.089L305.94 184.089L305.94 202.836Z" fill="#96D9C9"/>
<path opacity="0.5" d="M306.568 186.578L312.281 186.578L312.281 186.081L306.568 186.081L306.568 186.578Z" fill="#EAFCFC"/>
<path opacity="0.5" d="M306.568 188.401L312.281 188.401L312.281 187.904L306.568 187.904L306.568 188.401Z" fill="#EAFCFC"/>
<g opacity="0.5">
<path opacity="0.5" d="M312.908 202.417V202.836H305.938V197.041L312.908 202.417Z" fill="#50BFA5"/>
<path opacity="0.5" d="M305.938 193.382V190.174L312.908 196.728V199.519C311.426 198.227 308.42 195.577 305.938 193.382Z" fill="#50BFA5"/>
</g>
</g>
<g opacity="0.5">
<path opacity="0.5" d="M374.807 202.836L381.777 202.836L381.777 184.089L374.807 184.089L374.807 202.836Z" fill="#96D9C9"/>
<path opacity="0.5" d="M375.433 186.578L381.148 186.578L381.148 186.081L375.433 186.081L375.433 186.578Z" fill="#EAFCFC"/>
<path opacity="0.5" d="M375.433 188.401L381.148 188.401L381.148 187.904L375.433 187.904L375.433 188.401Z" fill="#EAFCFC"/>
<g opacity="0.5">
<path opacity="0.5" d="M381.775 202.417V202.836H374.805V197.041L381.775 202.417Z" fill="#50BFA5"/>
<path opacity="0.5" d="M374.805 193.382V190.174L381.775 196.728V199.519C380.293 198.228 377.288 195.577 374.805 193.382Z" fill="#50BFA5"/>
</g>
</g>
<g opacity="0.5">
<path opacity="0.5" d="M296.221 202.836L303.191 202.836L303.191 184.089L296.221 184.089L296.221 202.836Z" fill="#96D9C9"/>
<path opacity="0.5" d="M296.853 186.578L302.566 186.578L302.566 186.081L296.853 186.081L296.853 186.578Z" fill="#EAFCFC"/>
<path opacity="0.5" d="M296.853 188.401L302.566 188.401L302.566 187.904L296.853 187.904L296.853 188.401Z" fill="#EAFCFC"/>
<g opacity="0.5">
<path opacity="0.5" d="M303.193 202.417V202.836H296.223V197.041L303.193 202.417Z" fill="#50BFA5"/>
<path opacity="0.5" d="M296.223 193.382V190.174L303.193 196.728V199.519C301.711 198.228 298.706 195.577 296.223 193.382Z" fill="#50BFA5"/>
</g>
</g>
<g opacity="0.5">
<path opacity="0.5" d="M352.987 237.823L359.957 237.823L359.957 219.076L352.987 219.076L352.987 237.823Z" fill="#D7D996"/>
<path opacity="0.5" d="M353.617 221.565L359.332 221.565L359.332 221.068L353.617 221.068L353.617 221.565Z" fill="#EAFCFC"/>
<path opacity="0.5" d="M353.617 223.39L359.332 223.39L359.332 222.893L353.617 222.893L353.617 223.39Z" fill="#EAFCFC"/>
<g opacity="0.5">
<path opacity="0.5" d="M359.958 237.402V237.824H352.988V232.028L359.958 237.402Z" fill="#50BFA5"/>
<path opacity="0.5" d="M352.988 228.37V225.162L359.958 231.716V234.507C358.477 233.215 355.471 230.563 352.988 228.37Z" fill="#50BFA5"/>
</g>
</g>
<g opacity="0.5">
<path opacity="0.5" d="M343.272 237.823L350.242 237.823L350.242 219.076L343.272 219.076L343.272 237.823Z" fill="#216AB1"/>
<path opacity="0.5" d="M343.902 221.565L349.617 221.565L349.617 221.068L343.902 221.068L343.902 221.565Z" fill="#EAFCFC"/>
<path opacity="0.5" d="M343.902 223.39L349.617 223.39L349.617 222.893L343.902 222.893L343.902 223.39Z" fill="#EAFCFC"/>
<g opacity="0.5">
<path opacity="0.5" d="M350.244 237.402V237.824H343.273V232.028L350.244 237.402Z" fill="#50BFA5"/>
<path opacity="0.5" d="M343.273 228.37V225.162L350.244 231.716V234.507C348.762 233.215 345.756 230.563 343.273 228.37Z" fill="#50BFA5"/>
</g>
</g>
<g opacity="0.5">
<path opacity="0.5" d="M374.424 237.823L381.395 237.823L381.395 219.076L374.424 219.076L374.424 237.823Z" fill="#216AB1"/>
<path opacity="0.5" d="M375.056 221.565L380.77 221.565L380.77 221.068L375.056 221.068L375.056 221.565Z" fill="#EAFCFC"/>
<path opacity="0.5" d="M375.056 223.39L380.77 223.39L380.77 222.893L375.056 222.893L375.056 223.39Z" fill="#EAFCFC"/>
<g opacity="0.5">
<path opacity="0.5" d="M381.396 237.402V237.824H374.426V232.028L381.396 237.402Z" fill="#50BFA5"/>
<path opacity="0.5" d="M374.426 228.37V225.162L381.396 231.716V234.507C379.914 233.215 376.909 230.563 374.426 228.37Z" fill="#50BFA5"/>
</g>
</g>
<g opacity="0.5">
<path opacity="0.5" d="M364.713 237.823L371.684 237.823L371.684 219.076L364.713 219.076L364.713 237.823Z" fill="#96D9C9"/>
<path opacity="0.5" d="M365.34 221.565L371.055 221.565L371.055 221.068L365.34 221.068L365.34 221.565Z" fill="#EAFCFC"/>
<path opacity="0.5" d="M365.34 223.39L371.055 223.39L371.055 222.893L365.34 222.893L365.34 223.39Z" fill="#EAFCFC"/>
<g opacity="0.5">
<path opacity="0.5" d="M371.683 237.402V237.824H364.711V232.028L371.683 237.402Z" fill="#50BFA5"/>
<path opacity="0.5" d="M364.711 228.37V225.162L371.681 231.716V234.507C370.201 233.215 367.196 230.563 364.711 228.37Z" fill="#50BFA5"/>
</g>
</g>
<g opacity="0.5">
<path opacity="0.5" d="M348.945 202.836L368.336 202.836L368.336 183.337L348.945 183.337L348.945 202.836Z" fill="#D99696"/>
<path opacity="0.5" d="M354.034 189.718L363.391 189.718L363.391 186.414L354.034 186.414L354.034 189.718Z" fill="white"/>
</g>
<g opacity="0.5">
<path opacity="0.5" d="M318.991 202.836L338.449 202.836L338.449 183.337L318.991 183.337L318.991 202.836Z" fill="#D7D996"/>
<path opacity="0.5" d="M321.734 189.718L335.918 189.718L335.918 186.414L321.734 186.414L321.734 189.718Z" fill="white"/>
<path opacity="0.5" d="M321.734 196.154L335.918 196.154L335.918 195.255L321.734 195.255L321.734 196.154Z" fill="white"/>
</g>
<g opacity="0.5">
<path opacity="0.5" d="M368.331 272.709L389.082 272.709L389.082 259.363L368.331 259.363L368.331 272.709Z" fill="#96D9C9"/>
<path opacity="0.5" d="M370.331 263.73L386.242 263.73L386.242 261.468L370.331 261.468L370.331 263.73Z" fill="white"/>
<path opacity="0.5" d="M370.331 268.136L386.242 268.136L386.242 267.522L370.331 267.522L370.331 268.136Z" fill="white"/>
<g opacity="0.5">
<path opacity="0.5" d="M374.201 269.611L386.246 269.611L386.246 268.996L374.201 268.996L374.201 269.611Z" fill="white"/>
</g>
<g opacity="0.5">
<path opacity="0.5" d="M371.198 271.084L386.242 271.084L386.242 270.47L371.198 270.47L371.198 271.084Z" fill="white"/>
</g>
</g>
<g opacity="0.5">
<path opacity="0.5" d="M368.331 259.55L389.082 259.55L389.082 246.205L368.331 246.205L368.331 259.55Z" fill="#96D9C9"/>
<path opacity="0.5" d="M370.331 250.57L386.242 250.57L386.242 248.307L370.331 248.307L370.331 250.57Z" fill="white"/>
<path opacity="0.5" d="M370.331 254.976L386.242 254.976L386.242 254.362L370.331 254.362L370.331 254.976Z" fill="white"/>
<g opacity="0.5">
<path opacity="0.5" d="M374.201 256.45L386.246 256.45L386.246 255.835L374.201 255.835L374.201 256.45Z" fill="white"/>
</g>
<g opacity="0.5">
<path opacity="0.5" d="M371.198 257.924L386.242 257.924L386.242 257.31L371.198 257.31L371.198 257.924Z" fill="white"/>
</g>
</g>
<path d="M290.145 170.907H392.076V204.442H290.145V170.907ZM390.581 172.4H291.639V202.949H390.581V172.4Z" fill="#EAFCFC"/>
<path opacity="0.4" d="M391.328 203.696L355.982 171.654C355.982 171.654 331.738 171.654 332.07 171.654C332.401 171.654 367.605 203.696 367.605 203.696H391.328Z" fill="#EAFCFC"/>
<path opacity="0.4" d="M350.153 203.696L314.806 171.654C314.806 171.654 300.69 171.654 301.021 171.654C301.353 171.654 334.896 203.696 334.896 203.696H350.153Z" fill="#EAFCFC"/>
<path d="M290.145 205.782H392.076V239.317H290.145V205.782ZM390.581 207.275H291.639V237.824H390.581V207.275Z" fill="#EAFCFC"/>
<path opacity="0.4" d="M391.328 238.57L355.982 206.528C355.982 206.528 331.738 206.528 332.07 206.528C332.401 206.528 367.605 238.57 367.605 238.57H391.328Z" fill="#EAFCFC"/>
<path opacity="0.4" d="M350.153 238.57L314.806 206.528C314.806 206.528 300.69 206.528 301.021 206.528C301.353 206.528 334.896 238.57 334.896 238.57H350.153Z" fill="#EAFCFC"/>
<path d="M290.145 240.541H392.076V274.076H290.145V240.541ZM390.581 242.034H291.639V272.583H390.581V242.034Z" fill="#EAFCFC"/>
<path opacity="0.4" d="M391.328 273.329L355.982 241.287C355.982 241.287 331.738 241.287 332.07 241.287C332.401 241.287 367.605 273.329 367.605 273.329H391.328Z" fill="#EAFCFC"/>
<path opacity="0.4" d="M350.153 273.329L314.806 241.287C314.806 241.287 300.69 241.287 301.021 241.287C301.353 241.287 334.896 273.329 334.896 273.329H350.153Z" fill="#EAFCFC"/>
<path opacity="0.2" d="M391.386 273.57L491.645 273.57L491.645 241.528L391.386 241.528L391.386 273.57Z" fill="#3CB4C5"/>
<path opacity="0.2" d="M391.386 203.697L491.645 203.697L491.645 171.655L391.386 171.655L391.386 203.697Z" fill="#3CB4C5"/>
<path opacity="0.2" d="M391.386 238.57L491.645 238.57L491.645 206.528L391.386 206.528L391.386 238.57Z" fill="#3CB4C5"/>
<g opacity="0.5">
<path opacity="0.5" d="M417.805 237.824L441.516 237.824L441.516 225.789L417.805 225.789L417.805 237.824Z" fill="#96D9C9"/>
<path opacity="0.5" d="M421.994 225.787C425.425 228.741 431.504 233.974 435.97 237.822H417.805V225.787H421.994Z" fill="#50BFA5"/>
<path opacity="0.5" d="M428.153 228.026L440.047 228.026L440.047 227.332L428.153 227.332L428.153 228.026Z" fill="white"/>
<path opacity="0.5" d="M431.421 230.069L440.051 230.069L440.051 229.375L431.421 229.375L431.421 230.069Z" fill="white"/>
</g>
<g opacity="0.5">
<path opacity="0.5" d="M417.805 225.975L441.516 225.975L441.516 213.939L417.805 213.939L417.805 225.975Z" fill="#96D9C9"/>
<path opacity="0.5" d="M421.994 213.938C425.425 216.892 431.504 222.126 435.97 225.973H417.805V213.938H421.994Z" fill="#50BFA5"/>
<path opacity="0.5" d="M428.153 216.176L440.047 216.176L440.047 215.482L428.153 215.482L428.153 216.176Z" fill="white"/>
<path opacity="0.5" d="M431.421 218.221L440.051 218.221L440.051 217.527L431.421 217.527L431.421 218.221Z" fill="white"/>
</g>
<g opacity="0.5">
<path opacity="0.5" d="M406.342 237.823L413.312 237.823L413.313 219.076L406.342 219.076L406.342 237.823Z" fill="#96D9C9"/>
<path opacity="0.5" d="M406.972 221.565L412.688 221.565L412.688 221.068L406.972 221.068L406.972 221.565Z" fill="#EAFCFC"/>
<path opacity="0.5" d="M406.972 223.39L412.688 223.39L412.688 222.893L406.972 222.893L406.972 223.39Z" fill="#EAFCFC"/>
<g opacity="0.5">
<path opacity="0.5" d="M413.318 237.402V237.824H406.348V232.028L413.318 237.402Z" fill="#50BFA5"/>
<path opacity="0.5" d="M406.348 228.37V225.162L413.318 231.716V234.507C411.836 233.215 408.831 230.563 406.348 228.37Z" fill="#50BFA5"/>
</g>
</g>
<g opacity="0.5">
<path opacity="0.5" d="M396.632 237.823L403.602 237.823L403.602 219.076L396.632 219.076L396.632 237.823Z" fill="#216AB1"/>
<path opacity="0.5" d="M397.26 221.565L402.973 221.565L402.973 221.068L397.26 221.068L397.26 221.565Z" fill="#EAFCFC"/>
<path opacity="0.5" d="M397.26 223.39L402.973 223.39L402.973 222.893L397.26 222.893L397.26 223.39Z" fill="#EAFCFC"/>
<g opacity="0.5">
<path opacity="0.5" d="M403.601 237.402V237.824H396.629V232.028L403.601 237.402Z" fill="#50BFA5"/>
<path opacity="0.5" d="M396.629 228.37V225.162L403.599 231.716V234.507C402.119 233.215 399.114 230.563 396.629 228.37Z" fill="#50BFA5"/>
</g>
</g>
<g opacity="0.5">
<path opacity="0.5" d="M467.697 202.836L486.438 202.836L486.438 183.337L467.697 183.337L467.697 202.836Z" fill="#D9BF96"/>
<path opacity="0.5" d="M469.718 189.718L483.902 189.718L483.902 186.414L469.718 186.414L469.718 189.718Z" fill="white"/>
<path opacity="0.5" d="M469.718 196.154L483.902 196.154L483.902 195.255L469.718 195.255L469.718 196.154Z" fill="white"/>
<g opacity="0.5">
<path opacity="0.5" d="M473.169 198.308L483.906 198.308L483.906 197.409L473.169 197.409L473.169 198.308Z" fill="white"/>
</g>
<g opacity="0.5">
<path opacity="0.5" d="M470.493 200.46L483.902 200.46L483.902 199.56L470.493 199.56L470.493 200.46Z" fill="white"/>
</g>
</g>
<g opacity="0.5">
<path opacity="0.5" d="M443.823 202.836L463.113 202.836L463.113 183.337L443.823 183.337L443.823 202.836Z" fill="#7EC9B7"/>
<path opacity="0.5" d="M446.398 189.718L460.582 189.718L460.582 186.414L446.398 186.414L446.398 189.718Z" fill="white"/>
</g>
<g opacity="0.5">
<path opacity="0.5" d="M467.697 237.823L486.438 237.823L486.438 214.82L467.697 214.82L467.697 237.823Z" fill="#216AB1"/>
<path opacity="0.5" d="M469.718 222.348L483.902 222.348L483.902 218.45L469.718 218.45L469.718 222.348Z" fill="white"/>
<path opacity="0.5" d="M469.718 229.939L483.902 229.939L483.902 228.878L469.718 228.878L469.718 229.939Z" fill="white"/>
<g opacity="0.5">
<path opacity="0.5" d="M473.169 232.482L483.906 232.482L483.906 231.421L473.169 231.421L473.169 232.482Z" fill="white"/>
</g>
<g opacity="0.5">
<path opacity="0.5" d="M470.493 235.022L483.902 235.022L483.902 233.961L470.493 233.961L470.493 235.022Z" fill="white"/>
</g>
</g>
<g opacity="0.5">
<path opacity="0.5" d="M443.823 237.823L463.113 237.823L463.113 214.82L443.823 214.82L443.823 237.823Z" fill="#D7D996"/>
<path opacity="0.5" d="M446.398 222.348L460.582 222.348L460.582 218.45L446.398 218.45L446.398 222.348Z" fill="white"/>
<g opacity="0.5">
<path opacity="0.5" d="M449.848 232.482L460.586 232.482L460.586 231.421L449.848 231.421L449.848 232.482Z" fill="white"/>
</g>
<g opacity="0.5">
<path opacity="0.5" d="M447.173 235.022L460.582 235.022L460.582 233.961L447.173 233.961L447.173 235.022Z" fill="white"/>
</g>
</g>
<g opacity="0.5">
<path opacity="0.5" d="M440.205 272.708L458.945 272.708L458.945 249.705L440.205 249.705L440.205 272.708Z" fill="#D99696"/>
</g>
<path d="M449.573 258.307C452.703 258.307 455.24 257.274 455.24 256C455.24 254.726 452.703 253.694 449.573 253.694C446.443 253.694 443.906 254.726 443.906 256C443.906 257.274 446.443 258.307 449.573 258.307Z" fill="#BDA6A6"/>
<g opacity="0.5">
<path opacity="0.5" d="M417.081 272.708L436.371 272.708L436.371 249.705L417.081 249.705L417.081 272.708Z" fill="#7EC9B7"/>
<path opacity="0.5" d="M419.652 257.235L433.836 257.235L433.836 253.337L419.652 253.337L419.652 257.235Z" fill="white"/>
<path opacity="0.5" d="M419.652 259.633L433.836 259.633L433.836 258.618L419.652 258.618L419.652 259.633Z" fill="white"/>
<g opacity="0.5">
<path opacity="0.5" d="M420.431 269.909L433.84 269.909L433.84 268.848L420.431 268.848L420.431 269.909Z" fill="white"/>
</g>
</g>
<g opacity="0.5">
<path opacity="0.5" d="M393.952 272.708L413.242 272.708L413.242 249.705L393.952 249.705L393.952 272.708Z" fill="#D7D996"/>
<path opacity="0.5" d="M396.523 257.235L410.707 257.235L410.707 253.337L396.523 253.337L396.523 257.235Z" fill="white"/>
<path opacity="0.5" d="M396.523 264.827L410.707 264.827L410.707 263.766L396.523 263.766L396.523 264.827Z" fill="white"/>
<g opacity="0.5">
<path opacity="0.5" d="M399.973 267.367L410.711 267.367L410.711 266.306L399.973 266.306L399.973 267.367Z" fill="white"/>
</g>
<g opacity="0.5">
<path opacity="0.5" d="M397.302 269.909L410.711 269.909L410.711 268.848L397.302 268.848L397.302 269.909Z" fill="white"/>
</g>
</g>
<g opacity="0.5">
<path opacity="0.5" d="M343.76 272.708L362.5 272.708L362.5 249.705L343.76 249.705L343.76 272.708Z" fill="#D7D996"/>
</g>
<g opacity="0.5">
<path opacity="0.5" d="M320.636 272.708L339.926 272.708L339.926 249.705L320.636 249.705L320.636 272.708Z" fill="#7EC9B7"/>
<path opacity="0.5" d="M323.211 257.235L337.395 257.235L337.395 253.337L323.211 253.337L323.211 257.235Z" fill="white"/>
</g>
<g opacity="0.5">
<path opacity="0.5" d="M297.507 272.708L316.797 272.708L316.797 249.705L297.507 249.705L297.507 272.708Z" fill="#D7D996"/>
<path opacity="0.5" d="M300.082 257.235L314.266 257.235L314.266 253.337L300.082 253.337L300.082 257.235Z" fill="white"/>
<path opacity="0.5" d="M300.082 264.827L314.266 264.827L314.266 263.766L300.082 263.766L300.082 264.827Z" fill="white"/>
<g opacity="0.5">
<path opacity="0.5" d="M303.532 267.367L314.27 267.367L314.27 266.306L303.532 266.306L303.532 267.367Z" fill="white"/>
</g>
<g opacity="0.5">
<path opacity="0.5" d="M300.856 269.909L314.266 269.909L314.266 268.848L300.856 268.848L300.856 269.909Z" fill="white"/>
</g>
</g>
<g opacity="0.5">
<path opacity="0.5" d="M420.014 202.836L439.305 202.836L439.305 183.337L420.014 183.337L420.014 202.836Z" fill="#D7D996"/>
<path opacity="0.5" d="M422.59 188.88L436.773 188.88L436.773 187.253L422.59 187.253L422.59 188.88Z" fill="white"/>
<g opacity="0.5">
<path opacity="0.5" d="M423.364 200.46L436.773 200.46L436.773 199.56L423.364 199.56L423.364 200.46Z" fill="white"/>
</g>
</g>
<g opacity="0.5">
<path opacity="0.5" d="M397.323 202.836L416.613 202.836L416.613 183.337L397.323 183.337L397.323 202.836Z" fill="#7EC9B7"/>
<path opacity="0.5" d="M401.651 188.88L412.336 188.88L412.336 186.414L401.651 186.414L401.651 188.88Z" fill="white"/>
</g>
<g opacity="0.5">
<path opacity="0.5" d="M462.669 272.709L489.492 272.709L489.492 259.363L462.669 259.363L462.669 272.709Z" fill="#96D9C9"/>
<path opacity="0.5" d="M470.737 263.73L486.648 263.73L486.648 261.468L470.737 261.468L470.737 263.73Z" fill="white"/>
<path opacity="0.5" d="M470.737 268.136L486.648 268.136L486.648 267.522L470.737 267.522L470.737 268.136Z" fill="white"/>
<g opacity="0.5">
<path opacity="0.5" d="M474.603 269.61L486.648 269.61L486.648 268.996L474.603 268.996L474.603 269.61Z" fill="white"/>
</g>
<g opacity="0.5">
<path opacity="0.5" d="M471.6 271.084L486.645 271.084L486.645 270.47L471.6 270.47L471.6 271.084Z" fill="white"/>
</g>
</g>
<g opacity="0.5">
<path opacity="0.5" d="M462.669 259.55L489.492 259.55L489.492 246.205L462.669 246.205L462.669 259.55Z" fill="#96D9C9"/>
<path opacity="0.5" d="M470.737 250.57L486.648 250.57L486.648 248.307L470.737 248.307L470.737 250.57Z" fill="white"/>
<path opacity="0.5" d="M470.737 254.976L486.648 254.976L486.648 254.362L470.737 254.362L470.737 254.976Z" fill="white"/>
<g opacity="0.5">
<path opacity="0.5" d="M474.603 256.45L486.648 256.45L486.648 255.835L474.603 255.835L474.603 256.45Z" fill="white"/>
</g>
<g opacity="0.5">
<path opacity="0.5" d="M471.6 257.924L486.645 257.924L486.645 257.31L471.6 257.31L471.6 257.924Z" fill="white"/>
</g>
</g>
<path d="M390.555 170.907H492.486V204.442H390.555V170.907ZM490.992 172.4H392.049V202.949H490.992V172.4Z" fill="#EAFCFC"/>
<path opacity="0.4" d="M491.738 203.696L456.392 171.654C456.392 171.654 432.148 171.654 432.48 171.654C432.812 171.654 468.015 203.696 468.015 203.696H491.738Z" fill="#EAFCFC"/>
<path opacity="0.4" d="M450.563 203.696L415.217 171.654C415.217 171.654 401.1 171.654 401.432 171.654C401.763 171.654 435.306 203.696 435.306 203.696H450.563Z" fill="#EAFCFC"/>
<path d="M390.555 205.782H492.486V239.317H390.555V205.782ZM490.992 207.275H392.049V237.824H490.992V207.275Z" fill="#EAFCFC"/>
<path opacity="0.4" d="M491.738 238.57L456.392 206.528C456.392 206.528 432.148 206.528 432.48 206.528C432.812 206.528 468.015 238.57 468.015 238.57H491.738Z" fill="#EAFCFC"/>
<path opacity="0.4" d="M450.563 238.57L415.217 206.528C415.217 206.528 401.1 206.528 401.432 206.528C401.763 206.528 435.306 238.57 435.306 238.57H450.563Z" fill="#EAFCFC"/>
<path d="M390.555 240.541H492.486V274.076H390.555V240.541ZM490.992 242.034H392.049V272.583H490.992V242.034Z" fill="#EAFCFC"/>
<path opacity="0.4" d="M491.738 273.329L456.392 241.287C456.392 241.287 432.148 241.287 432.48 241.287C432.812 241.287 468.015 273.329 468.015 273.329H491.738Z" fill="#EAFCFC"/>
<path opacity="0.4" d="M450.563 273.329L415.217 241.287C415.217 241.287 401.1 241.287 401.432 241.287C401.763 241.287 435.306 273.329 435.306 273.329H450.563Z" fill="#EAFCFC"/>
<path d="M280.597 289.413L489.324 289.413L489.324 282.087L280.597 282.087L280.597 289.413Z" fill="#63BAE8"/>
<path d="M301.897 217.446C301.739 213.642 302.297 209.887 303.993 206.346C305.452 203.299 309.064 201.57 312.357 201.565C322.813 201.551 324.142 215.412 330.799 220.759C332.833 222.392 335.106 223.724 337.031 225.485C344.137 231.991 340.937 244.032 334.411 249.735C329.884 253.694 322.767 255.942 317.186 252.847C314.273 251.232 312.061 248.546 310.487 245.607C308.252 241.432 306.81 236.616 305.219 232.167C303.525 227.433 302.106 222.501 301.897 217.446Z" fill="#A34B3D"/>
<path d="M339.264 202.645C338.781 202.295 337.56 204.784 336.972 204.759C336.384 204.734 337.377 201.276 336.936 201.01C336.122 200.517 335.616 204.731 335.228 204.528C334.84 204.325 335.146 199.955 334.306 200.186C333.465 200.416 334.462 204.75 333.948 204.719C333.433 204.687 333.385 200.605 332.313 200.356C331.74 200.224 333.28 207.321 332.762 207.935C332.243 208.55 330.037 206.291 329.477 206.736C328.917 207.18 333.796 210.497 333.872 210.942C333.948 211.386 334.957 220.916 334.827 224.067C333.74 224.128 327.584 225.346 326.562 225.382C327.238 227.374 325.575 229.435 326.132 231.448C329.58 231.144 339.841 230.362 340.485 229.622C342.446 227.37 338.853 213.456 338.026 211.015C337.197 208.573 338.009 207.56 337.965 206.065C337.916 204.572 339.747 202.995 339.264 202.645Z" fill="#F7A491"/>
<path d="M323.273 344.96C322.404 344.32 321.701 343.897 318.924 342.55C318.743 342.462 318.084 342.043 317.845 341.898C317.243 341.529 316.636 340.949 316.116 340.368C315.618 339.812 315.381 338.034 315.27 336.617C315.555 333.451 320.148 282.675 321.117 277.179C322.116 271.505 320.595 262.85 320.595 262.85L317.05 261.515L310.321 284.818L310.852 302.556C310.852 302.556 309.269 307.667 309.07 310.724C308.871 313.779 311.358 338.579 311.358 338.579C311.358 339.466 311.322 340.267 311.223 340.768C311.041 341.695 310.023 343.605 310.491 344.479C310.957 345.352 311.49 345.57 311.49 345.57L323.583 345.765C324.24 345.775 323.804 345.352 323.273 344.96Z" fill="#F48C7F"/>
<path d="M304.92 261.03C304.92 261.03 300.72 267.358 299.721 272.596C298.722 277.833 300.455 293.93 298.531 300.792C297.49 304.508 293.544 310.244 292.944 315.046C292.344 319.847 290.257 333.704 290.257 333.704C289.943 335.16 289.447 336.959 288.805 337.795C288.413 338.307 287.695 338.955 287.222 339.879C286.488 341.32 286.895 343.465 287.437 344.645C287.714 345.251 287.418 345.249 288.049 345.444C289.922 346.023 291.915 345.048 292.713 343.253C293.158 342.249 293.548 340.911 293.628 339.225C293.712 337.437 293.991 336.017 294.289 334.967L307.711 302.073L317.429 273.686L319.918 259.066L304.92 261.03Z" fill="#F79C8D"/>
<path d="M293.074 342.311C290.169 342.842 288.236 341.139 287.231 339.867C286.492 341.309 286.133 343.463 286.675 344.649C287.153 345.693 288.551 345.664 289.651 345.704C290.814 345.748 291.716 345.1 292.293 344.085C292.562 343.609 292.841 343.02 293.074 342.311Z" fill="#4EBBF4"/>
<path d="M317.845 341.899C314.647 342.72 312.283 342.163 310.961 341.628C310.619 342.597 310.168 343.811 310.407 344.509C310.701 345.366 311.118 345.559 311.488 345.57C314.409 345.647 322.188 345.752 324.417 345.78C324.727 345.784 324.899 345.419 324.7 345.18C324.146 344.521 318.084 342.043 317.845 341.899Z" fill="#4EBBF4"/>
<path d="M307.639 301.455C307.891 301.472 308.143 301.489 308.397 301.503C308.409 301.503 308.422 301.505 308.437 301.505C308.686 301.52 308.936 301.535 309.188 301.547C309.203 301.547 309.219 301.549 309.234 301.549C309.486 301.562 309.738 301.575 309.99 301.585C310.002 301.585 310.015 301.587 310.027 301.587C310.284 301.598 310.542 301.608 310.8 301.616C313.667 301.711 317.208 301.673 319.478 301.287C320.637 289.705 321.067 279.133 321.497 276.793C322.536 271.12 320.591 262.163 320.591 262.163L320.748 260.036L320.251 258.68L304.654 260.645C304.654 260.645 300.287 266.972 299.248 272.21C298.209 277.448 300.012 293.544 298.012 300.407C298.01 300.411 302.461 301.103 307.639 301.455Z" fill="#13375B"/>
<path d="M328.884 224.516C328.884 224.516 317.206 223.296 313.762 224.447C310.316 225.598 307.896 230.517 309.734 233.27C311.575 236.021 328.145 232.419 328.145 232.419L328.884 224.516Z" fill="#EAB054"/>
<path d="M308.286 223.432C308.286 223.432 302.51 223.076 300.225 225.493C297.939 227.911 305.293 247.037 305.709 250.115C306.124 253.193 303.591 261.374 303.591 261.374C303.591 261.374 317.16 264.024 321.036 261.534C321.036 261.534 321.748 239.191 321.332 236.994C320.917 234.796 317.158 226.07 316.327 225.191C315.498 224.311 308.286 223.432 308.286 223.432Z" fill="#F7CC7F"/>
<path d="M310.208 215.94C310.208 215.94 310.179 216.106 310.124 216.387C309.866 217.735 308.875 222.208 308.206 223.436C307.396 224.923 310.978 229.661 314.425 229.083C315.451 228.911 313.558 224.73 313.648 224.285C313.822 223.438 314.057 222.281 314.301 221.094C314.437 220.425 314.576 219.746 314.706 219.109C315.075 217.297 315.375 215.815 315.375 215.815L310.208 215.94Z" fill="#F7A491"/>
<path d="M310.13 216.385C310.185 216.104 310.214 215.938 310.214 215.938L315.379 215.812C315.379 215.812 315.079 217.295 314.71 219.106C314.58 219.74 314.443 220.415 314.307 221.082C313.509 220.968 312.676 220.591 311.841 219.88C310.93 219.106 310.334 218.175 309.973 217.184C310.036 216.867 310.09 216.595 310.13 216.385Z" fill="#F47458"/>
<path d="M313.686 204.541C313.686 204.541 311.251 204.268 309.725 206.185C308.2 208.101 306.554 214.026 310.345 217.249C314.135 220.472 317.881 216.823 318.438 212.957C318.992 209.091 319.208 204.402 313.686 204.541Z" fill="#F7A491"/>
<path d="M319.561 212.9C319.108 213.754 318.35 214.228 317.865 213.957C317.381 213.687 317.355 212.775 317.807 211.921C318.26 211.068 319.018 210.594 319.503 210.864C319.987 211.133 320.015 212.045 319.561 212.9Z" fill="#F7A491"/>
<path d="M313.961 203.907C313.961 203.907 310.707 209.543 308.382 209.803C306.054 210.063 305.75 213.058 305.75 213.058C305.75 213.058 306.581 206.157 308.886 204.828C311.19 203.499 313.961 203.907 313.961 203.907Z" fill="#A34B3D"/>
<path d="M308.991 211.219C309.18 212.219 308.8 213.137 308.141 213.269C307.482 213.401 306.796 212.697 306.607 211.695C306.418 210.695 306.798 209.776 307.457 209.644C308.114 209.514 308.802 210.219 308.991 211.219Z" fill="#F7A491"/>
<path d="M312.186 213.825L315.508 214.301C315.508 214.301 315.25 215.551 313.783 215.383C311.995 215.179 312.186 213.825 312.186 213.825Z" fill="white"/>
<path d="M287.598 280.886L288.047 279.779L288.823 280.339L289.352 281.867L288.977 282.172C288.979 282.169 287.933 281.157 287.598 280.886Z" fill="#B75742"/>
<path d="M294.888 287.828L294.727 283.484C294.605 280.249 292.783 277.456 290.663 277.259C288.543 277.06 286.161 279.71 285.351 283.165L284.264 287.807C284.157 288.262 283.565 288.265 283.678 287.805L284.835 283.146C285.79 279.297 288.436 276.355 290.733 276.59C293.029 276.825 295.052 279.924 295.243 283.501L295.474 287.831C295.497 288.256 294.905 288.256 294.888 287.828Z" fill="#35478D"/>
<path d="M298.227 284.159L297.402 284.14L299.463 312.645L304.492 312.681L298.227 284.159Z" fill="#2D3D67"/>
<path d="M299.463 312.645H269.605L275.239 284.226L297.402 284.14L299.463 312.645Z" fill="#35478D"/>
<path d="M283.909 309.873L269.605 312.645H299.463L283.909 309.873Z" fill="#2D3D67"/>
<path d="M292.591 287.212L292.43 282.868C292.308 279.634 290.486 276.842 288.366 276.642C286.247 276.443 283.864 279.093 283.054 282.549L281.967 287.191C281.86 287.646 281.268 287.648 281.382 287.189L282.538 282.53C283.493 278.68 286.14 275.739 288.436 275.974C290.732 276.208 292.755 279.307 292.946 282.884L293.177 287.212C293.2 287.64 292.608 287.64 292.591 287.212Z" fill="#35478D"/>
<path d="M291.392 273.558C291.371 273.468 295.011 258.038 296.482 254.627C297.953 251.216 303.67 235.369 303.67 235.369L297.869 233.022C297.869 233.022 292.301 245.844 290.127 251.45C287.95 257.057 288.076 267.706 287.98 270.623C287.978 270.665 287.661 273.091 287.659 273.13C287.585 273.453 287.516 273.722 287.484 273.774C287.396 273.917 287.142 274.896 287.132 274.98C287.121 275.064 286.903 275.395 286.815 275.537C286.727 275.68 286.525 277.661 286.481 277.982C286.437 278.303 286.58 279.026 286.58 279.026L286.502 280.356C286.445 281.331 287.457 281.073 287.457 281.073C287.434 281.534 287.593 281.773 287.854 281.861C288.112 281.947 288.42 281.874 288.469 281.893C288.517 281.911 288.536 282.056 288.536 282.056C288.509 282.348 288.84 282.574 289.052 282.616C289.266 282.658 289.646 282.515 289.753 282.39C289.86 282.262 289.936 282.281 289.936 282.281C290.152 282.465 290.979 282.457 291.17 282.19C291.361 281.924 291.535 280.523 291.621 280.398C291.707 280.272 291.892 280.056 291.919 279.855C291.946 279.653 292.624 278.215 292.662 277.93C292.702 277.643 292.282 276.676 292.19 276.097C292.098 275.519 291.531 274.617 291.394 274.359C291.34 274.254 291.355 273.923 291.392 273.558Z" fill="#F7A491"/>
<path d="M300.478 245.511C300.478 245.511 307.001 235.759 307.588 232.178C308.174 228.594 304.948 224.162 301.653 224.506C298.358 224.85 292.727 241.162 292.727 241.162L300.478 245.511Z" fill="#F7CC7F"/>
<path d="M478.349 206.533C477.332 210.713 482.843 213.749 487.207 213.861C490.042 213.932 491.347 213.643 491.805 210.667C492.548 205.841 490.552 202.899 487.752 201.681C484.142 200.108 479.189 203.083 478.349 206.533Z" fill="#184655"/>
<path d="M483.727 274.529L487.152 305.005C487.152 305.005 485.477 311.45 485.681 313.281C485.882 315.111 489.404 339.129 489.404 339.129L489.255 340.477L489.251 344.454H502.32C502.32 344.454 499.545 343.217 495.667 340.773C495.379 340.592 494.718 340.016 494.559 338.867C493.522 331.463 495.572 306.772 495.572 306.772L497.186 274.63L483.727 274.529Z" fill="#F7A491"/>
<path d="M473.22 280.941C472.481 281.127 471.346 307.33 470.735 308.492C466.86 315.855 465.939 338.24 465.939 338.24L464.783 341.498L463.609 345.369C463.609 345.369 467.478 346.36 469.507 345.245L469.282 341.391L469.077 337.867L478.853 309.978L484.203 281.532L473.22 280.941Z" fill="#F7A491"/>
<path d="M492.664 230.181C491.087 228.034 484.581 221.818 483.857 221.83C481.75 221.868 474.834 221.87 473.48 222.553L473.546 234.389C473.766 235.383 478.541 250.857 478.264 254.243L478.297 254.275C482.3 258.122 488.611 257.82 492.271 253.606C492.271 253.606 492.254 248.911 492.819 244.63C493.7 237.922 496.58 235.513 492.664 230.181Z" fill="#355389"/>
<path d="M498.402 294.353L498.866 276.273C498.946 271.164 497.9 266.1 495.804 261.448L492.271 253.606C490.842 254.059 489.495 254.445 487.994 254.612C484.728 254.977 481.515 254.614 478.266 254.243C478.256 254.365 478.241 254.472 478.222 254.562C477.632 257.225 474.35 263.161 472.967 271.273C471.397 280.482 470.985 293.251 471.183 294.332C480.275 296.454 489.595 296.524 498.402 294.353Z" fill="#13375B"/>
<path d="M481.739 215.169C481.739 215.169 481.922 219.534 481.527 221.191C481.133 222.847 480.608 222.971 483.989 223.474C485.318 223.671 486.598 223.967 486.598 223.967C486.598 223.967 486.252 221.537 486.199 220.509C486.113 218.819 486.59 213.601 486.59 213.601L481.739 215.169Z" fill="#F7A491"/>
<path d="M484.312 217.341C485.006 217.716 485.657 217.937 486.257 218.029C486.373 215.968 486.589 213.601 486.589 213.601L481.961 215.096C482.496 215.991 483.26 216.777 484.312 217.341Z" fill="#F47458"/>
<path d="M469.282 341.374C467.498 342.165 465.575 341.689 464.803 341.435L464.547 342.123L463.562 345.389C463.562 345.389 467.479 346.358 469.508 345.241L469.282 341.374Z" fill="#F47458"/>
<path d="M489.111 345.442H502.697C503.199 345.396 503.322 344.987 503.148 344.735C502.789 344.217 501.205 343.836 499.423 343.01C496.298 343.337 489.741 341.19 489.248 340.468C488.964 341.913 488.832 345.381 489.111 345.442Z" fill="#F47458"/>
<path d="M483.627 270.487L485.319 270.453L484.366 225.957C486.14 226.273 487.623 227.544 488.127 229.263L499.897 269.445L501.526 268.998L489.756 228.817C488.967 226.124 486.396 224.244 483.501 224.244H482.637L483.627 270.487Z" fill="#FAE0B2"/>
<path d="M508.445 235.484C508.496 235.232 508.332 234.717 508.678 232.746C508.777 232.177 509.314 231.555 509.314 231.555C509.314 231.555 509.98 230.794 510.204 230.903C510.429 231.012 510.504 231.318 510.439 231.502C510.374 231.689 510.072 231.957 510.007 232.142C509.942 232.328 510.198 232.903 510.359 233.066C510.521 233.228 512.406 230.921 512.406 230.921C512.406 230.921 512.914 230.234 513.065 229.993C513.193 229.787 513.531 229.137 513.531 229.137C513.531 229.137 514.062 228.24 514.333 228.426C514.492 228.535 514.244 229.466 513.86 230.32C513.445 231.238 512.886 232.081 512.966 232.148C513.149 232.305 514.215 231.064 514.215 231.064C514.215 231.064 514.58 230.362 514.834 230.118C514.987 229.647 515.451 228.974 515.766 229.221C515.825 229.267 515.46 230.372 515.46 230.372C515.46 230.372 515.092 231.028 514.937 231.353C514.662 231.926 514.026 232.605 513.812 232.976C513.634 233.284 513.787 233.247 513.804 233.287C513.816 233.316 514.114 232.947 514.532 232.446C514.742 232.194 515.036 231.957 515.233 231.626C515.418 231.318 515.73 230.934 515.926 230.708C516.477 230.066 516.788 230.536 516.373 231.219C516.215 231.479 516.039 231.762 515.86 232.045C515.168 233.154 514.303 234.004 514.391 234.115C514.505 234.259 515.988 232.611 515.988 232.611C515.988 232.611 517.044 231.957 516.429 232.966C515.716 234.136 514.933 234.867 514.895 234.899C514.647 235.104 513.997 236.094 513.023 236.669C512.305 237.092 511.258 237.671 510.756 237.945L508.445 235.484Z" fill="#F8A492"/>
<path d="M486.43 238.826L491.461 236.054C491.461 236.054 494.147 240.091 494.544 240.493C494.544 240.493 504.608 237.216 508.446 235.484L510.812 237.916C510.075 238.273 509.439 238.51 509.086 238.7C508.396 239.072 497.465 245.139 497.465 245.139C497.465 245.139 492.993 247.368 492.239 246.857C491.484 246.343 486.43 238.826 486.43 238.826Z" fill="#F7A491"/>
<path d="M480.896 227.609C479.918 231.62 485.135 240.562 485.135 240.562C485.135 240.562 492.569 237.069 493.877 235.566C493.877 235.566 488.827 226.887 488.495 226.361C486.997 223.973 484.963 223.969 483.635 224.126C482.57 224.25 480.896 227.609 480.896 227.609Z" fill="#13375B"/>
<path d="M480.868 228.848C484.308 225.858 485.607 219.268 483.361 215.341C484.921 213.322 485.92 213.682 485.571 211.168C484.885 206.212 491.813 203.228 486.637 201.909C481.407 200.865 477.058 204.063 474.666 207.241C473.589 208.673 472.246 209.91 470.653 210.781C467.494 212.504 465.828 216.643 467.507 220.956C464.978 222.369 462.77 226.453 464.442 229.846C464.843 230.659 465.656 231.613 465.681 231.846C465.632 231.559 463.324 239.124 471.946 241.701C480.742 244.33 482.553 235.922 480.868 228.848Z" fill="#184655"/>
<path d="M484.76 204.302C484.76 204.302 482.842 204.945 481.817 206.874C480.795 208.803 481.303 214.98 485.557 217.016C489.814 219.052 491.768 214.429 491.459 211.015C491.153 207.602 489.921 203.136 484.76 204.302Z" fill="#F7A491"/>
<path d="M480.307 211.548C479.677 208.357 479.923 205.937 482.202 204.769C484.479 203.601 486.427 202.444 488.465 204.543L488.925 204.801C488.925 204.801 485.077 205.86 484.863 207.893C484.649 209.927 482.603 212.345 482.918 213.343C483.233 214.341 483.596 216.335 483.596 216.335L482.754 215.645C482.756 215.645 480.937 214.739 480.307 211.548Z" fill="#184655"/>
<path d="M484.271 210.326C484.588 211.206 484.349 212.091 483.734 212.303C483.119 212.512 482.365 211.969 482.046 211.087C481.729 210.206 481.969 209.321 482.584 209.11C483.198 208.9 483.954 209.445 484.271 210.326Z" fill="#F7A491"/>
<path d="M487.742 213.73L490.516 214.404C490.516 214.404 490.197 215.441 488.967 215.179C487.471 214.861 487.742 213.73 487.742 213.73Z" fill="white"/>
<path d="M483.605 270.277V275.965C483.605 278.924 486.084 281.322 489.142 281.322H494.838V268.059H485.897C485.285 268.059 484.73 268.291 484.319 268.669C483.878 269.071 483.605 269.642 483.605 270.277Z" fill="#EAB054"/>
<path d="M484.32 268.669H484.358C485.533 268.669 486.486 269.591 486.486 270.728V274.913C486.486 278.452 489.454 281.322 493.114 281.322H496.582C500.242 281.322 503.21 278.452 503.21 274.913V270.749C503.21 269.264 501.965 268.059 500.429 268.059H485.899C485.286 268.059 484.732 268.291 484.32 268.669Z" fill="#F7CC7F"/>
<path d="M426.907 236.696L427.329 237.075C427.545 237.27 427.872 237.262 428.059 237.056L435.556 228.795C435.743 228.59 435.718 228.267 435.499 228.072L435.077 227.692C434.859 227.497 434.534 227.506 434.347 227.711L426.85 235.972C426.665 236.176 426.691 236.501 426.907 236.696Z" fill="#13375B"/>
<path d="M401.491 229.984C402.492 229.169 410.241 232.576 410.142 233.763C410.043 234.949 415.549 246.45 415.549 246.45L425.062 238.847L425.067 238.849C425.151 238.575 426.053 235.616 426.097 235.088C426.143 234.532 427.751 233.561 428.498 233.704C429.245 233.846 427.86 234.786 427.768 234.958C427.52 235.427 428.477 235.604 428.477 235.604C428.477 235.604 431.227 234.092 431.285 233.203C431.344 232.314 431.911 230.45 432.505 230.84C432.811 231.041 432.809 232.364 432.713 232.991C432.889 232.278 433.139 231.475 433.382 231.395C433.827 231.251 434.048 231.817 433.968 232.096C433.888 232.375 433.168 235.398 432.95 235.74C432.736 236.071 428.297 239.656 427.659 240.436C427.659 240.436 415.353 254.537 414.478 254.906C413.71 255.229 410.969 250.371 408.379 247.144C405.789 243.915 398.361 232.536 401.491 229.984Z" fill="#F7A491"/>
<path d="M376.663 333.667C376.663 333.667 374.971 335.321 374.934 335.927C374.896 336.535 374.785 343.037 375.475 343.643C376.166 344.251 378.193 344.681 377.54 345.362C377.047 345.878 373.257 345.769 370.744 345.628C370.012 345.589 369.093 339.724 368.801 338.86C368.379 337.608 367.353 334.788 367.737 333.916C367.924 333.491 368.818 332.616 370.077 331.801C371.401 330.943 372.669 329.033 372.669 329.033L376.663 333.667Z" fill="#F48C7F"/>
<path d="M394.177 337.518C394.177 337.518 392.664 341.804 392.662 341.814C392.548 342.494 392.105 344.171 392.105 344.788C392.105 347.107 402.537 342.819 400.199 341.791C399.987 341.699 399.323 340.955 399.254 340.166C399.147 338.95 400.133 337.426 400.133 337.426L394.177 337.518Z" fill="#F7A491"/>
<path d="M410.542 257.728C410.542 257.728 411.302 265.41 411.302 265.523C411.302 277.948 413.76 302.222 413.292 304.558C412.152 310.257 399.882 339.323 399.882 339.323L393.25 338.529L401.891 303.725L398.711 289.717L394.211 262.028L410.542 257.728Z" fill="#355389"/>
<path d="M388.286 264.521L387.027 271.801L383.623 301.765L370.656 331.05C370.656 331.05 372.48 335.31 375.171 335.91L395.806 305.843L408.626 267.371L408.177 258.822L388.286 264.521Z" fill="#13375B"/>
<path d="M413.187 239.438L403.992 240.38C403.992 240.38 403.57 232.823 403.57 229.219C403.57 224.845 403.942 219.213 404.469 219.333C405.948 219.673 407.938 220.492 409.124 222.124C413.225 227.774 413.187 239.438 413.187 239.438Z" fill="#E25A44"/>
<path d="M408.667 228.445C408.86 229.779 412.394 266.029 412.394 266.029C395.65 274.135 386.411 267.473 386.411 267.473C386.411 267.473 386.959 242.019 386.302 238.553C385.867 236.262 385.326 221.029 386.807 220.601C388.709 220.054 390.89 219.473 393.266 219.226C395.295 219.014 403.174 218.893 404.584 219.366C404.587 219.366 407.857 222.839 408.667 228.445Z" fill="#F47458"/>
<path d="M370.16 331.765C370.16 331.765 374.057 342.764 375.583 343.295C375.988 343.435 377.932 343.794 378.299 344.656C378.41 344.916 378.299 345.782 378.299 345.782H370.177C370.177 345.782 369.15 340.936 368.743 338.806C368.743 338.806 366.592 333.604 366.831 333.13C367.068 332.658 370.16 331.765 370.16 331.765Z" fill="#F47458"/>
<path d="M391.516 345.553L392.71 341.77C392.71 341.77 395.218 342.833 396.473 342.657C397.728 342.479 400.175 341.77 400.175 341.77C405.181 343.423 409.284 344.224 408.537 345.553H391.516Z" fill="#F47458"/>
<path d="M414.477 254.902C414.515 254.885 414.651 254.778 414.729 254.713C414.431 251.161 414.485 247.72 415.598 246.557C415.57 246.5 415.327 245.982 415.075 245.445C413.786 246.445 413.174 249.098 413.415 253.407C413.432 253.702 413.516 253.929 413.585 254.3C413.956 254.713 414.294 254.979 414.477 254.902Z" fill="#F7A491"/>
<path d="M369.828 266.413C369.818 266.335 369.816 266.257 369.824 266.18C370.07 263.67 372.15 242.59 372.5 241.692C372.817 240.883 382.142 227.512 382.142 227.512L386.726 233.771L377.758 245.762C377.556 246.523 374.32 260.754 374.32 260.754C374.32 260.754 373.657 263.347 373.359 264.901C373.495 265.276 373.627 265.628 373.745 265.918C374.043 266.538 374.393 267.046 374.71 267.476C375.111 268.014 375.774 269.191 375.856 269.505C375.951 269.872 376.123 270.633 376.219 271.09C376.316 271.55 376.448 272.084 376.471 272.334C376.484 272.485 376.641 272.789 376.761 273.003C376.939 273.321 376.635 273.697 376.289 273.581C375.963 273.472 375.709 273.049 375.552 272.787C375.111 272.042 374.876 270.686 374.765 270.757C374.656 270.828 374.267 273.133 374.207 273.393C374.146 273.653 373.682 276.328 373.42 276.816C373.157 277.305 372.811 277.223 372.719 276.917C372.639 276.653 373.008 272.91 373.008 272.91C373.008 272.91 373.054 272.432 372.844 272.581C372.637 272.73 372.295 276.129 372.15 276.626C372.005 277.123 371.673 277.387 371.394 276.986C371.052 276.5 371.64 272.896 371.64 272.896C371.64 272.896 371.705 272.443 371.512 272.485C371.319 272.527 371.077 275.422 370.926 275.674C370.775 275.923 370.397 276.013 370.217 275.596C370.005 275.103 370.555 271.891 370.555 271.891C370.555 271.891 370.527 271.635 370.408 271.721C370.288 271.807 369.904 274.261 369.656 274.487C369.447 274.678 369.272 274.493 369.272 274.493C368.815 274.181 369.516 271.847 369.509 270.686C369.503 269.526 370.04 268.222 369.879 266.84C369.875 266.759 369.847 266.547 369.828 266.413Z" fill="#F8A492"/>
<path d="M374.859 235.981L382.826 241.342C382.826 241.342 387.316 234.645 389.727 232.261C392.747 229.273 388.628 220.126 386.682 220.641C382.329 221.801 374.859 235.981 374.859 235.981Z" fill="#F47458"/>
<path d="M393.856 211.389L392.664 219.262C392.664 219.262 397.015 228.636 399.613 227.823C401.792 227.141 400.453 218.847 400.453 218.847C400.453 218.847 399.265 214.393 399.622 212.164C399.976 209.934 393.856 211.389 393.856 211.389Z" fill="#F7A491"/>
<path d="M399.62 212.162C399.977 209.933 393.856 211.389 393.856 211.389L393.758 212.041C393.936 212.477 394.157 212.852 394.421 213.137C395.787 214.611 397.926 215.498 399.773 215.565C399.586 214.366 399.473 213.076 399.62 212.162Z" fill="#F47458"/>
<path d="M392.856 200.251C392.684 200.188 391.469 209.216 393.773 211.701C396.076 214.186 400.563 214.999 402.173 213.041C403.953 210.877 403.865 201.173 400.284 198.617C396.701 196.064 392.856 200.251 392.856 200.251Z" fill="#F7A491"/>
<path d="M398.919 193.789C396.15 194.355 394.358 196.049 393.699 196.772C392.442 196.921 390.733 197.617 388.97 200.544C386.802 204.144 388.404 208.132 390.929 210.089C393.453 212.045 393.418 214.305 393.418 214.305L393.816 213.135C394.11 212.25 394.232 211.311 394.133 210.382C394.075 209.824 393.955 209.223 393.724 208.726C393.118 207.419 395.027 206.551 395.565 205.463C395.978 204.627 395.997 202.71 396.648 201.326L397.424 200.27C397.424 200.27 399.217 198.871 400.969 199.267C402.722 199.666 402.47 193.063 398.919 193.789Z" fill="#184655"/>
<path d="M395.447 207.073C395.466 208.174 394.967 209.076 394.331 209.088C393.697 209.099 393.168 208.214 393.149 207.113C393.13 206.012 393.63 205.111 394.265 205.098C394.899 205.088 395.428 205.97 395.447 207.073Z" fill="#F7A491"/>
<path d="M399.184 209.619L402.655 209.438C402.655 209.438 402.642 210.764 401.119 210.887C399.259 211.038 399.184 209.619 399.184 209.619Z" fill="white"/>
<path d="M80.6834 265.163C82.0561 261.271 80.696 257.51 79.5627 255.57C78.4293 253.631 77.0483 250.694 74.9201 250.39C71.797 249.943 70.1348 249.679 67.8849 251.004C65.9686 252.132 64.8395 252.958 63.9727 255.877C62.7805 259.894 61.6241 264.953 62.2726 265.452C64.4281 267.107 70.5713 267.222 73.5684 267.098C78.2215 266.907 80.6834 265.163 80.6834 265.163Z" fill="#A34B3D"/>
<path d="M71.9615 268.155C71.9615 268.155 64.6891 267.268 62.2502 268.53C59.8114 269.792 58.4766 284.807 58.4766 284.807L60.6425 285.465C60.6425 285.465 60.334 295.863 61.99 296.586C63.6459 297.31 75.2734 295.066 77.9242 292.416C80.575 289.766 78.5916 269.545 76.243 267.866C75.5861 267.396 71.8964 268.151 71.9615 268.155Z" fill="#3C8F7C"/>
<path d="M139.529 332.214C139.529 332.214 140.027 337.648 139.699 339.42C139.655 339.657 139.559 339.957 139.445 340.288C139.108 341.282 140.031 344.316 140.031 344.316L152.418 344.362C153.092 344.364 152.641 343.936 152.093 343.544C151.195 342.903 150.471 342.479 147.61 341.142C147.423 341.053 146.743 340.634 146.497 340.489C145.876 340.12 145.249 339.535 144.707 338.95C143.805 337.973 143.668 333.185 143.668 333.185L139.529 332.214Z" fill="#F7A491"/>
<path d="M146.495 340.487C143.23 341.366 140.801 340.827 139.441 340.299C139.103 341.29 138.478 344.565 138.847 344.645C140.432 344.981 144.583 345.232 153.482 345.092C153.801 345.087 153.762 343.993 153.554 343.752C152.983 343.085 146.741 340.634 146.495 340.487Z" fill="#355389"/>
<path d="M123.992 267.706C123.992 267.706 124.168 275.464 126.391 280.429C128.557 285.266 138.923 297.199 141.677 304.164C140.825 308.093 138.485 313.614 138.655 317.967C138.846 322.9 138.56 335.956 138.56 335.956L144.122 336.133L151.42 302.443L140.424 266.092L135.435 257.265L123.992 267.706Z" fill="#D95B3F"/>
<path d="M111.754 325.873C111.754 325.873 109.25 331.107 107.987 332.547C107.311 333.319 105.313 334.556 105.277 335.629C105.242 336.703 116.913 343.98 116.913 343.98C117.528 344.35 117.35 343.714 117.062 343.058C116.592 341.982 116.16 341.202 114.275 338.424C114.151 338.244 113.759 337.489 113.614 337.223C113.247 336.548 112.991 335.673 112.816 334.843C112.525 333.461 115.008 329.012 115.008 329.012L111.754 325.873Z" fill="#F7A491"/>
<path d="M113.613 337.223C110.152 336.248 108.229 334.434 107.272 333.212C106.424 333.933 104.086 335.573 104.372 335.858C106.611 338.091 109.033 340.934 117.237 345.647C117.531 345.815 118.339 344.379 118.281 344.045C118.123 343.123 113.758 337.489 113.613 337.223Z" fill="#355389"/>
<path d="M56.3249 281.144C54.7654 281.998 50.9897 285.455 49.7094 286.631C49.6842 286.78 49.5037 287.633 48.469 288.657C47.7365 289.378 47.0901 291.108 46.6913 290.571C46.2925 290.034 47.493 288.717 46.9956 288.667C46.4982 288.619 43.7991 291.204 43.4381 290.718C43.0771 290.231 45.7867 287.958 45.3418 287.914C44.8968 287.87 42.6553 290.212 42.1453 289.527C41.6331 288.839 45.0374 287.015 44.7625 286.646C44.4875 286.277 42.374 287.483 41.9606 286.931C41.5492 286.378 44.9283 285.421 44.6659 285.396C44.4036 285.371 42.5063 285.27 42.5209 284.906C42.5377 284.493 47.3965 284.233 48.0429 283.566C49.4575 281.666 51.9845 278.192 54.3772 276.768C57.3029 275.028 64.038 271.378 64.038 271.378L66.8924 275.739C66.8903 275.735 58.1718 280.131 56.3249 281.144Z" fill="#F7A491"/>
<path d="M123.927 262.156C123.927 262.156 120.877 269.291 120.846 274.732C120.816 280.033 125.314 295.182 124.94 302.663C122.539 305.887 118.123 309.945 116.476 313.979C114.608 318.549 108.945 330.316 108.945 330.316L113.936 332.778L134.521 305.124L138.879 272.518L139.722 261.718L123.927 262.156Z" fill="#F47458"/>
<path d="M54.6725 333.734C54.6725 333.734 52.41 335.812 52.4037 335.814C52.0868 336.049 51.2368 336.562 50.9891 336.816C50.0615 337.77 56.0053 340.146 55.468 338.795C55.4197 338.674 55.3274 337.598 55.6149 337.246C56.0578 336.703 56.8553 335.931 56.8553 335.931L54.6725 333.734Z" fill="#F7A491"/>
<path d="M55.468 338.776C55.468 338.776 54.192 338.097 53.6127 337.671C53.0334 337.246 52.96 335.977 52.4394 335.791C51.8665 335.585 49.457 338.049 49.457 338.049C49.457 338.049 54.1668 343.165 56.6308 344.869C57.1618 345.236 57.804 345.119 58.0328 345.123C58.9017 345.138 56.8365 341.441 55.468 338.776Z" fill="#184655"/>
<path d="M86.7227 337.64C86.7227 337.64 87.4258 341.041 87.4258 341.047C87.4698 341.492 87.4761 342.615 87.579 343.001C87.9651 344.454 93.6949 340.043 92.0788 339.785C91.9319 339.762 91.2057 339.47 90.956 339.022C90.5215 338.242 90.108 336.782 90.108 336.782L86.7227 337.64Z" fill="#F7A491"/>
<path d="M92.0607 339.776C92.0607 339.776 90.6671 340.626 89.922 340.944C89.1769 341.263 87.8148 340.378 87.332 340.779C86.8031 341.219 87.6637 345.113 87.6637 345.113C87.6637 345.113 97.463 342.515 99.5472 341.169C100.374 340.634 95.4293 339.984 92.0607 339.776Z" fill="#184655"/>
<path d="M81.3727 290.393L87.4446 314.658L91.2833 338.156L86.5022 338.799C86.5022 338.799 78.0524 317.266 77.429 315.285C76.0942 311.039 65.0586 299.337 65.0586 299.337L81.3727 290.393Z" fill="#355389"/>
<path d="M65.196 290.284C65.196 290.284 63.4644 312.435 63.0908 314.597C62.7152 316.759 53.8477 333.402 53.8477 333.402L57.2729 337.124C57.2729 337.124 71.7212 319.319 72.3634 317.832C73.3687 315.499 80.1689 284.96 80.1689 284.96L65.196 290.284Z" fill="#184655"/>
<path d="M92.9422 276.267C94.7492 276.9 100.238 277.435 102.104 277.611C102.24 277.523 103.056 277.053 104.62 277.146C105.726 277.211 107.575 276.485 107.435 277.192C107.292 277.898 105.371 277.886 105.69 278.32C106.009 278.754 110.024 279.052 109.896 279.691C109.768 280.331 105.993 279.798 106.28 280.186C106.566 280.574 110.056 280.681 109.875 281.584C109.693 282.488 105.781 281.079 105.682 281.563C105.583 282.048 108.075 282.874 107.928 283.601C107.781 284.329 104.58 282.312 104.748 282.541C104.916 282.769 106.205 284.36 105.9 284.612C105.556 284.897 101.85 281.192 100.851 281.157C98.3088 281.392 93.7061 281.872 90.8433 280.981C87.3404 279.89 79.5664 277.129 79.5664 277.129L81.0041 271.703C80.9999 271.703 90.7993 275.514 92.9422 276.267Z" fill="#F7A491"/>
<path d="M104.932 278.899C104.804 279.163 104.613 279.383 104.396 279.572C104.352 279.593 103.693 280.257 102.652 280.056C103.295 279.953 104.006 279.836 104.932 278.899Z" fill="#F48C7F"/>
<path d="M87.4254 273.764C87.4254 273.764 87.1652 274.984 82.4785 279.058L72.6875 273.931L76.8851 268.53L87.4254 273.764Z" fill="#F7CC7F"/>
<path d="M73.0172 268.952C73.0172 268.952 76.3753 268.396 76.7426 268.396C79.9286 269.62 85.3687 295.27 84.5229 300.331C78.8918 301.539 63.0898 301.593 63.0898 301.593C63.0898 301.593 63.1234 296.72 63.9125 294.211C65.2788 289.864 66.0512 279.917 66.0512 278.165C66.0512 277.135 60.7139 280.706 60.7139 280.706L58.4766 272.627C58.4766 272.627 65.2914 269.891 67.6799 269.398C68.3473 269.258 73.0172 268.952 73.0172 268.952Z" fill="#FAE0B2"/>
<path d="M82.8484 286.176C81.6773 281.656 76.3715 269.686 75.0156 268.532L76.3295 268.109C76.9025 268.66 82.2922 280.236 83.1989 284.627L82.8484 286.176Z" fill="#3C8F7C"/>
<path d="M63.8577 290.732L63.0938 289.516C63.1588 289.474 69.6148 285.356 70.3431 280.1C71.0777 274.789 67.3334 269.207 67.2956 269.153L68.4835 268.344C68.6514 268.589 72.5783 274.43 71.7661 280.297C70.9454 286.22 64.1453 290.55 63.8577 290.732Z" fill="#3C8F7C"/>
<path d="M74.8318 265.859C74.8318 265.859 74.7247 269.449 75.0605 269.784C75.3984 270.122 75.8686 270.679 75.3733 271.537C74.8779 272.392 72.7246 271.847 71.7213 271.357C70.758 270.887 70.1367 270.011 70.1367 270.011L70.6383 264.326L74.8318 265.859Z" fill="#F7A491"/>
<path d="M73.3977 267.346C72.7072 267.105 71.4983 266.637 70.5664 265.123L70.6357 264.326L74.8291 265.859C74.8291 265.859 74.8018 266.736 74.8165 267.662C74.2288 267.637 73.7272 267.461 73.3977 267.346Z" fill="#B75742"/>
<path d="M69.9004 260.267C69.9004 260.267 69.7976 258.158 68.5026 258.567C67.2076 258.976 68.1941 262.161 69.2687 262.056C70.3433 261.953 69.9004 260.267 69.9004 260.267Z" fill="#F7A491"/>
<path d="M73.9734 253.375C73.9734 253.375 76.0029 253.331 77.0398 254.908C78.0766 256.485 79.2036 260.992 77.491 264.1C75.7784 267.209 73.5914 266.444 72.6889 266.127C71.7885 265.813 70.0066 265.112 69.1062 262.206C68.2037 259.303 68.8586 252.767 73.9734 253.375Z" fill="#F7A491"/>
<path d="M76.676 262.425L72.7617 262.58C72.7617 262.58 72.9107 264.062 74.6339 264.043C76.7348 264.022 76.676 262.425 76.676 262.425Z" fill="white"/>
<path d="M137.201 252.606C137.034 251.738 134.469 235.566 134.469 235.566L141.836 238.453L143.45 250.958C143.653 251.601 146.772 266.909 147.912 271.864C148.14 272.86 148.86 273.659 149.815 274.021C149.822 274.024 149.826 274.026 149.83 274.028C150.47 274.273 151.683 274.923 151.925 275.15C152.206 275.414 152.768 275.974 153.102 276.317C153.436 276.659 153.843 277.047 153.996 277.25C154.091 277.374 154.391 277.548 154.609 277.668C154.936 277.844 154.878 278.334 154.517 278.425C154.177 278.508 153.727 278.284 153.448 278.142C152.661 277.743 151.719 276.701 151.664 276.823C151.61 276.944 152.529 279.14 152.619 279.395C152.707 279.653 153.765 282.209 153.805 282.773C153.845 283.337 153.503 283.457 153.255 283.243C153.043 283.058 151.322 279.636 151.322 279.636C151.322 279.636 151.102 279.2 151.003 279.441C150.905 279.685 152.462 282.794 152.607 283.302C152.752 283.809 152.611 284.216 152.151 284.025C151.591 283.792 150.134 280.37 150.134 280.37C150.134 280.37 149.943 279.945 149.801 280.085C149.658 280.228 151.026 282.853 151.033 283.151C151.039 283.448 150.762 283.733 150.378 283.471C149.927 283.163 148.653 280.098 148.653 280.098C148.653 280.098 148.489 279.892 148.432 280.031C148.376 280.169 149.381 282.49 149.291 282.821C149.213 283.1 148.963 283.035 148.963 283.035C148.399 283.016 147.731 280.624 147.093 279.628C146.457 278.638 137.388 253.568 137.201 252.606Z" fill="#F8A492"/>
<path d="M140.287 219.719C140.436 216.123 139.909 212.571 138.305 209.225C136.926 206.344 133.516 204.711 130.403 204.706C120.524 204.694 119.269 217.798 112.981 222.851C111.059 224.397 108.911 225.655 107.094 227.319C100.38 233.469 103.404 244.854 109.568 250.247C113.846 253.987 120.57 256.113 125.843 253.189C128.594 251.662 130.685 249.123 132.173 246.343C134.286 242.397 135.646 237.843 137.149 233.637C138.748 229.158 140.087 224.497 140.287 219.719Z" fill="#0E2E35"/>
<path d="M109.032 274.011C109.013 273.929 112.296 259.994 113.622 256.914C114.949 253.834 120.105 239.522 120.105 239.522L113.431 238.065C113.431 238.065 109.126 249.263 107.164 254.327C105.202 259.391 106.041 268.725 105.953 271.359C105.951 271.396 105.666 273.587 105.663 273.623C105.596 273.915 105.535 274.158 105.506 274.204C105.426 274.332 105.198 275.217 105.187 275.292C105.177 275.368 104.981 275.667 104.902 275.795C104.822 275.925 104.641 277.714 104.601 278.003C104.562 278.292 104.69 278.945 104.69 278.945L104.62 280.144C104.568 281.025 105.483 280.792 105.483 280.792C105.462 281.207 105.607 281.425 105.84 281.503C106.073 281.58 106.35 281.513 106.394 281.532C106.438 281.549 106.455 281.681 106.455 281.681C106.43 281.945 106.728 282.148 106.921 282.186C107.114 282.224 107.456 282.096 107.552 281.981C107.649 281.865 107.716 281.882 107.716 281.882C107.911 282.048 108.656 282.041 108.828 281.8C109.001 281.561 109.158 280.295 109.236 280.182C109.313 280.068 109.479 279.873 109.504 279.691C109.529 279.509 110.14 278.211 110.176 277.953C110.212 277.695 109.834 276.821 109.75 276.299C109.666 275.776 109.156 274.961 109.032 274.728C108.984 274.64 108.998 274.34 109.032 274.011Z" fill="#F48C7F"/>
<path d="M141.899 237.132C138.814 227.774 135.363 228.173 135.363 228.173L138.031 247.844C139.937 247.324 142.417 246.165 144.321 245.626C143.691 242.67 142.659 239.436 141.899 237.132Z" fill="#13375B"/>
<path d="M127.468 226.493C127.468 226.493 121.782 226.13 119.534 228.586C117.284 231.041 124.523 250.471 124.932 253.597C125.342 256.724 122.848 265.035 122.848 265.035C122.848 265.035 136.203 267.727 140.021 265.196C140.021 265.196 140.43 242.718 140.021 240.485C139.611 238.252 136.203 229.171 135.387 228.278C134.566 227.386 127.468 226.493 127.468 226.493Z" fill="#355389"/>
<path d="M129.358 218.882C129.358 218.882 129.329 219.05 129.276 219.335C129.023 220.704 128.047 225.248 127.388 226.497C126.59 228.007 130.116 232.821 133.508 232.234C134.517 232.06 132.653 227.812 132.744 227.361C132.916 226.5 133.147 225.325 133.386 224.12C133.52 223.44 133.657 222.751 133.783 222.103C134.146 220.262 134.442 218.756 134.442 218.756L129.358 218.882Z" fill="#F7A491"/>
<path d="M129.276 219.335C129.329 219.05 129.358 218.882 129.358 218.882L134.442 218.756C134.442 218.756 134.146 220.262 133.783 222.103C133.655 222.746 133.52 223.432 133.388 224.107C132.603 223.992 131.782 223.608 130.96 222.889C130.063 222.103 129.476 221.157 129.121 220.149C129.186 219.824 129.237 219.547 129.276 219.335Z" fill="#F47458"/>
<path d="M132.78 207.302C132.78 207.302 130.383 207.025 128.882 208.971C127.379 210.917 125.761 216.937 129.493 220.21C133.225 223.482 136.91 219.778 137.458 215.85C138.004 211.923 138.216 207.162 132.78 207.302Z" fill="#F7A491"/>
<path d="M138.561 215.794C138.116 216.662 137.369 217.142 136.89 216.867C136.414 216.593 136.389 215.666 136.833 214.798C137.278 213.93 138.026 213.45 138.504 213.724C138.981 213.999 139.006 214.926 138.561 215.794Z" fill="#F7A491"/>
<path d="M133.047 206.658C133.047 206.658 129.847 212.382 127.555 212.647C125.265 212.911 124.965 215.953 124.965 215.953C124.965 215.953 125.783 208.944 128.05 207.593C130.319 206.243 133.047 206.658 133.047 206.658Z" fill="#0E2E35"/>
<path d="M128.158 214.087C128.345 215.104 127.969 216.035 127.321 216.169C126.672 216.303 125.996 215.586 125.81 214.569C125.623 213.552 125.999 212.621 126.647 212.487C127.296 212.353 127.971 213.07 128.158 214.087Z" fill="#F7A491"/>
<path d="M130.403 216.853L135.192 217.041C135.192 217.041 135.009 218.855 132.902 218.832C130.331 218.805 130.403 216.853 130.403 216.853Z" fill="white"/>
<path d="M116.974 247.888C116.974 247.888 124.345 239.074 125.676 235.811C127.006 232.549 125.014 227.663 121.906 227.279C118.798 226.896 111.02 241.365 111.02 241.365L116.974 247.888Z" fill="#355389"/>
<path d="M74.7324 252.811C74.7324 252.811 71.899 258.797 68.7969 258.481C65.6949 258.164 68.2051 253.981 68.2051 253.981C68.2051 253.981 71.7185 252.644 71.8864 252.644C72.0543 252.644 74.7324 252.811 74.7324 252.811Z" fill="#A34B3D"/>
<path d="M222.766 221.589C222.705 221.469 222.67 221.402 222.67 221.402L222.676 221.352C222.497 220.912 222.304 220.476 222.09 220.042C220.674 217.171 217.169 215.542 213.974 215.538C212.933 215.536 211.984 215.674 211.116 215.926C209.806 216.513 206.607 218.549 205.776 224.61C205.474 226.814 205.942 228.917 206.933 230.695C206.072 231.236 204.941 232.33 204.12 234.542C202.615 238.606 195.087 239.51 194.335 244.927C193.582 250.345 201.411 260.127 209.69 253.807C215.993 248.995 214.969 239.826 214.121 235.719C216.088 235.989 218.199 235.618 220.231 234.391C222.814 232.832 223.862 230.726 224.143 228.665C224.072 226.26 223.656 223.885 222.766 221.589Z" fill="#13375B"/>
<path d="M215.405 235.75C210.276 235.75 206.619 231.108 206.466 230.909C206.313 230.712 206.349 230.429 206.546 230.276C206.743 230.123 207.027 230.158 207.18 230.355C207.215 230.399 210.723 234.846 215.403 234.846C215.653 234.846 215.854 235.048 215.854 235.297C215.856 235.547 215.653 235.75 215.405 235.75Z" fill="#F47458"/>
<path d="M232.89 277.406C232.836 277.366 232.788 277.32 232.743 277.269C231.344 275.625 219.599 261.821 219.256 261.072C218.946 260.397 216.266 246.699 216.266 246.699L222.852 247.588L224.896 260.248C225.246 260.825 232.082 271.275 232.082 271.275C232.082 271.275 233.285 273.225 234.066 274.332C234.376 274.47 234.674 274.598 234.922 274.699C235.48 274.883 236.003 274.969 236.456 275.028C237.027 275.099 238.146 275.391 238.389 275.527C238.67 275.686 239.241 276.032 239.581 276.244C239.921 276.456 240.331 276.693 240.496 276.827C240.597 276.909 240.876 276.993 241.08 277.045C241.382 277.125 241.433 277.536 241.155 277.68C240.895 277.817 240.484 277.722 240.228 277.661C239.508 277.492 238.53 276.831 238.509 276.94C238.488 277.051 239.676 278.657 239.8 278.85C239.923 279.043 241.296 280.918 241.441 281.37C241.586 281.823 241.33 281.987 241.086 281.863C240.876 281.756 238.79 279.305 238.79 279.305C238.79 279.305 238.524 278.993 238.49 279.211C238.459 279.429 240.347 281.658 240.568 282.041C240.788 282.427 240.752 282.788 240.339 282.723C239.835 282.645 237.965 280.142 237.965 280.142C237.965 280.142 237.726 279.831 237.636 279.976C237.548 280.121 239.187 281.989 239.252 282.232C239.317 282.473 239.147 282.761 238.782 282.624C238.351 282.463 236.702 280.215 236.702 280.215C236.702 280.215 236.528 280.081 236.509 280.205C236.49 280.33 237.772 282.023 237.764 282.312C237.757 282.555 237.539 282.551 237.539 282.551C237.075 282.647 236.053 280.83 235.335 280.144C234.616 279.458 234.133 278.353 233.186 277.63C233.13 277.584 232.983 277.475 232.89 277.406Z" fill="#F8A492"/>
<path d="M235.558 281.555V286.87C235.558 289.634 233.245 291.875 230.391 291.875H225.074V279.483H233.417C233.988 279.483 234.506 279.699 234.89 280.054C235.302 280.429 235.558 280.962 235.558 281.555Z" fill="#B75742"/>
<path d="M217.289 281.752L218.867 281.721L217.977 240.147C219.631 240.443 221.016 241.632 221.486 243.236L232.47 280.777L233.989 280.36L223.006 242.818C222.269 240.302 219.87 238.545 217.169 238.545H216.363L217.289 281.752Z" fill="#B75742"/>
<path d="M234.889 280.052H234.854C233.756 280.052 232.868 280.913 232.868 281.974V285.885C232.868 289.191 230.1 291.873 226.685 291.873H223.449C220.034 291.873 217.266 289.191 217.266 285.885V281.993C217.266 280.605 218.426 279.481 219.86 279.481H233.416C233.987 279.481 234.505 279.699 234.889 280.052Z" fill="#F47458"/>
<path d="M194.711 331C194.711 331 191.802 333.669 191.796 333.673C191.389 333.975 190.295 334.635 189.978 334.96C188.786 336.185 196.424 339.24 195.735 337.504C195.672 337.346 195.555 335.965 195.924 335.512C196.493 334.816 197.517 333.822 197.517 333.822L194.711 331Z" fill="#F7A491"/>
<path d="M195.734 337.481C195.734 337.481 194.092 336.606 193.349 336.061C192.604 335.516 192.51 333.883 191.84 333.644C191.104 333.379 188.008 336.545 188.008 336.545C188.008 336.545 194.059 343.121 197.226 345.312C197.908 345.784 198.735 345.633 199.027 345.639C200.145 345.658 197.492 340.907 195.734 337.481Z" fill="#184655"/>
<path d="M231.336 336.176C231.336 336.176 232.238 340.546 232.241 340.556C232.297 341.127 232.303 342.571 232.436 343.068C232.933 344.934 240.294 339.267 238.218 338.936C238.029 338.906 237.097 338.531 236.774 337.954C236.216 336.952 235.685 335.076 235.685 335.076L231.336 336.176Z" fill="#F7A491"/>
<path d="M238.195 338.923C238.195 338.923 236.403 340.015 235.446 340.424C234.489 340.833 232.736 339.697 232.119 340.21C231.439 340.775 232.547 345.781 232.547 345.781C232.547 345.781 245.14 342.443 247.82 340.712C248.878 340.024 242.523 339.189 238.195 338.923Z" fill="#184655"/>
<path d="M224.556 276.217L232.359 307.401L237.294 337.6L231.15 338.428C231.15 338.428 222.497 315.333 222.256 312.677C222.014 310.018 217.672 297.593 217.672 297.593L224.556 276.217Z" fill="#2D3B68"/>
<path d="M206.344 272.606C206.344 272.606 206.928 302.507 206.447 305.286C205.964 308.064 192.891 331.771 192.891 331.771L197.292 336.554C197.292 336.554 215.999 314.872 216.823 312.957C218.116 309.959 224.497 276.154 224.497 276.154L206.344 272.606Z" fill="#35478F"/>
<path d="M203.487 282.358C203.453 282.299 203.428 282.238 203.409 282.173C202.809 280.1 197.774 262.691 197.77 261.867C197.765 261.122 200.951 247.534 200.951 247.534L206.591 251.05L203.252 263.431C203.334 264.1 205.273 276.435 205.273 276.435C205.273 276.435 205.569 278.705 205.825 280.035C206.051 280.289 206.27 280.528 206.457 280.72C206.891 281.119 207.332 281.412 207.72 281.649C208.211 281.949 209.112 282.675 209.277 282.899C209.47 283.159 209.846 283.71 210.071 284.044C210.293 284.377 210.57 284.761 210.667 284.952C210.726 285.067 210.946 285.258 211.11 285.39C211.353 285.587 211.229 285.981 210.917 286C210.623 286.017 210.287 285.763 210.077 285.602C209.489 285.151 208.87 284.146 208.807 284.239C208.742 284.331 209.166 286.285 209.2 286.509C209.233 286.736 209.714 289.009 209.659 289.48C209.607 289.952 209.305 289.998 209.133 289.785C208.986 289.6 208.092 286.509 208.092 286.509C208.092 286.509 207.976 286.115 207.859 286.3C207.739 286.484 208.547 289.292 208.589 289.734C208.631 290.174 208.45 290.491 208.1 290.263C207.674 289.986 206.998 286.935 206.998 286.935C206.998 286.935 206.906 286.553 206.767 286.65C206.627 286.744 207.353 289.122 207.313 289.369C207.273 289.617 206.998 289.808 206.723 289.533C206.398 289.21 205.816 286.482 205.816 286.482C205.816 286.482 205.714 286.287 205.644 286.394C205.575 286.499 206.049 288.571 205.923 288.831C205.819 289.049 205.619 288.956 205.619 288.956C205.155 288.854 204.973 286.776 204.599 285.855C204.225 284.935 204.24 283.729 203.674 282.681C203.634 282.62 203.543 282.459 203.487 282.358Z" fill="#F8A492"/>
<path d="M211.876 237.325C211.876 237.325 206.346 236.973 204.159 239.352C201.972 241.73 209.011 260.548 209.41 263.576C209.807 266.603 206.146 272.64 206.146 272.64C206.146 272.64 221.365 279.754 225.075 277.303C225.075 277.303 224.479 253.04 224.083 250.878C223.684 248.716 220.37 239.921 219.574 239.057C218.781 238.189 211.876 237.325 211.876 237.325Z" fill="#F7CC7F"/>
<path d="M205.355 257.432C205.355 257.432 210.008 248.202 210.508 245.072C211.007 241.942 208.262 238.069 205.46 238.369C202.658 238.669 198.805 252.935 198.805 252.935L205.355 257.432Z" fill="#F47458"/>
<path d="M212.896 229.668C212.896 229.668 212.867 229.835 212.812 230.118C212.552 231.483 211.549 236.01 210.871 237.256C210.052 238.759 213.673 243.556 217.159 242.971C218.196 242.797 216.282 238.564 216.374 238.115C216.55 237.258 216.79 236.086 217.033 234.884C217.172 234.207 217.31 233.519 217.442 232.874C217.816 231.039 218.12 229.54 218.12 229.54L212.896 229.668Z" fill="#F7A491"/>
<path d="M212.814 230.119C212.869 229.833 212.898 229.668 212.898 229.668L218.12 229.542C218.12 229.542 217.815 231.043 217.442 232.876C217.312 233.517 217.173 234.201 217.035 234.874C216.229 234.759 215.385 234.377 214.541 233.658C213.62 232.874 213.018 231.932 212.652 230.928C212.72 230.607 212.774 230.33 212.814 230.119Z" fill="#F47458"/>
<path d="M216.413 218.127C216.413 218.127 213.951 217.851 212.408 219.79C210.866 221.73 209.201 227.728 213.036 230.991C216.868 234.253 220.657 230.561 221.217 226.646C221.78 222.734 221.998 217.987 216.413 218.127Z" fill="#F7A491"/>
<path d="M222.35 226.59C221.892 227.453 221.124 227.934 220.635 227.659C220.146 227.384 220.119 226.462 220.576 225.598C221.034 224.734 221.802 224.254 222.291 224.529C222.78 224.803 222.807 225.726 222.35 226.59Z" fill="#F7A491"/>
<path d="M216.69 217.488C216.69 217.488 213.401 223.193 211.048 223.457C208.695 223.721 208.387 226.751 208.387 226.751C208.387 226.751 209.228 219.767 211.558 218.419C213.886 217.07 216.69 217.488 216.69 217.488Z" fill="#13375B"/>
<path d="M211.664 224.889C211.855 225.902 211.471 226.831 210.805 226.965C210.14 227.097 209.445 226.384 209.252 225.372C209.061 224.359 209.445 223.43 210.111 223.296C210.776 223.162 211.473 223.877 211.664 224.889Z" fill="#F7A491"/>
<path d="M214.49 228.265L217.993 229.013C217.993 229.013 217.628 230.326 216.079 230.041C214.188 229.695 214.49 228.265 214.49 228.265Z" fill="white"/>
<path opacity="0.8" d="M119.41 50.4027C120.539 46.788 124.941 44.0895 130.202 44.0895C131.168 44.0895 132.104 44.1818 132.998 44.3516C135.594 40.2693 141.229 37.4408 147.763 37.4408C149.453 37.4408 151.081 37.6295 152.613 37.9818C156.131 33.7003 162.522 30.8362 169.824 30.8362C178.511 30.8362 185.909 34.8891 188.711 40.5628C190.694 39.7493 192.98 39.2838 195.412 39.2838C203.027 39.2838 209.197 43.8211 209.197 49.4172C209.197 49.7485 209.174 50.0777 209.132 50.4006H119.41V50.4027Z" fill="#F0FBFF"/>
<path opacity="0.8" d="M105.226 194.755C105.226 195.026 105.207 195.292 105.174 195.554H37.8061C37.5143 194.143 37.2625 192.665 37.0547 191.119C38.2615 190.677 39.6236 190.425 41.0655 190.425C41.8505 190.425 42.6103 190.499 43.3364 190.639C45.4458 187.324 50.0212 185.026 55.3291 185.026C56.7017 185.026 58.024 185.179 59.2686 185.465C62.125 181.986 67.3175 179.661 73.2467 179.661C80.3029 179.661 86.3118 182.953 88.5869 187.561C90.1988 186.901 92.0542 186.523 94.0312 186.523C100.214 186.526 105.226 190.209 105.226 194.755Z" fill="#F0FBFF"/>
<path opacity="0.8" d="M173.23 159.367C174.018 156.63 177.082 154.59 180.746 154.59C181.418 154.59 182.071 154.66 182.694 154.79C184.503 151.701 188.426 149.56 192.978 149.56C194.156 149.56 195.289 149.703 196.357 149.969C198.807 146.73 203.258 144.562 208.344 144.562C214.392 144.562 219.545 147.629 221.497 151.921C222.878 151.305 224.471 150.955 226.165 150.955C231.466 150.955 235.767 154.389 235.767 158.624C235.767 158.876 235.75 159.123 235.721 159.369H173.23V159.367Z" fill="#F0FBFF"/>
<path opacity="0.8" d="M343.89 86.0111C343.135 83.625 340.188 81.8449 336.668 81.8449C336.022 81.8449 335.394 81.9057 334.798 82.0168C333.06 79.3226 329.289 77.4565 324.915 77.4565C323.784 77.4565 322.694 77.5802 321.668 77.8129C319.313 74.9865 315.036 73.0974 310.15 73.0974C304.336 73.0974 299.385 75.7728 297.508 79.5154C296.18 78.9787 294.652 78.6726 293.023 78.6726C287.927 78.6726 283.797 81.6667 283.797 85.3611C283.797 85.5791 283.812 85.7972 283.841 86.0111H343.89Z" fill="#F0FBFF"/>
<path d="M436.919 132.838C487.988 132.838 529.388 120.944 529.388 106.271C529.388 91.5979 487.988 79.7031 436.919 79.7031C385.849 79.7031 344.449 91.5979 344.449 106.271C344.449 120.944 385.849 132.838 436.919 132.838Z" fill="#184655"/>
<path d="M437.494 130.528C461.918 130.528 484.845 127.749 502.051 122.7C517.719 118.101 527.073 111.961 527.073 106.271C527.073 100.581 517.719 94.4399 502.051 89.8415C484.847 84.7927 461.92 82.0132 437.494 82.0132C413.067 82.0132 390.143 84.7927 372.937 89.8415C357.268 94.4399 347.914 100.581 347.914 106.271C347.914 111.961 357.268 118.101 372.937 122.7C390.143 127.749 413.067 130.528 437.494 130.528Z" fill="white"/>
<path d="M479.785 79.8679C480.257 79.6793 480.854 79.585 481.232 79.9621C481.546 80.2764 481.483 80.7791 481.389 81.1562C481.106 82.3818 480.509 83.5444 479.911 84.6443C477.207 89.515 473.497 93.8514 469.157 97.3081C467.459 98.6907 465.573 99.8848 463.654 100.953C462.208 103.279 460.73 105.635 459.598 108.118C459.127 109.186 458.623 110.318 458.623 111.512C458.592 112.109 458.875 112.831 459.504 112.989C460.353 113.208 461.265 112.989 462.082 112.737C464 111.983 465.698 110.695 467.208 109.312C468.811 106.829 471.044 104.724 473.685 103.373C474.817 102.776 476.106 102.524 477.364 102.462C477.584 102.053 477.867 101.613 478.339 101.456C478.842 101.299 479.345 101.173 479.848 101.047C479.502 101.519 479.156 102.022 478.842 102.524C479.439 102.619 480.131 102.493 480.666 102.839C480.666 102.901 480.634 103.059 480.634 103.121C480.005 102.964 479.345 102.901 478.685 102.901C478.245 103.499 477.899 104.19 477.521 104.818C476.641 106.327 475.792 107.866 475.037 109.469C474.597 110.443 474.157 111.417 473.968 112.454C473.905 112.926 473.842 113.491 474.251 113.837C474.66 114.12 475.195 114.057 475.666 113.994C476.924 113.743 477.993 113.02 479.031 112.297C481.326 110.6 483.339 108.558 485.162 106.39C485.194 106.484 485.445 106.641 485.288 106.767C484.03 108.212 482.71 109.595 481.295 110.883C479.691 112.297 477.962 113.68 475.949 114.434C475.1 114.748 474.157 114.905 473.276 114.685C472.459 114.497 472.113 113.554 472.176 112.8C472.365 111.323 473.088 109.972 473.842 108.715C472.773 109.972 471.673 111.229 470.352 112.266C469.503 112.926 468.623 113.554 467.616 113.868C467.208 113.963 466.705 114.026 466.327 113.837C465.95 113.648 465.793 113.177 465.824 112.8C465.887 111.889 466.264 111.04 466.642 110.223C465.384 111.323 463.969 112.297 462.46 113.02C461.139 113.648 459.63 114.026 458.152 113.806C457.554 113.711 456.988 113.397 456.705 112.863C456.359 112.329 456.328 111.637 456.485 111.009C456.768 109.909 457.303 108.903 457.806 107.929C458.655 106.295 459.63 104.693 460.604 103.121C461.453 101.802 462.365 100.482 463.183 99.1306C464.881 96.3339 466.61 93.5372 468.371 90.7405C469.692 88.6351 471.044 86.4983 472.742 84.6757C473.654 83.7016 474.723 82.8845 475.792 82.0989C477.05 81.1877 478.37 80.4021 479.785 79.8679ZM477.018 81.9104C475.918 83.0102 475.006 84.2672 474 85.4299C472.176 87.8181 470.509 90.332 468.874 92.8459C467.271 95.3284 465.635 97.7794 464.063 100.262C467.931 98.1251 471.327 95.1712 474.157 91.8089C475.886 89.7035 477.427 87.4096 478.433 84.8642C478.779 83.8901 479.125 82.8531 479.094 81.7847C479.094 81.5019 478.905 81.1562 478.59 81.1248C477.962 81.062 477.458 81.5019 477.018 81.9104ZM473.874 103.938C472.868 104.63 471.987 105.478 471.201 106.421C469.975 107.898 468.906 109.563 468.245 111.386C468.088 111.857 467.899 112.36 467.994 112.863C468.12 113.114 468.434 113.051 468.623 112.957C469.031 112.8 469.409 112.517 469.786 112.266C471.17 111.292 472.396 110.129 473.465 108.809C474.88 106.987 475.949 104.913 477.175 102.933C475.981 102.839 474.849 103.279 473.874 103.938Z" fill="#184655"/>
<path d="M389.155 90.4577C389.533 90.3634 389.847 90.0806 390.162 89.8921C390.162 90.1121 390.193 90.3634 390.036 90.552C389.375 91.5576 389.03 92.7517 388.809 93.9458C387.929 97.9366 387.269 101.959 386.514 105.981C386.294 107.301 386.105 108.621 385.948 109.972C385.854 110.695 385.917 111.48 386.294 112.109C386.483 112.454 386.86 112.674 387.269 112.706C387.992 112.8 388.684 112.423 389.407 112.454C389.375 112.706 389.124 112.769 388.935 112.8C387.394 113.177 385.917 113.68 384.344 113.994C383.841 114.088 383.433 113.68 383.275 113.24C383.15 112.989 383.275 112.674 383.307 112.423C383.59 110.757 383.841 109.061 384.124 107.395C384.187 106.924 384.313 106.452 384.25 105.981C384.061 105.258 383.433 104.724 382.772 104.441C381.766 104.001 380.634 104.096 379.533 104.033C377.364 104.033 375.226 104.033 373.087 103.907C372.836 103.844 372.679 104.096 372.521 104.221C369.125 107.207 365.887 110.349 363.057 113.837C362.365 114.717 361.61 115.628 361.39 116.728C361.296 117.137 361.327 117.576 361.076 117.922C360.824 117.702 360.887 117.356 360.824 117.074C360.73 116.037 360.321 114.843 361.076 113.931C362.176 112.549 363.591 111.449 364.88 110.255C370.981 104.818 377.112 99.4135 383.433 94.2286C384.69 93.223 385.917 92.186 387.237 91.2433C387.772 90.772 388.495 90.6777 389.155 90.4577ZM385.539 93.1602C383.275 94.9513 381.043 96.7425 378.81 98.5965C377.207 99.9477 375.603 101.299 374.156 102.87C374.345 103.059 374.597 103.216 374.848 103.247C375.886 103.499 376.955 103.499 378.024 103.499C379.816 103.53 381.609 103.436 383.401 103.561C383.841 103.561 384.25 103.781 384.659 103.75C384.879 103.279 384.91 102.744 385.036 102.21C385.571 99.2878 386.105 96.3968 386.64 93.4744C386.703 93.0659 386.86 92.626 386.86 92.2174C386.388 92.5003 385.948 92.8459 385.539 93.1602Z" fill="#184655"/>
<path d="M440.439 91.9032C440.596 91.5261 440.691 91.0862 441.036 90.8662C441.162 91.0548 441.194 91.3061 441.445 91.369C442.294 91.6518 443.237 91.589 444.118 91.6204C446.665 91.6518 449.18 91.4318 451.727 91.149C452.954 91.0548 454.149 90.8976 455.375 90.9291C456.916 91.0233 458.551 91.2119 459.871 92.0917C460.878 92.7516 461.632 93.82 461.664 95.0456C461.821 96.6482 461.035 98.188 460.092 99.4135C457.922 102.147 454.495 103.719 451.067 103.97C449.872 104.033 448.614 104.096 447.482 103.656C447.325 103.624 447.325 103.404 447.357 103.279C447.545 103.247 447.734 103.31 447.923 103.341C450.029 103.781 452.325 103.499 454.243 102.462C456.161 101.487 457.733 99.8534 458.582 97.8737C459.148 96.6168 459.368 95.2027 459.085 93.8515C458.928 93.0973 458.456 92.4374 457.765 92.0917C456.098 91.2119 454.086 91.2433 452.293 91.6204C451.602 91.7461 451.224 92.406 450.878 92.9716C447.703 98.0623 444.59 103.216 441.634 108.464C441.194 109.281 440.69 110.066 440.47 110.946C440.313 111.543 440.407 112.297 440.973 112.674C442.011 113.303 443.269 113.114 444.401 113.271C444.338 113.397 444.275 113.554 444.118 113.554C442.451 113.806 440.753 113.963 439.087 113.9C438.395 113.774 437.546 113.68 437.106 113.083C436.886 112.454 437.295 111.826 437.546 111.292C438.584 109.218 439.873 107.301 441.068 105.321C442.64 102.839 444.118 100.293 445.596 97.748C446.539 96.0511 447.608 94.4171 448.3 92.5945C448.363 92.4374 448.394 92.2489 448.457 92.0917C448.331 92.0603 448.174 92.0289 448.048 91.9975C445.753 92.0289 443.52 92.5317 441.225 92.4374C440.848 92.406 440.533 92.2174 440.439 91.9032Z" fill="#184655"/>
<path d="M404.941 97.8108C405.287 97.3394 405.601 96.8052 406.136 96.5224C406.45 96.4281 406.702 96.6481 406.796 96.9309C405.664 99.0677 404.312 101.079 402.897 103.059C403.651 103.153 404.438 103.436 404.846 104.127C404.972 104.284 405.004 104.63 404.752 104.63C404.469 104.441 404.312 104.158 404.029 103.97C403.62 103.687 403.117 103.593 402.614 103.436C398.243 109.343 394.25 115.502 390.351 121.756C388.904 124.112 387.521 126.532 386.168 128.952C385.005 130.994 383.936 133.068 382.961 135.237C382.615 136.054 382.206 136.902 382.332 137.813C382.395 138.222 382.867 138.347 383.181 138.19C383.967 137.908 384.565 137.31 385.162 136.745C387.929 133.822 390.445 130.649 392.803 127.381C395.633 123.484 398.495 119.587 401.325 115.691C402.614 113.931 403.903 112.14 405.224 110.412C405.507 110.003 405.884 109.626 406.104 109.186C407.142 107.144 408.337 105.195 409.5 103.216C409.626 103.027 409.752 102.744 410.035 102.839C410.538 102.933 410.852 103.436 411.135 103.844C410.789 104.473 410.349 105.038 409.972 105.667C408.871 107.395 407.833 109.155 407.016 111.04C406.796 111.606 406.544 112.203 406.733 112.8C406.89 113.177 407.393 113.146 407.708 112.988C408.557 112.549 409.217 111.857 409.814 111.103C410.915 109.783 411.638 108.243 412.519 106.798C413.085 105.792 413.714 104.787 414.311 103.813C414.437 103.593 414.625 103.436 414.814 103.31C415.569 103.876 415.789 105.07 415.16 105.824C414.122 107.301 412.865 108.621 412.078 110.255C411.481 111.386 411.072 112.674 411.229 113.931C411.261 114.371 411.67 114.717 412.141 114.717C413.273 114.78 414.248 114.12 415.191 113.554C416.198 112.863 417.141 112.077 418.021 111.229C418.304 110.977 418.399 110.6 418.587 110.255C419.594 108.306 421.04 106.641 422.707 105.258C424.153 104.127 425.757 103.059 427.612 102.713C428.146 102.587 428.681 102.587 429.216 102.524C429.436 102.116 429.719 101.644 430.19 101.519C430.693 101.362 431.197 101.236 431.7 101.11C431.354 101.613 431.008 102.084 430.693 102.587C431.291 102.681 431.983 102.556 432.517 102.901C432.517 102.964 432.486 103.121 432.486 103.184C431.825 102.996 431.165 102.964 430.505 102.964C429.278 105.038 428.084 107.144 427.014 109.312C426.543 110.349 426.071 111.386 425.851 112.517C425.788 112.988 425.725 113.586 426.134 113.9C426.543 114.183 427.077 114.12 427.518 114.057C428.775 113.805 429.876 113.083 430.882 112.36C433.178 110.663 435.19 108.621 437.014 106.452C437.202 106.578 437.234 106.798 437.045 106.955C435.567 108.621 434.027 110.223 432.297 111.669C431.008 112.768 429.593 113.774 427.989 114.403C427.077 114.748 426.071 114.968 425.128 114.717C424.342 114.497 423.996 113.586 424.059 112.863C424.247 111.386 424.971 110.035 425.725 108.778C424.31 110.475 422.77 112.14 420.883 113.303C420.223 113.711 419.499 114.088 418.682 114.025C418.304 114.025 417.927 113.805 417.801 113.46C417.613 112.926 417.77 112.36 417.927 111.826C416.575 113.051 415.129 114.214 413.431 114.905C412.613 115.22 411.67 115.408 410.821 115.125C410.255 114.937 409.846 114.403 409.783 113.805C409.657 112.863 409.94 111.92 410.318 111.072C409.437 112.077 408.557 113.24 407.236 113.648C406.576 113.837 405.727 113.931 405.224 113.334C404.783 112.768 404.972 112.046 405.098 111.386C403.997 112.926 402.834 114.403 401.733 115.942C399.218 119.462 396.702 122.918 394.187 126.406C391.545 129.989 388.873 133.602 385.76 136.839C384.659 137.939 383.401 138.913 381.955 139.51C381.42 139.73 380.791 139.856 380.225 139.699C379.722 139.479 379.597 138.882 379.659 138.379C379.848 136.933 380.666 135.708 381.42 134.482C386.168 126.658 391.294 119.053 396.293 111.417C395.287 112.423 394.25 113.523 392.803 113.837C392.3 113.931 391.703 113.963 391.262 113.617C390.854 113.271 390.822 112.674 390.885 112.171C391.011 111.323 391.388 110.537 391.828 109.815C392.74 108.338 393.872 107.018 395.161 105.855C396.262 104.913 397.394 104.001 398.746 103.467C399.689 103.121 400.696 102.933 401.733 102.964C402.802 101.236 403.809 99.4762 404.941 97.8108ZM424.971 104.504C422.832 106.295 421.166 108.621 420.128 111.197C419.94 111.732 419.719 112.266 419.814 112.831C420.034 113.177 420.474 112.926 420.789 112.768C422.361 111.857 423.744 110.6 424.939 109.218C426.574 107.301 427.706 105.038 428.995 102.901C427.486 102.807 426.103 103.561 424.971 104.504ZM399.658 103.624C398.495 104.001 397.646 104.881 396.859 105.761C395.319 107.521 393.872 109.406 392.866 111.512C392.677 112.014 392.394 112.58 392.646 113.083C392.929 113.114 393.18 113.083 393.432 112.957C394.344 112.549 395.067 111.889 395.727 111.197C396.765 110.035 397.708 108.778 398.62 107.521C399.595 106.138 400.57 104.755 401.45 103.31C400.853 103.373 400.224 103.404 399.658 103.624Z" fill="#184655"/>
<path d="M505.158 101.488C505.662 101.33 506.165 101.205 506.699 101.079C506.322 101.55 506.007 102.053 505.662 102.556C506.259 102.65 506.982 102.525 507.485 102.87C507.485 102.933 507.454 103.09 507.454 103.153C506.794 102.996 506.133 102.933 505.442 102.933C504.247 104.976 503.052 107.018 502.014 109.155C501.511 110.223 501.008 111.323 500.788 112.486C500.725 112.926 500.662 113.397 500.945 113.774C501.165 114.057 501.542 114.12 501.888 114.12C502.8 114.151 503.618 113.711 504.404 113.303C506.07 112.329 507.548 111.04 508.932 109.721C510.001 108.684 511.007 107.584 511.982 106.453C512.013 106.515 512.108 106.704 512.171 106.767C510.693 108.495 509.089 110.129 507.328 111.637C506.008 112.737 504.593 113.774 502.989 114.434C502.077 114.78 501.039 115.031 500.065 114.717C499.31 114.497 498.995 113.586 499.058 112.863C499.247 111.386 499.97 110.035 500.725 108.778C499.31 110.475 497.769 112.14 495.851 113.303C495.159 113.711 494.373 114.12 493.556 113.994C493.084 113.994 492.738 113.554 492.707 113.083C492.675 112.455 492.864 111.857 493.052 111.26C493.87 109.186 495.254 107.395 496.889 105.887C498.209 104.724 499.656 103.687 501.291 103.059C502.203 102.713 503.178 102.556 504.152 102.525C504.404 102.085 504.687 101.645 505.158 101.488ZM499.656 104.756C497.958 106.233 496.637 108.055 495.631 110.066C495.254 110.915 494.813 111.763 494.782 112.706C494.782 113.083 495.222 113.052 495.442 112.926C496.354 112.517 497.14 111.857 497.926 111.229C498.87 110.381 499.782 109.469 500.536 108.464C501.825 106.704 502.832 104.787 503.964 102.933C502.329 102.807 500.851 103.719 499.656 104.756Z" fill="#184655"/>
<path d="M487.236 102.179C487.424 102.085 487.644 101.833 487.833 102.053C487.424 102.619 487.204 103.341 487.393 104.064C487.519 104.724 488.116 105.164 488.745 105.321C489.72 105.541 490.726 105.29 491.575 104.85C492.644 104.284 493.587 103.53 494.468 102.744C494.719 102.493 495.191 102.776 495.097 103.122C494.845 103.436 494.468 103.593 494.153 103.844C492.424 105.038 490.915 106.452 489.217 107.678C487.267 109.123 485.255 110.443 483.242 111.763C483.588 112.172 484.091 112.392 484.531 112.674C488.305 115 492.11 117.325 496.197 119.085C497.581 119.65 498.996 120.185 500.474 120.405C502.423 120.687 504.467 120.247 506.039 119.085C507.266 118.236 508.209 117.074 508.964 115.785C509.027 115.565 509.435 115.597 509.341 115.848C508.964 117.451 507.643 118.676 506.259 119.525C504.09 120.813 501.511 121.253 499.027 121.002C496.449 120.782 493.965 119.965 491.638 118.896C488.305 117.356 485.255 115.283 482.205 113.271C481.89 113.114 481.607 112.769 481.261 112.831C480.475 113.177 479.815 113.806 478.997 114.057C478.934 113.931 478.809 113.806 478.809 113.617C478.871 113.46 479.029 113.366 479.186 113.303C482.739 111.669 486.072 109.595 489.185 107.269C489.846 106.767 490.506 106.264 491.072 105.635C491.009 105.604 490.915 105.51 490.852 105.478C489.814 105.761 488.776 106.075 487.676 106.138C487.11 106.107 486.544 105.887 486.104 105.573C485.569 105.164 485.412 104.441 485.506 103.813C485.884 103.122 486.575 102.65 487.236 102.179Z" fill="#184655"/>
</svg>
