<svg width="17" height="17" viewBox="0 0 17 17" fill="none" xmlns="http://www.w3.org/2000/svg">
<path d="M6.00622 9.37877C6.00622 9.16581 5.83349 8.99329 5.62036 8.99329H4.27384C4.06095 8.99329 3.88818 9.16581 3.88818 9.37877V10.7251C3.88818 10.9383 4.06095 11.1109 4.27384 11.1109H5.62036C5.83349 11.1109 6.00622 10.9383 6.00622 10.7251V9.37877Z" fill="#787878"/>
<path d="M9.36979 9.37877C9.36979 9.16581 9.19702 8.99329 8.98431 8.99329H7.63761C7.42472 8.99329 7.25195 9.16581 7.25195 9.37877V10.7251C7.25195 10.9383 7.42472 11.1109 7.63761 11.1109H8.98431C9.19702 11.1109 9.36979 10.9383 9.36979 10.7251V9.37877Z" fill="#787878"/>
<path d="M12.736 9.37877C12.736 9.16581 12.5632 8.99329 12.3503 8.99329H11.0038C10.7907 8.99329 10.6179 9.16581 10.6179 9.37877V10.7251C10.6179 10.9383 10.7907 11.1109 11.0038 11.1109H12.3503C12.5632 11.1109 12.736 10.9383 12.736 10.7251V9.37877Z" fill="#787878"/>
<path d="M6.00622 12.7443C6.00622 12.531 5.83349 12.3586 5.62036 12.3586H4.27384C4.06095 12.3586 3.88818 12.531 3.88818 12.7443V14.0904C3.88818 14.3035 4.06095 14.4761 4.27384 14.4761H5.62036C5.83349 14.4761 6.00622 14.3035 6.00622 14.0904V12.7443Z" fill="#787878"/>
<path d="M9.36979 12.7443C9.36979 12.531 9.19702 12.3586 8.98431 12.3586H7.63761C7.42472 12.3586 7.25195 12.531 7.25195 12.7443V14.0904C7.25195 14.3035 7.42472 14.4761 7.63761 14.4761H8.98431C9.19702 14.4761 9.36979 14.3035 9.36979 14.0904V12.7443Z" fill="#787878"/>
<path d="M12.736 12.7443C12.736 12.531 12.5632 12.3586 12.3505 12.3586H11.0038C10.7907 12.3586 10.6179 12.531 10.6179 12.7443V14.0904C10.6179 14.3035 10.7907 14.4761 11.0038 14.4761H12.3505C12.5632 14.4761 12.736 14.3035 12.736 14.0904V12.7443Z" fill="#787878"/>
<path d="M15.1435 1.89288V3.94931C15.1435 4.8788 14.3895 5.62782 13.4601 5.62782H12.3982C11.4688 5.62782 10.7048 4.8788 10.7048 3.94931V1.8855H5.91837V3.94931C5.91837 4.8788 5.15438 5.62782 4.2251 5.62782H3.16297C2.23365 5.62782 1.47965 4.8788 1.47965 3.94931V1.89288C0.667425 1.91736 0 2.58946 0 3.41554V15.4672C0 16.3088 0.682156 17 1.52378 17H15.0993C15.9397 17 16.6231 16.3074 16.6231 15.4672V3.41554C16.6231 2.58946 15.9557 1.91736 15.1435 1.89288ZM14.6503 14.7167C14.6503 15.0804 14.3554 15.3755 13.9915 15.3755H2.60259C2.23874 15.3755 1.94384 15.0804 1.94384 14.7167V8.4916C1.94384 8.12775 2.2387 7.83267 2.60259 7.83267H13.9915C14.3553 7.83267 14.6502 8.12775 14.6502 8.4916L14.6503 14.7167Z" fill="#787878"/>
<path d="M3.15961 4.52536H4.21001C4.52883 4.52536 4.78734 4.26724 4.78734 3.94841V0.577158C4.78734 0.258299 4.52883 0 4.21001 0H3.15961C2.84075 0 2.58228 0.258299 2.58228 0.577158V3.94841C2.58228 4.26724 2.84075 4.52536 3.15961 4.52536Z" fill="#787878"/>
<path d="M12.3849 4.52536H13.4353C13.7539 4.52536 14.0124 4.26724 14.0124 3.94841V0.577158C14.0125 0.258299 13.754 0 13.4353 0H12.3849C12.0661 0 11.8076 0.258299 11.8076 0.577158V3.94841C11.8076 4.26724 12.0661 4.52536 12.3849 4.52536Z" fill="#787878"/>
</svg>
