<svg width="14" height="13" viewBox="0 0 14 13" fill="none" xmlns="http://www.w3.org/2000/svg">
<path d="M5.5042 7.17198C5.5042 7.00913 5.37211 6.8772 5.20912 6.8772H4.17943C4.01664 6.8772 3.88452 7.00913 3.88452 7.17198V8.20153C3.88452 8.3646 4.01664 8.49658 4.17943 8.49658H5.20912C5.37211 8.49658 5.5042 8.3646 5.5042 8.20153V7.17198Z" fill="white"/>
<path d="M8.07631 7.17198C8.07631 7.00913 7.9442 6.8772 7.78153 6.8772H6.7517C6.5889 6.8772 6.45679 7.00913 6.45679 7.17198V8.20153C6.45679 8.3646 6.5889 8.49658 6.7517 8.49658H7.78153C7.9442 8.49658 8.07631 8.3646 8.07631 8.20153V7.17198Z" fill="white"/>
<path d="M10.6504 7.17198C10.6504 7.00913 10.5183 6.8772 10.3555 6.8772H9.32583C9.16285 6.8772 9.03076 7.00913 9.03076 7.17198V8.20153C9.03076 8.3646 9.16285 8.49658 9.32583 8.49658H10.3555C10.5183 8.49658 10.6504 8.3646 10.6504 8.20153V7.17198Z" fill="white"/>
<path d="M5.5042 9.74562C5.5042 9.58251 5.37211 9.45068 5.20912 9.45068H4.17943C4.01664 9.45068 3.88452 9.58251 3.88452 9.74562V10.775C3.88452 10.9379 4.01664 11.0699 4.17943 11.0699H5.20912C5.37211 11.0699 5.5042 10.9379 5.5042 10.775V9.74562Z" fill="white"/>
<path d="M8.07631 9.74562C8.07631 9.58251 7.9442 9.45068 7.78153 9.45068H6.7517C6.5889 9.45068 6.45679 9.58251 6.45679 9.74562V10.775C6.45679 10.9379 6.5889 11.0699 6.7517 11.0699H7.78153C7.9442 11.0699 8.07631 10.9379 8.07631 10.775V9.74562Z" fill="white"/>
<path d="M10.6504 9.74562C10.6504 9.58251 10.5183 9.45068 10.3557 9.45068H9.32583C9.16285 9.45068 9.03076 9.58251 9.03076 9.74562V10.775C9.03076 10.9379 9.16285 11.0699 9.32583 11.0699H10.3557C10.5183 11.0699 10.6504 10.9379 10.6504 10.775V9.74562Z" fill="white"/>
<path d="M12.4915 1.44754V3.02011C12.4915 3.73089 11.9149 4.30367 11.2042 4.30367H10.3921C9.68139 4.30367 9.09713 3.73089 9.09713 3.02011V1.44189H5.43695V3.02011C5.43695 3.73089 4.85272 4.30367 4.1421 4.30367H3.32987C2.61922 4.30367 2.04263 3.73089 2.04263 3.02011V1.44754C1.42152 1.46626 0.911133 1.98022 0.911133 2.61193V11.8279C0.911133 12.4715 1.43278 13.0001 2.07638 13.0001H12.4577C13.1003 13.0001 13.6229 12.4704 13.6229 11.8279V2.61193C13.6229 1.98022 13.1126 1.46626 12.4915 1.44754ZM12.1143 11.254C12.1143 11.5321 11.8888 11.7578 11.6105 11.7578H2.90135C2.62311 11.7578 2.3976 11.5321 2.3976 11.254V6.49362C2.3976 6.21538 2.62309 5.98974 2.90135 5.98974H11.6105C11.8888 5.98974 12.1143 6.21538 12.1143 6.49362L12.1143 11.254Z" fill="white"/>
<path d="M3.32748 3.46058H4.13072C4.37453 3.46058 4.57221 3.26319 4.57221 3.01938V0.441357C4.57221 0.197523 4.37453 0 4.13072 0H3.32748C3.08364 0 2.88599 0.197523 2.88599 0.441357V3.01938C2.88599 3.26319 3.08364 3.46058 3.32748 3.46058Z" fill="white"/>
<path d="M10.3819 3.46058H11.1851C11.4288 3.46058 11.6265 3.26319 11.6265 3.01938V0.441357C11.6265 0.197523 11.4288 0 11.1851 0H10.3819C10.1381 0 9.94043 0.197523 9.94043 0.441357V3.01938C9.94043 3.26319 10.1381 3.46058 10.3819 3.46058Z" fill="white"/>
</svg>
