<svg width="21" height="21" viewBox="0 0 21 21" fill="none" xmlns="http://www.w3.org/2000/svg">
<path d="M10.5 21C4.72235 21 0 16.2777 0 10.5C0 4.7224 4.72235 0 10.5 0C10.9485 0 11.2915 0.342973 11.2915 0.791434C11.2915 1.2399 10.9485 1.58287 10.5 1.58287C5.59296 1.58287 1.58292 5.59291 1.58292 10.5C1.58292 15.407 5.59296 19.4171 10.5 19.4171C15.4071 19.4171 19.4171 15.407 19.4171 10.5C19.4171 10.0515 19.7601 9.70854 20.2086 9.70854C20.657 9.70854 21 10.0515 21 10.5C21 16.2777 16.2777 21 10.5 21Z" fill="black"/>
<path d="M8.96529 13C8.76775 13 8.59215 12.9093 8.48241 12.7733L5.16816 9.05442C4.92672 8.78233 4.94869 8.35147 5.21206 8.10204C5.47543 7.8526 5.89247 7.8753 6.13391 8.14739L8.98722 11.3447L16.8888 3.20407C17.1521 2.93198 17.5692 2.93198 17.8106 3.20407C18.052 3.47616 18.074 3.90702 17.8106 4.15646L9.42624 12.7959C9.31646 12.932 9.1409 13 8.96529 13Z" fill="#13A3EF"/>
</svg>
