<svg width="32" height="28" viewBox="0 0 32 28" fill="none" xmlns="http://www.w3.org/2000/svg">
<path d="M0.912174 1.82435H6.50684C7.00972 1.82435 7.41901 2.23364 7.41901 2.73652C7.41901 2.81515 7.30357 1.74762 9.15737 18.4328C8.14091 18.8326 7.41901 19.8232 7.41901 20.98C7.41901 22.4889 8.64665 23.7158 10.1555 23.7158H11.2245C11.1233 24.0014 11.0677 24.309 11.0677 24.6287C11.0677 26.1376 12.2953 27.3652 13.8042 27.3652C15.3131 27.3652 16.5408 26.1376 16.5408 24.6287C16.5408 24.309 16.4852 24.0014 16.384 23.7158H22.1708C22.0694 24.0014 22.0138 24.309 22.0138 24.6287C22.0138 26.1376 23.2414 27.3652 24.7503 27.3652C26.2592 27.3652 27.4868 26.1376 27.4868 24.6287C27.4868 23.1198 26.2592 21.8922 24.7503 21.8922H10.1555C9.65265 21.8922 9.24336 21.4829 9.24336 20.98C9.24336 20.4771 9.65265 20.0678 10.1555 20.0678H26.8535C28.1969 20.0678 29.3321 19.1063 29.5528 17.7812L31.1232 8.35946C31.1671 8.09507 31.0928 7.82451 30.9194 7.61998C30.746 7.41546 30.4916 7.2974 30.2234 7.2974H27.4868V2.73652C27.4868 2.23269 27.0785 1.82435 26.5747 1.82435H19.2773C18.7734 1.82435 18.3651 2.23269 18.3651 2.73652V3.6487H13.8042C13.3004 3.6487 12.8921 4.05704 12.8921 4.56087V7.2974H9.75575L9.24289 2.68094C9.21296 1.1977 7.9972 0 6.50684 0H0.912174C0.40834 0 0 0.408341 0 0.912174C0 1.41601 0.40834 1.82435 0.912174 1.82435ZM14.7164 24.6287C14.7164 25.1316 14.3071 25.5409 13.8042 25.5409C13.3013 25.5409 12.8921 25.1316 12.8921 24.6287C12.8921 24.1258 13.3013 23.7158 13.8042 23.7158C14.3071 23.7158 14.7164 24.1258 14.7164 24.6287ZM24.7503 25.5409C24.2474 25.5409 23.8381 25.1316 23.8381 24.6287C23.8381 24.1242 24.2474 23.7165 24.7503 23.7165C25.2532 23.7165 25.6625 24.1258 25.6625 24.6287C25.6625 25.1316 25.2532 25.5409 24.7503 25.5409ZM20.1894 3.6487H25.6625V7.2974H20.1894V3.6487ZM14.7164 5.47305H18.3651V7.2974H14.7164V5.47305ZM29.1466 9.12175L27.7534 17.4812C27.6797 17.923 27.3013 18.2435 26.8535 18.2435H10.972L9.95837 9.12175H29.1466Z" fill="#13A3EF"/>
<path d="M13.8028 16.4191C14.3066 16.4191 14.715 16.0108 14.715 15.5069V11.8582C14.715 11.3544 14.3066 10.946 13.8028 10.946C13.299 10.946 12.8906 11.3544 12.8906 11.8582V15.5069C12.8906 16.0108 13.299 16.4191 13.8028 16.4191Z" fill="#13A3EF"/>
<path d="M19.2755 16.4191C19.7793 16.4191 20.1876 16.0108 20.1876 15.5069V11.8582C20.1876 11.3544 19.7793 10.946 19.2755 10.946C18.7716 10.946 18.3633 11.3544 18.3633 11.8582V15.5069C18.3633 16.0108 18.7716 16.4191 19.2755 16.4191Z" fill="#13A3EF"/>
<path d="M24.752 16.4191C25.2559 16.4191 25.6642 16.0108 25.6642 15.5069V11.8582C25.6642 11.3544 25.2559 10.946 24.752 10.946C24.2482 10.946 23.8398 11.3544 23.8398 11.8582V15.5069C23.8398 16.0108 24.2482 16.4191 24.752 16.4191Z" fill="#13A3EF"/>
</svg>
