<svg width="28" height="25" viewBox="0 0 28 25" fill="none" xmlns="http://www.w3.org/2000/svg">
<path d="M0.812174 1.62435H5.79351C6.24126 1.62435 6.60568 1.98877 6.60568 2.43652C6.60568 2.50653 6.50289 1.55603 8.15347 16.4121C7.24844 16.768 6.60568 17.65 6.60568 18.68C6.60568 20.0235 7.69873 21.1159 9.0422 21.1159H9.99397C9.90387 21.3701 9.85438 21.644 9.85438 21.9287C9.85438 23.2722 10.9474 24.3652 12.2909 24.3652C13.6344 24.3652 14.7274 23.2722 14.7274 21.9287C14.7274 21.644 14.6779 21.3701 14.5878 21.1159H19.7403C19.65 21.3701 19.6005 21.644 19.6005 21.9287C19.6005 23.2722 20.6935 24.3652 22.037 24.3652C23.3805 24.3652 24.4735 23.2722 24.4735 21.9287C24.4735 20.5852 23.3805 19.4922 22.037 19.4922H9.0422C8.59445 19.4922 8.23003 19.1278 8.23003 18.68C8.23003 18.2323 8.59445 17.8678 9.0422 17.8678H23.9096C25.1057 17.8678 26.1165 17.0117 26.313 15.8319L27.7112 7.44303C27.7503 7.20763 27.6841 6.96672 27.5297 6.78462C27.3753 6.60251 27.1488 6.4974 26.91 6.4974H24.4735V2.43652C24.4735 1.98792 24.1099 1.62435 23.6613 1.62435H17.1639C16.7153 1.62435 16.3518 1.98792 16.3518 2.43652V3.2487H12.2909C11.8423 3.2487 11.4787 3.61227 11.4787 4.06087V6.4974H8.68624L8.22961 2.38703C8.20296 1.0664 7.12048 0 5.79351 0H0.812174C0.363575 0 0 0.363575 0 0.812174C0 1.26077 0.363575 1.62435 0.812174 1.62435ZM13.1031 21.9287C13.1031 22.3765 12.7387 22.7409 12.2909 22.7409C11.8431 22.7409 11.4787 22.3765 11.4787 21.9287C11.4787 21.481 11.8431 21.1159 12.2909 21.1159C12.7387 21.1159 13.1031 21.481 13.1031 21.9287ZM22.037 22.7409C21.5892 22.7409 21.2248 22.3765 21.2248 21.9287C21.2248 21.4795 21.5892 21.1165 22.037 21.1165C22.4847 21.1165 22.8492 21.481 22.8492 21.9287C22.8492 22.3765 22.4847 22.7409 22.037 22.7409ZM17.9761 3.2487H22.8492V6.4974H17.9761V3.2487ZM13.1031 4.87305H16.3518V6.4974H13.1031V4.87305ZM25.9513 8.12174L24.7108 15.5648C24.6453 15.9582 24.3083 16.2435 23.9096 16.2435H9.76914L8.86666 8.12174H25.9513Z" fill="white"/>
<path d="M12.2909 14.6191C12.7395 14.6191 13.1031 14.2556 13.1031 13.807V10.5583C13.1031 10.1097 12.7395 9.74609 12.2909 9.74609C11.8423 9.74609 11.4788 10.1097 11.4788 10.5583V13.807C11.4788 14.2556 11.8423 14.6191 12.2909 14.6191Z" fill="white"/>
<path d="M17.164 14.6191C17.6126 14.6191 17.9762 14.2556 17.9762 13.807V10.5583C17.9762 10.1097 17.6126 9.74609 17.164 9.74609C16.7154 9.74609 16.3518 10.1097 16.3518 10.5583V13.807C16.3518 14.2556 16.7154 14.6191 17.164 14.6191Z" fill="white"/>
<path d="M22.037 14.6191C22.4856 14.6191 22.8492 14.2556 22.8492 13.807V10.5583C22.8492 10.1097 22.4856 9.74609 22.037 9.74609C21.5884 9.74609 21.2249 10.1097 21.2249 10.5583V13.807C21.2249 14.2556 21.5884 14.6191 22.037 14.6191Z" fill="white"/>
</svg>
