<svg width="15" height="15" viewBox="0 0 15 15" fill="none" xmlns="http://www.w3.org/2000/svg">
<g clip-path="url(#clip0)">
<path d="M13.682 1.78711H1.31872C1.11578 1.78711 0.925791 1.837 0.753906 1.91924L7.47106 8.6364L8.9766 7.18951C8.9766 7.18951 8.97672 7.18937 8.97675 7.18931C8.97678 7.18925 8.97689 7.18919 8.97689 7.18919L14.247 1.91936C14.0751 1.83706 13.885 1.78711 13.682 1.78711Z" fill="#216AB1"/>
<path d="M14.8677 2.54077L9.9082 7.49997L14.8675 12.4593C14.9497 12.2874 14.9996 12.0974 14.9996 11.8944V3.10538C14.9996 2.90256 14.9498 2.7126 14.8677 2.54077Z" fill="#216AB1"/>
<path d="M0.132129 2.54053C0.0498926 2.71241 0 2.9024 0 3.10534V11.8944C0 12.0972 0.049834 12.2872 0.132012 12.4591L5.09147 7.49987L0.132129 2.54053Z" fill="#216AB1"/>
<path d="M9.28774 8.12164L7.78199 9.5687C7.69615 9.65454 7.58371 9.69746 7.4713 9.69746C7.35889 9.69746 7.24642 9.65454 7.16061 9.5687L5.71346 8.12158L0.753906 13.0808C0.92582 13.1631 1.11593 13.2131 1.31893 13.2131H13.6822C13.8851 13.2131 14.0751 13.1632 14.247 13.0809L9.28774 8.12164Z" fill="#216AB1"/>
</g>
<defs>
<clipPath id="clip0">
<rect width="15" height="15" fill="white"/>
</clipPath>
</defs>
</svg>
