<svg width="260" height="222" viewBox="0 0 260 222" fill="none" xmlns="http://www.w3.org/2000/svg">
<path d="M72.1859 201.377C72.1859 212.314 106.947 221.173 149.819 221.173C192.697 221.173 227.451 212.307 227.451 201.377C227.451 190.439 192.697 181.581 149.819 181.581C106.947 181.581 72.1859 190.446 72.1859 201.377Z" fill="#A9E1FF"/>
<path d="M230.642 36.1628H185.729" stroke="#216AB1" stroke-width="3" stroke-miterlimit="10"/>
<path d="M217.128 42.4592H172.215" stroke="#216AB1" stroke-width="3" stroke-miterlimit="10"/>
<path d="M98.5723 10.9644H53.6597" stroke="#216AB1" stroke-width="3" stroke-miterlimit="10"/>
<path d="M85.0586 17.2607H40.1461" stroke="#216AB1" stroke-width="3" stroke-miterlimit="10"/>
<path d="M47.2666 128.893H18.0536" stroke="#216AB1" stroke-width="3" stroke-miterlimit="10"/>
<path d="M33.7529 135.196H2.35379" stroke="#216AB1" stroke-width="3" stroke-miterlimit="10"/>
<path d="M254.128 167.425H224.915" stroke="#216AB1" stroke-width="3" stroke-miterlimit="10"/>
<path d="M240.614 173.722H209.215" stroke="#216AB1" stroke-width="3" stroke-miterlimit="10"/>
<path d="M166.575 6.48223C166.575 8.95838 168.576 10.9645 171.046 10.9645C173.516 10.9645 175.518 8.95838 175.518 6.48223C175.518 4.00608 173.516 2 171.046 2C168.576 2 166.575 4.00608 166.575 6.48223Z" stroke="#216AB1" stroke-width="2.5" stroke-miterlimit="10"/>
<path d="M35.6753 105.614C35.6753 108.09 37.6765 110.097 40.1467 110.097C42.6169 110.097 44.6182 108.09 44.6182 105.614C44.6182 103.138 42.6169 101.132 40.1467 101.132C37.6765 101.139 35.6753 103.145 35.6753 105.614Z" stroke="#216AB1" stroke-width="2.5" stroke-miterlimit="10"/>
<path d="M249.657 65.6119C249.657 68.088 251.658 70.0941 254.128 70.0941C256.598 70.0941 258.6 68.088 258.6 65.6119C258.6 63.1357 256.598 61.1296 254.128 61.1296C251.658 61.1363 249.657 63.1423 249.657 65.6119Z" stroke="#216AB1" stroke-width="2.5" stroke-miterlimit="10"/>
<path d="M49.1948 166.095C49.1948 168.571 51.1961 170.577 53.6663 170.577C56.1365 170.577 58.1377 168.571 58.1377 166.095C58.1377 163.618 56.1365 161.612 53.6663 161.612C51.1961 161.612 49.1948 163.618 49.1948 166.095Z" stroke="#216AB1" stroke-width="2.5" stroke-miterlimit="10"/>
<path d="M74.9668 34.6467L65.6607 43.9753" stroke="#216AB1" stroke-width="1.5633" stroke-miterlimit="10" stroke-linecap="round"/>
<path d="M65.6607 34.6467L74.9668 43.9753" stroke="#216AB1" stroke-width="1.5633" stroke-miterlimit="10" stroke-linecap="round"/>
<path d="M70.3105 33.4749V45.1472" stroke="#216AB1" stroke-width="1.749" stroke-miterlimit="10" stroke-linecap="round"/>
<path d="M64.4849 39.3142H76.1357" stroke="#216AB1" stroke-width="1.749" stroke-miterlimit="10" stroke-linecap="round"/>
<path d="M11.4814 53.251L2.17532 62.5796" stroke="#216AB1" stroke-width="1.5633" stroke-miterlimit="10" stroke-linecap="round"/>
<path d="M2.17532 53.251L11.4814 62.5796" stroke="#216AB1" stroke-width="1.5633" stroke-miterlimit="10" stroke-linecap="round"/>
<path d="M6.8252 52.0791V63.7581" stroke="#216AB1" stroke-width="1.749" stroke-miterlimit="10" stroke-linecap="round"/>
<path d="M0.999558 57.9185H12.6504" stroke="#216AB1" stroke-width="1.749" stroke-miterlimit="10" stroke-linecap="round"/>
<path d="M250.998 122.716L241.692 132.044" stroke="#216AB1" stroke-width="1.5633" stroke-miterlimit="10" stroke-linecap="round"/>
<path d="M241.692 122.716L250.998 132.044" stroke="#216AB1" stroke-width="1.5633" stroke-miterlimit="10" stroke-linecap="round"/>
<path d="M246.342 121.544V133.216" stroke="#216AB1" stroke-width="1.749" stroke-miterlimit="10" stroke-linecap="round"/>
<path d="M240.516 127.376H252.167" stroke="#216AB1" stroke-width="1.749" stroke-miterlimit="10" stroke-linecap="round"/>
<path d="M81.2675 129.727C84.4113 142.465 97.7002 152.886 110.791 152.886H181.541C194.632 152.886 209.737 143.094 215.1 131.124L234.769 87.275C240.132 75.3047 233.818 65.5127 220.727 65.5127H89.2064C76.1157 65.5127 67.9786 75.9337 71.1291 88.672L81.2675 129.727Z" stroke="#216AB1" stroke-width="7.2645" stroke-miterlimit="10" stroke-linecap="round" stroke-linejoin="round"/>
<path d="M236.678 79.1382H70.8911" stroke="#216AB1" stroke-width="7.2645" stroke-miterlimit="10" stroke-linecap="round" stroke-linejoin="round"/>
<path d="M231.672 94.1738H72.4768" stroke="#216AB1" stroke-width="7.2645" stroke-miterlimit="10" stroke-linecap="round" stroke-linejoin="round"/>
<path d="M224.935 109.203H76.1948" stroke="#216AB1" stroke-width="7.2645" stroke-miterlimit="10" stroke-linecap="round" stroke-linejoin="round"/>
<path d="M217.821 124.232H79.9068" stroke="#216AB1" stroke-width="7.2645" stroke-miterlimit="10" stroke-linecap="round" stroke-linejoin="round"/>
<path d="M209.711 139.261H85.7523" stroke="#216AB1" stroke-width="7.2645" stroke-miterlimit="10" stroke-linecap="round" stroke-linejoin="round"/>
<path d="M222.939 65.6121L187.947 147.02" stroke="#216AB1" stroke-width="7.2645" stroke-miterlimit="10" stroke-linecap="round" stroke-linejoin="round"/>
<path d="M196.99 65.6121L161.998 147.02" stroke="#216AB1" stroke-width="7.2645" stroke-miterlimit="10" stroke-linecap="round" stroke-linejoin="round"/>
<path d="M171.046 65.6121L136.047 147.02" stroke="#216AB1" stroke-width="7.2645" stroke-miterlimit="10" stroke-linecap="round" stroke-linejoin="round"/>
<path d="M145.096 65.6121L110.104 147.02" stroke="#216AB1" stroke-width="7.2645" stroke-miterlimit="10" stroke-linecap="round" stroke-linejoin="round"/>
<path d="M119.146 65.6121L86.8547 140.731" stroke="#216AB1" stroke-width="7.2645" stroke-miterlimit="10" stroke-linecap="round" stroke-linejoin="round"/>
<path d="M93.1953 65.6121L75.7058 106.316" stroke="#216AB1" stroke-width="7.2645" stroke-miterlimit="10" stroke-linecap="round" stroke-linejoin="round"/>
<path d="M36.2095 48.6829C36.2095 48.6829 57.7279 35.8585 62.2059 54.4826C66.6773 73.1067 93.4531 184.553 93.4531 184.553H199.737" stroke="#216AB1" stroke-width="10.8967" stroke-miterlimit="10" stroke-linecap="round" stroke-linejoin="round"/>
<path d="M28.819 52.1918C28.819 56.5086 32.3129 60.0109 36.6126 60.0109C40.9189 60.0109 44.4062 56.5152 44.4062 52.1918C44.4062 47.8751 40.9189 44.3794 36.6126 44.3794C32.3129 44.3794 28.819 47.8751 28.819 52.1918Z" fill="#216AB1"/>
<path d="M172.294 195.034C172.294 201.873 177.822 207.415 184.645 207.415C191.468 207.415 196.996 201.873 196.996 195.034C196.996 188.195 191.468 182.653 184.645 182.653C177.822 182.653 172.294 188.195 172.294 195.034Z" fill="#216AB1"/>
<path d="M97.7532 195.034C97.7532 201.873 103.281 207.415 110.104 207.415C116.927 207.415 122.455 201.873 122.455 195.034C122.455 188.195 116.927 182.653 110.104 182.653C103.281 182.653 97.7532 188.195 97.7532 195.034Z" fill="#216AB1"/>
<path d="M88.5854 153.164C88.592 156.481 91.0225 159.169 94.0211 159.169L202.524 159.024C205.523 159.017 207.947 156.322 207.94 153.005C207.934 149.689 205.503 146.994 202.505 147.001L94.0013 147.146C91.0093 147.153 88.5787 149.847 88.5854 153.164Z" fill="#ECECEC" stroke="#216AB1" stroke-width="7.2645" stroke-miterlimit="10" stroke-linecap="round" stroke-linejoin="round"/>
</svg>
