<svg width="24" height="20" viewBox="0 0 24 20" fill="none" xmlns="http://www.w3.org/2000/svg">
<path d="M12.1692 19.6334C11.8413 19.6334 11.5251 19.5195 11.2787 19.3128C10.3482 18.5333 9.45111 17.8007 8.65961 17.1545L8.65557 17.1512C6.33502 15.2565 4.33113 13.6204 2.93687 12.0086C1.3783 10.2068 0.652344 8.49838 0.652344 6.63206C0.652344 4.81877 1.30133 3.1459 2.47961 1.92138C3.67196 0.682383 5.30803 0 7.08698 0C8.41657 0 9.63422 0.402729 10.706 1.19691C11.2469 1.59778 11.7372 2.0884 12.1692 2.66067C12.6013 2.0884 13.0914 1.59778 13.6325 1.19691C14.7043 0.402729 15.9219 0 17.2515 0C19.0303 0 20.6666 0.682383 21.8589 1.92138C23.0372 3.1459 23.686 4.81877 23.686 6.63206C23.686 8.49838 22.9602 10.2068 21.4016 12.0085C20.0074 13.6204 18.0037 15.2564 15.6835 17.1508C14.8906 17.798 13.992 18.5317 13.0594 19.3131C12.8132 19.5195 12.4969 19.6334 12.1692 19.6334ZM7.08698 1.29271C5.68937 1.29271 4.40547 1.8271 3.47145 2.79755C2.52355 3.78265 2.00144 5.14439 2.00144 6.63206C2.00144 8.20173 2.61036 9.60555 3.97563 11.1838C5.29521 12.7094 7.25797 14.3119 9.53054 16.1674L9.53476 16.1708C10.3292 16.8195 11.2299 17.5549 12.1672 18.3402C13.1102 17.5534 14.0123 16.8168 14.8083 16.1671C17.0807 14.3115 19.0433 12.7094 20.3629 11.1838C21.728 9.60555 22.3369 8.20173 22.3369 6.63206C22.3369 5.14439 21.8148 3.78265 20.8669 2.79755C19.933 1.8271 18.649 1.29271 17.2515 1.29271C16.2277 1.29271 15.2877 1.60452 14.4577 2.21939C13.7181 2.76758 13.2028 3.46057 12.9007 3.94546C12.7454 4.19481 12.472 4.34364 12.1692 4.34364C11.8664 4.34364 11.5929 4.19481 11.4376 3.94546C11.1357 3.46057 10.6204 2.76758 9.8806 2.21939C9.05062 1.60452 8.11062 1.29271 7.08698 1.29271Z" fill="#13A3EF"/>
</svg>
