<svg width="24" height="20" viewBox="0 0 24 20" fill="none" xmlns="http://www.w3.org/2000/svg">
<path d="M12.1697 19.6334C11.8417 19.6334 11.5256 19.5195 11.2792 19.3128C10.3487 18.5333 9.4516 17.8007 8.6601 17.1545L8.65606 17.1512C6.3355 15.2565 4.33162 13.6204 2.93736 12.0086C1.37878 10.2068 0.652832 8.49838 0.652832 6.63206C0.652832 4.81877 1.30181 3.1459 2.4801 1.92138C3.67245 0.682383 5.30852 0 7.08747 0C8.41706 0 9.63471 0.402729 10.7065 1.19691C11.2474 1.59778 11.7377 2.0884 12.1697 2.66067C12.6018 2.0884 13.0919 1.59778 13.633 1.19691C14.7048 0.402729 15.9224 0 17.252 0C19.0308 0 20.667 0.682383 21.8594 1.92138C23.0377 3.1459 23.6865 4.81877 23.6865 6.63206C23.6865 8.49838 22.9607 10.2068 21.4021 12.0085C20.0079 13.6204 18.0042 15.2564 15.684 17.1508C14.8911 17.798 13.9925 18.5317 13.0599 19.3131C12.8137 19.5195 12.4974 19.6334 12.1697 19.6334ZM7.08747 1.29271C5.68986 1.29271 4.40596 1.8271 3.47194 2.79755C2.52404 3.78265 2.00193 5.14439 2.00193 6.63206C2.00193 8.20173 2.61085 9.60555 3.97612 11.1838C5.29569 12.7094 7.25845 14.3119 9.53103 16.1674L9.53525 16.1708C10.3297 16.8195 11.2304 17.5549 12.1677 18.3402C13.1107 17.5534 14.0127 16.8168 14.8088 16.1671C17.0812 14.3115 19.0438 12.7094 20.3634 11.1838C21.7285 9.60555 22.3374 8.20173 22.3374 6.63206C22.3374 5.14439 21.8153 3.78265 20.8674 2.79755C19.9335 1.8271 18.6495 1.29271 17.252 1.29271C16.2282 1.29271 15.2882 1.60452 14.4582 2.21939C13.7186 2.76758 13.2033 3.46057 12.9012 3.94546C12.7459 4.19481 12.4724 4.34364 12.1697 4.34364C11.8669 4.34364 11.5934 4.19481 11.4381 3.94546C11.1362 3.46057 10.6209 2.76758 9.88109 2.21939C9.0511 1.60452 8.11111 1.29271 7.08747 1.29271Z" fill="black"/>
</svg>
