<svg width="17" height="22" viewBox="0 0 17 22" fill="none" xmlns="http://www.w3.org/2000/svg">
<path d="M4.42083 22C1.59534 13.9414 7.56552 10.999 7.56552 10.999C7.1478 15.2992 9.97106 18.6493 9.97106 18.6493C11.0094 18.3781 12.9913 17.1108 12.9913 17.1108C12.9913 18.6493 11.9456 21.9981 11.9456 21.9981C11.9456 21.9981 15.6065 19.548 16.7589 15.4787C17.9098 11.4093 14.5666 7.32393 14.5666 7.32393C14.7681 10.2041 13.6423 13.0369 11.4368 15.2011C11.5471 15.0908 11.6397 14.9684 11.7108 14.8357C12.107 14.1498 12.7432 12.367 12.3707 8.2387C11.8463 2.44366 5.77987 0 5.77987 0C6.30275 3.53087 4.73485 4.34436 1.06209 11.0465C-2.61066 17.7473 4.42083 22 4.42083 22Z" fill="#216AB1"/>
</svg>
