<svg width="10" height="13" viewBox="0 0 10 13" fill="none" xmlns="http://www.w3.org/2000/svg">
<path d="M2.60044 12.9409C0.938421 8.2007 4.45022 6.46991 4.45022 6.46991C4.20452 8.99935 5.86523 10.97 5.86523 10.97C6.47601 10.8105 7.64182 10.065 7.64182 10.065C7.64182 10.97 7.02668 12.9398 7.02668 12.9398C7.02668 12.9398 9.18011 11.4986 9.85799 9.10493C10.535 6.71124 8.56846 4.30812 8.56846 4.30812C8.68696 6.00233 8.02476 7.66864 6.72739 8.94166C6.7923 8.8768 6.84676 8.80478 6.88858 8.72672C7.12165 8.32325 7.49588 7.27459 7.27674 4.84621C6.9683 1.43742 3.39986 0 3.39986 0C3.70744 2.07695 2.78516 2.55546 0.62475 6.49781C-1.53566 10.4394 2.60044 12.9409 2.60044 12.9409Z" fill="white"/>
</svg>
