<svg width="22" height="22" viewBox="0 0 22 22" fill="none" xmlns="http://www.w3.org/2000/svg">
<g clip-path="url(#clip0)">
<path d="M17.1875 22H4.8125C3.67583 22 2.75 21.0751 2.75 19.9375V10.3125C2.75 9.17492 3.67583 8.25 4.8125 8.25H17.1875C18.3242 8.25 19.25 9.17492 19.25 10.3125V19.9375C19.25 21.0751 18.3242 22 17.1875 22ZM4.8125 9.625C4.43392 9.625 4.125 9.933 4.125 10.3125V19.9375C4.125 20.317 4.43392 20.625 4.8125 20.625H17.1875C17.5661 20.625 17.875 20.317 17.875 19.9375V10.3125C17.875 9.933 17.5661 9.625 17.1875 9.625H4.8125Z" fill="black"/>
<path d="M15.8125 9.625C15.433 9.625 15.125 9.317 15.125 8.9375V5.5C15.125 3.22575 13.2743 1.375 11 1.375C8.72575 1.375 6.875 3.22575 6.875 5.5V8.9375C6.875 9.317 6.567 9.625 6.1875 9.625C5.808 9.625 5.5 9.317 5.5 8.9375V5.5C5.5 2.46675 7.96675 0 11 0C14.0332 0 16.5 2.46675 16.5 5.5V8.9375C16.5 9.317 16.192 9.625 15.8125 9.625Z" fill="black"/>
<path d="M10.9974 15.5834C9.98631 15.5834 9.16406 14.7612 9.16406 13.7501C9.16406 12.739 9.98631 11.9167 10.9974 11.9167C12.0085 11.9167 12.8307 12.739 12.8307 13.7501C12.8307 14.7612 12.0085 15.5834 10.9974 15.5834ZM10.9974 13.2918C10.7453 13.2918 10.5391 13.4971 10.5391 13.7501C10.5391 14.0031 10.7453 14.2084 10.9974 14.2084C11.2495 14.2084 11.4557 14.0031 11.4557 13.7501C11.4557 13.4971 11.2495 13.2918 10.9974 13.2918Z" fill="black"/>
<path d="M11 18.3333C10.6205 18.3333 10.3125 18.0253 10.3125 17.6458V15.125C10.3125 14.7455 10.6205 14.4375 11 14.4375C11.3795 14.4375 11.6875 14.7455 11.6875 15.125V17.6458C11.6875 18.0253 11.3795 18.3333 11 18.3333Z" fill="black"/>
</g>
<defs>
<clipPath id="clip0">
<rect width="22" height="22" fill="white"/>
</clipPath>
</defs>
</svg>
