<svg width="29" height="28" viewBox="0 0 29 28" fill="none" xmlns="http://www.w3.org/2000/svg">
<path fill-rule="evenodd" clip-rule="evenodd" d="M19.6115 6.3927H10.0462C8.5196 6.3927 7.27734 7.63488 7.27734 9.16153V18.7268C7.27734 20.2536 8.5196 21.4959 10.0462 21.4959H19.6115C21.1383 21.4959 22.3805 20.2536 22.3805 18.7268V9.16153C22.3805 7.63496 21.1383 6.3927 19.6115 6.3927ZM14.8286 18.9161C12.0874 18.9161 9.85686 16.6855 9.85686 13.944C9.85686 11.2027 12.0874 8.97221 14.8286 8.97221C17.5702 8.97221 19.8007 11.2027 19.8007 13.944C19.8007 16.6855 17.5702 18.9161 14.8286 18.9161ZM19.9607 10.0003C19.3117 10.0003 18.7839 9.47259 18.7839 8.82396C18.7839 8.17525 19.3117 7.64752 19.9607 7.64752C20.6093 7.64752 21.1371 8.17525 21.1371 8.82396C21.1371 9.47267 20.6093 10.0003 19.9607 10.0003Z" fill="#D3298F"/>
<path fill-rule="evenodd" clip-rule="evenodd" d="M14.8282 11.0734C13.2457 11.0734 11.957 12.3614 11.957 13.9439C11.957 15.5271 13.2457 16.8154 14.8282 16.8154C16.4113 16.8154 17.6991 15.5271 17.6991 13.9439C17.6991 12.3614 16.4113 11.0734 14.8282 11.0734Z" fill="#D3298F"/>
<path fill-rule="evenodd" clip-rule="evenodd" d="M0.886719 0V27.8883H28.775V0H0.886719ZM24.4833 18.7267C24.4833 21.4124 22.2991 23.5965 19.6135 23.5965H10.0482C7.36293 23.5965 5.17845 21.4124 5.17845 18.7267V9.16153C5.17845 6.47621 7.36293 4.29173 10.0482 4.29173H19.6135C22.2991 4.29173 24.4833 6.47621 24.4833 9.16153V18.7267Z" fill="#D3298F"/>
</svg>
