<svg width="225" height="84" viewBox="0 0 225 84" fill="none" xmlns="http://www.w3.org/2000/svg">
<path d="M180.002 0.22936C180.658 -0.0327657 181.488 -0.163828 182.012 0.360422C182.449 0.797298 182.361 1.4963 182.23 2.02055C181.837 3.72436 181.007 5.3408 180.177 6.86987C176.42 13.6414 171.265 19.6703 165.236 24.476C162.877 26.3982 160.256 28.0583 157.591 29.5437C155.581 32.7766 153.528 36.0532 151.955 39.5045C151.3 40.9899 150.601 42.5626 150.601 44.2227C150.557 45.0528 150.95 46.0576 151.824 46.2761C153.003 46.5819 154.27 46.2761 155.406 45.9265C158.071 44.878 160.43 43.0869 162.527 41.1646C164.755 37.7133 167.857 34.7862 171.527 32.9077C173.1 32.0776 174.891 31.7281 176.638 31.6407C176.944 31.0728 177.337 30.4612 177.993 30.2427C178.692 30.0243 179.391 29.8495 180.09 29.6748C179.609 30.3301 179.129 31.0291 178.692 31.7281C179.522 31.8592 180.483 31.6844 181.226 32.165C181.226 32.2523 181.182 32.4708 181.182 32.5582C180.308 32.3397 179.391 32.2523 178.473 32.2523C177.862 33.0824 177.381 34.0435 176.857 34.9173C175.634 37.0143 174.454 39.155 173.406 41.383C172.794 42.7374 172.182 44.0917 171.92 45.5334C171.833 46.1887 171.745 46.9751 172.313 47.4556C172.881 47.8488 173.624 47.7614 174.279 47.674C176.027 47.3246 177.512 46.3197 178.954 45.3149C182.143 42.9558 184.939 40.1161 187.473 37.1017C187.517 37.2327 187.866 37.4512 187.648 37.6259C185.9 39.6355 184.065 41.5578 182.099 43.349C179.871 45.3149 177.468 47.2372 174.672 48.2857C173.493 48.7226 172.182 48.941 170.959 48.6352C169.823 48.3731 169.343 47.0624 169.43 46.0139C169.692 43.9606 170.697 42.082 171.745 40.3345C170.26 42.082 168.731 43.8295 166.896 45.2712C165.717 46.1887 164.493 47.0624 163.095 47.4993C162.527 47.6304 161.828 47.7177 161.304 47.4556C160.78 47.1935 160.561 46.5382 160.605 46.0139C160.692 44.747 161.217 43.5674 161.741 42.4315C159.993 43.9606 158.028 45.3149 155.931 46.3197C154.096 47.1935 151.999 47.7177 149.945 47.4119C149.115 47.2809 148.329 46.844 147.936 46.1013C147.455 45.3586 147.411 44.3975 147.63 43.5237C148.023 41.9947 148.766 40.5967 149.465 39.2424C150.644 36.9706 151.999 34.7425 153.353 32.5582C154.533 30.7233 155.799 28.8884 156.935 27.0098C159.294 23.1216 161.697 19.2334 164.144 15.3453C165.979 12.4182 167.857 9.44744 170.216 6.91356C171.483 5.55924 172.969 4.42337 174.454 3.33118C176.202 2.06424 178.036 0.972048 180.002 0.22936ZM176.158 3.06905C174.629 4.59812 173.362 6.34562 171.964 7.96206C169.43 11.2823 167.115 14.7773 164.843 18.2723C162.615 21.7236 160.343 25.1313 158.159 28.5826C163.532 25.6118 168.25 21.5052 172.182 16.8306C174.585 13.9036 176.726 10.7144 178.124 7.17568C178.604 5.82137 179.085 4.37968 179.041 2.8943C179.041 2.50111 178.779 2.02055 178.342 1.97686C177.468 1.88949 176.769 2.50111 176.158 3.06905ZM171.789 33.694C170.391 34.6552 169.168 35.8347 168.076 37.1454C166.372 39.1987 164.886 41.5141 163.969 44.048C163.751 44.7033 163.488 45.4023 163.62 46.1013C163.794 46.4508 164.231 46.3634 164.493 46.2324C165.061 46.0139 165.585 45.6207 166.11 45.2712C168.032 43.9169 169.736 42.3005 171.221 40.4656C173.187 37.9317 174.672 35.0483 176.376 32.296C174.716 32.165 173.143 32.7766 171.789 33.694Z" fill="#070809"/>
<path d="M39.6337 14.9521C40.1579 14.8211 40.5948 14.4279 41.0317 14.1658C41.0317 14.4716 41.0754 14.8211 40.8569 15.0832C39.9395 16.4812 39.4589 18.1413 39.1531 19.8015C37.9299 25.3498 37.0124 30.9418 35.9639 36.5338C35.6581 38.3687 35.396 40.2036 35.1776 42.0821C35.0465 43.0869 35.1339 44.1791 35.6581 45.0529C35.9202 45.5334 36.4445 45.8393 37.0124 45.8829C38.0172 46.014 38.9784 45.4897 39.9832 45.5334C39.9395 45.8829 39.59 45.9703 39.3279 46.014C37.1872 46.5383 35.1339 47.2373 32.9495 47.6741C32.2505 47.8052 31.6825 47.2373 31.4641 46.6256C31.2894 46.2761 31.4641 45.8393 31.5078 45.4897C31.901 43.1743 32.2505 40.8152 32.6437 38.4997C32.731 37.8444 32.9058 37.1891 32.8184 36.5338C32.5563 35.529 31.6825 34.7863 30.7651 34.3931C29.3671 33.7815 27.7944 33.9125 26.2653 33.8252C23.2508 33.8252 20.2801 33.8252 17.3093 33.6504C16.9598 33.563 16.7414 33.9125 16.523 34.0873C11.8047 38.2376 7.30489 42.6064 3.37301 47.4557C2.41189 48.6789 1.36339 49.9459 1.05757 51.4749C0.926509 52.0429 0.970197 52.6545 0.620697 53.1351C0.271196 52.8293 0.358571 52.3487 0.271196 51.9555C0.140133 50.5138 -0.427805 48.8537 0.620697 47.5868C2.14976 45.6645 4.1157 44.1354 5.90689 42.4753C14.3823 34.9174 22.9013 27.4031 31.6825 20.1947C33.43 18.7967 35.1339 17.355 36.9687 16.0443C37.7114 15.389 38.7162 15.258 39.6337 14.9521ZM34.6096 18.7093C31.4641 21.1995 28.3623 23.6897 25.2605 26.2672C23.0324 28.1458 20.8043 30.0244 18.7947 32.2087C19.0568 32.4709 19.4063 32.6893 19.7558 32.733C21.1975 33.0825 22.6829 33.0825 24.1683 33.0825C26.6585 33.1262 29.1487 32.9951 31.6389 33.1699C32.2505 33.1699 32.8184 33.4757 33.3864 33.432C33.6922 32.7767 33.7359 32.034 33.9106 31.2913C34.6533 27.2283 35.396 23.2091 36.1387 19.1462C36.2261 18.5782 36.4445 17.9666 36.4445 17.3986C35.7892 17.7918 35.1776 18.2724 34.6096 18.7093Z" fill="#070809"/>
<path d="M123.734 16.9617C123.952 16.4375 124.083 15.8258 124.564 15.52C124.739 15.7821 124.782 16.1316 125.132 16.219C126.311 16.6122 127.622 16.5248 128.845 16.5685C132.384 16.6122 135.879 16.3064 139.418 15.9132C141.122 15.7821 142.782 15.5637 144.485 15.6074C146.626 15.7385 148.898 16.0006 150.733 17.2238C152.131 18.1413 153.179 19.6266 153.223 21.3305C153.441 23.5585 152.349 25.6992 151.039 27.403C148.024 31.2039 143.262 33.3882 138.5 33.7377C136.84 33.8251 135.093 33.9125 133.52 33.3009C133.301 33.2572 133.301 32.9514 133.345 32.7766C133.607 32.7329 133.869 32.8203 134.132 32.864C137.059 33.4756 140.248 33.0824 142.913 31.6407C145.578 30.2864 147.762 28.0147 148.942 25.2623C149.728 23.5148 150.034 21.5489 149.641 19.6703C149.422 18.6218 148.767 17.7044 147.806 17.2238C145.49 16.0006 142.694 16.0443 140.204 16.5685C139.243 16.7433 138.719 17.6607 138.238 18.4471C133.826 25.5245 129.501 32.6892 125.394 39.9851C124.782 41.1209 124.083 42.2131 123.778 43.4364C123.559 44.2664 123.69 45.3149 124.477 45.8392C125.918 46.7129 127.666 46.4508 129.239 46.6692C129.151 46.844 129.064 47.0624 128.845 47.0624C126.53 47.4119 124.171 47.6304 121.855 47.543C120.894 47.3682 119.715 47.2372 119.103 46.4071C118.797 45.5334 119.365 44.6596 119.715 43.9169C121.156 41.0336 122.947 38.3686 124.608 35.6163C126.792 32.165 128.845 28.6263 130.899 25.0876C132.209 22.7285 133.695 20.4567 134.656 17.9228C134.743 17.7044 134.787 17.4423 134.874 17.2238C134.699 17.1801 134.481 17.1365 134.306 17.0928C131.117 17.1365 128.015 17.8355 124.826 17.7044C124.302 17.6607 123.865 17.3986 123.734 16.9617Z" fill="#070809"/>
<path d="M61.5635 25.1748C62.0441 24.5194 62.481 23.7768 63.2237 23.3836C63.6605 23.2525 64.01 23.5583 64.1411 23.9515C62.5683 26.9223 60.6898 29.7183 58.7238 32.4706C59.7723 32.6016 60.8645 32.9948 61.4325 33.956C61.6072 34.1744 61.6509 34.655 61.3014 34.655C60.9082 34.3928 60.6898 33.9996 60.2966 33.7375C59.7287 33.3443 59.0297 33.2133 58.3307 32.9948C52.2581 41.2081 46.7098 49.7709 41.2925 58.4647C39.2829 61.7413 37.3606 65.1052 35.4821 68.4691C33.8656 71.3088 32.3802 74.1922 31.0259 77.2066C30.5454 78.3425 29.9774 79.5221 30.1522 80.789C30.2395 81.357 30.8949 81.5317 31.3317 81.3133C32.4239 80.9201 33.254 80.09 34.0841 79.3036C37.9286 75.2407 41.4236 70.8283 44.7001 66.2848C48.632 60.8675 52.6076 55.4502 56.5395 50.033C58.3307 47.5865 60.1218 45.0963 61.9567 42.6935C62.3499 42.1255 62.8742 41.6013 63.18 40.9897C64.6217 38.15 66.2818 35.4413 67.8982 32.689C68.073 32.4269 68.2477 32.0337 68.6409 32.1648C69.3399 32.2958 69.7768 32.9948 70.17 33.5628C69.6894 34.4365 69.0778 35.2229 68.5535 36.0967C67.0245 38.4995 65.5828 40.946 64.4469 43.5672C64.1411 44.3536 63.7916 45.1837 64.0537 46.0137C64.2722 46.538 64.9712 46.4943 65.408 46.2759C66.5876 45.6642 67.505 44.7031 68.3351 43.6546C69.8642 41.8197 70.869 39.679 72.0922 37.6694C72.8786 36.2714 73.7524 34.8734 74.5824 33.5191C74.7572 33.2133 75.0193 32.9948 75.2814 32.8201C76.3299 33.6065 76.6357 35.2666 75.762 36.3151C74.3203 38.3684 72.5728 40.2033 71.4806 42.475C70.6505 44.0478 70.0826 45.839 70.301 47.5865C70.3447 48.1981 70.9127 48.6787 71.568 48.6787C73.1407 48.766 74.4951 47.8486 75.8057 47.0622C77.2037 46.1011 78.5143 45.0089 79.7376 43.8294C80.1307 43.4799 80.2618 42.9556 80.5239 42.475C81.9219 39.7664 83.9316 37.451 86.247 35.5287C88.2566 33.956 90.4847 32.4706 93.0623 31.99C93.805 31.8153 94.5476 31.8153 95.2903 31.7279C95.5961 31.16 95.9893 30.5046 96.6446 30.3299C97.3436 30.1115 98.0426 29.9367 98.7416 29.762C98.2611 30.461 97.7805 31.1163 97.3436 31.8153C98.1737 31.9463 99.1348 31.7716 99.8775 32.2521C99.8775 32.3395 99.8338 32.558 99.8338 32.6453C98.9164 32.3832 97.999 32.3395 97.0815 32.3395C95.3777 35.2229 93.7176 38.15 92.2322 41.1644C91.5769 42.6061 90.9216 44.0478 90.6158 45.6205C90.5284 46.2759 90.441 47.1059 91.0089 47.5428C91.5769 47.936 92.3196 47.8486 92.9312 47.7612C94.6787 47.4117 96.2078 46.4069 97.6058 45.4021C100.795 43.043 103.591 40.2033 106.125 37.1888C106.387 37.3636 106.431 37.6694 106.169 37.8878C104.115 40.2033 101.975 42.4313 99.5717 44.441C97.7805 45.97 95.8146 47.368 93.5865 48.2418C92.3196 48.7224 90.9216 49.0282 89.6109 48.6787C88.5188 48.3729 88.0382 47.1059 88.1256 46.1011C88.3877 44.0478 89.3925 42.1692 90.441 40.4217C88.4751 42.7808 86.3344 45.0963 83.7131 46.7127C82.7957 47.2807 81.7909 47.8049 80.655 47.7175C80.1307 47.7175 79.6065 47.4117 79.4317 46.9312C79.1696 46.1885 79.3881 45.4021 79.6065 44.6594C77.7279 46.3632 75.7183 47.9797 73.3592 48.9408C72.2233 49.3777 70.9127 49.6398 69.7331 49.2466C68.9467 48.9845 68.3788 48.2418 68.2914 47.4117C68.1167 46.1011 68.5099 44.7905 69.0341 43.6109C67.8109 45.0089 66.5876 46.6254 64.7527 47.1933C63.8353 47.4554 62.6557 47.5865 61.9567 46.7564C61.3451 45.97 61.6072 44.9652 61.782 44.0478C60.2529 46.1885 58.6365 48.2418 57.1074 50.3825C53.6124 55.2755 50.1174 60.0811 46.6224 64.9304C42.9526 69.9108 39.2392 74.9349 34.9141 79.4347C33.3851 80.9638 31.6376 82.3181 29.6279 83.1482C28.8852 83.454 28.0115 83.6287 27.2251 83.4103C26.5261 83.1045 26.3514 82.2744 26.4387 81.5754C26.7009 79.5658 27.8367 77.862 28.8852 76.1581C35.4821 65.2799 42.6031 54.7076 49.5494 44.0915C48.1514 45.4895 46.7098 47.0185 44.7001 47.4554C44.0011 47.5865 43.1711 47.6302 42.5594 47.1496C41.9915 46.669 41.9478 45.839 42.0352 45.14C42.2099 43.9604 42.7342 42.8682 43.3458 41.8634C44.6128 39.8101 46.1855 37.9752 47.9767 36.3588C49.5058 35.0481 51.0785 33.7812 52.9571 33.0385C54.2677 32.558 55.6657 32.2958 57.1074 32.3395C58.5928 29.9367 59.9908 27.4902 61.5635 25.1748ZM89.3925 34.4802C86.4218 36.9704 84.1063 40.2033 82.6646 43.7857C82.4025 44.5283 82.0967 45.271 82.2277 46.0574C82.5336 46.538 83.1452 46.1885 83.5821 45.97C85.7664 44.7031 87.6887 42.9556 89.3488 41.0333C91.6206 38.3684 93.1933 35.2229 94.9845 32.2521C92.8875 32.1211 90.9653 33.1696 89.3925 34.4802ZM54.224 33.257C52.6076 33.7812 51.428 35.0045 50.3358 36.2277C48.1951 38.6742 46.1855 41.2955 44.7875 44.2225C44.5254 44.9215 44.1322 45.7079 44.4817 46.4069C44.8749 46.4506 45.2244 46.4069 45.5739 46.2322C46.8408 45.6642 47.8456 44.7468 48.7631 43.7857C50.2048 42.1692 51.5154 40.4217 52.7823 38.6742C54.1366 36.752 55.491 34.8297 56.7142 32.8201C55.8841 32.9075 55.0104 32.9511 54.224 33.257Z" fill="#070809"/>
<path d="M215.258 30.2864C215.957 30.068 216.656 29.8933 217.399 29.7185C216.875 30.3738 216.438 31.0728 215.957 31.7718C216.787 31.9029 217.792 31.7281 218.491 32.2087C218.491 32.2961 218.447 32.5145 218.447 32.6019C217.53 32.3834 216.613 32.2961 215.651 32.2961C213.991 35.1358 212.331 37.9755 210.889 40.9462C210.19 42.4316 209.491 43.9607 209.186 45.5771C209.098 46.1887 209.011 46.844 209.404 47.3683C209.71 47.7615 210.234 47.8488 210.715 47.8488C211.982 47.8925 213.117 47.2809 214.21 46.713C216.525 45.3587 218.578 43.5675 220.501 41.7326C221.986 40.2909 223.384 38.7618 224.738 37.1891C224.782 37.2765 224.913 37.5386 225.001 37.626C222.947 40.0288 220.719 42.3005 218.273 44.3975C216.438 45.9266 214.472 47.3683 212.244 48.2857C210.977 48.7663 209.535 49.1158 208.181 48.6789C207.132 48.3731 206.695 47.1062 206.783 46.1013C207.045 44.048 208.05 42.1695 209.098 40.422C207.132 42.7811 204.992 45.0965 202.327 46.713C201.366 47.2809 200.273 47.8488 199.137 47.6741C198.482 47.6741 198.002 47.0625 197.958 46.4072C197.914 45.5334 198.176 44.7033 198.438 43.8733C199.574 40.9899 201.497 38.4997 203.768 36.4027C205.603 34.7863 207.613 33.3446 209.885 32.4708C211.152 31.9903 212.506 31.7718 213.86 31.7281C214.21 31.1165 214.603 30.5049 215.258 30.2864ZM207.613 34.8299C205.254 36.8833 203.419 39.4171 202.021 42.2131C201.497 43.3927 200.885 44.5723 200.841 45.8829C200.841 46.4072 201.453 46.3635 201.759 46.1887C203.026 45.6208 204.118 44.7033 205.21 43.8296C206.521 42.65 207.788 41.3831 208.836 39.9851C210.627 37.5386 212.025 34.8736 213.598 32.2961C211.326 32.1213 209.273 33.3883 207.613 34.8299Z" fill="#070809"/>
<path d="M190.357 31.2475C190.619 31.1164 190.925 30.7669 191.187 31.0727C190.619 31.8591 190.313 32.8639 190.575 33.8687C190.75 34.7862 191.58 35.3978 192.454 35.6162C193.808 35.922 195.206 35.5725 196.386 34.9609C197.871 34.1745 199.182 33.126 200.405 32.0338C200.754 31.6843 201.41 32.0775 201.279 32.5581C200.929 32.995 200.405 33.2134 199.968 33.5629C197.565 35.223 195.468 37.189 193.109 38.8928C190.4 40.9024 187.604 42.7373 184.808 44.5722C185.289 45.1401 185.988 45.4459 186.6 45.8391C191.842 49.072 197.128 52.3049 202.808 54.7514C204.73 55.5378 206.696 56.2804 208.749 56.5863C211.458 56.9794 214.297 56.3678 216.482 54.7514C218.186 53.5718 219.496 51.9554 220.545 50.1642C220.632 49.8584 221.2 49.9021 221.069 50.2516C220.545 52.4796 218.71 54.1834 216.788 55.363C213.773 57.1542 210.191 57.7658 206.74 57.4163C203.157 57.1105 199.706 55.9746 196.473 54.4892C191.842 52.3486 187.604 49.4652 183.367 46.6692C182.93 46.4507 182.537 45.9702 182.056 46.0576C180.964 46.5381 180.046 47.4119 178.911 47.7614C178.823 47.5866 178.648 47.4119 178.648 47.1497C178.736 46.9313 178.954 46.8002 179.173 46.7129C184.109 44.4411 188.74 41.5577 193.065 38.3249C193.983 37.6258 194.9 36.9268 195.687 36.0531C195.599 36.0094 195.468 35.8783 195.381 35.8347C193.939 36.2278 192.497 36.6647 190.968 36.7521C190.182 36.7084 189.396 36.4026 188.784 35.9657C188.041 35.3978 187.823 34.393 187.954 33.5192C188.478 32.5581 189.439 31.9028 190.357 31.2475Z" fill="#070809"/>
<path d="M154.969 57.3291C155.231 57.3291 155.493 57.3291 155.755 57.3291C155.755 59.3387 155.755 61.3484 155.755 63.3143C155.493 63.3143 155.231 63.3143 154.969 63.3143C154.969 61.3484 154.969 59.3387 154.969 57.3291Z" fill="#070809"/>
<path d="M156.891 57.3291C157.153 57.3291 157.415 57.3291 157.677 57.3291C157.677 59.3387 157.677 61.3047 157.677 63.3143C157.415 63.3143 157.153 63.3143 156.891 63.3143C156.891 61.3484 156.891 59.3387 156.891 57.3291Z" fill="#070809"/>
<path d="M170.477 57.3291C170.739 57.3291 171.001 57.3291 171.263 57.3291C171.263 57.5912 171.263 57.897 171.263 58.2029C171.001 58.2029 170.739 58.2029 170.477 58.2029C170.477 57.897 170.477 57.6349 170.477 57.3291Z" fill="#070809"/>
<path d="M168.162 57.9408C168.425 57.766 168.687 57.635 168.949 57.4602C168.949 57.9845 168.949 58.465 168.949 58.9893C169.211 58.9893 169.473 58.9893 169.735 58.9893C169.735 59.164 169.735 59.3388 169.735 59.5572C169.473 59.5572 169.211 59.5572 168.949 59.5572C168.949 60.562 168.905 61.5668 168.949 62.5716C169.211 62.6153 169.473 62.659 169.735 62.7027C169.735 62.9211 169.779 63.1396 169.779 63.358C169.211 63.4017 168.381 63.4891 168.206 62.7901C168.031 61.6979 168.206 60.6057 168.119 59.5135C167.988 59.5135 167.726 59.5135 167.551 59.5135C167.551 59.3825 167.551 59.0766 167.551 58.9456C167.682 58.9456 167.988 58.9456 168.119 58.9456C168.162 58.6398 168.162 58.2903 168.162 57.9408Z" fill="#070809"/>
<path d="M145.75 60.0375C146.231 58.8143 147.978 58.5085 148.939 59.3385C149.201 59.557 149.332 59.9501 149.463 60.2559C149.201 60.2996 148.939 60.2996 148.677 60.3433C148.502 59.7754 147.934 59.3385 147.323 59.5133C146.274 59.7754 146.187 61.1297 146.449 62.0035C146.624 62.7461 147.629 63.052 148.24 62.6151C148.546 62.3966 148.633 62.0471 148.764 61.7413C149.027 61.785 149.289 61.785 149.507 61.8287C149.332 62.353 149.07 62.9209 148.546 63.183C147.629 63.6636 146.274 63.4015 145.794 62.3966C145.488 61.6976 145.488 60.7802 145.75 60.0375Z" fill="#070809"/>
<path d="M177.906 59.5571C178.518 58.8144 179.654 58.6396 180.44 59.2076C180.877 59.5571 180.877 60.1687 180.92 60.6929C180.92 61.5667 180.964 62.4404 180.877 63.3142C180.702 63.3142 180.353 63.3142 180.134 63.3142C180.09 62.2657 180.178 61.2172 180.09 60.1687C179.872 59.1202 178.168 59.3823 178.037 60.3434C177.95 61.3046 177.993 62.2657 177.993 63.2268C177.731 63.2705 177.469 63.2705 177.207 63.3142C177.207 61.8725 177.207 60.3871 177.207 58.9454C177.425 58.9454 177.688 58.9454 177.906 58.9454C177.95 59.1202 177.95 59.426 177.906 59.5571Z" fill="#070809"/>
<path d="M151.166 58.9892C152.084 58.6397 153.263 58.9455 153.788 59.8192C154.224 60.5619 154.181 61.523 153.875 62.3094C153.22 63.7511 150.817 63.7948 150.118 62.3531C149.594 61.2172 149.812 59.426 151.166 58.9892ZM151.472 59.6008C150.555 59.994 150.511 61.2172 150.773 62.0036C151.035 62.79 152.127 63.0521 152.739 62.5279C153.307 62.0473 153.351 61.2172 153.22 60.5182C153.089 59.7755 152.215 59.2513 151.472 59.6008Z" fill="#070809"/>
<path d="M159.251 59.4262C160.081 58.6398 161.523 58.6835 162.266 59.5572C162.702 60.0378 162.79 60.7368 162.79 61.3484C161.654 61.3484 160.518 61.3484 159.382 61.3484C159.47 62.0474 159.95 62.8775 160.737 62.8338C161.348 62.9212 161.741 62.4406 162.003 61.9601C162.266 62.0037 162.528 62.0037 162.79 62.0474C162.571 62.4843 162.353 62.9649 161.872 63.227C160.868 63.7076 159.382 63.5328 158.858 62.4406C158.421 61.4358 158.508 60.1689 159.251 59.4262ZM159.426 60.7368C160.3 60.7368 161.13 60.7368 162.003 60.7368C161.916 60.0815 161.436 59.4262 160.737 59.4699C159.994 59.4262 159.47 60.0815 159.426 60.7368Z" fill="#070809"/>
<path d="M163.751 59.8192C164.363 58.8144 165.936 58.5522 166.809 59.3386C167.115 59.5571 167.203 59.9502 167.334 60.2997C167.071 60.3434 166.809 60.3434 166.547 60.3871C166.416 60.125 166.329 59.8192 166.023 59.6444C165.368 59.2512 164.494 59.6881 164.319 60.3871C164.144 60.9987 164.144 61.6541 164.407 62.222C164.756 62.921 165.848 63.0521 166.285 62.4404C166.46 62.222 166.504 61.9599 166.591 61.7414C166.853 61.7851 167.071 61.7851 167.334 61.8288C167.246 62.1783 167.159 62.5278 166.94 62.7899C166.154 63.7511 164.363 63.6637 163.708 62.5715C163.314 61.6977 163.358 60.6492 163.751 59.8192Z" fill="#070809"/>
<path d="M170.477 58.9893C170.739 58.9893 171.001 58.9893 171.263 58.9893C171.263 60.4309 171.263 61.9163 171.263 63.358C171.001 63.3143 170.739 63.3143 170.477 63.2706C170.477 61.829 170.477 60.4309 170.477 58.9893Z" fill="#070809"/>
<path d="M173.493 58.9892C174.542 58.596 175.94 59.164 176.246 60.2998C176.377 60.9552 176.377 61.6542 176.158 62.2658C175.547 63.7075 173.144 63.8385 172.401 62.3969C171.79 61.261 172.095 59.4261 173.493 58.9892ZM173.624 59.6445C172.794 60.0814 172.751 61.1736 173.013 61.96C173.275 62.79 174.411 63.0959 175.022 62.5279C175.59 62.0474 175.547 61.2173 175.459 60.562C175.372 59.7319 174.367 59.2077 173.624 59.6445Z" fill="#070809"/>
</svg>
