<svg width="194" height="73" viewBox="0 0 194 73" fill="none" xmlns="http://www.w3.org/2000/svg">
<path d="M155.201 0.559087C155.766 0.333077 156.481 0.220072 156.933 0.672092C157.31 1.04878 157.235 1.65147 157.122 2.10349C156.783 3.57256 156.067 4.96629 155.351 6.28468C152.112 12.1233 147.667 17.3215 142.469 21.465C140.435 23.1225 138.174 24.5538 135.877 25.8346C134.144 28.622 132.374 31.4472 131.017 34.423C130.452 35.7037 129.85 37.0598 129.85 38.4911C129.812 39.2069 130.151 40.0732 130.904 40.2616C131.922 40.5252 133.014 40.2616 133.993 39.9602C136.291 39.0562 138.325 37.5118 140.133 35.8544C142.054 32.8786 144.729 30.3548 147.893 28.735C149.249 28.0193 150.793 27.718 152.3 27.6427C152.564 27.153 152.903 26.6256 153.468 26.4373C154.071 26.2489 154.673 26.0983 155.276 25.9476C154.862 26.5126 154.447 27.1153 154.071 27.718C154.786 27.831 155.615 27.6803 156.255 28.0947C156.255 28.17 156.218 28.3584 156.218 28.4337C155.464 28.2454 154.673 28.17 153.882 28.17C153.355 28.8857 152.94 29.7144 152.488 30.4678C151.434 32.2759 150.417 34.1216 149.513 36.0427C148.985 37.2104 148.458 38.3781 148.232 39.6212C148.157 40.1862 148.081 40.8643 148.571 41.2786C149.061 41.6176 149.701 41.5423 150.266 41.467C151.773 41.1656 153.053 40.2992 154.297 39.4329C157.046 37.3988 159.457 34.9503 161.642 32.3512C161.68 32.4642 161.981 32.6526 161.793 32.8032C160.286 34.536 158.704 36.1934 157.009 37.7378C155.088 39.4329 153.016 41.0903 150.605 41.9943C149.588 42.371 148.458 42.5593 147.403 42.2957C146.424 42.0696 146.009 40.9396 146.085 40.0356C146.311 38.2651 147.177 36.6454 148.081 35.1387C146.801 36.6454 145.482 38.1521 143.9 39.3952C142.883 40.1862 141.828 40.9396 140.623 41.3163C140.133 41.4293 139.531 41.5046 139.078 41.2786C138.626 41.0526 138.438 40.4876 138.476 40.0356C138.551 38.9432 139.003 37.9261 139.455 36.9467C137.948 38.2651 136.253 39.4329 134.445 40.2992C132.863 41.0526 131.055 41.5046 129.285 41.2409C128.569 41.1279 127.891 40.7513 127.552 40.1109C127.138 39.4705 127.1 38.6418 127.288 37.8885C127.627 36.5701 128.268 35.3647 128.87 34.197C129.887 32.2382 131.055 30.3171 132.223 28.4337C133.24 26.8516 134.332 25.2695 135.312 23.6498C137.346 20.2973 139.418 16.9448 141.527 13.5923C143.109 11.0686 144.729 8.50712 146.763 6.32235C147.855 5.15463 149.136 4.17525 150.417 3.23354C151.923 2.14116 153.505 1.19945 155.201 0.559087ZM151.886 3.00753C150.567 4.32593 149.475 5.83266 148.27 7.22639C146.085 10.0892 144.088 13.1027 142.13 16.1161C140.209 19.0919 138.25 22.0301 136.366 25.0059C141 22.4444 145.068 18.9036 148.458 14.8731C150.53 12.3493 152.375 9.5995 153.581 6.54836C153.995 5.38064 154.41 4.13758 154.372 2.85686C154.372 2.51784 154.146 2.10349 153.769 2.06582C153.016 1.99049 152.413 2.51784 151.886 3.00753ZM148.119 29.4131C146.914 30.2418 145.859 31.2588 144.917 32.3889C143.448 34.1593 142.167 36.1557 141.376 38.3405C141.188 38.9055 140.962 39.5082 141.075 40.1109C141.226 40.4122 141.602 40.3369 141.828 40.2239C142.318 40.0356 142.77 39.6965 143.222 39.3952C144.879 38.2275 146.348 36.8337 147.629 35.2517C149.324 33.0669 150.605 30.5808 152.074 28.2077C150.643 28.0947 149.287 28.622 148.119 29.4131Z" fill="#070809"/>
<path d="M34.173 13.2533C34.6251 13.1403 35.0017 12.8013 35.3784 12.5753C35.3784 12.839 35.4161 13.1403 35.2278 13.3664C34.4367 14.5717 34.0224 16.0031 33.7587 17.4345C32.704 22.2184 31.9129 27.04 31.0089 31.8615C30.7452 33.4436 30.5192 35.0257 30.3309 36.6454C30.2179 37.5118 30.2932 38.4535 30.7452 39.2069C30.9712 39.6212 31.4233 39.8849 31.9129 39.9226C32.7793 40.0356 33.608 39.5835 34.4744 39.6212C34.4367 39.9226 34.1354 39.9979 33.9094 40.0356C32.0636 40.4876 30.2932 41.0903 28.4098 41.467C27.8071 41.58 27.3174 41.0903 27.1291 40.5629C26.9784 40.2616 27.1291 39.8849 27.1667 39.5835C27.5057 37.5871 27.8071 35.553 28.1461 33.5566C28.2214 32.9916 28.3721 32.4266 28.2968 31.8615C28.0708 30.9952 27.3174 30.3548 26.5264 30.0158C25.321 29.4884 23.9649 29.6014 22.6465 29.5261C20.0474 29.5261 17.486 29.5261 14.9245 29.3754C14.6232 29.3001 14.4348 29.6014 14.2465 29.7521C10.1783 33.3306 6.29844 37.0974 2.90829 41.2786C2.07958 42.3333 1.17554 43.4257 0.911862 44.7441C0.798857 45.2338 0.836525 45.7612 0.535178 46.1755C0.233831 45.9118 0.309168 45.4975 0.233831 45.1585C0.120826 43.9154 -0.368863 42.484 0.535178 41.3916C1.85357 39.7342 3.54865 38.4158 5.09305 36.9844C12.4007 30.4678 19.7461 23.9888 27.3174 17.7736C28.8241 16.5682 30.2932 15.3251 31.8753 14.1951C32.5156 13.63 33.382 13.517 34.173 13.2533ZM29.8412 16.4928C27.1291 18.6399 24.4546 20.787 21.7801 23.0095C19.8591 24.6292 17.938 26.2489 16.2052 28.1324C16.4312 28.3584 16.7326 28.5467 17.0339 28.5844C18.277 28.8857 19.5577 28.8857 20.8384 28.8857C22.9855 28.9234 25.1326 28.8104 27.2797 28.9611C27.8071 28.9611 28.2968 29.2247 28.7865 29.1871C29.0501 28.622 29.0878 27.9817 29.2385 27.3413C29.8788 23.8382 30.5192 20.3727 31.1596 16.8695C31.2349 16.3798 31.4233 15.8525 31.4233 15.3628C30.8582 15.7018 30.3309 16.1161 29.8412 16.4928Z" fill="#070809"/>
<path d="M106.685 14.986C106.874 14.534 106.987 14.0066 107.401 13.7429C107.552 13.9689 107.589 14.2703 107.891 14.3456C108.908 14.6846 110.038 14.6093 111.093 14.647C114.144 14.6846 117.157 14.421 120.208 14.0819C121.677 13.9689 123.109 13.7806 124.578 13.8183C126.424 13.9313 128.382 14.1573 129.964 15.212C131.17 16.003 132.074 17.2837 132.112 18.7528C132.3 20.6739 131.358 22.5197 130.228 23.9887C127.629 27.2659 123.523 29.1493 119.417 29.4506C117.986 29.526 116.479 29.6013 115.123 29.074C114.935 29.0363 114.935 28.7726 114.972 28.6219C115.198 28.5843 115.424 28.6596 115.65 28.6973C118.174 29.2246 120.924 28.8856 123.222 27.6426C125.52 26.4748 127.403 24.5161 128.42 22.143C129.098 20.6362 129.362 18.9412 129.023 17.3214C128.834 16.4174 128.269 15.6263 127.441 15.212C125.444 14.1573 123.033 14.1949 120.886 14.647C120.058 14.7976 119.606 15.5887 119.191 16.2667C115.387 22.369 111.658 28.5466 108.117 34.8372C107.589 35.8166 106.987 36.7583 106.723 37.813C106.535 38.5287 106.648 39.4328 107.326 39.8848C108.569 40.6381 110.076 40.4121 111.432 40.6005C111.356 40.7512 111.281 40.9395 111.093 40.9395C109.096 41.2408 107.062 41.4292 105.066 41.3538C104.237 41.2032 103.22 41.0902 102.693 40.3745C102.429 39.6211 102.919 38.8677 103.22 38.2274C104.463 35.7413 106.007 33.4435 107.439 31.0704C109.322 28.0946 111.093 25.0434 112.863 21.9923C113.993 19.9582 115.274 17.9994 116.102 15.8147C116.178 15.6263 116.215 15.4003 116.291 15.212C116.14 15.1743 115.952 15.1366 115.801 15.099C113.051 15.1366 110.377 15.7393 107.627 15.6263C107.175 15.5887 106.798 15.3627 106.685 14.986Z" fill="#070809"/>
<path d="M53.0806 22.0679C53.495 21.5029 53.8717 20.8625 54.512 20.5235C54.8887 20.4105 55.1901 20.6742 55.3031 21.0132C53.947 23.5746 52.3273 25.9854 50.6322 28.3585C51.5362 28.4715 52.4779 28.8105 52.9676 29.6392C53.1183 29.8276 53.156 30.2419 52.8546 30.2419C52.5156 30.0159 52.3273 29.6769 51.9882 29.4509C51.4986 29.1119 50.8959 28.9989 50.2932 28.8105C45.0573 35.8922 40.2734 43.2752 35.6025 50.7712C33.8697 53.5963 32.2123 56.4968 30.5926 59.3973C29.1989 61.8457 27.9181 64.3318 26.7504 66.9309C26.3361 67.9103 25.8464 68.9274 25.9971 70.0197C26.0724 70.5094 26.6374 70.6601 27.0141 70.4718C27.9558 70.1328 28.6715 69.4171 29.3872 68.739C32.702 65.2359 35.7155 61.4314 38.5406 57.5138C41.9308 52.843 45.3586 48.1721 48.7488 43.5012C50.2932 41.3918 51.8376 39.2447 53.4196 37.1729C53.7587 36.6832 54.2107 36.2312 54.4744 35.7039C55.7174 33.2554 57.1488 30.92 58.5425 28.5469C58.6932 28.3209 58.8439 27.9818 59.1829 28.0948C59.7856 28.2078 60.1623 28.8105 60.5013 29.3002C60.0869 30.0536 59.5596 30.7316 59.1076 31.485C57.7892 33.5568 56.5461 35.6662 55.5667 37.9263C55.3031 38.6043 55.0017 39.32 55.2277 40.0357C55.4161 40.4877 56.0188 40.4501 56.3954 40.2617C57.4125 39.7344 58.2035 38.9057 58.9192 38.0016C60.2376 36.4196 61.104 34.5738 62.1587 32.8411C62.8367 31.6357 63.5901 30.4303 64.3058 29.2626C64.4565 28.9989 64.6825 28.8105 64.9085 28.6599C65.8125 29.3379 66.0762 30.7693 65.3229 31.6733C64.0798 33.4438 62.5731 35.0258 61.6314 36.9846C60.9156 38.3406 60.426 39.885 60.6143 41.3918C60.652 41.9191 61.1417 42.3335 61.7067 42.3335C63.0627 42.4088 64.2305 41.6178 65.3605 40.9398C66.5659 40.1111 67.696 39.1693 68.7507 38.1523C69.0897 37.851 69.2027 37.3989 69.4287 36.9846C70.6341 34.6491 72.3668 32.6527 74.3633 30.9953C76.096 29.6392 78.0171 28.3585 80.2395 27.9442C80.8799 27.7935 81.5203 27.7935 82.1606 27.7182C82.4243 27.2285 82.7633 26.6634 83.3283 26.5128C83.931 26.3244 84.5337 26.1738 85.1364 26.0231C84.7221 26.6258 84.3077 27.1908 83.931 27.7935C84.6467 27.9065 85.4754 27.7558 86.1158 28.1702C86.1158 28.2455 86.0781 28.4339 86.0781 28.5092C85.2871 28.2832 84.4961 28.2455 83.705 28.2455C82.236 30.7316 80.8046 33.2554 79.5238 35.8545C78.9588 37.0976 78.3938 38.3406 78.1301 39.6967C78.0548 40.2617 77.9794 40.9774 78.4691 41.3541C78.9588 41.6931 79.5992 41.6178 80.1265 41.5425C81.6333 41.2411 82.9517 40.3747 84.157 39.5084C86.9068 37.4743 89.3176 35.0258 91.5024 32.4267C91.7284 32.5774 91.7661 32.8411 91.5401 33.0294C89.7696 35.0258 87.9239 36.9469 85.8521 38.6797C84.3077 39.998 82.6126 41.2034 80.6916 41.9568C79.5992 42.3712 78.3938 42.6348 77.2637 42.3335C76.322 42.0698 75.9077 40.9774 75.983 40.1111C76.209 38.3406 77.0754 36.7209 77.9794 35.2142C76.2844 37.2483 74.4386 39.2447 72.1785 40.6384C71.3875 41.1281 70.5211 41.5801 69.5417 41.5048C69.0897 41.5048 68.6377 41.2411 68.487 40.8268C68.261 40.1864 68.4493 39.5084 68.6377 38.868C67.0179 40.3371 65.2852 41.7308 63.2511 42.5595C62.2717 42.9362 61.1417 43.1622 60.1246 42.8232C59.4466 42.5972 58.9569 41.9568 58.8816 41.2411C58.7309 40.1111 59.0699 38.981 59.5219 37.964C58.4672 39.1693 57.4125 40.5631 55.8304 41.0528C55.0394 41.2788 54.0223 41.3918 53.4196 40.6761C52.8923 39.998 53.1183 39.1317 53.269 38.3406C51.9506 40.1864 50.5568 41.9568 49.2385 43.8026C46.225 48.0214 43.2115 52.1649 40.198 56.3461C37.0339 60.6403 33.8321 64.9722 30.1029 68.852C28.7845 70.1704 27.2778 71.3381 25.545 72.0538C24.9047 72.3175 24.1513 72.4682 23.4733 72.2799C22.8706 72.0162 22.7199 71.3005 22.7952 70.6978C23.0213 68.965 24.0006 67.496 24.9047 66.0269C30.5926 56.6475 36.7325 47.5317 42.7218 38.3783C41.5164 39.5837 40.2734 40.9021 38.5406 41.2788C37.9379 41.3918 37.2222 41.4294 36.6949 41.0151C36.2052 40.6007 36.1675 39.885 36.2429 39.2824C36.3935 38.2653 36.8456 37.3236 37.3729 36.4572C38.4653 34.6868 39.8214 33.1047 41.3658 31.711C42.6842 30.581 44.0402 29.4886 45.66 28.8482C46.79 28.4339 47.9954 28.2078 49.2385 28.2455C50.5192 26.1738 51.7246 24.0643 53.0806 22.0679ZM77.0754 30.0913C74.5139 32.2384 72.5175 35.0258 71.2745 38.1146C71.0485 38.755 70.7848 39.3954 70.8978 40.0734C71.1615 40.4877 71.6888 40.1864 72.0655 39.998C73.9489 38.9057 75.6063 37.3989 77.0377 35.7415C78.9965 33.4438 80.3525 30.7316 81.8969 28.1702C80.0889 28.0572 78.4314 28.9612 77.0754 30.0913ZM46.7523 29.0365C45.3586 29.4886 44.3416 30.5433 43.3999 31.598C41.5541 33.7074 39.8214 35.9675 38.616 38.4913C38.39 39.094 38.0509 39.772 38.3523 40.3747C38.6913 40.4124 38.9927 40.3747 39.294 40.2241C40.3864 39.7344 41.2528 38.9433 42.0438 38.1146C43.2868 36.7209 44.4169 35.2142 45.5093 33.7074C46.677 32.05 47.8447 30.3926 48.8994 28.6599C48.1837 28.7352 47.4304 28.7729 46.7523 29.0365Z" fill="#070809"/>
<path d="M185.6 26.4749C186.203 26.2866 186.806 26.1359 187.446 25.9852C186.994 26.5503 186.618 27.1529 186.203 27.7556C186.919 27.8686 187.785 27.718 188.388 28.1323C188.388 28.2077 188.35 28.396 188.35 28.4713C187.559 28.283 186.768 28.2077 185.94 28.2077C184.508 30.6561 183.077 33.1046 181.834 35.666C181.231 36.9467 180.628 38.2651 180.365 39.6589C180.289 40.1862 180.214 40.7512 180.553 41.2033C180.817 41.5423 181.269 41.6176 181.683 41.6176C182.775 41.6553 183.755 41.1279 184.696 40.6382C186.693 39.4705 188.463 37.9261 190.121 36.344C191.401 35.101 192.607 33.7826 193.775 32.4265C193.812 32.5019 193.925 32.7279 194.001 32.8032C192.23 34.875 190.309 36.8337 188.2 38.6418C186.618 39.9602 184.922 41.2033 183.001 41.9943C181.909 42.4086 180.666 42.71 179.498 42.3333C178.594 42.0696 178.217 40.9772 178.293 40.1109C178.519 38.3405 179.385 36.7207 180.289 35.214C178.594 37.2481 176.748 39.2445 174.451 40.6382C173.622 41.1279 172.68 41.6176 171.701 41.4669C171.136 41.4669 170.721 40.9396 170.684 40.3746C170.646 39.6212 170.872 38.9055 171.098 38.1898C172.078 35.7037 173.735 33.5566 175.694 31.7485C177.276 30.3548 179.009 29.1117 180.967 28.3583C182.06 27.944 183.227 27.7556 184.395 27.718C184.696 27.1906 185.035 26.6633 185.6 26.4749ZM179.009 30.3924C176.974 32.1628 175.392 34.3476 174.187 36.7584C173.735 37.7754 173.208 38.7925 173.17 39.9225C173.17 40.3746 173.697 40.3369 173.961 40.1862C175.053 39.6965 175.995 38.9055 176.937 38.1521C178.067 37.1351 179.159 36.0427 180.063 34.8373C181.608 32.7279 182.813 30.4301 184.169 28.2077C182.21 28.057 180.44 29.1494 179.009 30.3924Z" fill="#070809"/>
<path d="M164.13 27.3037C164.356 27.1907 164.62 26.8894 164.846 27.1531C164.356 27.8311 164.093 28.6975 164.319 29.5638C164.469 30.3549 165.185 30.8822 165.938 31.0706C167.106 31.3343 168.311 31.0329 169.329 30.5056C170.609 29.8275 171.739 28.9235 172.794 27.9818C173.095 27.6804 173.66 28.0194 173.547 28.4338C173.246 28.8105 172.794 28.9988 172.417 29.3002C170.346 30.7316 168.537 32.4266 166.503 33.8957C164.168 35.6285 161.757 37.2105 159.346 38.7926C159.761 39.2823 160.363 39.546 160.891 39.885C165.411 42.6724 169.969 45.4599 174.866 47.5693C176.523 48.2474 178.218 48.8877 179.989 49.1514C182.324 49.4904 184.773 48.9631 186.656 47.5693C188.125 46.5523 189.255 45.1586 190.159 43.6142C190.234 43.3505 190.724 43.3881 190.611 43.6895C190.159 45.6106 188.577 47.0796 186.92 48.0967C184.321 49.6411 181.232 50.1685 178.256 49.8671C175.167 49.6034 172.191 48.624 169.404 47.3433C165.411 45.4976 161.757 43.0115 158.103 40.6007C157.727 40.4123 157.388 39.998 156.973 40.0733C156.032 40.4877 155.241 41.241 154.261 41.5424C154.186 41.3917 154.035 41.241 154.035 41.015C154.11 40.8267 154.299 40.7137 154.487 40.6384C158.744 38.6796 162.737 36.1935 166.466 33.406C167.257 32.8033 168.048 32.2006 168.726 31.4473C168.65 31.4096 168.537 31.2966 168.462 31.2589C167.219 31.5979 165.976 31.9746 164.658 32.05C163.98 32.0123 163.302 31.7486 162.774 31.3719C162.134 30.8822 161.946 30.0159 162.059 29.2625C162.511 28.4338 163.339 27.8688 164.13 27.3037Z" fill="#070809"/>
<path d="M133.617 49.7917C133.843 49.7917 134.069 49.7917 134.295 49.7917C134.295 51.5245 134.295 53.2572 134.295 54.9523C134.069 54.9523 133.843 54.9523 133.617 54.9523C133.617 53.2572 133.617 51.5245 133.617 49.7917Z" fill="#070809"/>
<path d="M135.273 49.7917C135.499 49.7917 135.725 49.7917 135.951 49.7917C135.951 51.5245 135.951 53.2196 135.951 54.9523C135.725 54.9523 135.499 54.9523 135.273 54.9523C135.273 53.2572 135.273 51.5245 135.273 49.7917Z" fill="#070809"/>
<path d="M146.988 49.7917C147.214 49.7917 147.44 49.7917 147.666 49.7917C147.666 50.0178 147.666 50.2814 147.666 50.5451C147.44 50.5451 147.214 50.5451 146.988 50.5451C146.988 50.2814 146.988 50.0554 146.988 49.7917Z" fill="#070809"/>
<path d="M144.992 50.3189C145.218 50.1682 145.444 50.0552 145.67 49.9045C145.67 50.3566 145.67 50.7709 145.67 51.2229C145.896 51.2229 146.122 51.2229 146.348 51.2229C146.348 51.3736 146.348 51.5243 146.348 51.7126C146.122 51.7126 145.896 51.7126 145.67 51.7126C145.67 52.579 145.633 53.4454 145.67 54.3117C145.896 54.3494 146.122 54.3871 146.348 54.4247C146.348 54.6131 146.386 54.8014 146.386 54.9898C145.896 55.0274 145.181 55.1028 145.03 54.5001C144.879 53.5584 145.03 52.6167 144.955 51.675C144.842 51.675 144.616 51.675 144.465 51.675C144.465 51.5619 144.465 51.2983 144.465 51.1853C144.578 51.1853 144.842 51.1853 144.955 51.1853C144.992 50.9216 144.992 50.6202 144.992 50.3189Z" fill="#070809"/>
<path d="M125.669 52.1271C126.083 51.0724 127.59 50.8087 128.419 51.5244C128.645 51.7127 128.758 52.0518 128.871 52.3154C128.645 52.3531 128.419 52.3531 128.193 52.3908C128.042 51.9011 127.552 51.5244 127.025 51.6751C126.121 51.9011 126.046 53.0688 126.272 53.8222C126.422 54.4625 127.289 54.7262 127.816 54.3495C128.08 54.1612 128.155 53.8598 128.268 53.5962C128.494 53.6338 128.72 53.6338 128.908 53.6715C128.758 54.1235 128.532 54.6132 128.08 54.8392C127.289 55.2536 126.121 55.0276 125.707 54.1612C125.443 53.5585 125.443 52.7675 125.669 52.1271Z" fill="#070809"/>
<path d="M153.392 51.7128C153.919 51.0725 154.898 50.9218 155.577 51.4115C155.953 51.7128 155.953 52.2402 155.991 52.6922C155.991 53.4456 156.029 54.1989 155.953 54.9523C155.803 54.9523 155.501 54.9523 155.313 54.9523C155.275 54.0483 155.351 53.1442 155.275 52.2402C155.087 51.3361 153.618 51.5622 153.505 52.3909C153.429 53.2196 153.467 54.0483 153.467 54.877C153.241 54.9146 153.015 54.9146 152.789 54.9523C152.789 53.7092 152.789 52.4285 152.789 51.1855C152.977 51.1855 153.203 51.1855 153.392 51.1855C153.429 51.3361 153.429 51.5998 153.392 51.7128Z" fill="#070809"/>
<path d="M130.341 51.223C131.132 50.9216 132.149 51.1853 132.601 51.9387C132.978 52.579 132.94 53.4077 132.677 54.0858C132.112 55.3288 130.04 55.3665 129.437 54.1234C128.985 53.144 129.173 51.5996 130.341 51.223ZM130.605 51.7503C129.814 52.0893 129.776 53.144 130.002 53.8221C130.228 54.5001 131.17 54.7261 131.697 54.2741C132.187 53.8597 132.225 53.144 132.112 52.5414C131.999 51.901 131.245 51.449 130.605 51.7503Z" fill="#070809"/>
<path d="M137.309 51.5997C138.025 50.9216 139.268 50.9593 139.908 51.7127C140.285 52.127 140.36 52.7297 140.36 53.2571C139.381 53.2571 138.401 53.2571 137.422 53.2571C137.497 53.8598 137.912 54.5755 138.59 54.5378C139.117 54.6132 139.456 54.1988 139.682 53.7844C139.908 53.8221 140.134 53.8221 140.36 53.8598C140.172 54.2365 139.983 54.6508 139.569 54.8768C138.703 55.2912 137.422 55.1405 136.97 54.1988C136.593 53.3324 136.669 52.24 137.309 51.5997ZM137.46 52.7297C138.213 52.7297 138.929 52.7297 139.682 52.7297C139.607 52.1647 139.192 51.5997 138.59 51.6373C137.949 51.5997 137.497 52.1647 137.46 52.7297Z" fill="#070809"/>
<path d="M141.188 51.9387C141.715 51.0724 143.071 50.8464 143.825 51.5244C144.088 51.7127 144.164 52.0517 144.277 52.3531C144.051 52.3908 143.825 52.3908 143.599 52.4284C143.486 52.2024 143.41 51.9387 143.147 51.7881C142.582 51.4491 141.828 51.8257 141.678 52.4284C141.527 52.9558 141.527 53.5208 141.753 54.0105C142.054 54.6132 142.996 54.7262 143.373 54.1988C143.523 54.0105 143.561 53.7845 143.636 53.5962C143.862 53.6338 144.051 53.6338 144.277 53.6715C144.201 53.9728 144.126 54.2742 143.938 54.5002C143.26 55.3289 141.715 55.2536 141.15 54.3118C140.811 53.5585 140.849 52.6544 141.188 51.9387Z" fill="#070809"/>
<path d="M146.988 51.2229C147.214 51.2229 147.44 51.2229 147.666 51.2229C147.666 52.466 147.666 53.7467 147.666 54.9897C147.44 54.9521 147.214 54.9521 146.988 54.9144C146.988 53.6713 146.988 52.466 146.988 51.2229Z" fill="#070809"/>
<path d="M149.591 51.223C150.495 50.8839 151.7 51.3736 151.964 52.353C152.077 52.918 152.077 53.5207 151.888 54.0481C151.361 55.2911 149.289 55.4042 148.649 54.1611C148.122 53.1817 148.385 51.5996 149.591 51.223ZM149.704 51.788C148.988 52.1647 148.95 53.1064 149.176 53.7844C149.402 54.5001 150.382 54.7638 150.909 54.2741C151.399 53.8598 151.361 53.1441 151.286 52.579C151.21 51.8633 150.344 51.4113 149.704 51.788Z" fill="#070809"/>
<path d="M45.8514 62.4108C46.5671 61.6197 47.7725 61.5067 48.7142 61.8834C49.2792 62.1094 49.5805 62.6368 49.7689 63.2018C49.6559 63.2395 49.4675 63.2772 49.3922 63.2772C49.0908 63.2772 48.8272 63.3148 48.5258 63.3902C48.3375 62.5991 47.2451 62.4484 46.7931 63.0888C46.4541 63.6915 46.5294 64.4449 46.6424 65.1229C46.7554 65.7633 47.5464 66.1776 48.0738 65.8009C48.4128 65.6126 48.4882 65.2359 48.5635 64.9346C48.9778 65.0099 49.3922 65.0476 49.8442 65.0852C49.6559 65.6503 49.3922 66.253 48.8648 66.592C48.1491 66.9687 47.2451 67.0063 46.4917 66.6673C45.8137 66.366 45.3617 65.6503 45.2863 64.9346C45.1733 64.0682 45.2487 63.0888 45.8514 62.4108Z" fill="#070809"/>
<path d="M52.0264 62.2976C52.8928 61.4312 54.5125 61.5066 55.2659 62.4483C55.7933 63.051 55.8309 63.8797 55.8686 64.633C54.7762 64.633 53.6838 64.633 52.5915 64.633C52.6291 65.1227 52.8175 65.6501 53.3072 65.8384C53.7968 66.0644 54.3619 65.6878 54.4749 65.1981C54.9269 65.2734 55.3412 65.2734 55.7933 65.3487C55.6049 65.8008 55.3789 66.2528 54.9269 66.5165C54.2112 67.0062 53.2318 66.9685 52.4784 66.6295C51.7627 66.2904 51.3861 65.5371 51.3107 64.7837C51.2354 63.9173 51.3861 62.938 52.0264 62.2976ZM52.6291 63.7667C53.3072 63.7667 53.9475 63.7667 54.6256 63.7667C54.5879 63.3146 54.3619 62.7873 53.8722 62.6743C53.1565 62.4859 52.5915 63.164 52.6291 63.7667Z" fill="#070809"/>
<path d="M74.1776 62.4107C74.8933 61.6197 76.0987 61.5067 77.0404 61.921C77.6054 62.147 77.9068 62.7121 78.0951 63.2394C77.6807 63.3148 77.2664 63.3524 76.852 63.3901C76.6637 62.5991 75.5336 62.4107 75.0816 63.0888C74.7426 63.6914 74.8179 64.4448 74.931 65.0852C75.044 65.7255 75.835 66.1399 76.4 65.8009C76.739 65.6125 76.8144 65.2358 76.8897 64.9345C77.3041 65.0098 77.7184 65.0475 78.1328 65.0852C77.9444 65.6502 77.6807 66.2906 77.1534 66.5919C76.4377 66.9686 75.496 67.0063 74.7426 66.6672C74.1022 66.3659 73.6502 65.6502 73.5749 64.9722C73.4996 64.0681 73.5749 63.0888 74.1776 62.4107Z" fill="#070809"/>
<path d="M80.6946 61.9209C81.335 61.6572 82.0507 61.6572 82.7287 61.7702C83.2184 61.8456 83.7081 62.1092 83.8588 62.5989C84.1601 63.955 83.6328 65.4241 84.2354 66.7424C83.8211 66.7424 83.3691 66.7424 82.9547 66.7424C82.9171 66.5541 82.8417 66.3658 82.804 66.2151C82.1637 66.8931 81.109 67.1568 80.2803 66.6294C79.4516 66.1021 79.4139 64.7084 80.2803 64.2187C81.0336 63.842 81.9 63.842 82.691 63.5406C82.6534 63.277 82.691 62.9379 82.4274 62.8249C81.9 62.5613 81.1466 62.6743 80.9206 63.277C80.5439 63.2016 80.1296 63.1639 79.7529 63.0886C79.9789 62.5989 80.2426 62.1092 80.6946 61.9209ZM81.2596 64.859C80.9206 65.0097 80.9206 65.4994 81.222 65.7254C81.674 66.1021 82.4274 65.8384 82.6534 65.3487C82.7287 65.085 82.691 64.7837 82.7287 64.52C82.239 64.633 81.7117 64.6707 81.2596 64.859Z" fill="#070809"/>
<path d="M94.7422 61.7704C95.5709 61.5444 96.588 61.7328 97.2283 62.3731C98.283 63.3902 98.2454 65.3112 97.153 66.253C96.0983 67.2323 94.1772 67.0063 93.3862 65.8009C92.8965 64.9722 92.8588 63.8798 93.2731 63.0135C93.4992 62.4108 94.0642 61.9211 94.7422 61.7704ZM95.0059 62.7498C94.2525 63.0888 94.1772 64.0682 94.2902 64.7839C94.3655 65.3866 94.8929 65.9139 95.4956 65.8763C96.0983 65.8763 96.5126 65.3112 96.588 64.7839C96.701 64.1435 96.6633 63.3902 96.1736 62.9381C95.8723 62.6368 95.3826 62.5991 95.0059 62.7498Z" fill="#070809"/>
<path d="M108.08 61.7704C108.947 61.5444 109.926 61.7328 110.566 62.3731C111.621 63.3902 111.583 65.3112 110.491 66.253C109.323 67.383 106.988 66.931 106.461 65.3112C105.895 63.9929 106.536 62.1094 108.08 61.7704ZM108.344 62.7498C107.591 63.0888 107.515 64.0682 107.628 64.7839C107.704 65.3866 108.231 65.9516 108.871 65.9139C109.436 65.8763 109.888 65.3489 109.964 64.8216C110.077 64.1812 110.039 63.4655 109.549 62.9758C109.21 62.6368 108.721 62.5615 108.344 62.7498Z" fill="#070809"/>
<path d="M124.012 62.4108C124.727 61.6197 125.933 61.5067 126.874 61.8834C127.402 62.1094 127.741 62.6368 127.929 63.2018C127.816 63.2395 127.628 63.2772 127.552 63.2772C127.251 63.2772 126.987 63.3148 126.686 63.3902C126.535 62.8251 125.895 62.4861 125.368 62.7498C124.652 63.0511 124.69 63.9928 124.727 64.6709C124.727 65.2736 125.142 65.9516 125.82 65.9139C126.385 65.9516 126.648 65.3866 126.761 64.9346C127.176 65.0099 127.59 65.0476 128.004 65.0852C127.816 65.6503 127.59 66.253 127.025 66.592C126.309 67.0063 125.368 67.0063 124.614 66.6673C123.936 66.366 123.522 65.6503 123.447 64.9346C123.333 64.0682 123.409 63.0888 124.012 62.4108Z" fill="#070809"/>
<path d="M130.529 61.9209C131.17 61.6572 131.885 61.6572 132.563 61.7702C133.053 61.8456 133.543 62.1092 133.693 62.6366C133.995 63.9927 133.467 65.4617 134.032 66.7801C133.618 66.7801 133.166 66.7801 132.752 66.7801C132.714 66.5918 132.639 66.4034 132.601 66.2151C131.961 66.8931 130.906 67.1568 130.077 66.6294C129.248 66.1021 129.211 64.7084 130.077 64.2187C130.831 63.842 131.697 63.842 132.488 63.5406C132.45 63.277 132.488 62.9379 132.224 62.7873C131.697 62.5236 130.944 62.6366 130.718 63.2393C130.341 63.1639 129.926 63.1263 129.55 63.0509C129.813 62.5989 130.039 62.1092 130.529 61.9209ZM131.094 64.859C130.755 65.0097 130.755 65.4994 131.057 65.7254C131.509 66.1021 132.262 65.8384 132.526 65.3487C132.601 65.085 132.563 64.7837 132.601 64.52C132.074 64.633 131.546 64.6707 131.094 64.859Z" fill="#070809"/>
<path d="M148.609 62.2974C149.476 61.4311 151.095 61.5064 151.849 62.4858C152.338 63.0885 152.414 63.9172 152.414 64.6705C151.321 64.6705 150.229 64.6705 149.137 64.6705C149.174 65.1602 149.4 65.7253 149.928 65.8759C150.417 66.0643 150.907 65.6876 151.058 65.1979C151.472 65.2732 151.924 65.2732 152.376 65.3486C152.15 65.8006 151.962 66.2526 151.51 66.5163C150.794 67.006 149.815 66.9683 149.061 66.6293C148.345 66.2903 147.969 65.5369 147.893 64.7836C147.78 63.9172 147.931 62.9378 148.609 62.2974ZM149.174 63.7665C149.852 63.7665 150.493 63.7665 151.171 63.7665C151.133 63.3145 150.907 62.7871 150.417 62.6741C149.739 62.4858 149.174 63.1261 149.174 63.7665Z" fill="#070809"/>
<path d="M57.2656 61.8455C58.7347 61.8455 60.2038 61.8455 61.7105 61.8455C61.7105 62.1845 61.7105 62.4858 61.7105 62.8248C61.1831 62.8248 60.6558 62.8248 60.1661 62.8248C60.1661 64.1432 60.1661 65.4616 60.1661 66.7423C59.7141 66.7423 59.2997 66.7423 58.8477 66.7423C58.8477 65.424 58.8477 64.1056 58.8477 62.8248C58.3203 62.8248 57.793 62.8248 57.3033 62.8248C57.2656 62.4858 57.2656 62.1468 57.2656 61.8455Z" fill="#070809"/>
<path d="M63.4805 61.8455C63.9325 61.8455 64.3468 61.8455 64.7989 61.8455C64.7989 62.5612 64.7989 63.2392 64.7989 63.9549C65.7029 63.9926 66.6446 63.8042 67.511 64.1809C68.4527 64.6329 68.4527 66.2527 67.398 66.5917C66.1173 66.9307 64.7989 66.7047 63.4805 66.78C63.4805 65.0849 63.4805 63.4652 63.4805 61.8455ZM64.7989 64.7836C64.7989 65.1603 64.7989 65.537 64.7989 65.9136C65.4392 65.876 66.1173 65.989 66.7576 65.8006C66.8706 65.4993 66.9836 65.0849 66.6069 64.9343C66.0419 64.6706 65.4016 64.7836 64.7989 64.7836Z" fill="#070809"/>
<path d="M86.5706 61.8455C88.002 61.8455 89.4711 61.8455 90.9025 61.8455C90.9025 63.4652 90.9025 65.1226 90.9025 66.7423C90.4505 66.7423 90.0361 66.7423 89.5841 66.7423C89.5841 65.424 89.5841 64.1056 89.5841 62.8248C89.0191 62.8248 88.4164 62.8248 87.8513 62.8248C87.8513 63.6912 87.8513 64.5953 87.8513 65.4616C87.8137 65.9513 87.7007 66.5163 87.2486 66.7423C86.759 66.9684 86.1563 66.8554 85.6289 66.78C85.6289 66.4787 85.6289 66.1773 85.6289 65.876C85.8926 65.876 86.1563 65.876 86.4199 65.876C86.4953 65.65 86.5706 65.424 86.5706 65.1603C86.5706 64.0679 86.5706 62.9378 86.5706 61.8455Z" fill="#070809"/>
<path d="M99.9062 61.8455C100.358 61.8455 100.773 61.8455 101.225 61.8455C101.225 62.4482 101.225 63.0508 101.225 63.6535C101.827 63.6535 102.43 63.6535 103.033 63.6535C103.033 63.0508 103.033 62.4482 103.033 61.8455C103.485 61.8455 103.899 61.8455 104.351 61.8455C104.351 63.4652 104.351 65.1226 104.351 66.7423C103.899 66.7423 103.485 66.7423 103.033 66.7423C103.033 66.0266 103.033 65.3486 103.033 64.6329C102.43 64.6329 101.827 64.6329 101.225 64.6329C101.225 65.3486 101.225 66.0266 101.225 66.7423C100.773 66.7423 100.358 66.7423 99.9062 66.7423C99.9062 65.0849 99.9062 63.4652 99.9062 61.8455Z" fill="#070809"/>
<path d="M113.312 61.8455C114.367 61.8455 115.384 61.8455 116.439 61.8455C116.853 61.8831 117.343 61.9585 117.644 62.3351C118.172 62.9378 117.833 64.1432 116.966 64.1809C117.795 64.3316 118.322 65.2733 117.908 66.0267C117.644 66.5917 116.966 66.78 116.401 66.78C115.384 66.78 114.33 66.78 113.312 66.78C113.312 65.0849 113.312 63.4652 113.312 61.8455ZM114.631 62.6742C114.631 63.0508 114.631 63.4275 114.631 63.8042C115.196 63.7665 115.761 63.8796 116.288 63.6912C116.627 63.5405 116.703 62.9755 116.326 62.8248C115.799 62.5612 115.196 62.7118 114.631 62.6742ZM114.631 64.6329C114.631 65.0473 114.631 65.4616 114.631 65.876C115.196 65.8383 115.761 65.9513 116.288 65.8006C116.816 65.6876 116.816 64.8213 116.326 64.7083C115.761 64.5576 115.196 64.6329 114.631 64.6329Z" fill="#070809"/>
<path d="M135.992 61.8455C136.444 61.8455 136.859 61.8455 137.311 61.8455C137.311 62.4482 137.311 63.0508 137.311 63.6535C137.913 63.6535 138.516 63.6535 139.119 63.6535C139.119 63.0508 139.119 62.4482 139.119 61.8455C139.533 61.8455 139.985 61.8455 140.437 61.8455C140.437 63.4652 140.437 65.1226 140.437 66.7423C139.985 66.7423 139.571 66.7423 139.119 66.7423C139.119 66.0266 139.119 65.3486 139.119 64.6329C138.516 64.6329 137.913 64.6329 137.311 64.6329C137.311 65.3486 137.311 66.0266 137.311 66.7423C136.859 66.7423 136.444 66.7423 135.992 66.7423C135.992 65.0849 135.992 63.4652 135.992 61.8455Z" fill="#070809"/>
<path d="M142.057 61.8455C143.526 61.8455 144.995 61.8455 146.464 61.8455C146.464 62.1845 146.464 62.4858 146.464 62.8248C145.937 62.8248 145.41 62.8248 144.92 62.8248C144.92 64.1432 144.92 65.4616 144.92 66.7423C144.468 66.7423 144.054 66.7423 143.602 66.7423C143.602 65.424 143.602 64.1056 143.602 62.8248C143.074 62.8248 142.547 62.8248 142.02 62.8248C142.057 62.4858 142.057 62.1468 142.057 61.8455Z" fill="#070809"/>
<path d="M153.884 61.8455C154.411 61.8455 154.939 61.8455 155.428 61.8455C155.73 62.2975 155.993 62.7495 156.295 63.2015C156.596 62.7495 156.897 62.2975 157.199 61.8455C157.688 61.8455 158.216 61.8455 158.705 61.8455C158.178 62.6365 157.613 63.3899 157.086 64.1809C157.688 65.0473 158.291 65.9136 158.894 66.78C158.442 66.78 157.99 66.78 157.538 66.78C157.312 66.8554 157.236 66.5917 157.123 66.4787C156.86 66.0643 156.596 65.65 156.332 65.2733C155.993 65.763 155.654 66.2903 155.315 66.78C154.826 66.78 154.298 66.78 153.809 66.78C154.374 65.9513 154.976 65.0849 155.541 64.2562C155.014 63.3899 154.449 62.6365 153.884 61.8455Z" fill="#070809"/>
<path d="M160.664 61.8455C161.116 61.8455 161.53 61.8455 161.982 61.8455C161.982 62.4482 161.982 63.0508 161.982 63.6535C162.585 63.6535 163.188 63.6535 163.791 63.6535C163.791 63.0508 163.791 62.4482 163.791 61.8455C164.205 61.8455 164.657 61.8455 165.109 61.8455C165.109 63.4652 165.109 65.1226 165.109 66.7423C164.657 66.7423 164.243 66.7423 163.791 66.7423C163.791 66.0266 163.791 65.3486 163.791 64.6329C163.188 64.6329 162.585 64.6329 161.982 64.6329C161.982 65.3486 161.982 66.0266 161.982 66.7423C161.53 66.7423 161.116 66.7423 160.664 66.7423C160.664 65.0849 160.664 63.4652 160.664 61.8455Z" fill="#070809"/>
<path d="M167.293 61.8455C167.707 61.8455 168.122 61.8455 168.536 61.8455C168.536 62.9002 168.536 63.9172 168.536 64.9719C169.214 63.9172 169.854 62.9002 170.495 61.8455C170.909 61.8455 171.323 61.8455 171.776 61.8455C171.776 63.4652 171.776 65.1226 171.776 66.7423C171.361 66.7423 170.947 66.7423 170.532 66.7423C170.532 65.6876 170.532 64.6329 170.532 63.5782C169.854 64.6329 169.214 65.6876 168.536 66.7047C168.159 66.8177 167.707 66.7423 167.293 66.7423C167.293 65.0849 167.293 63.4652 167.293 61.8455Z" fill="#070809"/>
<path d="M174 61.8455C174.414 61.8455 174.866 61.8455 175.281 61.8455C175.281 62.5235 175.281 63.2015 175.281 63.8796C176.147 63.6535 175.921 62.4482 176.637 62.0338C177.013 61.8078 177.465 61.8831 177.88 61.8455C177.88 62.1091 177.88 62.3728 177.88 62.6742C177.654 62.7118 177.39 62.7495 177.164 62.7872C176.938 63.2769 176.825 63.8796 176.335 64.2186C177.277 64.7459 177.503 65.9136 178.068 66.78C177.616 66.78 177.164 66.78 176.674 66.78C176.373 66.1773 176.147 65.5746 175.846 64.9719C175.733 64.7459 175.469 64.7083 175.281 64.5953C175.281 65.311 175.281 66.0266 175.281 66.7423C174.866 66.7423 174.414 66.7423 174 66.7423C174 65.0849 174 63.4652 174 61.8455Z" fill="#070809"/>
<path d="M179.801 61.8455C180.215 61.8455 180.629 61.8455 181.044 61.8455C181.044 62.9002 181.044 63.9172 181.044 64.9719C181.722 63.9172 182.362 62.8625 183.04 61.8455C183.455 61.8455 183.869 61.8455 184.283 61.8455C184.283 63.4652 184.283 65.1226 184.283 66.7423C183.869 66.7423 183.455 66.7423 183.04 66.7423C183.04 65.6876 183.04 64.6329 183.04 63.5782C182.362 64.5953 181.722 65.65 181.044 66.7047C180.667 66.8554 180.215 66.7423 179.801 66.7423C179.801 65.0849 179.801 63.4652 179.801 61.8455Z" fill="#070809"/>
</svg>
