<svg width="23" height="23" viewBox="0 0 23 23" fill="none" xmlns="http://www.w3.org/2000/svg">
<path d="M22.8521 12.545L21.1619 9.86302C21.028 9.65038 20.9829 9.39363 21.036 9.14814L21.7069 6.04984C21.8116 5.567 21.5322 5.0837 21.0619 4.93277L18.0432 3.9647C17.804 3.88793 17.6043 3.72042 17.4872 3.4982L16.0097 0.693605C15.7795 0.256381 15.255 0.0655798 14.7976 0.252285L11.8627 1.45121C11.6301 1.54599 11.3695 1.54599 11.137 1.45121L8.20257 0.252511C7.74517 0.0658053 7.22061 0.256607 6.99023 0.693831L5.51271 3.49817C5.39561 3.72039 5.19594 3.88789 4.95669 3.96467L1.93807 4.93273C1.46747 5.08366 1.18839 5.56699 1.29302 6.04981L1.96373 9.1481C2.01703 9.39359 1.97166 9.65038 1.83776 9.86298L0.147831 12.545C-0.115653 12.963 -0.0184673 13.5126 0.371968 13.8154L2.8773 15.7575C3.076 15.9116 3.20629 16.1372 3.24038 16.3863L3.66971 19.5271C3.73642 20.0166 4.16429 20.3754 4.65769 20.3562L7.82537 20.2336C8.07638 20.2237 8.32115 20.313 8.50762 20.4817L10.855 22.6117C11.221 22.9436 11.7794 22.9436 12.1451 22.6117L14.4928 20.4817C14.6788 20.3128 14.9238 20.2237 15.1751 20.2336L18.3425 20.3562C18.8364 20.3754 19.2638 20.0164 19.3307 19.5271L19.76 16.3863C19.7941 16.1372 19.9244 15.9116 20.1229 15.7575L22.6282 13.8154C23.0186 13.5126 23.1156 12.963 22.8521 12.545ZM8.84045 15.351L6.04306 13.3972L7.1928 16.0618L6.42655 16.3925L4.66322 12.3067L5.4657 11.9601L8.31588 13.967L7.13808 11.2385L7.90433 10.9076L9.66814 14.9937L8.84045 15.351ZM10.5404 14.6172L8.77708 10.5313L11.8068 9.22346L12.1048 9.91481L9.89995 10.8663L10.2909 11.772L12.3424 10.8865L12.6395 11.575L10.588 12.4602L11.0679 13.5723L13.3505 12.5872L13.6476 13.2757L10.5404 14.6172ZM17.4471 11.6365L15.315 8.93265L15.822 12.3374L14.9274 12.7235L12.1888 9.05889L13.033 8.69412L14.8604 11.235L14.3961 8.10619L15.3775 7.68265L17.3254 10.2276L16.7207 7.10288L17.5513 6.74435L18.3223 11.2588L17.4471 11.6365Z" fill="#00B633"/>
</svg>
