<svg width="563" height="297" viewBox="0 0 563 297" fill="none" xmlns="http://www.w3.org/2000/svg">
<path d="M356.616 267.065C359.448 267.065 360.76 265.133 360.76 262.372V255.539C360.76 252.744 359.655 250.88 356.616 250.88C353.578 250.88 352.473 252.744 352.473 255.539V262.373C352.474 265.133 353.785 267.065 356.616 267.065Z" fill="#00A4FF"/>
<path d="M314.801 251.191H311.141V256.92H315.008C317.39 256.92 318.668 255.919 318.668 254.125C318.668 252.675 317.942 251.191 314.801 251.191Z" fill="#00A4FF"/>
<path d="M381.688 254.124C381.688 252.675 380.963 251.191 377.821 251.191H374.16V256.92H378.028C380.41 256.921 381.688 255.92 381.688 254.124Z" fill="#00A4FF"/>
<path d="M332.031 251.191V256.92H335.898C338.281 256.92 339.558 255.919 339.558 254.125C339.558 252.676 338.833 251.191 335.691 251.191H332.031Z" fill="#00A4FF"/>
<path d="M157.194 196.978C155.727 196.965 154.529 198.143 154.516 199.609C154.503 201.075 155.682 202.274 157.148 202.286C158.615 202.299 159.813 201.121 159.826 199.655C159.839 198.189 158.661 196.991 157.194 196.978Z" fill="#00A4FF"/>
<path d="M158.819 123.687C159.642 123.694 160.316 123.032 160.322 122.209C160.33 121.386 159.668 120.713 158.844 120.706C158.02 120.699 157.346 121.36 157.34 122.184C157.333 123.007 157.995 123.68 158.819 123.687Z" fill="#00A4FF"/>
<path d="M373.281 224.011C373.281 226.701 375.464 228.881 378.156 228.881C380.847 228.881 383.028 226.7 383.028 224.011C383.028 221.321 380.847 219.14 378.156 219.14C375.464 219.14 373.281 221.321 373.281 224.011Z" fill="#00A4FF"/>
<path d="M276.469 108.749C273.777 108.749 271.594 110.93 271.594 113.619C271.594 116.309 273.776 118.49 276.469 118.49C279.16 118.49 281.342 116.309 281.342 113.619C281.342 110.93 279.16 108.749 276.469 108.749Z" fill="#00A4FF"/>
<path d="M194.995 52.6584C194.995 51.1674 193.785 49.9595 192.294 49.9595C190.802 49.9595 189.594 51.1684 189.594 52.6584C189.594 54.1493 190.803 55.3572 192.294 55.3572C193.785 55.3582 194.995 54.1493 194.995 52.6584Z" fill="#00A4FF"/>
<path d="M202.983 224.011C202.983 222.521 201.773 221.312 200.282 221.312C198.791 221.312 197.582 222.521 197.582 224.011C197.582 225.502 198.792 226.71 200.282 226.71C201.773 226.71 202.983 225.502 202.983 224.011Z" fill="#00A4FF"/>
<path d="M9.27065 218.613C7.77892 218.613 6.57031 219.822 6.57031 221.312C6.57031 222.803 7.77985 224.011 9.27065 224.011C10.7614 224.011 11.971 222.802 11.971 221.312C11.971 219.822 10.7624 218.613 9.27065 218.613Z" fill="#00A4FF"/>
<path d="M197.696 5.39873C199.187 5.39873 200.397 4.18985 200.397 2.69985C200.397 1.20893 199.187 0.000976562 197.696 0.000976562C196.205 0.000976562 194.996 1.20986 194.996 2.69985C194.996 4.18985 196.205 5.39873 197.696 5.39873Z" fill="#00A4FF"/>
<path d="M375.98 185.313C375.98 183.823 374.77 182.615 373.28 182.615C371.788 182.615 370.578 183.823 370.578 185.313C370.578 186.804 371.788 188.013 373.28 188.013C374.77 188.012 375.98 186.804 375.98 185.313Z" fill="#00A4FF"/>
<path d="M273.771 137.09C272.279 137.09 271.07 138.299 271.07 139.789C271.07 141.28 272.28 142.489 273.771 142.489C275.261 142.489 276.471 141.28 276.471 139.789C276.471 138.298 275.261 137.09 273.771 137.09Z" fill="#00A4FF"/>
<path d="M519.313 105.718C524.858 105.718 529.353 101.225 529.353 95.6837C529.353 90.1421 524.858 85.6489 519.313 85.6489C513.768 85.6489 509.273 90.1421 509.273 95.6837C509.273 101.225 513.768 105.718 519.313 105.718Z" fill="#00A4FF"/>
<path d="M495.234 93.1648C495.234 95.0185 496.737 96.5205 498.592 96.5205C500.446 96.5205 501.949 95.0175 501.949 93.1648C501.949 91.312 500.447 89.8081 498.593 89.8081C496.738 89.8081 495.234 91.3111 495.234 93.1648Z" fill="#00A4FF"/>
<path d="M559.126 179.566C557.197 178.594 555.035 178.594 553.191 179.378C550.899 178.569 549.27 176.298 549.099 173.622C549.511 173.064 549.759 172.377 549.759 171.63C549.759 169.776 548.255 168.274 546.401 168.274C544.546 168.274 543.043 169.777 543.043 171.63C543.043 173.482 544.546 174.985 546.401 174.985C546.581 174.985 546.757 174.967 546.93 174.94C549 176.086 550.314 178.56 550.061 181.295C550.03 181.626 549.975 181.947 549.902 182.261C549.82 182.399 549.736 182.536 549.663 182.68C549.401 183.199 549.218 183.735 549.093 184.277C549.025 184.569 548.977 184.862 548.948 185.156C548.669 187.968 550.104 190.788 552.779 192.137C556.252 193.889 560.488 192.495 562.241 189.023C563.995 185.552 562.6 181.317 559.126 179.566Z" fill="#00A4FF"/>
<path d="M512.162 266.059C510.308 266.059 508.805 267.562 508.805 269.415C508.805 271.268 510.308 272.771 512.162 272.771C514.017 272.771 515.52 271.268 515.52 269.415C515.521 267.561 514.018 266.059 512.162 266.059Z" fill="#00A4FF"/>
<path d="M17.8966 141.148C19.7509 141.148 21.2541 139.646 21.2541 137.792C21.2541 135.939 19.7509 134.437 17.8966 134.437C16.0423 134.437 14.5391 135.939 14.5391 137.792C14.5391 139.646 16.0423 141.148 17.8966 141.148Z" fill="#00A4FF"/>
<path d="M106.933 18.9828C109.74 16.1771 109.74 11.6281 106.933 8.82233C104.125 6.01658 99.5739 6.01659 96.7666 8.82233C93.9593 11.6281 93.9593 16.1771 96.7666 18.9828C99.5739 21.7886 104.125 21.7886 106.933 18.9828Z" fill="#00A4FF"/>
<path d="M527.034 165.239C522.904 164.152 519.737 163.041 517.312 161.945C508.798 161.766 501.949 154.816 501.949 146.263C501.949 139.409 506.346 133.587 512.474 131.449V119.089C512.474 109.014 503.513 101.458 493.152 101.458C482.231 101.458 473.831 109.015 473.831 119.089V161.91H466.508C465.769 162.99 465 164.854 464.303 167.958C464.377 169.906 463.444 171.751 461.721 172.651C459.259 173.937 456.122 172.803 454.717 170.115C454.211 169.149 454.003 168.114 454.051 167.125C453.829 166.225 452.926 163.878 449.42 161.91H438.828C452.167 131.11 463.431 105.777 476.027 76.9316C478.484 78.2648 481.606 78.0588 483.889 76.1643C485.551 74.7838 486.413 72.8011 486.429 70.799C488.086 69.0214 490.818 68.4341 493.342 69.3461C493.689 69.9464 494.221 70.4474 494.906 70.7452C496.607 71.4846 498.585 70.7062 499.325 69.0066C500.065 67.3069 499.286 65.3298 497.585 64.5904C495.886 63.8509 493.907 64.6293 493.167 66.329C493.095 66.4942 493.042 66.663 492.998 66.8319C491.121 68.2718 488.327 68.4889 485.919 67.1659C485.627 67.0054 485.355 66.8272 485.096 66.6352C485.002 66.5053 484.91 66.3736 484.807 66.2483C484.436 65.8011 484.016 65.4198 483.569 65.0886C483.329 64.9105 483.079 64.749 482.821 64.6052C482.437 64.3909 482.036 64.2193 481.624 64.082C482.318 62.4834 483.015 60.8775 483.721 59.2501C483.921 58.7881 484.121 58.3279 484.322 57.8631C484.372 57.7472 484.423 57.633 484.473 57.5171C485.592 54.9982 485.592 53.0397 485.592 51.3604C485.592 50.4549 485.508 49.5605 485.348 48.6838C485.976 47.6141 486.65 47.0546 486.96 46.8348C487.586 46.4497 488.151 45.945 488.616 45.3197C490.581 42.6793 490.029 38.9469 487.387 36.9846C485.906 35.8843 484.081 35.5754 482.417 35.9799C480.159 36.4206 478.39 36.6098 476.996 36.6284C475.667 35.7331 474.241 34.9881 472.761 34.4203C472.531 34.3321 472.299 34.2486 472.067 34.1689C470.181 33.525 468.221 33.1678 466.272 33.1678C458.991 33.1678 451.711 37.3659 448.912 44.083L428.217 91.8065C419.147 93.6666 409.79 88.7244 406.363 79.7659C405.918 78.6006 404.973 76.5187 404.123 74.4117C403.917 72.3781 403.339 70.4567 402.465 68.7087C402.465 68.7078 402.464 68.706 402.464 68.7041L402.463 68.705C399.749 63.2924 394.152 59.5739 387.682 59.5739C378.756 59.5739 371.487 66.6482 371.171 75.4917C371.157 75.4815 371.143 75.4694 371.129 75.4592C371.097 75.8897 371.051 76.322 370.982 76.7562C369.909 83.5772 364.747 88.7356 358.386 90.1411C342.02 58.61 309.064 37.0644 271.069 37.0644C253.88 37.0644 237.725 41.4778 223.667 49.2265C221.823 49.9446 219.817 50.3454 217.715 50.3454C208.687 50.3454 201.368 43.0791 201.368 34.115C201.368 33.0843 201.474 32.0795 201.661 31.1026C202.168 29.7248 202.447 28.2367 202.447 26.6827C202.447 19.6233 196.72 13.8999 189.657 13.8999C182.593 13.8999 176.867 19.6233 176.867 26.6827C176.867 33.5482 182.283 39.1473 189.077 39.4506C189.065 39.4738 189.051 39.497 189.039 39.5202C189.457 39.4868 189.877 39.4655 190.304 39.4655C199.035 39.4655 206.112 46.5388 206.112 55.2645C206.112 58.4736 205.152 61.4582 203.506 63.9511C186.069 80.4459 174.679 103.254 172.988 128.716C170.76 131.888 166.509 133.044 162.968 131.258C162.508 131.026 162.083 130.752 161.691 130.448C161.209 129.939 160.639 129.497 159.977 129.163C157.25 127.788 153.997 128.613 152.22 130.966C152.193 130.932 152.168 130.898 152.14 130.865C152.056 131.08 151.963 131.294 151.857 131.505C151.826 131.557 151.796 131.611 151.766 131.665C149.564 135.797 143.983 137.226 138.995 135.003V112.601C138.995 102.526 130.034 94.9702 119.674 94.9702C117.244 94.9702 114.94 95.3459 112.823 96.0389C105.994 93.8262 100.389 88.8357 97.3324 82.3664C101.725 72.3465 106.226 62.039 110.994 51.031C112.114 48.5122 112.114 46.5536 112.114 44.8744C112.114 41.629 111.034 38.5405 109.25 35.8565C110.645 35.7507 111.745 34.5891 111.745 33.1678C111.745 31.6769 110.535 30.4689 109.044 30.4689C107.786 30.4689 106.732 31.3299 106.432 32.4942C102.749 28.9483 97.7352 26.6836 92.7941 26.6836C85.5137 26.6836 78.2332 30.8818 75.4326 37.5988L65.877 59.6333C62.3125 61.0129 59.8062 60.5008 58.9494 60.2401C57.9264 59.843 56.8125 59.6231 55.6447 59.6315C50.7713 59.6658 46.8494 63.5698 46.8828 68.3488C46.9014 71.0374 48.1684 73.432 50.141 75.0055C52.9073 77.4455 54.7972 79.4699 56.0652 81.1566C60.895 82.1447 64.5273 86.4161 64.5273 91.5356C64.5273 97.387 59.7811 102.13 53.9274 102.13C51.8091 102.13 49.8375 101.506 48.1814 100.437L28.7741 145.191C27.4355 145.435 26.5036 145.224 26.123 145.102C25.5131 144.855 24.8475 144.717 24.1495 144.717C21.2329 144.717 18.8686 147.08 18.8686 149.995C18.8686 151.626 19.6102 153.085 20.7734 154.052C22.0042 155.173 22.9399 156.148 23.6529 157.004L21.6691 161.578C19.989 165.217 18.8686 170.254 18.8686 171.374C18.8686 176.277 20.7966 180.912 24.1263 184.381C23.1534 189.355 19.0523 193.319 13.7779 193.857C13.0334 193.933 12.3001 193.931 11.5807 193.868C10.5503 193.604 9.4559 193.514 8.33455 193.628C3.24021 194.148 -0.467301 198.696 0.0525301 203.788C0.572361 208.88 5.12367 212.585 10.218 212.066C15.1731 211.559 18.8147 207.243 18.5325 202.324C18.5502 202.331 18.5678 202.34 18.5854 202.346C18.5307 202.048 18.4842 201.746 18.4527 201.439C17.8094 195.147 22.3923 189.524 28.6887 188.882C29.3701 188.812 30.0421 188.807 30.7021 188.856C32.0769 189.422 33.5501 189.84 35.104 190.1C35.3212 190.212 35.5375 190.327 35.7463 190.452C35.751 190.369 35.7528 190.284 35.7566 190.2C36.7247 190.332 37.7217 190.404 38.7484 190.404H100.353V213.352C100.353 223.429 108.754 230.984 119.674 230.984C130.595 230.984 138.995 223.428 138.995 213.352V190.404H142.636C147.167 190.404 151.237 188.98 154.421 186.592C154.92 188.548 156.681 190.002 158.796 190.021C161.314 190.042 163.373 188.019 163.395 185.502C163.415 183.14 161.634 181.182 159.332 180.932C160.654 178.496 161.396 175.724 161.396 172.772C161.396 171.211 161.159 169.684 160.722 168.221C163.424 167.481 166.247 167.087 169.152 167.087C172.393 167.087 175.531 167.581 178.513 168.496C187.243 192.819 205.293 212.704 228.365 223.842C226.939 232.213 221.253 239.605 212.761 242.773C211.31 243.314 209.84 243.702 208.368 243.955C206.131 243.96 203.858 244.353 201.639 245.181C201.181 245.353 200.735 245.544 200.297 245.746C195.82 244.826 192.471 240.87 192.512 236.159C192.517 235.524 192.589 234.906 192.711 234.307C193.011 233.499 193.186 232.63 193.194 231.719C193.23 227.496 189.835 224.044 185.611 224.008C181.386 223.972 177.932 227.365 177.896 231.587C177.861 235.693 181.073 239.064 185.137 239.278C185.128 239.295 185.119 239.311 185.11 239.328C185.359 239.31 185.612 239.3 185.866 239.302C191.088 239.347 195.284 243.613 195.239 248.831C195.238 248.935 195.228 249.035 195.224 249.138C189.656 254.315 187.442 262.523 190.267 270.087C194.008 280.104 205.164 285.193 215.186 281.454C224.932 277.818 230.013 267.173 226.845 257.378C226.885 257.382 226.924 257.39 226.964 257.395C226.696 256.82 226.442 256.235 226.216 255.631C222.186 244.84 226.452 232.986 235.817 227.059C246.761 231.262 258.645 233.572 271.069 233.572C286.602 233.572 301.289 229.967 314.349 223.556C320.9 222.446 324.223 224.804 325.107 225.58C325.187 225.66 325.272 225.736 325.355 225.815C325.783 226.218 326.258 226.579 326.771 226.899C328.18 235.835 316.858 236.711 307.369 238.305C287.499 241.642 273.043 232.429 259.149 248.08C253.163 254.823 244.39 279.265 251.24 287.93C261.971 301.504 279.03 288.722 291.266 284.552C311.351 277.71 326.218 276.958 346.906 282.996C363.492 287.837 395.246 306.509 411.154 290.872C423.261 278.972 411.421 271.151 409.092 257.832C405.611 237.928 414.109 234.217 390.567 232.48C369.879 230.954 349.787 233.081 339.89 217.522C339.729 216.903 339.5 216.302 339.207 215.731C337.905 212.85 337.059 210.505 336.553 208.596C354.793 192.303 366.912 169.312 369.039 143.487C379.344 145.399 388.639 152.004 393.57 162.151C394.369 163.796 395.02 165.474 395.536 167.17L395.15 168.063C393.469 171.701 392.349 176.738 392.349 177.858C392.349 180.775 393.034 183.595 394.286 186.135C392.845 191.333 387.993 195.037 382.409 194.782C381.661 194.747 380.935 194.638 380.233 194.471C379.252 194.058 378.183 193.808 377.058 193.756C371.942 193.522 367.606 197.476 367.372 202.589C367.139 207.701 371.096 212.035 376.211 212.27C381.187 212.496 385.423 208.762 385.866 203.855C385.883 203.864 385.899 203.875 385.916 203.885C385.906 203.581 385.904 203.276 385.919 202.968C386.207 196.65 391.568 191.761 397.89 192.05C398.257 192.067 398.617 192.105 398.974 192.155C402.384 195.07 406.937 196.888 412.232 196.888H473.836V219.837C473.836 229.912 482.236 237.468 493.157 237.468C494.529 237.468 495.859 237.348 497.139 237.12C501.994 238.626 505.04 243.549 504.053 248.618C503.928 249.26 503.74 249.873 503.502 250.458C503.045 251.223 502.701 252.073 502.521 252.998C501.687 257.28 504.483 261.426 508.767 262.26C513.051 263.093 517.2 260.298 518.033 256.017C518.845 251.852 516.217 247.826 512.13 246.84C512.143 246.825 512.156 246.811 512.168 246.795C511.91 246.765 511.653 246.729 511.394 246.679C506.1 245.649 502.644 240.524 503.675 235.233C503.71 235.051 503.757 234.876 503.802 234.699C509.081 231.624 512.479 226.242 512.479 219.837V203.181C516.795 190.823 523.755 188.682 525.699 188.321C527.173 188.186 528.646 187.768 530.04 187.04C535.767 184.049 537.982 176.982 534.988 171.26C533.301 168.047 530.33 165.938 527.034 165.239ZM100.349 112.604V155.424H65.347C75.9896 130.85 85.3104 109.759 95.0405 87.586C99.292 91.774 102.162 97.3731 102.883 103.642C101.267 106.236 100.349 109.282 100.349 112.604ZM155.121 159.859C151.843 157.129 147.503 155.424 142.632 155.424H141.656C140.911 155.573 140.143 155.584 139.371 155.424H138.991V155.332C138.411 155.169 137.831 154.911 137.258 154.539C132.452 151.417 134.758 143.279 139.012 141.095C141.655 137.328 147.295 136.223 152.207 138.701C152.34 138.768 152.467 138.842 152.596 138.912C153.09 139.45 153.681 139.913 154.372 140.261C157.353 141.765 160.966 140.637 162.585 137.754C162.594 137.766 162.602 137.78 162.611 137.792C162.688 137.604 162.771 137.416 162.864 137.232C164.709 133.578 169.072 132.044 172.779 133.654C172.77 134.21 172.758 134.764 172.758 135.322C172.758 137.821 172.853 140.298 173.036 142.751C168.985 150.51 162.675 156.595 155.121 159.859ZM207.125 139.763C205.648 139.763 204.451 138.566 204.451 137.09C204.451 135.614 205.648 134.417 207.125 134.417C208.602 134.417 209.8 135.614 209.8 137.09C209.8 138.566 208.602 139.763 207.125 139.763ZM248.574 64.9151C251.559 64.9151 253.979 67.3338 253.979 70.3166C253.979 73.2993 251.559 75.718 248.574 75.718C245.589 75.718 243.17 73.2993 243.17 70.3166C243.17 67.3338 245.59 64.9151 248.574 64.9151ZM261.592 204.428C258.153 204.428 255.367 201.643 255.367 198.208C255.367 194.772 258.154 191.987 261.592 191.987C265.029 191.987 267.815 194.772 267.815 198.208C267.815 201.643 265.028 204.428 261.592 204.428ZM308.862 207.481C307.385 207.481 306.187 206.284 306.187 204.808C306.187 203.332 307.385 202.135 308.862 202.135C310.339 202.135 311.536 203.332 311.536 204.808C311.536 206.284 310.339 207.481 308.862 207.481ZM317.471 168.656C316.427 173.321 311.726 176.242 306.971 175.179C305.833 174.924 304.798 174.459 303.891 173.843C302.982 173.32 299.936 171.942 294.9 173.314C292.022 175.246 288.896 176.837 285.579 178.032C284.95 178.403 284.594 178.517 284.471 178.414C282.821 178.957 281.127 179.404 279.395 179.745C278.904 185.043 282.175 190.134 287.465 191.747C287.76 191.837 288.057 191.911 288.354 191.976C288.341 191.99 288.326 192.003 288.313 192.017C292.96 193.662 295.53 198.689 294.078 203.451C292.585 208.346 287.404 211.104 282.504 209.611C277.606 208.118 274.847 202.94 276.342 198.044C276.67 196.968 277.177 195.995 277.82 195.148C278.156 194.509 278.442 193.833 278.661 193.119C280.122 188.333 278.359 183.332 274.614 180.411C273.445 180.507 272.263 180.559 271.068 180.559C247.436 180.559 228.281 161.412 228.281 137.794C228.281 114.176 247.437 95.0295 271.068 95.0295C294.7 95.0295 313.855 114.176 313.855 137.794C313.855 143.208 312.846 148.385 311.01 153.152C311.803 155.227 313.281 157.924 315.8 161.444C317.365 163.419 318.058 166.034 317.471 168.656ZM300.921 271.139H291.771C290.079 271.139 288.56 270.552 288.56 268.688V249.259C288.56 248.051 289.699 246.809 291.218 246.809H300.576C301.888 246.809 302.992 247.844 302.992 249.052C302.992 250.294 301.888 251.191 300.576 251.191H293.393V256.748H299.919C301.127 256.748 302.302 257.68 302.302 258.922C302.302 260.164 301.266 261.131 299.919 261.131H293.393V266.756H300.92C302.198 266.756 303.337 267.722 303.337 268.895C303.339 270.137 302.233 271.139 300.921 271.139ZM321.328 271.414C320.465 271.414 319.74 271.035 319.291 270.344L313.49 261.268H311.143V269.171C311.143 270.379 310.004 271.448 308.691 271.448C307.414 271.448 306.308 270.413 306.308 269.171V249.292C306.308 247.947 307.517 246.808 308.932 246.808H314.941C321.432 246.808 323.504 250.5 323.504 254.124C323.504 257.541 321.674 259.784 318.704 260.75L323.435 267.86C324.574 269.585 322.882 271.414 321.328 271.414ZM369.325 249.293C369.325 247.948 370.533 246.809 371.948 246.809H377.957C384.448 246.809 386.52 250.501 386.52 254.125C386.52 257.542 384.689 259.785 381.72 260.751L386.45 267.861C387.59 269.585 385.898 271.415 384.344 271.415C383.481 271.415 382.756 271.036 382.307 270.345L376.506 261.269H374.158V269.172C374.158 270.38 373.018 271.449 371.707 271.449C370.429 271.449 369.325 270.414 369.325 269.172V249.293ZM347.64 255.539C347.64 250.639 350.161 246.497 356.618 246.497C363.075 246.497 365.595 250.639 365.595 255.539V262.373C365.595 267.412 362.591 271.449 356.618 271.449C350.644 271.449 347.64 267.412 347.64 262.373V255.539ZM320.751 153.407C320.751 150.454 323.146 148.061 326.1 148.061C329.053 148.061 331.448 150.454 331.448 153.407C331.448 156.36 329.053 158.753 326.1 158.753C323.146 158.753 320.751 156.36 320.751 153.407ZM344.394 254.124C344.394 257.541 342.564 259.784 339.595 260.75L344.325 267.86C345.464 269.584 343.773 271.414 342.219 271.414C341.356 271.414 340.631 271.035 340.182 270.344L334.381 261.268H332.033V269.171C332.033 270.379 330.894 271.448 329.582 271.448C328.303 271.448 327.199 270.413 327.199 269.171V249.292C327.199 247.947 328.407 246.808 329.823 246.808H335.831C342.322 246.809 344.394 250.501 344.394 254.124ZM406.958 143.848C406.524 143.848 406.093 143.832 405.665 143.807L405.642 143.86C392.391 147.628 378.193 143.315 369.347 133.078C369.032 119.026 365.763 105.706 360.139 93.7047C363.805 89.9815 369.13 88.0175 374.663 88.8868C376.201 89.1289 377.655 89.578 379.006 90.1949C379.006 90.1792 379.004 90.1634 379.003 90.1467C381.525 91.7053 384.497 92.6081 387.68 92.6081C390.978 92.6081 394.048 91.6385 396.628 89.9751C406.541 86.9477 417.237 92.0468 420.983 101.843C421.456 103.081 421.785 104.336 421.997 105.594C426.335 109.626 429.052 115.376 429.052 121.764C429.052 133.961 419.161 143.848 406.958 143.848ZM462.952 182.536C461.46 182.536 460.25 181.327 460.25 179.836C460.25 178.346 461.46 177.137 462.952 177.137C464.442 177.137 465.652 178.346 465.652 179.836C465.652 181.327 464.442 182.536 462.952 182.536Z" fill="#00A4FF"/>
<path d="M533.35 149.104C534.841 149.104 536.05 147.895 536.05 146.404C536.05 144.914 534.841 143.705 533.35 143.705C531.858 143.705 530.648 144.914 530.648 146.404C530.648 147.895 531.857 149.104 533.35 149.104Z" fill="#00A4FF"/>
</svg>
