<svg width="30" height="29" viewBox="0 0 30 29" fill="none" xmlns="http://www.w3.org/2000/svg">
<g clip-path="url(#clip0)">
<path d="M15.2911 11.5969C16.9099 11.5917 18.1992 10.2919 18.1933 8.66946C18.1868 7.047 16.8954 5.75465 15.276 5.75342C13.6431 5.75188 12.339 7.06737 12.3517 8.70463C12.3637 10.3209 13.6675 11.6037 15.2911 11.5969Z" fill="#FF9736"/>
<path d="M28.2309 0H2.31599C1.46419 0 0.773438 0.690447 0.773438 1.54255V27.4574C0.773438 28.3096 1.46419 29 2.31599 29H28.2309C29.083 29 29.7734 28.3096 29.7734 27.4574V1.54255C29.7734 0.690447 29.083 0 28.2309 0ZM15.2981 2.7044C18.5989 2.71273 21.249 5.41344 21.2326 8.75183C21.215 12.0128 18.5217 14.6561 15.2262 14.645C11.9634 14.6339 9.28802 11.9292 9.30653 8.66113C9.32597 5.35729 12.0032 2.69453 15.2981 2.7044ZM21.9845 16.9903C21.2545 17.7403 20.3759 18.282 19.3998 18.6612C18.477 19.0178 17.466 19.1986 16.4652 19.3183C16.6164 19.4831 16.6876 19.563 16.7814 19.6583C18.1401 21.0235 19.5044 22.3831 20.8584 23.7522C21.3193 24.2184 21.4168 24.7969 21.1623 25.3395C20.8843 25.9334 20.2627 26.3231 19.6524 26.2811C19.2662 26.2539 18.9651 26.0617 18.6979 25.793C17.6724 24.7611 16.6275 23.7485 15.6236 22.6984C15.3314 22.3923 15.1908 22.4494 14.9322 22.7156C13.9009 23.7775 12.8535 24.8231 11.7993 25.8624C11.3257 26.3295 10.7627 26.4131 10.2126 26.1469C9.62893 25.864 9.2581 25.2683 9.28679 24.6688C9.30653 24.2641 9.50583 23.9549 9.7838 23.6773C11.1277 22.3349 12.4685 20.9892 13.8099 19.6444C13.899 19.5556 13.9817 19.4602 14.111 19.322C12.2818 19.1311 10.6325 18.6812 9.22108 17.5768C9.04615 17.4395 8.86505 17.3068 8.70463 17.1532C8.08699 16.5596 8.02498 15.8806 8.51397 15.18C8.93169 14.5808 9.63448 14.4198 10.3641 14.7638C10.5057 14.8301 10.6402 14.9137 10.7692 15.0029C13.4002 16.8107 17.015 16.861 19.6561 15.0849C19.9174 14.8853 20.1973 14.72 20.5218 14.6379C21.1527 14.4759 21.7395 14.707 22.0783 15.2586C22.4661 15.8871 22.4608 16.5016 21.9845 16.9903Z" fill="#FF9736"/>
</g>
<defs>
<clipPath id="clip0">
<rect width="29" height="29" fill="white" transform="translate(0.773438)"/>
</clipPath>
</defs>
</svg>
