<svg width="17" height="17" viewBox="0 0 17 17" fill="none" xmlns="http://www.w3.org/2000/svg">
<path d="M7.03851 9.9607C5.41589 8.33808 5.04951 6.71546 4.96685 6.06536C4.94376 5.8856 5.00561 5.70533 5.13421 5.57763L6.44732 4.26511C6.64048 4.07207 6.67476 3.77123 6.52997 3.53968L4.43927 0.293271C4.27909 0.0368779 3.9502 -0.0556567 3.67984 0.0795981L0.323508 1.6603C0.10487 1.76796 -0.0237302 2.00026 0.00109368 2.2427C0.176956 3.91339 0.905318 8.02036 4.94135 12.0567C8.97739 16.093 13.0838 16.8211 14.7553 16.9969C14.9978 17.0218 15.2301 16.8932 15.3377 16.6745L16.9184 13.3182C17.0532 13.0484 16.9613 12.7204 16.7059 12.5599L13.4595 10.4698C13.2281 10.3249 12.9273 10.3589 12.7341 10.5519L11.4216 11.865C11.2939 11.9936 11.1136 12.0555 10.9339 12.0324C10.2837 11.9497 8.66113 11.5833 7.03851 9.9607Z" fill="#216AB1"/>
<path d="M13.4811 9.08633C13.1573 9.08633 12.8949 8.82388 12.8949 8.50012C12.8921 6.07311 10.9253 4.10631 8.49832 4.10357C8.17456 4.10357 7.91211 3.84111 7.91211 3.51736C7.91211 3.19361 8.17456 2.93115 8.49832 2.93115C11.5726 2.93454 14.0639 5.42587 14.0673 8.50012C14.0673 8.82388 13.8048 9.08633 13.4811 9.08633Z" fill="#216AB1"/>
<path d="M16.4121 9.08621C16.0884 9.08621 15.8259 8.82375 15.8259 8.5C15.8214 4.45496 12.5434 1.17694 8.49832 1.17241C8.17456 1.17241 7.91211 0.90996 7.91211 0.586207C7.91211 0.262454 8.17456 0 8.49832 0C13.1906 0.00516913 16.9931 3.80772 16.9983 8.5C16.9983 8.65547 16.9366 8.80458 16.8266 8.91451C16.7167 9.02445 16.5676 9.08621 16.4121 9.08621Z" fill="#216AB1"/>
</svg>
