<svg width="17" height="17" viewBox="0 0 17 17" fill="none" xmlns="http://www.w3.org/2000/svg">
<path d="M7.04046 9.96058C5.41784 8.33796 5.05146 6.71534 4.96881 6.06523C4.94571 5.88548 5.00757 5.70521 5.13617 5.57751L6.44927 4.26499C6.64243 4.07195 6.67671 3.77111 6.53193 3.53956L4.44122 0.293148C4.28104 0.0367558 3.95216 -0.0557788 3.68179 0.079476L0.325461 1.66018C0.106823 1.76784 -0.0217771 2.00014 0.00304681 2.24258C0.178909 3.91327 0.907271 8.02023 4.94331 12.0566C8.97934 16.0929 13.0857 16.821 14.7573 16.9968C14.9997 17.0216 15.232 16.893 15.3397 16.6744L16.9204 13.3181C17.0551 13.0483 16.9632 12.7203 16.7079 12.5598L13.4615 10.4697C13.2301 10.3248 12.9292 10.3588 12.736 10.5518L11.4235 11.8649C11.2958 11.9935 11.1156 12.0553 10.9358 12.0322C10.2857 11.9496 8.66308 11.5832 7.04046 9.96058Z" fill="#9A9A9A"/>
<path d="M13.483 9.08621C13.1593 9.08621 12.8968 8.82376 12.8968 8.5C12.8941 6.07299 10.9273 4.10619 8.50027 4.10345C8.17652 4.10345 7.91406 3.84099 7.91406 3.51724C7.91406 3.19348 8.17652 2.93103 8.50027 2.93103C11.5745 2.93442 14.0658 5.42575 14.0692 8.5C14.0692 8.82376 13.8068 9.08621 13.483 9.08621Z" fill="#9A9A9A"/>
<path d="M16.4141 9.08621C16.0903 9.08621 15.8279 8.82375 15.8279 8.5C15.8233 4.45496 12.5453 1.17694 8.50027 1.17241C8.17652 1.17241 7.91406 0.90996 7.91406 0.586207C7.91406 0.262454 8.17652 0 8.50027 0C13.1925 0.00516913 16.9951 3.80772 17.0003 8.5C17.0003 8.65547 16.9385 8.80458 16.8286 8.91451C16.7186 9.02445 16.5695 9.08621 16.4141 9.08621Z" fill="#9A9A9A"/>
</svg>
