<svg width="13" height="13" viewBox="0 0 13 13" fill="none" xmlns="http://www.w3.org/2000/svg">
<g clip-path="url(#clip0)">
<path d="M5.38388 7.61699C4.14305 6.37617 3.86288 5.13534 3.79967 4.6382C3.78201 4.50074 3.82932 4.36289 3.92766 4.26523L4.9318 3.26154C5.07951 3.11393 5.10572 2.88387 4.995 2.7068L3.39623 0.224251C3.27374 0.0281864 3.02224 -0.0425754 2.81549 0.0608548L0.248882 1.26963C0.081688 1.35196 -0.0166531 1.5296 0.00232991 1.71499C0.136813 2.99258 0.693795 6.1332 3.78017 9.2198C6.86655 12.3064 10.0067 12.8632 11.285 12.9976C11.4704 13.0166 11.648 12.9183 11.7303 12.7511L12.9391 10.1845C13.0422 9.97819 12.9719 9.72736 12.7766 9.60465L10.2941 8.00632C10.1171 7.89549 9.88706 7.92151 9.73933 8.06908L8.73564 9.07322C8.63799 9.17156 8.50013 9.21886 8.36267 9.2012C7.86554 9.13799 6.62471 8.85782 5.38388 7.61699Z" fill="#232323"/>
<path d="M10.3094 6.94836C10.0618 6.94836 9.86113 6.74766 9.86113 6.50008C9.85903 4.64413 8.35501 3.14011 6.49906 3.13801C6.25148 3.13801 6.05078 2.93731 6.05078 2.68973C6.05078 2.44216 6.25148 2.24146 6.49906 2.24146C8.84995 2.24405 10.7551 4.14918 10.7577 6.50008C10.7577 6.74766 10.557 6.94836 10.3094 6.94836Z" fill="#232323"/>
<path d="M12.5508 6.94828C12.3032 6.94828 12.1025 6.74758 12.1025 6.5C12.099 3.40673 9.59232 0.90001 6.49906 0.896552C6.25148 0.896552 6.05078 0.695852 6.05078 0.448276C6.05078 0.2007 6.25148 0 6.49906 0C10.0873 0.00395287 12.9951 2.91179 12.9991 6.5C12.9991 6.61889 12.9518 6.73291 12.8678 6.81698C12.7837 6.90105 12.6697 6.94828 12.5508 6.94828Z" fill="#232323"/>
</g>
<defs>
<clipPath id="clip0">
<rect width="13" height="13" fill="white"/>
</clipPath>
</defs>
</svg>
