<svg width="14" height="19" viewBox="0 0 14 19" fill="none" xmlns="http://www.w3.org/2000/svg">
<path d="M6.51741 0C2.92373 0 0 2.92374 0 6.51741C0 11.0343 6.52382 18.75 6.52382 18.75C6.52382 18.75 13.0348 10.8121 13.0348 6.51741C13.0348 2.92374 10.1112 0 6.51741 0ZM8.48384 8.42571C7.94162 8.96782 7.22957 9.23893 6.51741 9.23893C5.80536 9.23893 5.09308 8.96782 4.55108 8.42571C3.46676 7.3415 3.46676 5.57728 4.55108 4.49295C5.07614 3.96767 5.77457 3.67836 6.51741 3.67836C7.26024 3.67836 7.95856 3.96778 8.48384 4.49295C9.56817 5.57728 9.56817 7.3415 8.48384 8.42571Z" fill="#216AB1"/>
</svg>
