<svg width="20" height="20" viewBox="0 0 20 20" fill="none" xmlns="http://www.w3.org/2000/svg">
<path d="M9.82991 0.615234C6.23623 0.615234 3.3125 3.53897 3.3125 7.13264C3.3125 11.6495 9.83632 19.3652 9.83632 19.3652C9.83632 19.3652 16.3473 11.4274 16.3473 7.13264C16.3473 3.53897 13.4237 0.615234 9.82991 0.615234ZM11.7963 9.04095C11.2541 9.58305 10.5421 9.85416 9.82991 9.85416C9.11786 9.85416 8.40558 9.58305 7.86358 9.04095C6.77926 7.95673 6.77926 6.19251 7.86358 5.10818C8.38864 4.5829 9.08707 4.29359 9.82991 4.29359C10.5727 4.29359 11.2711 4.58301 11.7963 5.10818C12.8807 6.19251 12.8807 7.95673 11.7963 9.04095Z" fill="#9A9A9A"/>
</svg>
