<svg width="613" height="353" viewBox="0 0 613 353" fill="none" xmlns="http://www.w3.org/2000/svg">
<path d="M588.986 279.251C553.88 279.251 15.5266 279.292 15.5266 279.251C-4.19428 259.257 -10.0025 211.527 32.7071 165.431C48.3504 148.55 6.84689 116.174 33.79 64.2335C44.0287 44.4958 84.923 10.5699 192.845 36.8965C238.733 48.0899 277.672 30.2158 286.294 23.7622C291.15 20.1293 296.47 16.9557 302.164 14.2124C361.559 -14.5265 464.178 3.77549 508.971 38.3202C515.318 43.2171 544.181 68.5528 521.431 103.371C507.067 125.359 567.247 146.356 588.628 171.459C643.002 235.292 589.479 278.419 588.986 279.251Z" fill="#E2F5FF"/>
<path d="M562.105 269.005C528.632 269.005 15.3202 268.993 15.3202 269.005C-3.48337 275.019 -9.02141 289.376 31.7015 303.241C46.6171 308.318 7.04421 318.057 32.734 333.68C42.4964 339.616 81.4886 349.821 184.391 341.902C228.144 338.535 265.272 343.912 273.492 345.853C278.123 346.945 283.195 347.9 288.625 348.725C345.257 357.369 443.102 351.864 485.812 341.474C491.864 340.001 519.383 332.38 497.692 321.908C483.996 315.294 541.377 308.978 561.763 301.428C613.609 282.228 562.575 269.256 562.105 269.005Z" fill="#E2F5FF"/>
<path d="M418.418 132.012L420.09 132.431L422.315 123.567L420.644 123.148L418.418 132.012Z" fill="#8ACDF0"/>
<path d="M420.902 120.256C420.902 120.264 420.902 120.256 420.902 120.264C420.82 120.948 421.016 121.685 421.664 121.927C422.527 122.251 423.112 121.687 423.331 120.82C423.331 120.815 423.387 120.597 423.387 120.595C423.46 120.29 424.165 120.539 424.267 120.834C424.451 121.366 424.455 121.965 424.233 122.545C423.825 123.607 422.718 124.262 421.589 124.107C420.095 123.901 419.148 122.458 419.505 121.037C419.604 120.641 419.795 120.288 420.049 120C420.291 119.722 420.953 119.889 420.902 120.256Z" fill="#8ACDF0"/>
<path d="M420.053 135.474C420.053 135.467 420.053 135.474 420.053 135.467C420.136 134.783 419.94 134.046 419.292 133.804C418.427 133.48 417.842 134.043 417.624 134.911C417.622 134.916 417.569 135.133 417.566 135.138C417.494 135.443 416.788 135.194 416.686 134.897C416.503 134.365 416.498 133.765 416.72 133.185C417.129 132.124 418.236 131.469 419.365 131.624C420.858 131.829 421.806 133.272 421.448 134.694C421.349 135.09 421.158 135.443 420.904 135.73C420.663 136.011 420.003 135.844 420.053 135.474Z" fill="#8ACDF0"/>
<path d="M416.263 95.4838C416.263 95.4838 415.047 93.9611 414.259 92.6269C413.469 91.2926 408.63 88.484 408.284 90.8479C407.967 93.0184 409.534 92.3731 410.104 94.0868C410.675 95.8005 411.373 96.5377 414.929 98.1064L416.263 95.4838Z" fill="#FFB27D"/>
<path d="M415.101 96.3348C416.162 94.7492 416.479 94.667 416.479 94.667C416.479 94.667 434.032 101.386 435.709 101.947C437.384 102.508 462.43 103.922 462.43 103.922L469.988 119.862C469.988 119.862 436.613 112.558 432.398 111.057C425.432 108.577 414.258 98.8606 414.258 98.8606C414.258 98.8606 414.267 97.5796 415.101 96.3348Z" fill="#E58638"/>
<path d="M458.71 245.378C458.71 245.378 458.328 251.29 457.183 252.68H439.574C439.685 252.09 440.183 250.635 442.385 250.266C445.167 249.801 449.825 247.926 451.507 244.397C453.284 240.687 458.71 245.378 458.71 245.378Z" fill="#163560"/>
<path d="M490.01 242.947C490.01 242.947 491.12 251.914 489.612 252.047C489.411 252.064 482.358 252.052 480.441 252.327C477.311 252.777 472.088 252.385 472.088 252.385C471.433 252.412 471.005 251.733 471.339 251.191C471.704 250.599 472.402 249.963 473.732 249.719C476.504 249.207 481.125 247.254 482.745 243.696C484.446 239.954 490.01 242.947 490.01 242.947Z" fill="#163560"/>
<path d="M450.434 166.693C450.434 166.693 454.859 181.555 467.549 207.37C471.704 215.825 474.483 222.667 476.342 228.05C476.584 228.744 476.809 229.413 477.017 230.056C477.355 231.093 477.657 232.067 477.925 232.978C478.128 233.677 478.314 234.339 478.484 234.963C480.147 241.175 480.113 244 480.113 244C480.113 244 482.994 245.042 486.436 244.713C488.188 244.544 492.036 242.966 492.036 242.966C492.036 242.966 491.62 238.804 490.784 232.92C490.69 232.273 490.591 231.608 490.489 230.922C490.354 230.003 490.206 229.053 490.052 228.079C489.945 227.424 489.837 226.759 489.723 226.09C488.249 217.323 486.061 207.147 483.144 200.8C477.149 187.775 475.926 152.125 475.926 152.125L450.434 166.693Z" fill="#233862"/>
<path d="M443.352 159.111C443.492 167.464 444.154 184.985 447.122 205.182C448.556 214.942 449.329 222.764 449.723 228.821C449.769 229.534 449.81 230.221 449.844 230.883C449.904 231.949 449.95 232.954 449.987 233.895C450.013 234.608 450.035 235.284 450.049 235.927C450.216 242.446 449.866 245.441 449.866 245.441C449.866 245.441 450.117 245.588 450.642 245.777H450.646C451.541 246.098 453.218 246.533 455.744 246.533C456.88 246.533 457.857 246.388 458.64 246.205C460.005 245.886 460.786 245.448 460.786 245.448C460.786 245.448 461.453 241.685 462.212 236.222C462.306 235.567 462.398 234.89 462.49 234.19C462.616 233.264 462.734 232.302 462.86 231.308C462.94 230.644 463.022 229.969 463.102 229.283C464.105 220.608 464.881 210.302 464.044 203.341C463.911 202.231 463.849 200.996 463.844 199.659V199.654C463.836 193.387 465.171 184.947 466.773 177.079C466.773 177.079 466.778 177.057 466.788 177.014C468.439 168.917 470.37 161.438 471.414 157.566C471.885 155.811 472.175 154.799 472.175 154.799L471.298 154.77H471.293L464.356 154.557L445.43 153.967L444.265 153.931L443.323 153.902C443.325 153.902 443.294 155.775 443.352 159.111Z" fill="#2A4E96"/>
<path d="M462.937 100.038L458.248 103.371L451.473 102.003C451.567 101.411 452.014 98.9525 452.42 96.7264C452.444 96.5959 452.468 96.4629 452.493 96.3348C452.841 94.4422 453.143 92.8131 453.143 92.8131L459.471 89.787L461.83 88.6582C461.823 88.6969 461.646 90.7611 461.622 91.0608C461.182 96.4073 462.937 100.038 462.937 100.038Z" fill="#FFB27D"/>
<path d="M451.95 98.3552C452.1 98.2948 461.168 95.7279 462.152 96.0397C463.138 96.3515 463.721 98.1812 463.721 98.1812L449.719 102.007C449.721 102.01 450.055 99.1214 451.95 98.3552Z" fill="#E58638"/>
<path d="M476.369 156.744C474.834 163.473 442.786 142.36 443.211 138.254C443.257 137.802 443.305 137.347 443.351 136.898C443.944 131.181 444.509 125.586 444.55 121.936C444.582 118.77 445.036 115.531 445.643 112.589C446.199 109.873 446.883 107.41 447.48 105.488C447.898 104.137 448.681 102.945 449.72 102.01C450.458 101.345 451.323 100.811 452.278 100.448C452.536 100.342 452.802 100.258 453.073 100.183C456.933 99.107 462.272 97.7776 463.723 98.1837C467.645 99.2931 470.558 105.916 472.622 114.361C476.48 130.164 477.372 152.36 476.369 156.744Z" fill="#F99746"/>
<path d="M461.154 91.1549C459.764 93.7074 454.587 95.9141 452.426 96.7239C452.45 96.5933 452.474 96.4604 452.498 96.3323C452.846 94.4397 453.148 92.8106 453.148 92.8106L459.476 89.7845C460.873 89.7651 461.727 90.1059 461.154 91.1549Z" fill="#FCA56B"/>
<path d="M450.071 92.4576C450.071 92.4576 461.49 95.8753 463.597 89.0205C465.705 82.1657 468.601 77.989 461.398 75.5164C454.197 73.0437 451.969 75.2578 450.685 77.3824C449.404 79.507 447.156 91.3917 450.071 92.4576Z" fill="#FFB27D"/>
<path d="M451.136 76.7226C451.136 76.7226 451.863 84.6989 453.584 84.3533C455.303 84.0076 456.862 83.7514 456.61 86.1564C456.359 88.5614 453.973 91.3386 459.274 91.764C464.572 92.1894 472.191 79.0768 470.733 76.5945C466.535 69.4279 445.066 67.9825 451.136 76.7226Z" fill="#163560"/>
<path d="M444.179 153.902C447.353 155.002 444.124 150.876 444.179 150.015C444.426 146.232 442.879 141.449 443.352 136.898L462.737 125.779C462.737 125.779 467.337 153.725 444.179 153.902Z" fill="#E58638"/>
<path d="M476.365 156.744C468.089 171.459 466.772 177.079 466.772 177.079C459.569 176.291 447.228 162.705 443.314 159.079C443.314 159.079 442.783 142.36 443.208 138.254L449.19 138.089C449.19 138.089 460.004 140.719 462.808 137.149C465.612 133.582 464.398 116.063 464.398 116.063L472.616 114.356C476.476 130.164 478.587 152.792 476.365 156.744Z" fill="#2A4E96"/>
<path d="M427.268 128.542C427.268 128.542 423.328 125.985 422.582 125.763C421.835 125.54 419.384 125.298 419.27 125.485C419.157 125.668 418.821 126.236 419.248 126.43C419.676 126.621 420.21 126.553 420.048 126.688C419.889 126.821 418.279 126.086 417.907 126.874C417.535 127.662 417.208 130.362 419.099 131.179C420.989 131.999 425.651 131.259 425.987 131.353C428.842 132.148 427.268 128.542 427.268 128.542Z" fill="#FFB27D"/>
<path d="M427.231 127.851C427.231 127.851 446.456 130.988 448.16 130.191C450.88 128.919 447.104 110.204 447.104 110.204C447.104 110.204 446.942 105.962 452.105 104.961C456.593 104.091 460.922 107.318 460.922 107.318C460.922 107.318 464.86 110.699 464.357 114.448C463.243 122.76 461.507 139.665 455.714 142.256C448.24 145.599 426.617 132.989 426.617 132.989C426.617 132.989 425.897 132.143 425.998 130.572C426.09 129.185 427.231 127.851 427.231 127.851Z" fill="#F99746"/>
<path d="M465.997 115.732L464.404 116.063C464.404 116.063 461.037 102.078 449.723 102.01C450.46 101.345 451.325 100.811 452.28 100.448C456.425 101.512 463.623 104.913 465.997 115.732Z" fill="#2A4E96"/>
<g opacity="0.5">
<g opacity="0.5">
<path opacity="0.5" d="M476.344 228.05C476.585 228.744 476.81 229.413 477.018 230.056C481.267 230.061 485.301 229.297 488.284 228.553C488.925 228.393 489.522 228.231 490.053 228.079C489.947 227.424 489.838 226.759 489.725 226.09C486.706 226.962 481.632 228.166 476.344 228.05Z" fill="white"/>
</g>
</g>
<g opacity="0.5">
<g opacity="0.5">
<path opacity="0.5" d="M477.926 232.979C478.129 233.677 478.315 234.339 478.484 234.963C482.349 234.859 485.979 234.16 488.72 233.476C489.482 233.286 490.173 233.092 490.782 232.921C490.688 232.273 490.589 231.608 490.487 230.922C487.722 231.731 482.987 232.918 477.926 232.979Z" fill="white"/>
</g>
</g>
<path d="M415.785 94.8626C415.785 94.8626 415.565 93.3447 415.099 92.2449C414.632 91.1452 414.04 89.7481 413.914 90.466C413.786 91.1863 414.253 92.4117 413.914 93.0063C413.576 93.6009 415.785 94.8626 415.785 94.8626Z" fill="#FFB27D"/>
<path d="M449.727 228.821C449.772 229.534 449.814 230.221 449.847 230.883C453.768 231.589 457.592 231.613 460.495 231.473C461.377 231.429 462.172 231.371 462.863 231.311C462.943 230.646 463.025 229.972 463.105 229.285C460.224 229.556 455.001 229.856 449.727 228.821Z" fill="white"/>
<path d="M449.988 233.895C450.015 234.608 450.037 235.285 450.051 235.928C453.674 236.496 457.174 236.513 459.874 236.38C460.744 236.336 461.53 236.283 462.211 236.225C462.306 235.57 462.398 234.893 462.489 234.192C459.773 234.443 454.963 234.729 449.988 233.895Z" fill="white"/>
<path d="M118.227 129.31V129.668C118.227 136.525 112.417 142.104 105.277 142.104H66.4634C62.1514 142.104 58.6442 145.471 58.6442 149.611V150.798C58.6442 154.939 62.1514 158.306 66.4634 158.306H109.311C110.181 158.306 110.892 159.011 110.892 159.884C110.892 160.81 110.517 161.646 109.908 162.253C109.304 162.859 108.465 163.234 107.542 163.234H66.4634C59.321 163.234 53.5104 157.655 53.5104 150.798V149.611C53.5104 142.757 59.321 137.178 66.4634 137.178H105.277C109.586 137.178 113.096 133.806 113.096 129.668V129.31C113.096 125.17 109.586 121.801 105.277 121.801H65.7407C58.6007 121.801 52.7901 116.222 52.7901 109.365V107.7C52.7901 100.842 58.6007 95.2637 65.7407 95.2637H105.277C109.586 95.2637 113.096 91.8968 113.096 87.7563C113.096 83.6159 109.586 80.2465 105.277 80.2465H27.3359C27.8 78.6271 28.3294 76.9859 28.9264 75.3206H105.279C112.419 75.3206 118.23 80.8991 118.23 87.7563C118.23 94.6111 112.419 100.192 105.279 100.192H65.7407C61.4311 100.192 57.9215 103.559 57.9215 107.7V109.365C57.9215 113.508 61.4311 116.875 65.7407 116.875H105.277C112.417 116.875 118.227 122.453 118.227 129.31Z" fill="#A0DEFF"/>
<path d="M341.428 76.7927H275.074V78.2841H341.428V76.7927Z" fill="#AFE2FF"/>
<path d="M274.309 77.3201C274.309 76.4499 275.012 75.7466 275.882 75.7466C276.752 75.7466 277.456 76.4499 277.456 77.3201C277.456 78.1902 276.75 78.8936 275.882 78.8936C275.014 78.8936 274.309 78.1902 274.309 77.3201Z" fill="#AFE2FF"/>
<path d="M339.398 77.3196C339.398 76.4495 340.104 75.7461 340.972 75.7461C341.842 75.7461 342.546 76.4495 342.546 77.3196C342.546 78.1898 341.842 78.8931 340.972 78.8931C340.104 78.8931 339.398 78.1898 339.398 77.3196Z" fill="#AFE2FF"/>
<path d="M334.982 76.8338V128.138C329.889 129.009 316.593 128.262 309.016 129.132C301.436 130.002 284.238 128.835 284.238 128.835V77.0707C284.238 76.2199 284.925 75.5334 285.776 75.531C293.326 75.5189 326.433 75.4682 333.607 75.4585C334.368 75.4585 334.982 76.0724 334.982 76.8338Z" fill="#F7CC7F"/>
<path d="M334.982 108.156V128.136C329.889 129.006 316.593 128.259 309.016 129.129C301.436 130 284.238 128.832 284.238 128.832V109.604C284.357 108.918 284.424 108.519 284.424 108.519C284.424 108.519 295.473 109.375 305.289 108.754C315.053 108.137 326.788 109.732 334.982 108.156Z" fill="#EAB054"/>
<path d="M293.545 119.899C289.392 119.899 284.539 119.698 284.266 119.688L284.316 118.448C284.406 118.451 293.279 118.816 297.298 118.574L298.246 118.516C303.116 118.214 313.249 117.586 317.483 118.291C321.834 119.016 335.261 118.127 335.396 118.117L335.478 119.357C334.92 119.396 321.769 120.264 317.278 119.517C313.183 118.835 302.768 119.48 298.323 119.756L297.373 119.814C296.327 119.874 294.978 119.899 293.545 119.899Z" fill="white"/>
<path d="M293.545 122.632C289.392 122.632 284.539 122.432 284.266 122.422L284.316 121.18C284.406 121.182 293.279 121.547 297.298 121.305L298.246 121.247C303.116 120.945 313.249 120.317 317.483 121.022C321.834 121.748 335.261 120.858 335.396 120.851L335.478 122.091C334.92 122.127 321.771 122.997 317.278 122.25C313.183 121.566 302.768 122.214 298.323 122.49L297.373 122.548C296.327 122.608 294.978 122.632 293.545 122.632Z" fill="white"/>
<path d="M436.742 73.9041C436.742 73.9041 420.896 86.6855 419.291 85.8806C417.686 85.0806 417.391 83.0575 417.391 83.0575C414.075 83.698 411.327 87.9738 410.092 90.2144C409.642 91.0338 409.396 91.5825 409.396 91.5825C407.916 91.9378 407.07 90.8332 407.07 90.8332C408.803 84.2781 415.91 76.384 423.199 73.6986C430.484 71.0157 435.959 73.266 436.742 73.9041Z" fill="#AFE2FF"/>
<path d="M438.277 75.4438C439.613 78.2839 436.23 82.6902 430.719 85.2837C425.208 87.8772 419.656 87.6766 418.319 84.8365C416.982 81.9965 420.366 77.5902 425.877 74.9967C431.388 72.4031 436.94 72.6013 438.277 75.4438Z" fill="#13A3EF"/>
<path d="M429.366 80.1573C429.441 80.3144 429.221 80.573 428.875 80.735C428.532 80.8969 428.191 80.9017 428.116 80.7446C428.041 80.5875 428.261 80.3289 428.607 80.1646C428.952 80.0026 429.293 80.0002 429.366 80.1573Z" fill="#AFE2FF"/>
<path d="M425.143 82.1442C425.218 82.3013 424.998 82.5599 424.653 82.7218C424.309 82.8838 423.968 82.8886 423.894 82.7315C423.819 82.5744 424.039 82.3158 424.384 82.1538C424.728 81.9919 425.068 81.9871 425.143 82.1442Z" fill="#AFE2FF"/>
<path d="M431.479 79.1638C431.554 79.321 431.334 79.5796 430.988 79.7415C430.643 79.9035 430.304 79.9083 430.229 79.7512C430.155 79.5941 430.375 79.3355 430.72 79.1711C431.066 79.0092 431.404 79.0043 431.479 79.1638Z" fill="#AFE2FF"/>
<path d="M433.593 78.1679C433.667 78.325 433.448 78.5836 433.102 78.748C432.759 78.9099 432.418 78.9147 432.343 78.7552C432.268 78.5981 432.488 78.3395 432.834 78.1751C433.179 78.0156 433.518 78.0108 433.593 78.1679Z" fill="#AFE2FF"/>
<path d="M436.324 76.8821C436.399 77.0392 436.179 77.2978 435.836 77.4622C435.493 77.6241 435.152 77.629 435.077 77.4694C435.002 77.3123 435.222 77.0537 435.568 76.8917C435.911 76.7274 436.249 76.7225 436.324 76.8821Z" fill="#AFE2FF"/>
<path d="M427.253 81.1507C427.327 81.3078 427.108 81.5664 426.762 81.7284C426.419 81.8903 426.078 81.8951 426.003 81.738C425.928 81.5809 426.148 81.3223 426.494 81.1603C426.839 80.996 427.18 80.9936 427.253 81.1507Z" fill="#AFE2FF"/>
<path d="M422.547 83.367C422.622 83.5241 422.402 83.7828 422.059 83.9447C421.713 84.1066 421.375 84.1115 421.3 83.952C421.225 83.7948 421.445 83.5362 421.79 83.3743C422.134 83.2123 422.472 83.2099 422.547 83.367Z" fill="#AFE2FF"/>
<path d="M428.768 78.8859C428.843 79.043 428.623 79.3017 428.278 79.4636C427.932 79.6255 427.593 79.6304 427.519 79.4733C427.444 79.3162 427.664 79.0575 428.009 78.8932C428.355 78.7336 428.693 78.7288 428.768 78.8859Z" fill="#AFE2FF"/>
<path d="M424.543 80.8751C424.618 81.0322 424.398 81.2908 424.055 81.4528C423.712 81.6147 423.371 81.6195 423.296 81.46C423.221 81.3029 423.441 81.0443 423.787 80.8823C424.13 80.7204 424.468 80.718 424.543 80.8751Z" fill="#AFE2FF"/>
<path d="M422.346 81.6871C422.421 81.8443 422.201 82.1029 421.856 82.2648C421.51 82.4268 421.172 82.4316 421.097 82.2745C421.022 82.1174 421.242 81.8588 421.587 81.6968C421.933 81.5349 422.274 81.53 422.346 81.6871Z" fill="#AFE2FF"/>
<path d="M434.643 75.9007C434.718 76.0578 434.498 76.3164 434.153 76.4808C433.809 76.6427 433.468 76.6476 433.394 76.488C433.319 76.3309 433.539 76.0723 433.884 75.9103C434.23 75.746 434.571 75.7436 434.643 75.9007Z" fill="#AFE2FF"/>
<path d="M423.762 79.6956C423.837 79.8527 423.617 80.1113 423.274 80.2733C422.928 80.4352 422.59 80.44 422.515 80.2805C422.44 80.1234 422.66 79.8648 423.003 79.7028C423.349 79.5409 423.687 79.5361 423.762 79.6956Z" fill="#AFE2FF"/>
<path d="M430.882 77.8924C430.956 78.0495 430.736 78.3081 430.391 78.4701C430.048 78.632 429.707 78.6369 429.632 78.4798C429.557 78.3226 429.777 78.064 430.123 77.8997C430.468 77.7377 430.807 77.7353 430.882 77.8924Z" fill="#AFE2FF"/>
<path d="M432.995 76.8989C433.07 77.0561 432.85 77.3147 432.504 77.4766C432.158 77.6386 431.82 77.6434 431.745 77.4839C431.67 77.3268 431.89 77.0681 432.236 76.9062C432.581 76.7443 432.92 76.7394 432.995 76.8989Z" fill="#AFE2FF"/>
<path d="M426.656 79.8793C426.731 80.0364 426.511 80.295 426.166 80.457C425.823 80.6189 425.482 80.6238 425.409 80.4667C425.334 80.3096 425.554 80.0485 425.897 79.8866C426.243 79.727 426.581 79.7222 426.656 79.8793Z" fill="#AFE2FF"/>
<path d="M429.901 81.2883C429.976 81.4454 429.756 81.704 429.41 81.8683C429.067 82.0303 428.726 82.0351 428.651 81.8756C428.576 81.7185 428.796 81.4599 429.142 81.2955C429.488 81.136 429.826 81.1311 429.901 81.2883Z" fill="#AFE2FF"/>
<path d="M425.674 83.2777C425.749 83.4348 425.529 83.6934 425.184 83.8553C424.838 84.0173 424.5 84.0221 424.425 83.865C424.35 83.7079 424.57 83.4493 424.915 83.2849C425.261 83.123 425.6 83.1206 425.674 83.2777Z" fill="#AFE2FF"/>
<path d="M424.203 84.6675C424.278 84.8246 424.058 85.0832 423.713 85.2476C423.369 85.4096 423.029 85.4144 422.956 85.2549C422.881 85.0978 423.101 84.8391 423.444 84.6772C423.79 84.5128 424.128 84.5104 424.203 84.6675Z" fill="#AFE2FF"/>
<path d="M432.012 80.295C432.087 80.4521 431.867 80.7107 431.524 80.875C431.178 81.037 430.84 81.0418 430.765 80.8823C430.69 80.7252 430.91 80.4666 431.253 80.3046C431.599 80.1403 431.937 80.1379 432.012 80.295Z" fill="#AFE2FF"/>
<path d="M434.121 79.3016C434.196 79.4587 433.976 79.7173 433.633 79.8793C433.287 80.0412 432.949 80.0461 432.874 79.8865C432.799 79.7294 433.019 79.4708 433.362 79.3088C433.708 79.1469 434.049 79.1445 434.121 79.3016Z" fill="#AFE2FF"/>
<path d="M435.856 78.4845C435.931 78.6416 435.711 78.9002 435.365 79.0646C435.022 79.2266 434.681 79.2314 434.608 79.0719C434.533 78.9148 434.753 78.6561 435.097 78.4942C435.44 78.3322 435.783 78.3274 435.856 78.4845Z" fill="#AFE2FF"/>
<path d="M434.721 80.5704C434.796 80.7276 434.576 80.9862 434.231 81.1505C433.887 81.3125 433.547 81.3173 433.472 81.1578C433.397 81.0007 433.617 80.7421 433.962 80.5801C434.308 80.4182 434.646 80.4133 434.721 80.5704Z" fill="#AFE2FF"/>
<path d="M427.786 82.2842C427.86 82.4413 427.64 82.6999 427.297 82.8619C426.951 83.0238 426.613 83.0286 426.538 82.8715C426.463 82.7144 426.683 82.4558 427.029 82.2938C427.372 82.1295 427.711 82.1246 427.786 82.2842Z" fill="#AFE2FF"/>
<path d="M430.496 82.5597C430.571 82.7168 430.351 82.9754 430.006 83.1374C429.662 83.2993 429.322 83.3041 429.249 83.1446C429.174 82.9875 429.394 82.7289 429.737 82.5669C430.083 82.405 430.424 82.4025 430.496 82.5597Z" fill="#AFE2FF"/>
<path d="M427.542 76.2802C427.617 76.4373 427.397 76.6959 427.051 76.8579C426.708 77.0198 426.367 77.0247 426.292 76.8651C426.217 76.708 426.437 76.4494 426.783 76.2874C427.128 76.1279 427.467 76.1231 427.542 76.2802Z" fill="#AFE2FF"/>
<path d="M431.12 83.882C431.195 84.0391 430.975 84.2977 430.629 84.4621C430.283 84.624 429.945 84.6288 429.87 84.4693C429.795 84.3122 430.015 84.0536 430.361 83.8916C430.706 83.7297 431.045 83.7249 431.12 83.882Z" fill="#AFE2FF"/>
<path d="M432.608 81.5664C432.683 81.7235 432.463 81.9822 432.117 82.1465C431.774 82.3085 431.433 82.3133 431.358 82.1538C431.283 81.9967 431.503 81.7381 431.849 81.5761C432.195 81.4118 432.533 81.4093 432.608 81.5664Z" fill="#AFE2FF"/>
<path d="M428.385 83.5531C428.46 83.7103 428.24 83.9689 427.895 84.1308C427.549 84.2928 427.211 84.2976 427.136 84.1405C427.061 83.9834 427.281 83.7248 427.626 83.5604C427.972 83.4009 428.313 83.396 428.385 83.5531Z" fill="#AFE2FF"/>
<path d="M426.469 84.4547C426.544 84.6118 426.324 84.8704 425.981 85.0323C425.637 85.1943 425.297 85.1991 425.222 85.0396C425.147 84.8825 425.367 84.6239 425.712 84.4619C426.056 84.3 426.396 84.2976 426.469 84.4547Z" fill="#AFE2FF"/>
<path d="M428.171 77.6192C428.246 77.7763 428.026 78.0349 427.68 78.1968C427.334 78.3588 426.996 78.3636 426.921 78.2041C426.846 78.047 427.066 77.7884 427.412 77.6264C427.757 77.4645 428.096 77.4596 428.171 77.6192Z" fill="#AFE2FF"/>
<path d="M430.284 76.6234C430.359 76.7805 430.139 77.0391 429.793 77.2011C429.45 77.363 429.109 77.3679 429.034 77.2107C428.959 77.0536 429.179 76.795 429.525 76.6331C429.871 76.4711 430.209 76.4663 430.284 76.6234Z" fill="#AFE2FF"/>
<path d="M429.788 75.5721C429.863 75.7292 429.643 75.9878 429.297 76.1497C428.951 76.3117 428.613 76.3165 428.538 76.1594C428.463 76.0023 428.683 75.7437 429.026 75.5817C429.374 75.4174 429.713 75.4149 429.788 75.5721Z" fill="#AFE2FF"/>
<path d="M433.098 82.6034C433.173 82.7605 432.953 83.0191 432.607 83.181C432.264 83.343 431.923 83.3478 431.851 83.1907C431.776 83.0336 431.996 82.775 432.339 82.6131C432.684 82.4511 433.023 82.4463 433.098 82.6034Z" fill="#AFE2FF"/>
<path d="M429.078 84.4959C429.153 84.653 428.933 84.9116 428.59 85.076C428.244 85.2379 427.906 85.2427 427.831 85.0832C427.756 84.9261 427.976 84.6675 428.322 84.5031C428.665 84.3412 429.003 84.3363 429.078 84.4959Z" fill="#AFE2FF"/>
<path d="M425.565 77.5614C425.64 77.7185 425.42 77.9771 425.074 78.139C424.731 78.301 424.39 78.3058 424.315 78.1463C424.24 77.9892 424.46 77.7306 424.806 77.5686C425.152 77.4067 425.493 77.4043 425.565 77.5614Z" fill="#AFE2FF"/>
<path d="M432.397 75.63C432.472 75.7871 432.252 76.0457 431.906 76.2076C431.561 76.3696 431.222 76.3744 431.147 76.2149C431.073 76.0578 431.292 75.7992 431.638 75.6372C431.984 75.4753 432.322 75.4729 432.397 75.63Z" fill="#AFE2FF"/>
<path d="M426.059 78.6126C426.134 78.7697 425.914 79.0284 425.568 79.1903C425.225 79.3523 424.884 79.3571 424.812 79.1976C424.737 79.0405 424.957 78.7818 425.3 78.6199C425.643 78.4579 425.984 78.4555 426.059 78.6126Z" fill="#AFE2FF"/>
<path d="M392.98 251.989H389.707V68.7123C389.707 67.9702 390.309 67.366 391.053 67.366H391.747C392.429 67.366 392.98 67.9171 392.98 68.5987V251.989Z" fill="#76D0FF"/>
<path d="M393.075 140.001L392.887 137.765C394.866 137.703 396.607 137.137 398.207 136.03C403.365 132.465 406.454 123.696 407.135 110.67C407.66 100.68 406.548 91.6841 406.536 91.5947L410.207 91.4231C410.396 92.9144 414.648 128.056 400.972 137.509C398.714 139.071 396.058 139.909 393.075 140.001Z" fill="#AFE2FF"/>
<path d="M423.244 177.488H393.686C392.393 177.488 391.344 176.438 391.344 175.145C391.344 173.852 392.393 172.803 393.686 172.803H423.244C424.537 172.803 425.586 173.852 425.586 175.145C425.586 176.438 424.537 177.488 423.244 177.488Z" fill="#76D0FF"/>
<path d="M412.36 93.753H391.682C390.597 93.753 389.707 92.8635 389.707 91.7782C389.707 90.6929 390.597 89.8035 391.682 89.8035H412.36C413.445 89.8035 414.335 90.6929 414.335 91.7782C414.335 92.8635 413.445 93.753 412.36 93.753Z" fill="#76D0FF"/>
<path d="M422.104 142.781L420.31 168.071H412.962L411.5 142.781H422.104Z" fill="#3C8F7C"/>
<path d="M420.309 168.071H412.961V172.803H420.309V168.071Z" fill="white"/>
<path d="M422.106 141.205H411.5V142.783H422.106V141.205Z" fill="#2F7E6C"/>
<path d="M419.739 151.429C419.739 150.573 419.046 149.88 418.19 149.88C417.334 149.88 416.641 150.573 416.641 151.429C416.641 152.285 417.334 152.978 418.19 152.978C419.046 152.978 419.739 152.285 419.739 151.429Z" fill="white"/>
<path d="M417.674 155.192C417.674 154.131 416.814 153.273 415.755 153.273C414.694 153.273 413.836 154.134 413.836 155.192C413.836 156.253 414.696 157.112 415.755 157.112C416.814 157.112 417.674 156.253 417.674 155.192Z" fill="white"/>
<path d="M415.895 152.009C415.895 151.475 415.463 151.04 414.926 151.04C414.39 151.04 413.957 151.475 413.957 152.009C413.957 152.543 414.392 152.978 414.926 152.978C415.46 152.978 415.895 152.546 415.895 152.009Z" fill="white"/>
<path d="M415.563 151.676C415.563 151.489 415.413 151.34 415.227 151.34C415.04 151.34 414.891 151.489 414.891 151.676C414.891 151.862 415.04 152.012 415.227 152.012C415.413 152.012 415.563 151.859 415.563 151.676Z" fill="#3C8F7C"/>
<path d="M415.493 155.934C415.493 155.601 415.222 155.333 414.891 155.333C414.557 155.333 414.289 155.603 414.289 155.934C414.289 156.268 414.56 156.536 414.891 156.536C415.222 156.536 415.493 156.266 415.493 155.934Z" fill="#3C8F7C"/>
<path d="M419.38 151.927C419.38 151.567 419.087 151.274 418.727 151.274C418.367 151.274 418.074 151.567 418.074 151.927C418.074 152.287 418.367 152.58 418.727 152.58C419.087 152.577 419.38 152.287 419.38 151.927Z" fill="#3C8F7C"/>
<path d="M408.723 150.204L406.93 168.071H399.582L398.117 150.204H408.723Z" fill="#3C8F7C"/>
<path d="M406.93 168.071H399.582V172.803H406.93V168.071Z" fill="white"/>
<path d="M408.723 149.089H398.117V150.204H408.723V149.089Z" fill="#2F7E6C"/>
<path d="M406.357 155.045C406.357 154.189 405.663 153.496 404.807 153.496C403.952 153.496 403.258 154.189 403.258 155.045C403.258 155.901 403.952 156.594 404.807 156.594C405.663 156.597 406.357 155.901 406.357 155.045Z" fill="white"/>
<path d="M404.291 158.808C404.291 157.747 403.431 156.889 402.372 156.889C401.311 156.889 400.453 157.75 400.453 158.808C400.453 159.869 401.314 160.727 402.372 160.727C403.433 160.73 404.291 159.869 404.291 158.808Z" fill="white"/>
<path d="M402.513 155.627C402.513 155.093 402.08 154.658 401.543 154.658C401.009 154.658 400.574 155.093 400.574 155.627C400.574 156.162 401.007 156.597 401.543 156.597C402.078 156.597 402.513 156.162 402.513 155.627Z" fill="white"/>
<path d="M402.18 155.292C402.18 155.105 402.03 154.956 401.844 154.956C401.658 154.956 401.508 155.105 401.508 155.292C401.508 155.478 401.658 155.628 401.844 155.628C402.03 155.628 402.18 155.478 402.18 155.292Z" fill="#3C8F7C"/>
<path d="M402.11 159.55C402.11 159.217 401.839 158.948 401.508 158.948C401.175 158.948 400.906 159.219 400.906 159.55C400.906 159.881 401.177 160.152 401.508 160.152C401.842 160.152 402.11 159.884 402.11 159.55Z" fill="#3C8F7C"/>
<path d="M406.001 155.543C406.001 155.183 405.708 154.89 405.348 154.89C404.988 154.89 404.695 155.183 404.695 155.543C404.695 155.903 404.988 156.196 405.348 156.196C405.708 156.196 406.001 155.903 406.001 155.543Z" fill="#3C8F7C"/>
<path d="M417.385 83.0575C414.069 83.6981 411.321 87.9739 410.086 90.2145C410.238 87.43 415.51 81.0804 416.931 81.5831C418.352 82.081 417.385 83.0575 417.385 83.0575Z" fill="#2192CE"/>
<path d="M412.286 268.792L407.126 278.502H404.465L406.527 268.792H412.286Z" fill="#13A3EF"/>
<path d="M522.332 268.792L527.492 278.502H530.154L528.092 268.792H522.332Z" fill="#13A3EF"/>
<path d="M578.15 200.682L565.291 235.872C557.397 257.48 536.842 271.852 513.836 271.852H421.207C401.37 271.852 384.216 258.022 380.013 238.634L374.898 215.051C387.312 217.031 400.486 218.114 413.927 218.52C491.607 220.881 578.15 200.682 578.15 200.682Z" fill="#A0DEFF"/>
<path d="M467.438 271.855H421.207C401.37 271.855 384.216 258.024 380.013 238.637L374.898 215.053C387.312 217.033 400.486 218.116 413.927 218.522C413.373 227.182 414.079 264.944 467.438 271.855Z" fill="#76D0FF"/>
<path d="M436.047 220.17C425.32 220.17 415.681 219.851 407.671 219.433C385.18 218.263 370.306 216.093 370.158 216.071C368.991 215.899 368.183 214.812 368.355 213.644C368.527 212.477 369.614 211.67 370.782 211.841C370.927 211.863 385.647 214.009 407.951 215.165C428.518 216.233 459.926 216.654 492.764 212.603C525.638 208.547 548.17 204.527 561.285 201.868C575.495 198.99 582.014 197.042 582.077 197.022C583.208 196.681 584.4 197.322 584.741 198.453C585.081 199.584 584.441 200.776 583.31 201.117C583.044 201.196 576.61 203.12 562.25 206.035C549.048 208.714 526.366 212.765 493.286 216.845C472.925 219.361 453.112 220.17 436.047 220.17Z" fill="#13A3EF"/>
<path d="M256.086 63.3054H194.605V141.604H256.086V63.3054Z" fill="#AFE2FF"/>
<path d="M253.594 65.7563H197.098V139.457H253.594V65.7563Z" fill="#A0DEFF"/>
<path d="M114.695 185.142H38.7266V278.659H114.695V185.142Z" fill="#A0DEFF"/>
<path d="M114.695 199.086H38.7266V200.355H114.695V199.086Z" fill="#76D0FF"/>
<path d="M61.2039 197.849H41.0117V187.057H61.2039V197.849ZM41.2655 197.595H60.9501V187.31H41.2655V197.595Z" fill="#76D0FF"/>
<path d="M72.1914 192.454C72.1914 190.455 73.8108 188.836 75.8098 188.836C77.8087 188.836 79.4281 190.455 79.4281 192.454C79.4281 194.453 77.8087 196.072 75.8098 196.072C73.8108 196.072 72.1914 194.451 72.1914 192.454Z" fill="#76D0FF"/>
<path d="M81.9688 192.454C81.9688 190.825 83.2885 189.503 84.9176 189.503C86.5467 189.503 87.8664 190.822 87.8664 192.454C87.8664 194.083 86.5467 195.403 84.9176 195.403C83.2885 195.403 81.9688 194.083 81.9688 192.454Z" fill="#76D0FF"/>
<path d="M108.655 188.985H92.4844V195.922H108.655V188.985Z" fill="#76D0FF"/>
<path d="M75.8108 263.255C91.3559 263.255 103.958 250.653 103.958 235.108C103.958 219.563 91.3559 206.961 75.8108 206.961C60.2658 206.961 47.6641 219.563 47.6641 235.108C47.6641 250.653 60.2658 263.255 75.8108 263.255Z" fill="#76D0FF"/>
<path d="M76.9401 257.715C89.4252 257.097 99.0458 246.475 98.4283 233.99C97.8108 221.505 87.189 211.885 74.7039 212.502C62.2188 213.12 52.5982 223.742 53.2157 236.227C53.8333 248.712 64.455 258.332 76.9401 257.715Z" fill="#13A3EF"/>
<path d="M98.064 241.194H96.5437C94.6608 241.194 93.1211 239.654 93.1211 237.772V234.728C93.1211 232.846 94.6608 231.306 96.5437 231.306H98.064C99.9469 231.306 101.487 232.846 101.487 234.728V237.772C101.489 239.654 99.9469 241.194 98.064 241.194Z" fill="#76D0FF"/>
<path d="M270.809 183.876H186.461V278.501H270.809V183.876Z" fill="#A0DEFF"/>
<path d="M270.809 212.905H186.461V214.024H270.809V212.905Z" fill="#76D0FF"/>
<path d="M236.049 188.985H222.39C221.94 188.985 221.57 188.616 221.57 188.166V187.929C221.57 187.48 221.94 187.11 222.39 187.11H236.049C236.498 187.11 236.868 187.48 236.868 187.929V188.166C236.868 188.616 236.498 188.985 236.049 188.985Z" fill="#76D0FF"/>
<path d="M270.809 247.244H186.461V248.363H270.809V247.244Z" fill="#76D0FF"/>
<path d="M236.049 218.213H222.39C221.94 218.213 221.57 217.843 221.57 217.393V217.156C221.57 216.704 221.94 216.337 222.39 216.337H236.049C236.498 216.337 236.868 216.707 236.868 217.156V217.393C236.868 217.845 236.498 218.213 236.049 218.213Z" fill="#76D0FF"/>
<path d="M236.049 254.084H222.39C221.94 254.084 221.57 253.714 221.57 253.265V253.028C221.57 252.578 221.94 252.208 222.39 252.208H236.049C236.498 252.208 236.868 252.578 236.868 253.028V253.265C236.868 253.714 236.498 254.084 236.049 254.084Z" fill="#76D0FF"/>
<path d="M275.465 178.943H181.207V185.142H275.465V178.943Z" fill="#13A3EF"/>
<path d="M224.207 165.429C223.17 165.429 222.324 164.58 222.324 163.546V146.406C222.324 145.369 223.173 144.523 224.207 144.523C225.244 144.523 226.09 145.372 226.09 146.406V163.546C226.09 164.583 225.242 165.429 224.207 165.429Z" fill="#13A3EF"/>
<path d="M214.225 156.072C214.225 156.072 218.779 154.361 220.314 155.4C221.849 156.442 219.838 159.671 218.62 159.884C217.401 160.097 213.855 159.567 213.855 159.567L214.225 156.072Z" fill="#FFB27D"/>
<path d="M214.958 158.25C215.673 156.302 215.069 155.333 215.069 155.333C215.069 155.333 198.312 152.087 196.75 151.047C195.189 150.008 181.051 130.403 181.051 130.403L158.836 132.472C158.836 132.472 186.548 155.751 190.558 158.308C197.183 162.531 213.198 160.126 213.198 160.126C213.198 160.126 214.395 159.78 214.958 158.25Z" fill="#ED7D2B"/>
<path d="M214.415 161.203L215.969 162.484L222.759 154.25L221.206 152.969L214.415 161.203Z" fill="#35488B"/>
<path d="M222.911 150.056C222.907 150.064 222.911 150.056 222.907 150.064C222.476 150.745 222.314 151.62 222.875 152.198C223.624 152.971 224.524 152.672 225.188 151.864C225.191 151.862 225.357 151.659 225.362 151.654C225.592 151.371 226.211 151.985 226.17 152.348C226.097 153 225.802 153.636 225.275 154.136C224.313 155.052 222.817 155.185 221.705 154.458C220.231 153.493 219.958 151.497 221.045 150.175C221.35 149.805 221.727 149.532 222.138 149.355C222.534 149.186 223.148 149.694 222.911 150.056Z" fill="#35488B"/>
<path d="M214.385 165.683C214.39 165.676 214.385 165.683 214.39 165.676C214.82 164.996 214.982 164.119 214.421 163.541C213.672 162.768 212.773 163.068 212.108 163.875C212.106 163.88 211.939 164.08 211.934 164.085C211.705 164.368 211.086 163.754 211.127 163.391C211.199 162.739 211.494 162.103 212.021 161.603C212.986 160.687 214.479 160.554 215.591 161.281C217.066 162.246 217.339 164.242 216.251 165.564C215.947 165.934 215.569 166.207 215.159 166.384C214.762 166.553 214.148 166.045 214.385 165.683Z" fill="#35488B"/>
<path d="M220.313 155.4C220.313 155.4 217.664 155.318 217.58 156.63C217.495 157.943 217.29 159.959 218.619 159.881C219.951 159.806 223.683 156.795 220.313 155.4Z" fill="#FFB27D"/>
<path d="M229.578 158.006C229.578 158.006 246.295 142.786 252.763 151.313C254.45 153.537 250.785 156.176 248.148 156.585C243.438 157.312 235.64 154.876 229.578 158.006Z" fill="#0F7EB9"/>
<path d="M256.394 165.429C256.394 171.222 250.134 176.277 240.845 178.959H210.32C201.034 176.277 194.773 171.222 194.773 165.429H256.394Z" fill="#A0DEFF"/>
<path d="M257.912 165.429H193.251C192.504 165.429 191.895 164.817 191.895 164.073C191.895 163.326 192.504 162.717 193.251 162.717H257.912C258.659 162.717 259.268 163.326 259.268 164.073C259.268 164.82 258.656 165.429 257.912 165.429Z" fill="#1989C4"/>
<path d="M236.592 168.15C236.592 168.15 237.714 174.461 234.634 176.177C231.553 177.896 229.121 174.244 231.823 172.598C234.523 170.952 235.601 171.027 236.592 168.15Z" fill="#0F7EB9"/>
<path d="M236.82 162.717C236.82 162.717 245.321 163.85 248.664 170.215C252.007 176.579 254.661 185.512 247.832 186.883C241.004 188.253 237.835 184.77 239.958 176.753C242.955 165.429 236.82 162.717 236.82 162.717Z" fill="#0F7EB9"/>
<path d="M114.696 264.625C114.696 264.625 111.704 267.4 112.286 269.37C112.871 271.34 115.571 272.654 115.936 275.064C116.301 277.474 117.761 278.787 119.076 278.787C120.391 278.787 125.341 278.787 125.341 278.787C125.341 278.787 126.308 277.092 123.973 276.58C121.638 276.07 120.756 273.239 120.903 270.61C121.048 267.982 120.683 264.477 120.683 264.477L115.718 263.31L114.696 264.625Z" fill="#2C3A64"/>
<path d="M151.412 271.717C151.412 271.717 150.713 278.03 152.028 278.685H168.974C168.974 278.685 169.006 276.679 166.304 276.242C163.604 275.804 158.859 274.197 158.056 270.622C157.252 267.045 151.412 271.717 151.412 271.717Z" fill="#2C3A64"/>
<path d="M165.608 182.01C165.608 182.01 164.721 193.075 163.679 206.376C162.263 224.444 160.559 246.64 160.389 250.843C160.097 258.145 158.93 269.822 158.93 269.822C158.93 269.822 156.157 272.597 150.608 271.427C150.608 271.427 145.662 254.756 144.251 237.117C144.229 236.827 144.207 236.537 144.185 236.244C142.871 218.288 140.828 180.475 140.828 180.475L165.608 182.01Z" fill="#35488B"/>
<path d="M165.608 182.01C165.608 182.01 164.721 193.075 163.679 206.376L144.251 237.117C144.229 236.827 144.207 236.537 144.185 236.244C142.871 218.288 140.828 180.475 140.828 180.475L165.608 182.01Z" fill="#2C3A64"/>
<path d="M161.559 183.322C161.559 183.322 160.737 185.382 159.347 188.787C156.099 196.72 149.747 211.962 143.455 225.469C140.54 231.729 137.637 237.614 135.063 242.229C124.551 261.065 121.266 266.32 121.266 266.32C121.266 266.32 121.114 266.259 120.863 266.15C119.773 265.691 116.751 264.354 115.369 263.129C115.033 262.829 114.791 262.539 114.699 262.266C114.699 262.266 118.719 225.911 125.757 217.048C129.733 212.039 134.406 197.01 134.626 191.758C134.722 189.44 135.012 186.126 135.305 183.139C135.566 180.441 135.836 178.017 135.967 176.845C136.023 176.368 136.052 176.1 136.052 176.1L154.508 181.328L161.559 183.322Z" fill="#35488B"/>
<path d="M157.801 188.475C149.535 188.045 145.861 187.127 141.128 185.966C138.281 185.27 136.401 183.806 135.301 183.136C135.562 180.439 135.833 178.014 135.963 176.842L143.386 180.639L157.801 188.475Z" fill="#2C3A64"/>
<path d="M168.602 120.237C168.602 120.237 175.125 131.713 181.499 133.212C181.499 133.212 181.306 130.393 180.278 127.926C179.95 127.138 180.1 126.231 180.636 125.569C180.892 125.252 181.134 124.95 181.359 124.665C182.964 122.608 183.728 121.349 183.728 121.349L181.564 115.531L180.097 111.584C179.391 112.865 178.613 113.955 177.803 114.89C173.622 119.695 168.602 120.237 168.602 120.237Z" fill="#FFB27D"/>
<path d="M177.8 114.89C177.8 114.89 177.022 120.64 181.358 124.662C182.963 122.606 183.727 121.346 183.727 121.346L181.564 115.528C179.241 114.825 177.8 114.89 177.8 114.89Z" fill="#ED975D"/>
<path d="M185.441 122.197C185.441 122.197 175.695 118.397 178.156 112.364C180.614 106.331 181.013 101.778 187.341 103.951C193.666 106.121 193.93 108.913 193.599 111.127C193.268 113.338 188.039 123.028 185.441 122.197Z" fill="#FFB27D"/>
<path d="M179.87 147.743C178.811 150.801 177.421 153.936 175.797 156.899C175.478 157.484 175.164 158.061 174.871 158.634C174.673 159.014 174.485 159.393 174.298 159.768C170.743 166.937 169.104 173.154 168.396 178.036C168.261 178.976 168.157 179.863 168.084 180.702C167.763 184.284 134.269 172.622 135.35 167.611C136.063 164.312 137.035 160.846 137.946 157.892C139.273 153.566 140.462 150.339 140.462 150.339C146.727 135.43 155.619 127.403 162.547 123.166C163.801 122.395 164.99 121.75 166.09 121.216C170.298 119.152 173.162 118.637 173.162 118.637C173.162 118.637 174.596 125.798 180.737 128.639C180.745 128.66 181.697 132.528 181.702 132.545C182.727 136.226 181.91 141.857 179.87 147.743Z" fill="#F99746"/>
<path d="M176.757 101.159C176.689 101.024 176.491 100.881 176.007 100.731C176.007 100.731 176.462 100.579 176.989 100.695C177.262 100.028 177.927 98.8893 179.174 98.8821C179.174 98.8821 178.458 99.0682 178.195 99.7836C179.904 98.7008 183.073 98.3842 190.984 101.021C201.408 104.495 196.2 110.544 194.621 111.03C193.041 111.516 190.133 108.403 187.515 107.977C184.9 107.552 183.483 111.197 182.488 111.499C181.489 111.801 182.057 110.972 181.013 110.141C179.969 109.309 179.37 111.265 179.391 112.635C179.413 114.008 177.378 115.308 177.378 115.308C177.378 115.308 177.378 115.308 176.184 113.119C174.99 110.929 175.314 102.974 176.455 101.543C176.554 101.415 176.655 101.287 176.757 101.159Z" fill="#216AB1"/>
<path d="M159.219 142.3C159.219 142.3 160.34 150.791 164.133 157.215C167.925 163.64 169.605 153.641 169.605 153.641L159.219 142.3Z" fill="#ED7D2B"/>
<path d="M174.298 159.768C170.743 166.937 169.104 173.154 168.396 178.036C168.26 178.976 168.156 179.863 168.084 180.702C167.762 184.284 167.946 186.921 168.079 188.42C168.425 192.331 139.035 184.78 135.103 179.126C132.942 176.013 135.654 165.33 137.943 157.892C138.327 157.984 156.547 162.32 169.152 151.047L174.298 159.768Z" fill="#35488B"/>
<path d="M176.531 139.59L174.715 135.97C174.72 135.907 174.914 129.579 171.116 125.866C169.069 123.86 166.188 122.956 162.543 123.166C163.797 122.395 164.987 121.75 166.086 121.216C168.69 121.617 170.867 122.673 172.6 124.373C177.062 128.743 176.543 139.295 176.531 139.59Z" fill="#2C3A64"/>
<path d="M201.594 164.52C201.594 164.52 207.31 163.495 208.258 163.606C209.208 163.717 212.468 165.267 212.5 165.537C212.531 165.808 212.362 166.021 211.787 166.033C211.209 166.045 209.329 165.711 209.437 165.946C209.546 166.18 214.948 167.512 214.958 168.612C214.965 169.712 211.881 171.611 209.35 171.628C206.82 171.645 201.995 168.476 201.572 168.421C197.978 167.935 201.594 164.52 201.594 164.52Z" fill="#FFB27D"/>
<path d="M202.664 166.85C202.776 165.721 201.594 164.522 201.594 164.522C201.594 164.522 184.628 159.855 183.224 158.438C181.82 157.022 175.315 134.461 175.315 134.461C175.315 134.461 173.077 125.33 167.835 124.324C163.278 123.449 160.131 125.704 158.07 128.346C155.614 131.495 155.375 135.837 157.412 139.271C161.985 146.977 171.211 162.277 173.906 164.89C179.903 170.708 201.57 169.506 201.57 169.506C201.57 169.506 202.44 169.115 202.664 166.85Z" fill="#F99746"/>
<path d="M519.66 112.377C519.66 112.377 527.47 110.006 532.072 114.47C536.676 118.934 535.77 124.058 542.337 123.66C548.904 123.261 550.405 125.675 549.557 129.453C548.708 133.231 556.837 132.168 559.295 136.777C561.753 141.386 562.104 149.873 549.424 149.438C536.744 149 531.122 142.177 525.693 145.012C520.264 147.845 511.312 143.286 513.661 139.315C516.01 135.344 511.452 136.414 510.647 128.303C509.844 120.186 514.176 112.988 519.66 112.377Z" fill="#163560"/>
<path d="M509.18 134.174C509.18 134.174 509.6 130.828 511.222 129.359C512.832 127.899 514.717 127.229 515.128 128.216C515.542 129.202 514.345 131.964 513.941 132.839C513.538 133.717 513.518 135.145 511.783 135.518C510.047 135.89 509.18 134.174 509.18 134.174Z" fill="#FFB27D"/>
<path d="M513.536 133.717L510.962 131.65C510.58 131.343 510.517 130.785 510.824 130.401L515.469 124.612C515.776 124.23 516.335 124.167 516.719 124.474L519.293 126.541C519.675 126.848 519.738 127.406 519.431 127.79L514.785 133.579C514.478 133.963 513.918 134.024 513.536 133.717Z" fill="#F99746"/>
<path d="M513.508 133.175L511.497 131.561C511.168 131.297 511.115 130.816 511.378 130.488L515.676 125.134C515.939 124.805 516.42 124.752 516.749 125.015L518.76 126.63C519.089 126.893 519.142 127.374 518.879 127.703L514.581 133.057C514.318 133.386 513.837 133.439 513.508 133.175Z" fill="#165999"/>
<path d="M535.993 138.176C529.138 136.728 529.186 137.432 524.7 137.548C524.7 137.548 519.361 137.833 515.793 138.853C509.826 140.56 505.066 146.974 505.066 146.974L512.545 135.52L508.714 133.478C508.714 133.478 491.379 149.454 495.611 155.744C499.137 160.986 513.084 150.114 512.753 151.673C512.748 151.693 512.746 151.709 512.743 151.724C511.718 158.874 517.367 169.407 517.367 169.407L527.891 177.669L537.931 170.524H537.934L538.751 170.229C538.751 170.229 540.406 169.407 540.899 165.494C540.96 165.011 541.31 160.877 541.658 156.713C542.033 152.217 542.403 147.687 542.403 147.687L535.993 138.176Z" fill="#165999"/>
<path d="M518.14 171.732C518.14 171.732 514.181 183.313 514.885 191.789C515.31 196.913 522.189 233.346 522.576 235.71C522.938 237.938 527.883 266.788 527.883 266.788C527.883 266.788 527.033 271.591 528.85 271.079C531.371 270.368 532.167 269.515 532.167 269.515C532.167 269.515 535.935 221.186 533.602 203.923C531.27 186.66 531.243 171.73 531.243 171.73H518.14V171.732Z" fill="#919191"/>
<path d="M538.656 171.283C538.656 171.283 546.042 181.193 546.731 187.893C547.42 194.593 547.811 218.123 549.279 224.654C550.746 231.185 556.136 243.754 556.136 264.122C556.136 264.122 555.575 265.29 553.847 265.911C553.293 266.109 553.547 265.116 552.829 265.28C551.403 265.606 539.801 236.478 539.151 235.168C535.506 227.833 528.361 202.393 520.366 188.894C518.447 185.652 521.543 172.765 521.543 172.765L538.656 171.283Z" fill="#555555"/>
<path d="M527.615 140.042C528.932 139.445 529.508 138.466 529.22 137.043C528.8 134.955 528.028 133.002 527.937 129.954L527.497 130.055L520.105 131.778C520.105 131.778 520.432 136.356 520.434 136.373C520.635 139.337 521.353 142.878 527.615 140.042Z" fill="#FFB27D"/>
<path d="M520.105 131.778C520.105 131.778 520.352 134.113 520.432 136.32C524.592 136.064 526.665 132.192 527.495 130.057L520.105 131.778Z" fill="#E8945B"/>
<path d="M518.785 133.913C518.785 133.913 528.639 133.746 528.441 127.609C528.243 121.472 529.381 117.32 523.08 117.167C516.779 117.015 515.633 119.396 515.2 121.46C514.77 123.524 516.215 133.799 518.785 133.913Z" fill="#FFB27D"/>
<path d="M518.16 117.46C518.16 117.46 521.472 125.47 526.175 126.512C530.879 127.556 532.861 126.238 532.861 126.238C532.861 126.238 529.189 123.517 528.28 118.581C528.28 118.579 520.323 113.522 518.16 117.46Z" fill="#163560"/>
<path d="M519.426 117.117C519.426 117.117 517.2 118.035 516.327 119.71C515.474 121.349 514.773 121.876 515.039 124.481C515.039 124.481 512.564 120.67 515.034 117.465C517.652 114.066 519.426 117.117 519.426 117.117Z" fill="#163560"/>
<path d="M517.369 169.405C517.369 169.405 519.312 170.942 523.175 171.019C527.786 171.111 539.217 169.842 539.217 169.842C539.217 169.842 539.724 171.261 539.705 172.76C539.705 172.76 525.746 176.281 517.659 173.274C517.656 173.277 516.612 171.314 517.369 169.405Z" fill="#233862"/>
<path d="M522.066 174.995C520.906 174.995 519.961 173.927 519.961 172.612C519.961 171.3 520.906 170.231 522.066 170.231C523.226 170.231 524.171 171.3 524.171 172.612C524.169 173.927 523.226 174.995 522.066 174.995ZM522.066 170.93C521.29 170.93 520.659 171.687 520.659 172.615C520.659 173.543 521.29 174.299 522.066 174.299C522.842 174.299 523.473 173.543 523.473 172.615C523.473 171.684 522.84 170.93 522.066 170.93Z" fill="white"/>
<path d="M536.613 230.337C536.613 230.337 546.502 228.147 552.025 225.546C552.025 225.546 557.605 256.813 559.725 267.502C560.054 269.164 560.89 271.683 561.212 273.182C561.811 275.976 561.134 278.499 561.134 278.499H544.022C544.022 278.499 544.13 275.867 547.135 274.893C550.142 273.919 553.281 271.833 553.202 270.533C553.122 269.232 536.613 230.337 536.613 230.337Z" fill="#F47458"/>
<path d="M520.407 231.161L535.03 231.052C535.03 231.052 533.805 266.687 534.363 270.479C534.921 274.269 535.03 278.499 535.03 278.499H516.184C516.184 278.499 515.94 276.285 518.947 274.492C521.954 272.698 525.364 274.24 526.503 271.724C527.636 269.208 520.407 231.161 520.407 231.161Z" fill="#F47458"/>
<path d="M519.246 130.249C519.316 130.705 519.07 131.124 518.693 131.182C518.316 131.24 517.956 130.916 517.883 130.459C517.813 130.002 518.059 129.584 518.436 129.526C518.813 129.468 519.176 129.789 519.246 130.249Z" fill="white"/>
<path d="M568.051 158.013C568.051 158.013 569.825 154.697 571.476 154.487C573.127 154.276 576.119 153.138 575.928 153.774C575.737 154.409 573.842 154.644 573.69 155.028C573.54 155.412 576.595 155.693 577.46 155.676C578.326 155.659 580.344 155.415 580.322 155.85C580.3 156.285 576.871 158.39 574.318 158.373C571.766 158.356 568.723 159.623 568.723 159.623L568.051 158.013Z" fill="#FFB27D"/>
<path d="M536.396 152.06C536.396 152.06 546.238 167.51 551.848 168.951C556.269 170.084 569.299 161.521 569.299 161.521C570.063 158.666 568.669 157.005 568.669 157.005C568.669 157.005 555.466 159.991 554.282 159.623C549.513 158.149 545.223 146.208 542.402 142.218C540.036 138.873 535.992 138.177 535.992 138.177L536.396 152.06Z" fill="#165999"/>
<path d="M504.626 145.71L509.808 142.145L507.21 147.912L502.129 148.376L504.626 145.71Z" fill="#165999"/>
<path d="M291.234 226.609C291.234 226.609 274.598 230.416 274.598 241.337C274.598 241.337 274.767 246.835 280.735 245.315C285.392 244.131 280.186 237.66 291.234 226.609Z" fill="#165999"/>
<path d="M290.229 225.213C290.229 225.213 278.477 222.868 277.396 225.616C275.726 229.851 283.881 224.275 290.229 225.213Z" fill="#165999"/>
<path d="M609.28 280H0.664694C0.299717 280 0 279.7 0 279.335V279.166C0 278.801 0.299717 278.501 0.664694 278.501H609.278C609.643 278.501 609.942 278.801 609.942 279.166V279.335C609.945 279.7 609.645 280 609.28 280Z" fill="#233862"/>
<path d="M303.467 225.751C303.467 225.751 310.6 233.972 307.767 239.161C307.371 239.886 306.537 241.146 304.25 240.322C301.964 239.495 304.736 236.495 304.632 232.703C304.548 229.691 303.467 225.751 303.467 225.751Z" fill="#165999"/>
<path d="M297.372 224.144C299.228 224.437 303.547 223.146 303.862 223.117C306.54 222.861 303.956 220.224 303.956 220.224C303.956 220.224 299.745 219.298 299.039 219.353C298.807 219.373 298.425 219.448 298.012 219.549L298.735 220.255C298.735 220.255 295.228 220.625 295.189 221.439C295.153 222.259 295.752 223.89 297.372 224.144Z" fill="#FFB27D"/>
<path d="M299.045 219.353L296.062 219.716C296.062 220.499 298.356 220.243 298.47 220.629C298.581 221.016 299.11 220.09 299.11 220.09L299.045 219.353Z" fill="#FFB27D"/>
<path d="M326.859 219.593C326.859 219.593 322.847 219.984 323.106 220.409C323.364 220.835 325.124 221.021 325.124 221.021L326.536 220.115L326.859 219.593Z" fill="#FFB27D"/>
<path d="M303.135 221.529C302.49 219.663 303.389 219.08 303.389 219.08C303.389 219.08 321.773 210.362 323.277 209.402C324.78 208.443 334.888 190.034 334.888 190.034C334.888 190.034 338.635 182.508 343.406 182.66C347.554 182.791 349.857 185.377 351.136 188.086C352.659 191.315 352.016 195.151 349.565 197.747C344.059 203.572 333.006 215.109 330.141 216.859C323.768 220.755 304.663 223.907 304.663 223.907C304.663 223.907 303.643 222.994 303.135 221.529Z" fill="#E58638"/>
<path d="M305.823 241.508C308.598 244.706 314.45 246.772 325.74 247.297C326.646 247.34 327.557 247.374 328.474 247.403C329.416 247.432 330.361 247.452 331.306 247.464C334.374 247.507 337.426 247.471 340.337 247.374C343.157 247.278 345.845 247.123 348.279 246.92C353.041 246.523 356.84 245.948 358.803 245.288C359.39 245.09 359.813 244.887 360.05 244.674C360.251 244.496 360.415 244.283 360.538 244.044C361.251 242.724 360.879 240.558 360.019 238.173C358.764 234.699 356.463 230.764 354.914 228.299C354.602 227.806 354.327 227.375 354.09 227.018C353.618 226.295 353.323 225.872 353.323 225.872C353.323 225.872 348.049 226.363 340.83 227.298C339.358 227.489 337.801 227.699 336.194 227.927C320.671 230.121 305.204 234.068 305.219 239.304C305.221 240.097 305.168 240.754 305.823 241.508Z" fill="#216AB1"/>
<path d="M325.043 247.232C325.986 247.261 330.361 247.449 331.306 247.461C334.373 247.505 337.426 247.469 340.336 247.372L343.072 236.348C338.84 242.253 326.404 246.852 325.043 247.232Z" fill="#2C3A64"/>
<path d="M334.185 279.251H319.137C319.374 278.678 319.946 277.931 321.344 277.687C323.715 277.271 327.828 275.99 327.302 272.568C326.767 269.099 332.539 268.652 332.539 268.652C332.539 268.652 334.939 277.931 334.185 279.251Z" fill="#2C3A64"/>
<path d="M305.578 240.943C305.578 240.943 324.245 270.31 325.799 273.8C325.799 273.8 332.151 274.392 333.679 269.853C333.679 269.853 322.582 238.861 317.705 236.307C312.827 233.752 305.578 240.943 305.578 240.943Z" fill="#216AB1"/>
<path d="M343.227 179.112C343.227 179.112 336.8 187.91 331.069 188.381C331.069 188.381 331.48 186.517 332.401 184.707C332.99 183.542 332.978 182.167 332.333 181.031C332.323 181.014 332.314 180.997 332.304 180.98C331.178 178.986 330.68 177.794 330.68 177.794L333.314 173.025L333.858 170.461C334.303 171.665 334.825 172.774 335.408 173.69C338.41 178.403 343.227 179.112 343.227 179.112Z" fill="#FFB27D"/>
<path d="M335.659 173.642C335.659 173.642 336.592 178.051 332.304 180.978C331.178 178.984 330.68 177.792 330.68 177.792L333.314 173.023C335.42 172.711 335.659 173.642 335.659 173.642Z" fill="#ED975D"/>
<path d="M329.874 180.451C329.874 180.451 337.938 176.059 335.124 171.077C332.311 166.098 331.457 162.178 326.191 164.771C320.924 167.365 321.006 169.825 321.54 171.715C322.074 173.606 327.706 181.464 329.874 180.451Z" fill="#FFB27D"/>
<path d="M335.098 161.163C335.142 161.037 335.299 160.889 335.705 160.708C335.705 160.708 335.292 160.626 334.847 160.785C334.535 160.234 333.829 159.318 332.742 159.449C332.742 159.449 333.385 159.531 333.694 160.126C332.084 159.372 329.29 159.451 322.696 162.625C314.005 166.809 319.213 171.498 320.644 171.744C322.075 171.991 324.26 168.955 326.491 168.295C328.722 167.633 330.361 170.65 331.262 170.802C332.164 170.954 331.579 170.294 332.396 169.456C333.213 168.617 333.953 170.251 334.086 171.447C334.219 172.644 335.662 173.639 335.662 173.639C335.662 173.639 336.138 173.55 336.933 171.51C337.728 169.47 336.561 162.579 335.408 161.46C335.304 161.366 335.202 161.264 335.098 161.163Z" fill="#216AB1"/>
<path d="M383.242 269.65C383.242 269.65 385.118 272.497 385.555 273.418C385.99 274.341 385.134 276.304 383.849 276.599C382.715 276.86 382.546 278.871 382.546 278.871H388.045C388.627 278.871 389.152 278.55 389.376 278.056C390.152 276.35 390.329 274.131 390.486 273.387C390.815 271.825 391.462 270.515 391.177 268.927C390.892 267.344 388.182 266.426 383.244 266.44C377.818 266.459 383.242 269.65 383.242 269.65Z" fill="#233862"/>
<path d="M367.073 235.325C362.925 239.72 332.477 230.629 335.029 228.314C335.68 227.726 335.457 227.018 335.721 226.07C336.985 221.575 334.469 213.884 333.391 210.903C333.139 210.212 332.965 209.775 332.934 209.688C331.904 206.906 331.109 204.008 330.587 201.206C329.584 195.833 329.601 190.837 330.974 187.777C330.983 187.76 330.986 187.746 330.995 187.736C336.7 186.068 339.839 177.678 339.839 177.678C339.839 177.678 357.909 182.81 364.467 208.595C364.467 208.595 364.805 210.239 365.223 212.707H365.226C365.352 213.463 365.487 214.299 365.622 215.189C366.323 219.776 366.729 225.66 367.145 230.042C367.162 230.194 367.176 230.349 367.191 230.506C367.399 232.391 367.761 234.595 367.073 235.325Z" fill="#F99746"/>
<path d="M343.098 230.965C343.098 230.965 346.134 231.364 352.256 231.816C358.601 232.285 365.326 233.285 366.418 235.417C366.781 236.123 366.527 237.909 365.821 240.377C364.257 245.832 360.465 254.616 356.136 262.404C367.257 263.047 382.388 265.502 382.388 265.502C384.863 268.301 383.826 271.576 383.826 271.576C383.033 271.584 380.645 271.92 377.389 272.447C365.589 274.346 351.217 278.252 342.308 278.252C340.36 278.252 338.9 276.867 338.308 275.059V275.057C334.643 263.909 343.098 230.965 343.098 230.965Z" fill="#216AB1"/>
<path d="M365.821 241.204C359.681 241.01 344.287 233.452 344.538 233.392C347.405 232.686 349.969 232.198 352.258 231.891C358.603 232.403 365.327 233.491 366.42 235.809C366.778 236.577 366.526 238.518 365.821 241.204Z" fill="#2C3A64"/>
<path d="M342.872 178.933C342.872 178.933 335.147 180.54 334.393 187.308C333.844 192.236 337.757 203.401 337.757 203.401L340.259 202.374C340.259 202.374 335.529 188.591 336.256 186.247C337.189 183.24 341.629 178.744 345.714 180.54L342.872 178.933Z" fill="#216AB1"/>
<path d="M367.074 235.325C362.927 239.72 331.824 230.726 334.374 228.41C335.022 227.823 335.457 227.018 335.72 226.07C336.984 221.575 334.468 213.884 333.39 210.903C333.139 210.212 330.76 202.023 330.727 201.936L339.484 200.041C339.484 200.041 341.961 204.307 345.178 206.497C349.396 209.371 356.214 212.692 365.223 212.706H365.225C365.351 213.463 365.486 214.299 365.622 215.189C366.323 219.776 366.729 225.659 367.144 230.042C367.161 230.194 367.176 230.349 367.19 230.506C367.401 232.391 367.763 234.595 367.074 235.325Z" fill="#216AB1"/>
<path d="M301.055 278.501H295.027V211.321C295.027 206.623 291.205 202.799 286.506 202.799H270.812V196.771H286.506C294.529 196.771 301.057 203.297 301.057 211.321V278.501H301.055Z" fill="#A0DEFF"/>
<path d="M284.291 196.072H283.203V203.775H284.291V196.072Z" fill="#3ABBFF"/>
<path d="M302.129 216.869V215.781H294.426V216.869H302.129Z" fill="#3ABBFF"/>
<path d="M302.125 229.802V228.714H294.422V229.802H302.125Z" fill="#3ABBFF"/>
<path d="M301.543 269.503H294.258V278.499H301.543V269.503Z" fill="#3ABBFF"/>
<path d="M301.973 214.483L330.291 225.611C330.857 225.834 331.497 225.556 331.72 224.99L331.906 224.514C332.094 224.035 331.857 223.496 331.381 223.308L302.903 212.117L301.973 214.483Z" fill="#216AB1"/>
<path d="M299.222 213.553L299.853 213.799L300.044 212.366C300.208 211.133 301.448 210.357 302.555 210.792L310.826 214.043L311.646 211.957L301.17 207.841C300.15 207.44 299.002 208.121 298.796 209.25L298.323 211.87C298.192 212.593 298.567 213.296 299.222 213.553Z" fill="#216AB1"/>
<path d="M304.957 213.805L310.129 215.837L311.29 212.881L306.119 210.849L304.957 213.805Z" fill="#216AB1"/>
<path d="M309.43 214.021C309.501 213.84 309.414 213.637 309.232 213.567C309.051 213.497 308.848 213.584 308.778 213.765C308.708 213.946 308.797 214.149 308.976 214.22C309.157 214.29 309.36 214.2 309.43 214.021Z" fill="#199DE2"/>
<path d="M307.345 213.202C307.415 213.023 307.328 212.818 307.147 212.748C306.965 212.677 306.762 212.765 306.692 212.946C306.622 213.127 306.709 213.33 306.89 213.4C307.072 213.47 307.275 213.381 307.345 213.202Z" fill="#199DE2"/>
<path d="M332.806 219.24C332.806 219.24 331.418 219.566 329.932 219.614C328.593 219.658 327.176 219.411 326.536 219.68C325.18 220.245 320.885 223.196 322.959 224.461C325.032 225.725 327.169 225.282 328.588 224.134C330.004 222.986 333.857 222.892 333.857 222.892L332.806 219.24Z" fill="#FFB27D"/>
<path d="M347.239 185.142C356.552 187.83 362.222 210.178 360.912 216.869C359.6 223.557 333.312 223.907 333.312 223.907C333.312 223.907 331.835 222.752 331.661 221.558C331.439 220.035 331.678 219.334 331.678 219.334C331.678 219.334 348.3 214.821 348.68 212.902C349.059 210.983 340.679 200.81 340.805 195.294C340.933 189.778 342.166 183.678 347.239 185.142Z" fill="#F99746"/>
<path d="M311.724 278.501C311.724 278.501 308.12 272.802 297.901 274.003C287.679 275.202 280.399 280.698 256.016 274.564C231.632 268.429 233.834 279.437 219.948 277.065C206.065 274.694 199.969 278.501 199.969 278.501H311.724Z" fill="#165999"/>
<path d="M285.934 196.072C285.934 196.072 288.725 189.829 294.103 190.968C294.103 190.968 295.483 191.313 295.138 192.725C294.792 194.136 290.586 192.215 285.934 196.072Z" fill="#165999"/>
</svg>
