<svg width="22" height="22" viewBox="0 0 22 22" fill="none" xmlns="http://www.w3.org/2000/svg">
<path d="M17.4453 14.2656C16.1719 14.2656 15.0404 14.8845 14.3353 15.837L8.26513 12.7349C8.36696 12.3889 8.42188 12.023 8.42188 11.6445C8.42188 11.1319 8.32137 10.6423 8.1394 10.1942L14.5014 6.37179C15.2112 7.20496 16.2675 7.73438 17.4453 7.73438C19.5777 7.73438 21.3125 5.99955 21.3125 3.86719C21.3125 1.73482 19.5777 0 17.4453 0C15.3129 0 13.5781 1.73482 13.5781 3.86719C13.5781 4.36004 13.671 4.83154 13.8398 5.26539L7.46195 9.09734C6.75262 8.28876 5.71231 7.77734 4.55469 7.77734C2.42232 7.77734 0.6875 9.51216 0.6875 11.6445C0.6875 13.7769 2.42232 15.5117 4.55469 15.5117C5.84899 15.5117 6.99669 14.8725 7.69901 13.8933L13.7516 16.9864C13.6389 17.3488 13.5781 17.7338 13.5781 18.1328C13.5781 20.2652 15.3129 22 17.4453 22C19.5777 22 21.3125 20.2652 21.3125 18.1328C21.3125 16.0004 19.5777 14.2656 17.4453 14.2656ZM17.4453 1.28906C18.8669 1.28906 20.0234 2.44561 20.0234 3.86719C20.0234 5.28877 18.8669 6.44531 17.4453 6.44531C16.0237 6.44531 14.8672 5.28877 14.8672 3.86719C14.8672 2.44561 16.0237 1.28906 17.4453 1.28906ZM4.55469 14.2227C3.13311 14.2227 1.97656 13.0661 1.97656 11.6445C1.97656 10.223 3.13311 9.06641 4.55469 9.06641C5.97627 9.06641 7.13281 10.223 7.13281 11.6445C7.13281 13.0661 5.97627 14.2227 4.55469 14.2227ZM17.4453 20.7109C16.0237 20.7109 14.8672 19.5544 14.8672 18.1328C14.8672 16.7112 16.0237 15.5547 17.4453 15.5547C18.8669 15.5547 20.0234 16.7112 20.0234 18.1328C20.0234 19.5544 18.8669 20.7109 17.4453 20.7109Z" fill="black"/>
</svg>
