<svg width="79" height="79" viewBox="0 0 79 79" fill="none" xmlns="http://www.w3.org/2000/svg">
<path d="M60.2156 43.0994C60.1618 42.8842 60.1988 42.653 60.3167 42.4651L71.7375 24.285C72.3527 23.3058 72.3859 22.117 71.8266 21.1048C71.2671 20.0926 70.2427 19.4882 69.0861 19.4882H52.4753C52.1753 19.4882 51.8997 19.3247 51.7561 19.0613L42.249 1.63167C41.7 0.625326 40.6468 0 39.5002 0C38.3536 0 37.3005 0.625325 36.7514 1.63183L27.2443 19.0614C27.1007 19.3247 26.8251 19.4882 26.5251 19.4882H9.91446C8.75784 19.4882 7.73346 20.0926 7.17395 21.1048C6.61459 22.117 6.64788 23.3058 7.26304 24.285L11.7095 31.3629C12.0492 31.9036 12.7627 32.0664 13.3033 31.7268C13.844 31.3873 14.0069 30.6736 13.6672 30.1331L9.2207 23.0552C8.98873 22.686 9.1273 22.3505 9.19743 22.2233C9.26771 22.0962 9.47826 21.8004 9.91446 21.8004H26.5253C27.6719 21.8004 28.7252 21.1751 29.2741 20.1686L38.7812 2.73913C38.9914 2.35379 39.3542 2.31218 39.5003 2.31218C39.6465 2.31218 40.0093 2.35379 40.2195 2.73913L49.7264 20.1686C50.2755 21.1752 51.3288 21.8004 52.4754 21.8004H69.0862C69.5224 21.8004 69.733 22.0962 69.8033 22.2233C69.8734 22.3505 70.012 22.686 69.78 23.0552L58.3592 41.2353C57.9079 41.9535 57.767 42.8376 57.9728 43.6603L62.8663 63.2343C62.9833 63.7017 62.7012 63.9811 62.5745 64.0796C62.4478 64.1779 62.1075 64.3828 61.6833 64.154L45.6355 55.5129V47.9357C45.6355 47.2972 45.1181 46.7796 44.4795 46.7796C43.8409 46.7796 43.3235 47.2972 43.3235 47.9357V54.268L40.9848 53.0087C40.0552 52.5084 38.9456 52.5082 38.0159 53.0087L35.5231 54.3509V39.943L37.0084 38.6074L37.8096 39.5128C38.2184 39.9746 38.8066 40.2395 39.4233 40.2395C40.04 40.2395 40.628 39.9746 41.0371 39.5126L41.8381 38.6074L43.3235 39.943V43.009C43.3235 43.6475 43.8409 44.1651 44.4795 44.1651C45.1181 44.1651 45.6355 43.6475 45.6355 43.009V40.5658L47.1501 40.5421C49.1948 40.5101 50.8582 38.8201 50.8582 36.7752V35.7274C50.8582 33.6501 49.1681 31.9602 47.091 31.9602C45.0136 31.9602 43.3237 33.6501 43.3237 35.7274V36.8338L43.2665 36.7823C42.836 36.3954 42.2808 36.2001 41.7028 36.2333C41.1249 36.2663 40.5953 36.5232 40.2118 36.9566L39.4234 37.8475L38.635 36.9566C38.2515 36.5232 37.7219 36.2663 37.1441 36.2333C36.5628 36.1994 36.0107 36.3953 35.5804 36.7825L35.5232 36.8339V35.7276C35.5232 33.6503 33.8331 31.9603 31.7558 31.9603C29.6786 31.9603 27.9886 33.6503 27.9886 35.7276V36.7754C27.9886 38.8203 29.6521 40.5101 31.697 40.5423L33.2113 40.566V55.596L17.3173 64.154C16.8928 64.3825 16.5527 64.1781 16.426 64.0796C16.2995 63.9811 16.0174 63.7015 16.1343 63.2342L21.0276 43.6603C21.2335 42.8373 21.0926 41.9534 20.6413 41.2351L16.3003 34.3248C15.9607 33.7842 15.2471 33.6215 14.7065 33.9609C14.1658 34.3006 14.0029 35.0141 14.3426 35.5548L18.6837 42.4651C18.8017 42.653 18.8386 42.884 18.7846 43.0994L13.8913 62.6734C13.5863 63.8942 14.0137 65.1323 15.0069 65.9047C15.5751 66.3465 16.2449 66.5712 16.9217 66.5712C17.4285 66.5712 17.9392 66.4451 18.4135 66.1897L25.5596 62.3417V65.9374H25.4053C24.7667 65.9374 24.2493 66.455 24.2493 67.0934C24.2493 67.7318 24.7667 68.2494 25.4053 68.2494H25.7241C26.3083 70.6992 28.3996 72.5706 30.9607 72.8226L33.4163 76.4819C34.4743 78.0586 36.2395 78.9997 38.1383 78.9997H40.8624C42.7611 78.9997 44.5264 78.0586 45.5844 76.4819L48.0538 72.8023C50.5378 72.4866 52.5511 70.6453 53.1225 68.2494H53.8172C54.4557 68.2494 54.9732 67.7318 54.9732 67.0934C54.9732 66.455 54.4557 65.9374 53.8172 65.9374H53.2869V62.2586L60.5872 66.1896C61.695 66.7862 63.0005 66.6769 63.9938 65.9046C64.987 65.1322 65.4146 63.894 65.1094 62.6733L60.2156 43.0994ZM45.6354 35.7274C45.6354 34.925 46.2881 34.2722 47.0907 34.2722C47.8931 34.2722 48.5459 34.925 48.5459 35.7274V36.7752C48.5459 37.5652 47.9033 38.2179 47.1135 38.2304L45.6352 38.2535V35.7274H45.6354ZM30.3003 36.7754V35.7276C30.3003 34.9251 30.9531 34.2724 31.7555 34.2724C32.5581 34.2724 33.2109 34.9251 33.2109 35.7276V38.2538L31.7327 38.2307C30.9428 38.2181 30.3003 37.5653 30.3003 36.7754ZM27.8716 61.0969L31.3577 59.2199H47.6428L50.9748 61.014V61.4228H27.8716V61.0969ZM39.1119 55.0445C39.3552 54.9135 39.6454 54.9137 39.8886 55.0445L43.3491 56.9079H35.6516L39.1119 55.0445ZM43.6645 75.1938C43.0367 76.1294 41.989 76.688 40.8623 76.688H38.1381C37.0114 76.688 35.9639 76.1294 35.3359 75.1938L33.7647 72.8522H45.2357L43.6645 75.1938ZM47.7684 65.9375C47.1299 65.9375 46.6124 66.4551 46.6124 67.0936C46.6124 67.732 47.1299 68.2496 47.7684 68.2496H50.7015C50.152 69.5918 48.8321 70.5402 47.2943 70.5402H31.5521C30.0143 70.5402 28.6946 69.5918 28.1449 68.2496H42.8418C43.4804 68.2496 43.9978 67.732 43.9978 67.0936C43.9978 66.4551 43.4804 65.9375 42.8418 65.9375H27.8716V63.7346H50.9748V65.9375H47.7684Z" fill="#216AB1"/>
<path d="M54.4675 9.72384C54.6161 9.78765 54.7707 9.81771 54.9227 9.81771C55.371 9.81771 55.7977 9.55537 55.9856 9.11717L57.8042 4.87846C58.0559 4.29182 57.7843 3.61208 57.1975 3.36023C56.6106 3.10837 55.931 3.38011 55.6793 3.9669L53.8607 8.20561C53.6091 8.79225 53.8807 9.47214 54.4675 9.72384Z" fill="#216AB1"/>
<path d="M59.6694 13.7533C59.9091 13.7533 60.1507 13.679 60.3579 13.5252L63.89 10.9014C64.4025 10.5206 64.5094 9.79652 64.1286 9.28402C63.7479 8.77152 63.0237 8.66486 62.5113 9.04542L58.9792 11.6693C58.4667 12.05 58.3598 12.7741 58.7406 13.2866C58.9673 13.5921 59.3161 13.7533 59.6694 13.7533Z" fill="#216AB1"/>
<path d="M23.0147 9.11722C23.2027 9.55542 23.6292 9.81776 24.0776 9.81776C24.2296 9.81776 24.3842 9.78755 24.5328 9.72389C25.1196 9.47219 25.391 8.79246 25.1395 8.20567L23.3208 3.96696C23.069 3.38017 22.3894 3.10858 21.8026 3.36028C21.2158 3.61199 20.9444 4.29172 21.1959 4.87851L23.0147 9.11722Z" fill="#216AB1"/>
<path d="M15.1103 10.9014L18.6424 13.5253C18.8496 13.6792 19.0913 13.7534 19.3309 13.7534C19.6842 13.7534 20.033 13.592 20.2597 13.2867C20.6405 12.7742 20.5336 12.05 20.0211 11.6693L16.489 9.04549C15.9765 8.66477 15.2524 8.77159 14.8717 9.28409C14.4909 9.79658 14.5978 10.5207 15.1103 10.9014Z" fill="#216AB1"/>
<path d="M72.4906 43.3674H68.8521C68.2135 43.3674 67.696 43.885 67.696 44.5234C67.696 45.1619 68.2135 45.6794 68.8521 45.6794H72.4906C73.1292 45.6794 73.6466 45.1619 73.6466 44.5234C73.6466 43.885 73.1292 43.3674 72.4906 43.3674Z" fill="#216AB1"/>
<path d="M71.9986 52.4498L68.4689 50.1763C67.9323 49.8305 67.2167 49.9853 66.8709 50.5221C66.5254 51.0588 66.6803 51.7743 67.2168 52.1199L70.7465 54.3934C70.9403 54.5182 71.157 54.5777 71.3715 54.5777C71.7513 54.5777 72.1236 54.3906 72.3446 54.0475C72.69 53.5108 72.5351 52.7955 71.9986 52.4498Z" fill="#216AB1"/>
<path d="M10.148 45.6794C10.7866 45.6794 11.3041 45.1619 11.3041 44.5234C11.3041 43.885 10.7866 43.3674 10.148 43.3674H6.50953C5.87095 43.3674 5.35352 43.885 5.35352 44.5234C5.35352 45.1619 5.87095 45.6794 6.50953 45.6794H10.148Z" fill="#216AB1"/>
<path d="M10.5314 50.1765L7.00173 52.45C6.46519 52.7957 6.31029 53.511 6.65586 54.0477C6.87704 54.3908 7.24897 54.5779 7.62891 54.5779C7.84331 54.5779 8.06018 54.5183 8.25393 54.3936L11.7836 52.1201C12.3202 51.7744 12.4751 51.059 12.1295 50.5223C11.7835 49.9857 11.0686 49.8307 10.5314 50.1765Z" fill="#216AB1"/>
</svg>
