<svg width="68" height="68" viewBox="0 0 68 68" fill="none" xmlns="http://www.w3.org/2000/svg">
<path d="M68 20.5804V17.2656C68 17.0995 67.9688 16.9347 67.908 16.7799L65.0777 9.57658V4.51562C65.0777 2.02566 63.0521 0 60.5621 0H7.4371C4.94713 0 2.92148 2.02566 2.92148 4.51562V9.57658L0.0919062 16.7801C0.0312109 16.9348 0 17.0995 0 17.2656V20.5804C0 22.8467 1.13262 24.7653 2.92148 25.8887V57.9062H1.32812C0.594602 57.9062 0 58.5009 0 59.2344V66.6719C0 67.4054 0.594602 68 1.32812 68H66.6719C67.4054 68 68 67.4054 68 66.6719V59.2344C68 58.5009 67.4054 57.9062 66.6719 57.9062H65.0777V25.8893C66.8671 24.7659 68 22.8471 68 20.5804ZM61.2266 24.2991C58.841 24.2991 57.1094 22.7352 57.1094 20.5804V18.5938H65.3438V20.5804C65.3438 22.7352 63.6121 24.2991 61.2266 24.2991ZM54.4531 20.5804C54.4531 22.7351 52.7215 24.2991 50.3359 24.2991C47.9504 24.2991 46.2188 22.7351 46.2188 20.5804V18.5938H54.4531V20.5804ZM43.5625 20.5804C43.5625 22.7351 41.8309 24.2991 39.4453 24.2991C37.0597 24.2991 35.3281 22.7351 35.3281 20.5804V18.5938H43.5625V20.5804ZM32.6719 20.5804C32.6719 22.7351 30.9403 24.2991 28.5547 24.2991C26.1691 24.2991 24.4375 22.7351 24.4375 20.5804V18.5938H32.6719V20.5804ZM21.7812 20.5804C21.7812 22.7351 20.0496 24.2991 17.6641 24.2991C15.2785 24.2991 13.5469 22.7351 13.5469 20.5804V18.5938H21.7812V20.5804ZM7.4371 2.65625H60.5621C61.5874 2.65625 62.4215 3.49031 62.4215 4.51562V8.5H39.9762C39.2426 8.5 38.648 9.0946 38.648 9.82812C38.648 10.5616 39.2426 11.1562 39.9762 11.1562H62.8445L64.7231 15.9375H3.27675L5.15485 11.1562H28.023C28.7566 11.1562 29.3512 10.5616 29.3512 9.82812C29.3512 9.0946 28.7566 8.5 28.023 8.5H5.57773V4.51562C5.57773 3.49031 6.41179 2.65625 7.4371 2.65625ZM2.65625 18.5938H10.8906V20.5804C10.8906 22.7351 9.15902 24.2991 6.77344 24.2991C4.38786 24.2991 2.65625 22.7352 2.65625 20.5804V18.5938ZM2.65625 60.5625H37.5931L40.3536 65.3438H2.65625V60.5625ZM44.2559 53.3056L48.8531 61.2684L43.014 64.6396L38.4167 56.6768C38.2406 56.3717 37.9505 56.1491 37.6102 56.058C37.4971 56.0278 37.3815 56.0127 37.2665 56.0127C37.0353 56.0127 36.8061 56.0732 36.6025 56.1907L35.3276 56.9268V43.2985L47.13 50.1127L44.742 51.4914C44.1069 51.8581 43.8891 52.6704 44.2559 53.3056ZM65.3438 65.3438H47.1067L51.3314 62.9046C51.9666 62.538 52.1843 61.7257 51.8175 61.0904L51.5128 60.5625H65.3438V65.3438ZM62.4215 57.9062H49.9792L47.2203 53.1277L50.4504 51.2627C50.8613 51.0255 51.1145 50.5871 51.1145 50.1125C51.1145 49.638 50.8613 49.1996 50.4504 48.9624L34.6637 39.8479C34.2527 39.6107 33.7466 39.6107 33.3355 39.8479C32.9246 40.0851 32.6715 40.5235 32.6715 40.998V57.9062H5.57773V26.8629C5.96421 26.9226 6.36305 26.9554 6.77344 26.9554C9.05529 26.9554 11.005 25.998 12.2188 24.4651C13.4325 25.998 15.3822 26.9554 17.6641 26.9554C19.9459 26.9554 21.8956 25.9979 23.1094 24.4651C24.3231 25.998 26.2728 26.9554 28.5547 26.9554C30.8365 26.9554 32.7862 25.9979 34 24.4651C35.2138 25.998 37.1635 26.9554 39.4453 26.9554C41.7272 26.9554 43.6769 25.9979 44.8906 24.4651C46.1044 25.998 48.0541 26.9554 50.3359 26.9554C52.6178 26.9554 54.5675 25.9979 55.7812 24.4651C56.995 25.9979 58.9447 26.9554 61.2266 26.9554C61.6367 26.9554 62.0351 26.9227 62.4215 26.8631V57.9062Z" fill="#216AB1"/>
<path d="M25.5081 31.1363C24.9894 30.6177 24.1485 30.6177 23.6297 31.1363C23.1111 31.6549 23.1111 32.4959 23.6297 33.0147L28.1896 37.5745C28.4489 37.8339 28.7888 37.9635 29.1287 37.9635C29.4685 37.9635 29.8085 37.8339 30.0678 37.5745C30.5864 37.0559 30.5864 36.2149 30.0678 35.6961L25.5081 31.1363Z" fill="#216AB1"/>
<path d="M34 29.4177C33.2665 29.4177 32.6719 30.0123 32.6719 30.7458V34.5257C32.6719 35.2592 33.2665 35.8538 34 35.8538C34.7335 35.8538 35.3281 35.2592 35.3281 34.5257V30.7458C35.3281 30.0123 34.7335 29.4177 34 29.4177Z" fill="#216AB1"/>
<path d="M26.2671 40.1791H22.0469C21.3134 40.1791 20.7188 40.7737 20.7188 41.5072C20.7188 42.2407 21.3134 42.8353 22.0469 42.8353H26.2671C27.0006 42.8353 27.5952 42.2407 27.5952 41.5072C27.5952 40.7737 27.0006 40.1791 26.2671 40.1791Z" fill="#216AB1"/>
<path d="M34 11.1562C34.3493 11.1562 34.692 11.0141 34.939 10.7671C35.186 10.5201 35.3281 10.1774 35.3281 9.82812C35.3281 9.47883 35.186 9.13617 34.939 8.88914C34.692 8.64211 34.3493 8.5 34 8.5C33.6507 8.5 33.308 8.64211 33.061 8.88914C32.8127 9.13617 32.6719 9.47883 32.6719 9.82812C32.6719 10.1774 32.8127 10.5201 33.061 10.7671C33.308 11.0141 33.6507 11.1562 34 11.1562Z" fill="#216AB1"/>
</svg>
