<svg width="28" height="28" viewBox="0 0 28 28" fill="none" xmlns="http://www.w3.org/2000/svg">
<path fill-rule="evenodd" clip-rule="evenodd" d="M0 0V27.8883H27.8883V0H0ZM20.9069 15.4291C21.5471 16.0537 22.2241 16.6417 22.7987 17.3322C23.0526 17.6373 23.2927 17.952 23.4757 18.3056C23.7356 18.8121 23.5001 19.367 23.0476 19.3976L20.2358 19.3964C19.51 19.456 18.9317 19.1634 18.4439 18.6669C18.056 18.2715 17.6935 17.8484 17.319 17.4396C17.1667 17.2713 17.0055 17.1139 16.8141 16.9884C16.4299 16.7395 16.0967 16.815 15.8772 17.2151C15.6539 17.6226 15.6014 18.0751 15.5808 18.5289C15.5503 19.1913 15.3504 19.3646 14.6855 19.3964C13.263 19.4623 11.914 19.2462 10.6611 18.5301C9.55464 17.8984 8.69838 17.0052 7.95294 15.9953C6.50017 14.0263 5.38752 11.8647 4.38851 9.64088C4.16271 9.13969 4.32765 8.87111 4.87879 8.86142C5.79757 8.84328 6.71599 8.84549 7.63348 8.8602C8.00669 8.86645 8.25432 9.07975 8.39707 9.43231C8.8936 10.6524 9.50095 11.8135 10.2633 12.8909C10.4672 13.1775 10.6746 13.463 10.9684 13.6654C11.2941 13.8899 11.543 13.8165 11.6966 13.4518C11.7944 13.2201 11.8372 12.9737 11.8578 12.726C11.9308 11.8781 11.9396 11.0294 11.8138 10.184C11.7357 9.65559 11.4369 9.31395 10.91 9.21404C10.6414 9.1628 10.6817 9.06412 10.811 8.91015C11.0381 8.64567 11.2517 8.48073 11.6748 8.48073H14.8527C15.3539 8.57849 15.4663 8.80424 15.5344 9.308L15.5369 12.8396C15.5309 13.0348 15.6347 13.6128 15.9847 13.7409C16.2651 13.8336 16.4519 13.6078 16.6202 13.4298C17.3813 12.6222 17.9243 11.6673 18.4096 10.6792C18.6244 10.2448 18.8099 9.79356 18.9904 9.34196C19.1234 9.00779 19.3308 8.84322 19.7078 8.84916L22.7673 8.8529C22.8575 8.8529 22.9503 8.8529 23.0393 8.86755C23.5539 8.95655 23.6954 9.17861 23.5355 9.68232C23.2857 10.4715 22.7963 11.1304 22.3194 11.7902C21.8082 12.4966 21.2642 13.1783 20.7568 13.8885C20.2933 14.5387 20.3298 14.8657 20.9069 15.4291Z" fill="#216AB1"/>
</svg>
