<svg width="29" height="28" viewBox="0 0 29 28" fill="none" xmlns="http://www.w3.org/2000/svg">
<g clip-path="url(#clip0)">
<path d="M13.087 20.7116C13.087 20.7461 13.087 20.7891 13.068 20.813C12.9389 20.9795 12.7853 21.1184 12.5838 21.1921C12.4087 21.256 12.2692 21.178 12.2324 20.9961C12.2176 20.9242 12.217 20.8487 12.217 20.7749C12.2164 19.4202 12.2127 16.6425 12.2109 16.6087H11.2112C11.2112 16.6462 11.21 20.5157 11.2125 21.2468C11.2131 21.4446 11.234 21.6412 11.3163 21.8249C11.4048 22.024 11.5516 22.15 11.7703 22.1862C11.9307 22.2138 12.0874 22.196 12.2397 22.1438C12.5519 22.0363 12.7964 21.8335 13.012 21.5902C13.0311 21.5687 13.0514 21.5478 13.0876 21.5091V22.1162H14.0897V19.4601C14.0897 18.5398 14.0897 16.6001 14.0897 16.6001L13.087 16.6026V20.7116Z" fill="#F43232"/>
<path d="M17.8247 17.0393C17.6134 16.589 17.1692 16.4698 16.784 16.5662C16.5505 16.6252 16.3612 16.7598 16.2058 16.9336C16.1542 16.992 16.0977 17.1051 16.0977 17.1051C16.0977 17.1051 16.0977 15.4419 16.0977 14.6469H15.0938V22.1149H16.0977V21.6958C16.0977 21.6958 16.1689 21.7714 16.1947 21.7991C16.4251 22.0491 16.7047 22.1861 17.0494 22.1892C17.4733 22.1935 17.7682 21.9883 17.9022 21.5852C17.9642 21.3979 17.9845 21.2049 17.9851 21.0096C17.9863 19.9657 17.9863 18.9218 17.9845 17.878C17.9845 17.5892 17.9495 17.3054 17.8247 17.0393ZM16.9511 20.8849C16.9511 20.9408 16.9443 20.9973 16.9326 21.052C16.8866 21.2707 16.7201 21.369 16.4841 21.3205C16.341 21.291 16.2292 21.2087 16.1333 21.1048C16.129 21.0999 16.1007 21.0618 16.1007 21.0618V20.9801L16.0983 17.6642C16.0983 17.6642 16.1198 17.6028 16.1671 17.5616C16.2851 17.4572 16.4153 17.3914 16.5781 17.4074C16.717 17.4209 16.8276 17.4848 16.8792 17.6132C16.9179 17.7109 16.9486 17.8197 16.9492 17.9241C16.9541 18.9108 16.9523 19.8975 16.9511 20.8849Z" fill="#F43232"/>
<path d="M14.2136 10.5301C14.4476 10.5301 14.638 10.3397 14.638 10.1057V7.1104C14.638 6.87632 14.4476 6.68591 14.2136 6.68591C13.9795 6.68591 13.7891 6.87638 13.7891 7.1104V10.1057C13.789 10.3397 13.9795 10.5301 14.2136 10.5301Z" fill="#F43232"/>
<path d="M11.2119 14.6475H7.73438V15.7177H8.90603V22.1155H10.0377V15.7152H11.2119V14.6475Z" fill="#F43232"/>
<path d="M20.6917 20.1574V20.8658C20.6917 21.1135 20.4914 21.3137 20.2445 21.3137C19.9968 21.3137 19.7966 21.1135 19.7966 20.8658V19.4878H21.719C21.719 19.4878 21.7301 18.5262 21.7221 18.09C21.719 17.9038 21.7049 17.7152 21.6668 17.5334C21.5673 17.0615 21.3135 16.7058 20.8386 16.5497C20.6991 16.5036 20.5492 16.4797 20.4024 16.4704C19.9139 16.4391 19.4863 16.5786 19.1521 16.9528C18.859 17.2802 18.757 17.6747 18.7564 18.1023C18.7545 18.9201 18.7508 19.7384 18.7588 20.5562C18.7613 20.7645 18.7846 20.9771 18.8319 21.1798C18.9339 21.6154 19.1717 21.9576 19.5913 22.1469C19.8979 22.2857 20.2217 22.2925 20.5486 22.2446C21.0757 22.1671 21.4352 21.8845 21.609 21.3752C21.7399 20.9936 21.7245 20.1574 21.7245 20.1574H20.6917ZM19.7966 17.8597C19.7966 17.6127 19.9968 17.4118 20.2445 17.4118C20.4914 17.4118 20.6917 17.6127 20.6917 17.8597V18.6332H19.7966V17.8597Z" fill="#F43232"/>
<path d="M0.773438 0V28H28.7734V0H0.773438ZM16.5472 5.83616H17.5668V10.0645C17.5668 10.1205 17.5713 10.1772 17.5811 10.2321C17.612 10.4064 17.7409 10.4884 17.9087 10.4302C18.1132 10.3594 18.2693 10.2178 18.4017 10.0509C18.4205 10.0271 18.417 9.98261 18.417 9.94765V5.83616H19.4441L19.4438 11.3807H18.4165L18.4177 10.7851C18.3041 10.897 18.2072 11.0015 18.1006 11.0953C17.9118 11.2617 17.6978 11.3858 17.4476 11.4347C17.0634 11.5098 16.7362 11.3884 16.6137 10.9905C16.5729 10.858 16.5482 10.7152 16.5472 10.5768V5.83616ZM14.2136 5.69737C15.026 5.69737 15.6847 6.356 15.6847 7.16848V10.0475C15.6847 10.86 15.026 11.5186 14.2136 11.5186C13.4011 11.5186 12.7425 10.86 12.7425 10.0475V7.16848C12.7424 6.356 13.401 5.69737 14.2136 5.69737ZM10.2562 3.87501C10.2562 3.87501 10.7235 5.85957 10.9465 6.79966H10.9469C11.1699 5.85957 11.6372 3.87501 11.6372 3.87501H12.8063C12.8063 3.87501 11.908 6.85403 11.5063 8.18261C11.4918 8.23059 11.4853 8.28282 11.4853 8.33314L11.4858 11.3796H10.4077L10.4081 8.33314C10.4081 8.28282 10.4015 8.23065 10.387 8.18261C9.98535 6.85403 9.0871 3.87501 9.0871 3.87501H10.2562ZM23.1116 21.5571C23.1116 22.9198 22.0229 24.0331 20.6608 24.062C16.7367 24.1461 12.8107 24.1461 8.88588 24.062C7.52438 24.0331 6.43566 22.9198 6.43566 21.5571V15.4278C6.43566 14.0657 7.52438 12.9524 8.88588 12.9235C12.8107 12.8394 16.7367 12.8394 20.6608 12.9235C22.0229 12.9524 23.1116 14.0657 23.1116 15.4278V21.5571Z" fill="#F43232"/>
</g>
<defs>
<clipPath id="clip0">
<rect width="28" height="28" fill="white" transform="translate(0.773438)"/>
</clipPath>
</defs>
</svg>
