<?xml version="1.0" encoding="utf-8"?><svg width="15" height="15" fill="none" xmlns="http://www.w3.org/2000/svg" viewBox="0 0 15 15"><path d="M12.803 2.197A7.451 7.451 0 007.5 0C5.497 0 3.613.78 2.197 2.197A7.451 7.451 0 000 7.5c0 2.003.78 3.887 2.197 5.303A7.45 7.45 0 007.5 15a7.45 7.45 0 005.303-2.197A7.45 7.45 0 0015 7.5a7.45 7.45 0 00-2.197-5.303zM7.5 14.12A6.629 6.629 0 01.879 7.5C.879 3.85 3.849.879 7.5.879c3.65 0 6.621 2.97 6.621 6.621 0 3.65-2.97 6.621-6.621 6.621z" fill="#F43232"/><path d="M6.182 9.258h2.636V2.27H6.182v6.987zm.879-6.109h.878v5.23h-.878v-5.23zM6.182 12.788h2.636v-2.637H6.182v2.637zm.879-1.758h.878v.88h-.878v-.88z" fill="#F43232"/></svg>