<?xml version="1.0" encoding="utf-8"?><svg width="14" height="15" fill="none" xmlns="http://www.w3.org/2000/svg" viewBox="0 0 14 15"><g clip-path="url(#afclip0)"><path d="M1.11 8.542l6.23 6.23a.76.76 0 00.542.224.76.76 0 00.542-.224l.459-.459a.767.767 0 000-1.083L3.65 8 8.89 2.76a.76.76 0 00.223-.541.761.761 0 00-.223-.542l-.46-.459a.76.76 0 00-.54-.223.76.76 0 00-.542.223L1.11 7.455a.761.761 0 00-.224.543c0 .206.08.4.224.544z" fill="#000"/></g><defs><clipPath id="afclip0"><path fill="#fff" transform="rotate(-180 7 7.498)" d="M0 0h14v14H0z"/></clipPath></defs></svg>