<?xml version="1.0" encoding="utf-8"?><svg width="14" height="15" fill="none" xmlns="http://www.w3.org/2000/svg" viewBox="0 0 14 15"><g clip-path="url(#ahclip0)"><path d="M12.89 8.542l-6.23 6.23a.76.76 0 01-.542.224.76.76 0 01-.542-.224l-.459-.459a.767.767 0 010-1.083L10.35 8 5.11 2.76a.76.76 0 01-.223-.541c0-.206.08-.398.223-.542l.46-.459a.76.76 0 01.54-.223.76.76 0 01.542.223l6.236 6.236a.762.762 0 01.224.543c0 .206-.08.4-.224.544z" fill="#000"/></g><defs><clipPath id="ahclip0"><path fill="#fff" transform="matrix(1 0 0 -1 0 14.996)" d="M0 0h14v14H0z"/></clipPath></defs></svg>