<?xml version="1.0" encoding="utf-8"?><svg width="660" height="436" fill="none" xmlns="http://www.w3.org/2000/svg" viewBox="0 0 660 436"><path opacity=".7" d="M625.998 347.423c43.011-42.236 39.357-87.835 13.63-136.959-19.19-36.642 13.239-78.753-39.294-132.196-38.47-39.135-128.717-60.438-207.187-32.216-39.237 14.111-170.365-110.341-289.356 0-68.186 63.231-75.271 138.043-61.868 161.04 24.417 41.893-63.03 64.893-10.276 140.331h594.351z" fill="#CFEEFF"/><path opacity=".7" d="M68.24 326c-41.054 13.373-37.567 27.81-13.01 43.364 18.316 11.601-12.637 24.934 37.506 41.855 36.718 12.391 122.859 19.136 197.758 10.2 37.452-4.468 162.613 34.936 276.188 0 65.084-20.02 71.847-43.707 59.054-50.988-23.307-13.264 60.161-20.546 9.808-44.431H68.239z" fill="#CFEEFF"/><path opacity=".8" d="M471.746 62.704c.871-2.79 4.269-4.87 8.328-4.87.745 0 1.469.071 2.158.201 2.004-3.15 6.353-5.332 11.394-5.332 1.304 0 2.561.147 3.745.417 2.715-3.304 7.646-5.514 13.281-5.514 6.703 0 12.414 3.128 14.576 7.506 1.532-.627 3.295-.987 5.172-.987 5.876 0 10.639 3.501 10.639 7.82 0 .256-.019.51-.051.76h-69.242zM595.625 221.547c.917-2.937 4.491-5.126 8.765-5.126.785 0 1.544.073 2.271.213 2.109-3.314 6.684-5.612 11.992-5.612 1.373 0 2.695.153 3.94.438 2.856-3.479 8.047-5.804 13.978-5.804.283 0 .567.006.848.017a53.585 53.585 0 002.21 4.789 233.777 233.777 0 015.446 11.085h-49.45z" fill="#F0FBFF"/><path d="M2.701 345.758H657.3c1.492 0 2.701-.258 2.701-.577 0-.319-1.209-.578-2.701-.578H2.701c-1.492 0-2.701.259-2.701.578 0 .319 1.209.577 2.701.577z" fill="#000"/><path d="M271.549 336.764h332.174V105.725H271.549v231.039z" fill="#ACE2FF"/><path d="M271.549 110.463h332.177v29.989c-1.962-.65-3.389-2.476-3.389-4.654v2.082c0 5.439-4.414 9.85-9.861 9.85h-.619c-5.444 0-9.86-4.409-9.86-9.85v-2.082a4.929 4.929 0 01-4.93 4.925h-.309a4.929 4.929 0 01-4.93-4.925v2.082c0 5.439-4.414 9.85-9.86 9.85h-.619c-5.444 0-9.86-4.409-9.86-9.85v-2.082a4.929 4.929 0 01-4.931 4.925h-.308a4.929 4.929 0 01-4.93-4.925v2.082c0 5.439-4.414 9.85-9.86 9.85h-.62c-5.444 0-9.86-4.409-9.86-9.85v-2.082a4.929 4.929 0 01-4.93 4.925h-.308a4.929 4.929 0 01-4.931-4.925v2.082c0 5.439-4.413 9.85-9.86 9.85h-.619c-5.444 0-9.86-4.409-9.86-9.85v-2.082a4.929 4.929 0 01-4.93 4.925h-.309a4.929 4.929 0 01-4.93-4.925v2.082c0 5.439-4.414 9.85-9.86 9.85h-.619c-5.445 0-9.861-4.409-9.861-9.85v-2.082a4.929 4.929 0 01-4.93 4.925h-.308a4.929 4.929 0 01-4.93-4.925v2.082c0 5.439-4.414 9.85-9.861 9.85h-.619c-5.444 0-9.86-4.409-9.86-9.85v-.803c-1.308 1.943-3.283 3.644-4.93 3.644h-.309a4.929 4.929 0 01-4.93-4.925v2.082c0 5.438-4.414 9.85-9.86 9.85h-.619c-5.444 0-9.86-4.409-9.86-9.85v-2.082a4.929 4.929 0 01-4.93 4.925h-.309a4.929 4.929 0 01-4.93-4.925v2.082c0 5.438-4.414 9.85-9.86 9.85h-.62c-5.444 0-9.86-4.409-9.86-9.85v-2.082a4.929 4.929 0 01-4.93 4.925h-.308a4.929 4.929 0 01-4.931-4.925v2.082c0 5.438-4.413 9.85-9.86 9.85h-.619c-5.444 0-9.86-4.409-9.86-9.85v-2.082a4.929 4.929 0 01-4.93 4.925h-.309a4.929 4.929 0 01-4.93-4.925v2.082c0 5.438-4.414 9.85-9.86 9.85h-.619c-5.445 0-9.861-4.409-9.861-9.85v-2.082a4.929 4.929 0 01-4.93 4.925h-.308a4.929 4.929 0 01-4.93-4.925v2.082c0 5.438-4.414 9.85-9.861 9.85h-.619c-5.446 0-9.86-4.409-9.86-9.85v-2.082c0 2.178-1.425 4.006-3.39 4.654v-29.987h.026z" fill="#63BAE8"/><path d="M501.037 341.219h83.936V169.947h-83.936v171.272z" fill="#145A9E"/><path d="M579.613 335.869V175.301h-73.221v160.568h73.221z" fill="#9FDEFF"/><path d="M561.128 216.811h-36.249a1.21 1.21 0 01-1.211-1.21v-9.356c0-.669.541-1.21 1.211-1.21h36.249a1.21 1.21 0 011.211 1.21v7.259c0 .667-.544 3.307-1.211 3.307z" fill="#fff"/><path d="M527.027 210.919c0-5.617 8.343-5.617 8.343 0 0 5.627-8.343 5.627-8.343 0zm6.215 0c0-2.925-4.078-2.925-4.078 0a2.046 2.046 0 004.078 0zM536.941 214.97v-8.125h3.579c3.891.01 3.891 6.047 0 6.047h-1.501v2.078h-2.078zm3.568-6.269c-.487-.011-1.009 0-1.488 0v2.321h1.488c1.138 0 1.209-2.311 0-2.321zM550.087 208.7h-3.01v1.149h2.767v1.846h-2.767v1.427h3.113v1.846h-5.182v-8.125h5.077c.002.604.002 1.231.002 1.857zM554.134 210.975v3.995h-2.15v-8.161h.756l4.114 4.018v-3.982h2.126v8.137h-.743l-4.103-4.007z" fill="#ACE2FF"/><path d="M511.366 280.377h2.607v-45.905h-2.607v45.905z" fill="#145A9E"/><path d="M483.573 167.674H286.348v115.317h197.225V167.674z" fill="#fff"/><path d="M480.5 277.64V170.844H293.989V277.64H480.5z" fill="#CFEEFF"/><path d="M391.719 133.361h.309a4.928 4.928 0 004.93-4.925v-25.332h-10.169v25.332a4.928 4.928 0 004.93 4.925zM422.227 133.361h.309a4.928 4.928 0 004.93-4.925v-25.332h-10.169v25.332a4.927 4.927 0 004.93 4.925zM452.735 133.361h.308a4.928 4.928 0 004.93-4.925v-25.332h-10.168v25.332a4.927 4.927 0 004.93 4.925zM483.243 133.361h.308a4.928 4.928 0 004.93-4.925v-25.332h-10.169v25.332a4.927 4.927 0 004.931 4.925zM513.747 133.361h.308a4.928 4.928 0 004.93-4.925v-25.332h-10.169v25.332a4.926 4.926 0 004.931 4.925zM269.7 133.361h.308a4.928 4.928 0 004.93-4.925v-25.332H264.77v25.332a4.927 4.927 0 004.93 4.925zM300.204 133.361h.308a4.928 4.928 0 004.93-4.925v-25.332h-10.169v25.332a4.927 4.927 0 004.931 4.925zM330.711 133.361h.309a4.928 4.928 0 004.93-4.925v-25.332h-10.169v25.332a4.927 4.927 0 004.93 4.925zM361.219 133.361h.309a4.928 4.928 0 004.93-4.925v-25.332h-10.169v25.332a4.927 4.927 0 004.93 4.925zM544.254 133.361h.309a4.928 4.928 0 004.93-4.925v-25.332h-10.169v25.332a4.927 4.927 0 004.93 4.925zM574.758 133.361h.309a4.928 4.928 0 004.93-4.925v-25.332h-10.169v25.332a4.927 4.927 0 004.93 4.925zM605.262 133.361h.309a4.928 4.928 0 004.93-4.925v-25.332h-10.169v25.332a4.927 4.927 0 004.93 4.925z" fill="#fff"/><path d="M406.819 140.369h.619c5.445 0 9.86-4.41 9.86-9.851v-27.414h-20.337v27.416c0 5.439 4.414 9.849 9.858 9.849zM437.323 140.369h.619c5.445 0 9.86-4.41 9.86-9.851v-27.414h-20.337v27.416c-.002 5.439 4.414 9.849 9.858 9.849zM467.831 140.369h.619c5.444 0 9.86-4.41 9.86-9.851v-27.414h-20.337v27.416c-.002 5.439 4.411 9.849 9.858 9.849zM498.339 140.369h.619c5.444 0 9.86-4.41 9.86-9.851v-27.414H488.48v27.416c-.002 5.439 4.412 9.849 9.859 9.849zM528.843 140.369h.619c5.444 0 9.86-4.41 9.86-9.851v-27.414h-20.338v27.416c0 5.439 4.414 9.849 9.859 9.849zM284.796 140.369h.619c5.444 0 9.86-4.41 9.86-9.851v-27.414h-20.337v27.416c0 5.439 4.413 9.849 9.858 9.849zM315.3 140.369h.619c5.444 0 9.86-4.41 9.86-9.851v-27.414h-20.338v27.416c-.002 5.439 4.414 9.849 9.859 9.849zM345.807 140.369h.62c5.444 0 9.86-4.41 9.86-9.851v-27.414h-20.338v27.416c-.002 5.439 4.412 9.849 9.858 9.849zM376.311 140.369h.619c5.445 0 9.861-4.41 9.861-9.851v-27.414h-20.338v27.416c0 5.439 4.414 9.849 9.858 9.849zM559.35 140.369h.619c5.445 0 9.861-4.41 9.861-9.851v-27.414h-20.338v27.416c-.002 5.439 4.414 9.849 9.858 9.849zM589.854 140.369h.619c5.445 0 9.861-4.41 9.861-9.851v-27.414h-20.338v27.416c-.002 5.439 4.412 9.849 9.858 9.849zM262.626 345.754h350.2v-8.99H262.445l.181 8.99z" fill="#145A9E"/><path opacity=".2" d="M290.984 273.57h100.258v-32.042H290.984v32.042zM290.984 203.697h100.258v-32.042H290.984v32.042zM290.984 238.57h100.258v-32.042H290.984v32.042z" fill="#3CB4C5"/><g opacity=".5"><path opacity=".5" d="M317.399 237.824h23.71v-12.035h-23.71v12.035z" fill="#96D9C9"/><path opacity=".5" d="M321.588 225.787c3.431 2.954 9.509 8.187 13.976 12.035h-18.166v-12.035h4.19z" fill="#50BFA5"/><path opacity=".5" d="M327.747 228.026h11.894v-.694h-11.894v.694zM331.014 230.069h8.631v-.694h-8.631v.694z" fill="#fff"/></g><g opacity=".5"><path opacity=".5" d="M317.399 225.975h23.71v-12.036h-23.71v12.036z" fill="#96D9C9"/><path opacity=".5" d="M321.588 213.938l13.976 12.035h-18.166v-12.035h4.19z" fill="#50BFA5"/><path opacity=".5" d="M327.747 216.176h11.894v-.694h-11.894v.694zM331.014 218.221h8.631v-.694h-8.631v.694z" fill="#fff"/></g><g opacity=".5"><path opacity=".5" d="M305.94 237.823h6.97v-18.747h-6.97v18.747z" fill="#8CD2F7"/><path opacity=".5" d="M306.568 221.565h5.713v-.497h-5.713v.497zM306.568 223.39h5.713v-.497h-5.713v.497z" fill="#EAFCFC"/><g opacity=".5" fill="#50BFA5"><path opacity=".5" d="M312.908 237.402v.422h-6.97v-5.796l6.97 5.374zM305.938 228.37v-3.208l6.97 6.554v2.791a1845.285 1845.285 0 01-6.97-6.137z"/></g></g><g opacity=".5"><path opacity=".5" d="M296.221 237.823h6.97v-18.747h-6.97v18.747z" fill="#8CD2F7"/><path opacity=".5" d="M296.853 221.565h5.713v-.497h-5.713v.497zM296.853 223.39h5.713v-.497h-5.713v.497z" fill="#EAFCFC"/><g opacity=".5" fill="#50BFA5"><path opacity=".5" d="M303.193 237.402v.422h-6.97v-5.796l6.97 5.374zM296.223 228.37v-3.208l6.97 6.554v2.791a1928.02 1928.02 0 01-6.97-6.137z"/></g></g><g opacity=".5"><path opacity=".5" d="M305.94 202.836h6.97v-18.747h-6.97v18.747z" fill="#96D9C9"/><path opacity=".5" d="M306.568 186.578h5.713v-.497h-5.713v.497zM306.568 188.401h5.713v-.497h-5.713v.497z" fill="#EAFCFC"/><g opacity=".5" fill="#50BFA5"><path opacity=".5" d="M312.908 202.417v.419h-6.97v-5.795l6.97 5.376zM305.938 193.382v-3.208l6.97 6.554v2.791a1681.31 1681.31 0 01-6.97-6.137z"/></g></g><g opacity=".5"><path opacity=".5" d="M374.807 202.836h6.97v-18.747h-6.97v18.747z" fill="#96D9C9"/><path opacity=".5" d="M375.433 186.578h5.715v-.497h-5.715v.497zM375.433 188.401h5.715v-.497h-5.715v.497z" fill="#EAFCFC"/><g opacity=".5" fill="#50BFA5"><path opacity=".5" d="M381.775 202.417v.419h-6.97v-5.795l6.97 5.376zM374.805 193.382v-3.208l6.97 6.554v2.791a1672.389 1672.389 0 01-6.97-6.137z"/></g></g><g opacity=".5"><path opacity=".5" d="M296.221 202.836h6.97v-18.747h-6.97v18.747z" fill="#96D9C9"/><path opacity=".5" d="M296.853 186.578h5.713v-.497h-5.713v.497zM296.853 188.401h5.713v-.497h-5.713v.497z" fill="#EAFCFC"/><g opacity=".5" fill="#50BFA5"><path opacity=".5" d="M303.193 202.417v.419h-6.97v-5.795l6.97 5.376zM296.223 193.382v-3.208l6.97 6.554v2.791a1672.389 1672.389 0 01-6.97-6.137z"/></g></g><g opacity=".5"><path opacity=".5" d="M352.987 237.823h6.97v-18.747h-6.97v18.747z" fill="#D7D996"/><path opacity=".5" d="M353.617 221.565h5.715v-.497h-5.715v.497zM353.617 223.39h5.715v-.497h-5.715v.497z" fill="#EAFCFC"/><g opacity=".5" fill="#50BFA5"><path opacity=".5" d="M359.958 237.402v.422h-6.97v-5.796l6.97 5.374zM352.988 228.37v-3.208l6.97 6.554v2.791a2018.526 2018.526 0 01-6.97-6.137z"/></g></g><g opacity=".5"><path opacity=".5" d="M343.272 237.823h6.97v-18.747h-6.97v18.747z" fill="#216AB1"/><path opacity=".5" d="M343.902 221.565h5.715v-.497h-5.715v.497zM343.902 223.39h5.715v-.497h-5.715v.497z" fill="#EAFCFC"/><g opacity=".5" fill="#50BFA5"><path opacity=".5" d="M350.244 237.402v.422h-6.971v-5.796l6.971 5.374zM343.273 228.37v-3.208l6.971 6.554v2.791a1915.876 1915.876 0 01-6.971-6.137z"/></g></g><g opacity=".5"><path opacity=".5" d="M374.424 237.823h6.971v-18.747h-6.971v18.747z" fill="#216AB1"/><path opacity=".5" d="M375.056 221.565h5.714v-.497h-5.714v.497zM375.056 223.39h5.714v-.497h-5.714v.497z" fill="#EAFCFC"/><g opacity=".5" fill="#50BFA5"><path opacity=".5" d="M381.396 237.402v.422h-6.97v-5.796l6.97 5.374zM374.426 228.37v-3.208l6.97 6.554v2.791a1928.02 1928.02 0 01-6.97-6.137z"/></g></g><g opacity=".5"><path opacity=".5" d="M364.713 237.823h6.971v-18.747h-6.971v18.747z" fill="#96D9C9"/><path opacity=".5" d="M365.34 221.565h5.715v-.497h-5.715v.497zM365.34 223.39h5.715v-.497h-5.715v.497z" fill="#EAFCFC"/><g opacity=".5" fill="#50BFA5"><path opacity=".5" d="M371.683 237.402v.422h-6.972v-5.796l6.972 5.374zM364.711 228.37v-3.208l6.97 6.554v2.791c-1.48-1.292-4.485-3.944-6.97-6.137z"/></g></g><g opacity=".5"><path opacity=".5" d="M348.945 202.836h19.391v-19.499h-19.391v19.499z" fill="#D99696"/><path opacity=".5" d="M354.034 189.718h9.357v-3.304h-9.357v3.304z" fill="#fff"/></g><g opacity=".5"><path opacity=".5" d="M318.991 202.836h19.458v-19.499h-19.458v19.499z" fill="#D7D996"/><path opacity=".5" d="M321.734 189.718h14.184v-3.304h-14.184v3.304zM321.734 196.154h14.184v-.899h-14.184v.899z" fill="#fff"/></g><g opacity=".5"><path opacity=".5" d="M368.331 272.709h20.751v-13.346h-20.751v13.346z" fill="#96D9C9"/><path opacity=".5" d="M370.331 263.73h15.911v-2.262h-15.911v2.262zM370.331 268.136h15.911v-.614h-15.911v.614zM374.201 269.611h12.045v-.615h-12.045v.615zM371.198 271.084h15.044v-.614h-15.044v.614z" fill="#fff"/></g><g opacity=".5"><path opacity=".5" d="M368.331 259.55h20.751v-13.345h-20.751v13.345z" fill="#96D9C9"/><path opacity=".5" d="M370.331 250.57h15.911v-2.263h-15.911v2.263zM370.331 254.976h15.911v-.614h-15.911v.614zM374.201 256.45h12.045v-.615h-12.045v.615zM371.198 257.924h15.044v-.614h-15.044v.614z" fill="#fff"/></g><path d="M290.145 170.907h101.931v33.535H290.145v-33.535zm100.436 1.493h-98.942v30.549h98.942V172.4z" fill="#EAFCFC"/><path opacity=".4" d="M391.328 203.696l-35.346-32.042H332.07c.331 0 35.535 32.042 35.535 32.042h23.723zM350.153 203.696l-35.347-32.042h-13.785c.332 0 33.875 32.042 33.875 32.042h15.257z" fill="#EAFCFC"/><path d="M290.145 205.782h101.931v33.535H290.145v-33.535zm100.436 1.493h-98.942v30.549h98.942v-30.549z" fill="#EAFCFC"/><path opacity=".4" d="M391.328 238.57l-35.346-32.042H332.07c.331 0 35.535 32.042 35.535 32.042h23.723zM350.153 238.57l-35.347-32.042h-13.785c.332 0 33.875 32.042 33.875 32.042h15.257z" fill="#EAFCFC"/><path d="M290.145 240.541h101.931v33.535H290.145v-33.535zm100.436 1.493h-98.942v30.549h98.942v-30.549z" fill="#EAFCFC"/><path opacity=".4" d="M391.328 273.329l-35.346-32.042H332.07c.331 0 35.535 32.042 35.535 32.042h23.723zM350.153 273.329l-35.347-32.042h-13.785c.332 0 33.875 32.042 33.875 32.042h15.257z" fill="#EAFCFC"/><path opacity=".2" d="M391.386 273.57h100.259v-32.042H391.386v32.042zM391.386 203.697h100.259v-32.042H391.386v32.042zM391.386 238.57h100.259v-32.042H391.386v32.042z" fill="#3CB4C5"/><g opacity=".5"><path opacity=".5" d="M417.805 237.824h23.711v-12.035h-23.711v12.035z" fill="#96D9C9"/><path opacity=".5" d="M421.994 225.787c3.431 2.954 9.51 8.187 13.976 12.035h-18.165v-12.035h4.189z" fill="#50BFA5"/><path opacity=".5" d="M428.153 228.026h11.894v-.694h-11.894v.694zM431.421 230.069h8.63v-.694h-8.63v.694z" fill="#fff"/></g><g opacity=".5"><path opacity=".5" d="M417.805 225.975h23.711v-12.036h-23.711v12.036z" fill="#96D9C9"/><path opacity=".5" d="M421.994 213.938l13.976 12.035h-18.165v-12.035h4.189z" fill="#50BFA5"/><path opacity=".5" d="M428.153 216.176h11.894v-.694h-11.894v.694zM431.421 218.221h8.63v-.694h-8.63v.694z" fill="#fff"/></g><g opacity=".5"><path opacity=".5" d="M406.342 237.823h6.97l.001-18.747h-6.971v18.747z" fill="#96D9C9"/><path opacity=".5" d="M406.972 221.565h5.716v-.497h-5.716v.497zM406.972 223.39h5.716v-.497h-5.716v.497z" fill="#EAFCFC"/><g opacity=".5" fill="#50BFA5"><path opacity=".5" d="M413.318 237.402v.422h-6.97v-5.796l6.97 5.374zM406.348 228.37v-3.208l6.97 6.554v2.791a1928.02 1928.02 0 01-6.97-6.137z"/></g></g><g opacity=".5"><path opacity=".5" d="M396.632 237.823h6.97v-18.747h-6.97v18.747z" fill="#216AB1"/><path opacity=".5" d="M397.26 221.565h5.713v-.497h-5.713v.497zM397.26 223.39h5.713v-.497h-5.713v.497z" fill="#EAFCFC"/><g opacity=".5" fill="#50BFA5"><path opacity=".5" d="M403.601 237.402v.422h-6.972v-5.796l6.972 5.374zM396.629 228.37v-3.208l6.97 6.554v2.791c-1.48-1.292-4.485-3.944-6.97-6.137z"/></g></g><g opacity=".5"><path opacity=".5" d="M467.697 202.836h18.741v-19.499h-18.741v19.499z" fill="#D9BF96"/><path opacity=".5" d="M469.718 189.718h14.184v-3.304h-14.184v3.304zM469.718 196.154h14.184v-.899h-14.184v.899zM473.169 198.308h10.737v-.899h-10.737v.899zM470.493 200.46h13.409v-.9h-13.409v.9z" fill="#fff"/></g><g opacity=".5"><path opacity=".5" d="M443.823 202.836h19.29v-19.499h-19.29v19.499z" fill="#7EC9B7"/><path opacity=".5" d="M446.398 189.718h14.184v-3.304h-14.184v3.304z" fill="#fff"/></g><g opacity=".5"><path opacity=".5" d="M467.697 237.823h18.741V214.82h-18.741v23.003z" fill="#216AB1"/><path opacity=".5" d="M469.718 222.348h14.184v-3.898h-14.184v3.898zM469.718 229.939h14.184v-1.061h-14.184v1.061zM473.169 232.482h10.737v-1.061h-10.737v1.061zM470.493 235.022h13.409v-1.061h-13.409v1.061z" fill="#fff"/></g><g opacity=".5"><path opacity=".5" d="M443.823 237.823h19.29V214.82h-19.29v23.003z" fill="#D7D996"/><path opacity=".5" d="M446.398 222.348h14.184v-3.898h-14.184v3.898zM449.848 232.482h10.738v-1.061h-10.738v1.061zM447.173 235.022h13.409v-1.061h-13.409v1.061z" fill="#fff"/></g><path opacity=".5" d="M440.205 272.708h18.74v-23.003h-18.74v23.003z" fill="#D99696"/><path d="M449.573 258.307c3.13 0 5.667-1.033 5.667-2.307s-2.537-2.306-5.667-2.306-5.667 1.032-5.667 2.306 2.537 2.307 5.667 2.307z" fill="#BDA6A6"/><g opacity=".5"><path opacity=".5" d="M417.081 272.708h19.29v-23.003h-19.29v23.003z" fill="#7EC9B7"/><path opacity=".5" d="M419.652 257.235h14.184v-3.898h-14.184v3.898zM419.652 259.633h14.184v-1.015h-14.184v1.015zM420.431 269.909h13.409v-1.061h-13.409v1.061z" fill="#fff"/></g><g opacity=".5"><path opacity=".5" d="M393.952 272.708h19.29v-23.003h-19.29v23.003z" fill="#D7D996"/><path opacity=".5" d="M396.523 257.235h14.184v-3.898h-14.184v3.898zM396.523 264.827h14.184v-1.061h-14.184v1.061zM399.973 267.367h10.738v-1.061h-10.738v1.061zM397.302 269.909h13.409v-1.061h-13.409v1.061z" fill="#fff"/></g><path opacity=".5" d="M343.76 272.708h18.74v-23.003h-18.74v23.003z" fill="#D7D996"/><g opacity=".5"><path opacity=".5" d="M320.636 272.708h19.29v-23.003h-19.29v23.003z" fill="#7EC9B7"/><path opacity=".5" d="M323.211 257.235h14.184v-3.898h-14.184v3.898z" fill="#fff"/></g><g opacity=".5"><path opacity=".5" d="M297.507 272.708h19.29v-23.003h-19.29v23.003z" fill="#D7D996"/><path opacity=".5" d="M300.082 257.235h14.184v-3.898h-14.184v3.898zM300.082 264.827h14.184v-1.061h-14.184v1.061zM303.532 267.367h10.738v-1.061h-10.738v1.061zM300.856 269.909h13.41v-1.061h-13.41v1.061z" fill="#fff"/></g><g opacity=".5"><path opacity=".5" d="M420.014 202.836h19.291v-19.499h-19.291v19.499z" fill="#D7D996"/><path opacity=".5" d="M422.59 188.88h14.183v-1.627H422.59v1.627zM423.364 200.46h13.409v-.9h-13.409v.9z" fill="#fff"/></g><g opacity=".5"><path opacity=".5" d="M397.323 202.836h19.29v-19.499h-19.29v19.499z" fill="#7EC9B7"/><path opacity=".5" d="M401.651 188.88h10.685v-2.466h-10.685v2.466z" fill="#fff"/></g><g opacity=".5"><path opacity=".5" d="M462.669 272.709h26.823v-13.346h-26.823v13.346z" fill="#96D9C9"/><path opacity=".5" d="M470.737 263.73h15.911v-2.262h-15.911v2.262zM470.737 268.136h15.911v-.614h-15.911v.614zM474.603 269.61h12.045v-.614h-12.045v.614zM471.6 271.084h15.045v-.614H471.6v.614z" fill="#fff"/></g><g opacity=".5"><path opacity=".5" d="M462.669 259.55h26.823v-13.345h-26.823v13.345z" fill="#96D9C9"/><path opacity=".5" d="M470.737 250.57h15.911v-2.263h-15.911v2.263zM470.737 254.976h15.911v-.614h-15.911v.614zM474.603 256.45h12.045v-.615h-12.045v.615zM471.6 257.924h15.045v-.614H471.6v.614z" fill="#fff"/></g><path d="M390.555 170.907h101.931v33.535H390.555v-33.535zm100.437 1.493h-98.943v30.549h98.943V172.4z" fill="#EAFCFC"/><path opacity=".4" d="M491.738 203.696l-35.346-32.042H432.48c.332 0 35.535 32.042 35.535 32.042h23.723zM450.563 203.696l-35.346-32.042h-13.785c.331 0 33.874 32.042 33.874 32.042h15.257z" fill="#EAFCFC"/><path d="M390.555 205.782h101.931v33.535H390.555v-33.535zm100.437 1.493h-98.943v30.549h98.943v-30.549z" fill="#EAFCFC"/><path opacity=".4" d="M491.738 238.57l-35.346-32.042H432.48c.332 0 35.535 32.042 35.535 32.042h23.723zM450.563 238.57l-35.346-32.042h-13.785c.331 0 33.874 32.042 33.874 32.042h15.257z" fill="#EAFCFC"/><path d="M390.555 240.541h101.931v33.535H390.555v-33.535zm100.437 1.493h-98.943v30.549h98.943v-30.549z" fill="#EAFCFC"/><path opacity=".4" d="M491.738 273.329l-35.346-32.042H432.48c.332 0 35.535 32.042 35.535 32.042h23.723zM450.563 273.329l-35.346-32.042h-13.785c.331 0 33.874 32.042 33.874 32.042h15.257z" fill="#EAFCFC"/><path d="M280.597 289.413h208.727v-7.326H280.597v7.326z" fill="#63BAE8"/><path d="M301.897 217.446c-.158-3.804.4-7.559 2.096-11.1 1.459-3.047 5.071-4.776 8.364-4.781 10.456-.014 11.785 13.847 18.442 19.194 2.034 1.633 4.307 2.965 6.232 4.726 7.106 6.506 3.906 18.547-2.62 24.25-4.527 3.959-11.644 6.207-17.225 3.112-2.913-1.615-5.125-4.301-6.699-7.24-2.235-4.175-3.677-8.991-5.268-13.44-1.694-4.734-3.113-9.666-3.322-14.721z" fill="#A34B3D"/><path d="M339.264 202.645c-.483-.35-1.704 2.139-2.292 2.114-.588-.025.405-3.483-.036-3.749-.814-.493-1.32 3.721-1.708 3.518-.388-.203-.082-4.573-.922-4.342-.841.23.156 4.564-.358 4.533-.515-.032-.563-4.114-1.635-4.363-.573-.132.967 6.965.449 7.579-.519.615-2.725-1.644-3.285-1.199-.56.444 4.319 3.761 4.395 4.206.076.444 1.085 9.974.955 13.125-1.087.061-7.243 1.279-8.265 1.315.676 1.992-.987 4.053-.43 6.066 3.448-.304 13.709-1.086 14.353-1.826 1.961-2.252-1.632-16.166-2.459-18.607-.829-2.442-.017-3.455-.061-4.95-.049-1.493 1.782-3.07 1.299-3.42z" fill="#F7A491"/><path d="M323.273 344.96c-.869-.64-1.572-1.063-4.349-2.41-.181-.088-.84-.507-1.079-.652-.602-.369-1.209-.949-1.729-1.53-.498-.556-.735-2.334-.846-3.751.285-3.166 4.878-53.942 5.847-59.438.999-5.674-.522-14.329-.522-14.329l-3.545-1.335-6.729 23.303.531 17.738s-1.583 5.111-1.782 8.168c-.199 3.055 2.288 27.855 2.288 27.855 0 .887-.036 1.688-.135 2.189-.182.927-1.2 2.837-.732 3.711.466.873.999 1.091.999 1.091l12.093.195c.657.01.221-.413-.31-.805z" fill="#F48C7F"/><path d="M304.92 261.03s-4.2 6.328-5.199 11.566c-.999 5.237.734 21.334-1.19 28.196-1.041 3.716-4.987 9.452-5.587 14.254-.6 4.801-2.687 18.658-2.687 18.658-.314 1.456-.81 3.255-1.452 4.091-.392.512-1.11 1.16-1.583 2.084-.734 1.441-.327 3.586.215 4.766.277.606-.019.604.612.799 1.873.579 3.866-.396 4.664-2.191.445-1.004.835-2.342.915-4.028.084-1.788.363-3.208.661-4.258l13.422-32.894 9.718-28.387 2.489-14.62-14.998 1.964z" fill="#F79C8D"/><path d="M293.074 342.311c-2.905.531-4.838-1.172-5.843-2.444-.739 1.442-1.098 3.596-.556 4.782.478 1.044 1.876 1.015 2.976 1.055 1.163.044 2.065-.604 2.642-1.619a9.84 9.84 0 00.781-1.774zM317.845 341.899c-3.198.821-5.562.264-6.884-.271-.342.969-.793 2.183-.554 2.881.294.857.711 1.05 1.081 1.061 2.921.077 10.7.182 12.929.21a.366.366 0 00.283-.6c-.554-.659-6.616-3.137-6.855-3.281z" fill="#4EBBF4"/><path d="M307.639 301.455c.252.017.504.034.758.048l.04.002c.249.015.499.03.751.042l.046.002c.252.013.504.026.756.036l.037.002c.257.011.515.021.773.029 2.867.095 6.408.057 8.678-.329 1.159-11.582 1.589-22.154 2.019-24.494 1.039-5.673-.906-14.63-.906-14.63l.157-2.127-.497-1.356-15.597 1.965s-4.367 6.327-5.406 11.565c-1.039 5.238.764 21.334-1.236 28.197-.002.004 4.449.696 9.627 1.048z" fill="#13375B"/><path d="M328.884 224.516s-11.678-1.22-15.122-.069c-3.446 1.151-5.866 6.07-4.028 8.823 1.841 2.751 18.411-.851 18.411-.851l.739-7.903z" fill="#EAB054"/><path d="M308.286 223.432s-5.776-.356-8.061 2.061c-2.286 2.418 5.068 21.544 5.484 24.622.415 3.078-2.118 11.259-2.118 11.259s13.569 2.65 17.445.16c0 0 .712-22.343.296-24.54-.415-2.198-4.174-10.924-5.005-11.803-.829-.88-8.041-1.759-8.041-1.759z" fill="#F7CC7F"/><path d="M310.208 215.94s-.029.166-.084.447c-.258 1.348-1.249 5.821-1.918 7.049-.81 1.487 2.772 6.225 6.219 5.647 1.026-.172-.867-4.353-.777-4.798.174-.847.409-2.004.653-3.191l.405-1.985.669-3.294-5.167.125z" fill="#F7A491"/><path d="M310.13 216.385c.055-.281.084-.447.084-.447l5.165-.126s-.3 1.483-.669 3.294l-.403 1.976c-.798-.114-1.631-.491-2.466-1.202a6.331 6.331 0 01-1.868-2.696c.063-.317.117-.589.157-.799z" fill="#F47458"/><path d="M313.686 204.541s-2.435-.273-3.961 1.644c-1.525 1.916-3.171 7.841.62 11.064 3.79 3.223 7.536-.426 8.093-4.292.554-3.866.77-8.555-4.752-8.416z" fill="#F7A491"/><path d="M319.561 212.9c-.453.854-1.211 1.328-1.696 1.057-.484-.27-.51-1.182-.058-2.036.453-.853 1.211-1.327 1.696-1.057.484.269.512 1.181.058 2.036z" fill="#F7A491"/><path d="M313.961 203.907s-3.254 5.636-5.579 5.896c-2.328.26-2.632 3.255-2.632 3.255s.831-6.901 3.136-8.23c2.304-1.329 5.075-.921 5.075-.921z" fill="#A34B3D"/><path d="M308.991 211.219c.189 1-.191 1.918-.85 2.05-.659.132-1.345-.572-1.534-1.574-.189-1 .191-1.919.85-2.051.657-.13 1.345.575 1.534 1.575z" fill="#F7A491"/><path d="M312.186 213.825l3.322.476s-.258 1.25-1.725 1.082c-1.788-.204-1.597-1.558-1.597-1.558z" fill="#fff"/><path d="M287.598 280.886l.449-1.107.776.56.529 1.528-.375.305c.002-.003-1.044-1.015-1.379-1.286z" fill="#B75742"/><path d="M294.888 287.828l-.161-4.344c-.122-3.235-1.944-6.028-4.064-6.225-2.12-.199-4.502 2.451-5.312 5.906l-1.087 4.642c-.107.455-.699.458-.586-.002l1.157-4.659c.955-3.849 3.601-6.791 5.898-6.556 2.296.235 4.319 3.334 4.51 6.911l.231 4.33c.023.425-.569.425-.586-.003z" fill="#35478D"/><path d="M298.227 284.159l-.825-.019 2.061 28.505 5.029.036-6.265-28.522z" fill="#2D3D67"/><path d="M299.463 312.645h-29.858l5.634-28.419 22.163-.086 2.061 28.505z" fill="#35478D"/><path d="M283.909 309.873l-14.304 2.772h29.858l-15.554-2.772z" fill="#2D3D67"/><path d="M292.591 287.212l-.161-4.344c-.122-3.234-1.944-6.026-4.064-6.226-2.119-.199-4.502 2.451-5.312 5.907l-1.087 4.642c-.107.455-.699.457-.585-.002l1.156-4.659c.955-3.85 3.602-6.791 5.898-6.556 2.296.234 4.319 3.333 4.51 6.91l.231 4.328c.023.428-.569.428-.586 0z" fill="#35478D"/><path d="M291.392 273.558c-.021-.09 3.619-15.52 5.09-18.931 1.471-3.411 7.188-19.258 7.188-19.258l-5.801-2.347s-5.568 12.822-7.742 18.428c-2.177 5.607-2.051 16.256-2.147 19.173-.002.042-.319 2.468-.321 2.507-.074.323-.143.592-.175.644-.088.143-.342 1.122-.352 1.206-.011.084-.229.415-.317.557-.088.143-.29 2.124-.334 2.445-.044.321.099 1.044.099 1.044l-.078 1.33c-.057.975.955.717.955.717-.023.461.136.7.397.788.258.086.566.013.615.032.048.018.067.163.067.163-.027.292.304.518.516.56.214.042.594-.101.701-.226.107-.128.183-.109.183-.109.216.184 1.043.176 1.234-.091.191-.266.365-1.667.451-1.792.086-.126.271-.342.298-.543.027-.202.705-1.64.743-1.925.04-.287-.38-1.254-.472-1.833-.092-.578-.659-1.48-.796-1.738-.054-.105-.039-.436-.002-.801z" fill="#F7A491"/><path d="M300.478 245.511s6.523-9.752 7.11-13.333c.586-3.584-2.64-8.016-5.935-7.672-3.295.344-8.926 16.656-8.926 16.656l7.751 4.349z" fill="#F7CC7F"/><path d="M478.349 206.533c-1.017 4.18 4.494 7.216 8.858 7.328 2.835.071 4.14-.218 4.598-3.194.743-4.826-1.253-7.768-4.053-8.986-3.61-1.573-8.563 1.402-9.403 4.852z" fill="#184655"/><path d="M483.727 274.529l3.425 30.476s-1.675 6.445-1.471 8.276c.201 1.83 3.723 25.848 3.723 25.848l-.149 1.348-.004 3.977h13.069s-2.775-1.237-6.653-3.681c-.288-.181-.949-.757-1.108-1.906-1.037-7.404 1.013-32.095 1.013-32.095l1.614-32.142-13.459-.101z" fill="#F7A491"/><path d="M473.22 280.941c-.739.186-1.874 26.389-2.485 27.551-3.875 7.363-4.796 29.748-4.796 29.748l-1.156 3.258-1.174 3.871s3.869.991 5.898-.124l-.225-3.854-.205-3.524 9.776-27.889 5.35-28.446-10.983-.591z" fill="#F7A491"/><path d="M492.664 230.181c-1.577-2.147-8.083-8.363-8.807-8.351-2.107.038-9.023.04-10.377.723l.066 11.836c.22.994 4.995 16.468 4.718 19.854l.033.032c4.003 3.847 10.314 3.545 13.974-.669 0 0-.017-4.695.548-8.976.881-6.708 3.761-9.117-.155-14.449z" fill="#355389"/><path d="M498.402 294.353l.464-18.08a34.771 34.771 0 00-3.062-14.825l-3.533-7.842c-1.429.453-2.776.839-4.277 1.006-3.266.365-6.479.002-9.728-.369a2.59 2.59 0 01-.044.319c-.59 2.663-3.872 8.599-5.255 16.711-1.57 9.209-1.982 21.978-1.784 23.059 9.092 2.122 18.412 2.192 27.219.021z" fill="#13375B"/><path d="M481.739 215.169s.183 4.365-.212 6.022c-.394 1.656-.919 1.78 2.462 2.283 1.329.197 2.609.493 2.609.493s-.346-2.43-.399-3.458c-.086-1.69.391-6.908.391-6.908l-4.851 1.568z" fill="#F7A491"/><path d="M484.312 217.341c.694.375 1.345.596 1.945.688.116-2.061.332-4.428.332-4.428l-4.628 1.495a6.011 6.011 0 002.351 2.245zM469.282 341.374c-1.784.791-3.707.315-4.479.061l-.256.688-.985 3.266s3.917.969 5.946-.148l-.226-3.867zM489.111 345.442h13.586c.502-.046.625-.455.451-.707-.359-.518-1.943-.899-3.725-1.725-3.125.327-9.682-1.82-10.175-2.542-.284 1.445-.416 4.913-.137 4.974z" fill="#F47458"/><path d="M483.627 270.487l1.692-.034-.953-44.496c1.774.316 3.257 1.587 3.761 3.306l11.77 40.182 1.629-.447-11.77-40.181c-.789-2.693-3.36-4.573-6.255-4.573h-.864l.99 46.243z" fill="#FAE0B2"/><path d="M508.445 235.484c.051-.252-.113-.767.233-2.738.099-.569.636-1.191.636-1.191s.666-.761.89-.652c.225.109.3.415.235.599-.065.187-.367.455-.432.64-.065.186.191.761.352.924.162.162 2.047-2.145 2.047-2.145s.508-.687.659-.928c.128-.206.466-.856.466-.856s.531-.897.802-.711c.159.109-.089 1.04-.473 1.894-.415.918-.974 1.761-.894 1.828.183.157 1.249-1.084 1.249-1.084s.365-.702.619-.946c.153-.471.617-1.144.932-.897.059.046-.306 1.151-.306 1.151s-.368.656-.523.981c-.275.573-.911 1.252-1.125 1.623-.178.308-.025.271-.008.311.012.029.31-.34.728-.841.21-.252.504-.489.701-.82.185-.308.497-.692.693-.918.551-.642.862-.172.447.511-.158.26-.334.543-.513.826-.692 1.109-1.557 1.959-1.469 2.07.114.144 1.597-1.504 1.597-1.504s1.056-.654.441.355c-.713 1.17-1.496 1.901-1.534 1.933-.248.205-.898 1.195-1.872 1.77a93.866 93.866 0 01-2.267 1.276l-2.311-2.461z" fill="#F8A492"/><path d="M486.43 238.826l5.031-2.772s2.686 4.037 3.083 4.439c0 0 10.064-3.277 13.902-5.009l2.366 2.432c-.737.357-1.373.594-1.726.784-.69.372-11.621 6.439-11.621 6.439s-4.472 2.229-5.226 1.718c-.755-.514-5.809-8.031-5.809-8.031z" fill="#F7A491"/><path d="M480.896 227.609c-.978 4.011 4.239 12.953 4.239 12.953s7.434-3.493 8.742-4.996c0 0-5.05-8.679-5.382-9.205-1.498-2.388-3.532-2.392-4.86-2.235-1.065.124-2.739 3.483-2.739 3.483z" fill="#13375B"/><path d="M480.868 228.848c3.44-2.99 4.739-9.58 2.493-13.507 1.56-2.019 2.559-1.659 2.21-4.173-.686-4.956 6.242-7.94 1.066-9.259-5.23-1.044-9.579 2.154-11.971 5.332-1.077 1.432-2.42 2.669-4.013 3.54-3.159 1.723-4.825 5.862-3.146 10.175-2.529 1.413-4.737 5.497-3.065 8.89.401.813 1.214 1.767 1.239 2-.049-.287-2.357 7.278 6.265 9.855 8.796 2.629 10.607-5.779 8.922-12.853z" fill="#184655"/><path d="M484.76 204.302s-1.918.643-2.943 2.572c-1.022 1.929-.514 8.106 3.74 10.142 4.257 2.036 6.211-2.587 5.902-6.001-.306-3.413-1.538-7.879-6.699-6.713z" fill="#F7A491"/><path d="M480.307 211.548c-.63-3.191-.384-5.611 1.895-6.779 2.277-1.168 4.225-2.325 6.263-.226l.46.258s-3.848 1.059-4.062 3.092c-.214 2.034-2.26 4.452-1.945 5.45.315.998.678 2.992.678 2.992l-.842-.69c.002 0-1.817-.906-2.447-4.097z" fill="#184655"/><path d="M484.271 210.326c.317.88.078 1.765-.537 1.977-.615.209-1.369-.334-1.688-1.216-.317-.881-.077-1.766.538-1.977.614-.21 1.37.335 1.687 1.216z" fill="#F7A491"/><path d="M487.742 213.73l2.774.674s-.319 1.037-1.549.775c-1.496-.318-1.225-1.449-1.225-1.449z" fill="#fff"/><path d="M483.605 270.277v5.688c0 2.959 2.479 5.357 5.537 5.357h5.696v-13.263h-8.941c-.612 0-1.167.232-1.578.61a2.166 2.166 0 00-.714 1.608z" fill="#EAB054"/><path d="M484.32 268.669h.038c1.175 0 2.128.922 2.128 2.059v4.185c0 3.539 2.968 6.409 6.628 6.409h3.468c3.66 0 6.628-2.87 6.628-6.409v-4.164c0-1.485-1.245-2.69-2.781-2.69h-14.53c-.613 0-1.167.232-1.579.61z" fill="#F7CC7F"/><path d="M426.907 236.696l.422.379a.518.518 0 00.73-.019l7.497-8.261a.508.508 0 00-.057-.723l-.422-.38a.519.519 0 00-.73.019l-7.497 8.261c-.185.204-.159.529.057.724z" fill="#13375B"/><path d="M401.491 229.984c1.001-.815 8.75 2.592 8.651 3.779-.099 1.186 5.407 12.687 5.407 12.687l9.513-7.603.005.002c.084-.274.986-3.233 1.03-3.761.046-.556 1.654-1.527 2.401-1.384.747.142-.638 1.082-.73 1.254-.248.469.709.646.709.646s2.75-1.512 2.808-2.401c.059-.889.626-2.753 1.22-2.363.306.201.304 1.524.208 2.151.176-.713.426-1.516.669-1.596.445-.144.666.422.586.701-.08.279-.8 3.302-1.018 3.644-.214.331-4.653 3.916-5.291 4.696 0 0-12.306 14.101-13.181 14.47-.768.323-3.509-4.535-6.099-7.762-2.59-3.229-10.018-14.608-6.888-17.16z" fill="#F7A491"/><path d="M376.663 333.667s-1.692 1.654-1.729 2.26c-.038.608-.149 7.11.541 7.716.691.608 2.718 1.038 2.065 1.719-.493.516-4.283.407-6.796.266-.732-.039-1.651-5.904-1.943-6.768-.422-1.252-1.448-4.072-1.064-4.944.187-.425 1.081-1.3 2.34-2.115 1.324-.858 2.592-2.768 2.592-2.768l3.994 4.634z" fill="#F48C7F"/><path d="M394.177 337.518s-1.513 4.286-1.515 4.296c-.114.68-.557 2.357-.557 2.974 0 2.319 10.432-1.969 8.094-2.997-.212-.092-.876-.836-.945-1.625-.107-1.216.879-2.74.879-2.74l-5.956.092z" fill="#F7A491"/><path d="M410.542 257.728s.76 7.682.76 7.795c0 12.425 2.458 36.699 1.99 39.035-1.14 5.699-13.41 34.765-13.41 34.765l-6.632-.794 8.641-34.804-3.18-14.008-4.5-27.689 16.331-4.3z" fill="#355389"/><path d="M388.286 264.521l-1.259 7.28-3.404 29.964-12.967 29.285s1.824 4.26 4.515 4.86l20.635-30.067 12.82-38.472-.449-8.549-19.891 5.699z" fill="#13375B"/><path d="M413.187 239.438l-9.195.942s-.422-7.557-.422-11.161c0-4.374.372-10.006.899-9.886 1.479.34 3.469 1.159 4.655 2.791 4.101 5.65 4.063 17.314 4.063 17.314z" fill="#E25A44"/><path d="M408.667 228.445c.193 1.334 3.727 37.584 3.727 37.584-16.744 8.106-25.983 1.444-25.983 1.444s.548-25.454-.109-28.92c-.435-2.291-.976-17.524.505-17.952 1.902-.547 4.083-1.128 6.459-1.375 2.029-.212 9.908-.333 11.318.14.003 0 3.273 3.473 4.083 9.079zM370.16 331.765s3.897 10.999 5.423 11.53c.405.14 2.349.499 2.716 1.361.111.26 0 1.126 0 1.126h-8.122s-1.027-4.846-1.434-6.976c0 0-2.151-5.202-1.912-5.676.237-.472 3.329-1.365 3.329-1.365zM391.516 345.553l1.194-3.783s2.508 1.063 3.763.887c1.255-.178 3.702-.887 3.702-.887 5.006 1.653 9.109 2.454 8.362 3.783h-17.021z" fill="#F47458"/><path d="M414.477 254.902c.038-.017.174-.124.252-.189-.298-3.552-.244-6.993.869-8.156-.028-.057-.271-.575-.523-1.112-1.289 1-1.901 3.653-1.66 7.962.017.295.101.522.17.893.371.413.709.679.892.602z" fill="#F7A491"/><path d="M369.828 266.413a1.01 1.01 0 01-.004-.233c.246-2.51 2.326-23.59 2.676-24.488.317-.809 9.642-14.18 9.642-14.18l4.584 6.259-8.968 11.991c-.202.761-3.438 14.992-3.438 14.992s-.663 2.593-.961 4.147c.136.375.268.727.386 1.017a9.62 9.62 0 00.965 1.558c.401.538 1.064 1.715 1.146 2.029.095.367.267 1.128.363 1.585.097.46.229.994.252 1.244.013.151.17.455.29.669.178.318-.126.694-.472.578-.326-.109-.58-.532-.737-.794-.441-.745-.676-2.101-.787-2.03-.109.071-.498 2.376-.558 2.636-.061.26-.525 2.935-.787 3.423-.263.489-.609.407-.701.101-.08-.264.289-4.007.289-4.007s.046-.478-.164-.329c-.207.149-.549 3.548-.694 4.045-.145.497-.477.761-.756.36-.342-.486.246-4.09.246-4.09s.065-.453-.128-.411c-.193.042-.435 2.937-.586 3.189-.151.249-.529.339-.709-.078-.212-.493.338-3.705.338-3.705s-.028-.256-.147-.17c-.12.086-.504 2.54-.752 2.766-.209.191-.384.006-.384.006-.457-.312.244-2.646.237-3.807-.006-1.16.531-2.464.37-3.846a7.098 7.098 0 00-.051-.427z" fill="#F8A492"/><path d="M374.859 235.981l7.967 5.361s4.49-6.697 6.901-9.081c3.02-2.988-1.099-12.135-3.045-11.62-4.353 1.16-11.823 15.34-11.823 15.34z" fill="#F47458"/><path d="M393.856 211.389l-1.192 7.873s4.351 9.374 6.949 8.561c2.179-.682.84-8.976.84-8.976s-1.188-4.454-.831-6.683c.354-2.23-5.766-.775-5.766-.775z" fill="#F7A491"/><path d="M399.62 212.162c.357-2.229-5.764-.773-5.764-.773l-.098.652c.178.436.399.811.663 1.096 1.366 1.474 3.505 2.361 5.352 2.428-.187-1.199-.3-2.489-.153-3.403z" fill="#F47458"/><path d="M392.856 200.251c-.172-.063-1.387 8.965.917 11.45 2.303 2.485 6.79 3.298 8.4 1.34 1.78-2.164 1.692-11.868-1.889-14.424-3.583-2.553-7.428 1.634-7.428 1.634z" fill="#F7A491"/><path d="M398.919 193.789c-2.769.566-4.561 2.26-5.22 2.983-1.257.149-2.966.845-4.729 3.772-2.168 3.6-.566 7.588 1.959 9.545 2.524 1.956 2.489 4.216 2.489 4.216l.398-1.17a6.547 6.547 0 00.317-2.753c-.058-.558-.178-1.159-.409-1.656-.606-1.307 1.303-2.175 1.841-3.263.413-.836.432-2.753 1.083-4.137l.776-1.056s1.793-1.399 3.545-1.003c1.753.399 1.501-6.204-2.05-5.478z" fill="#184655"/><path d="M395.447 207.073c.019 1.101-.48 2.003-1.116 2.015-.634.011-1.163-.874-1.182-1.975-.019-1.101.481-2.002 1.116-2.015.634-.01 1.163.872 1.182 1.975z" fill="#F7A491"/><path d="M399.184 209.619l3.471-.181s-.013 1.326-1.536 1.449c-1.86.151-1.935-1.268-1.935-1.268z" fill="#fff"/><path d="M80.683 265.163c1.373-3.892.013-7.653-1.12-9.593-1.134-1.939-2.515-4.876-4.643-5.18-3.123-.447-4.785-.711-7.035.614-1.916 1.128-3.046 1.954-3.912 4.873-1.192 4.017-2.349 9.076-1.7 9.575 2.155 1.655 8.298 1.77 11.295 1.646 4.654-.191 7.115-1.935 7.115-1.935z" fill="#A34B3D"/><path d="M71.962 268.155s-7.273-.887-9.712.375-3.773 16.277-3.773 16.277l2.166.658s-.309 10.398 1.347 11.121c1.656.724 13.283-1.52 15.934-4.17s.668-22.871-1.681-24.55c-.657-.47-4.347.285-4.281.289z" fill="#3C8F7C"/><path d="M139.529 332.214s.498 5.434.17 7.206c-.044.237-.14.537-.254.868-.337.994.586 4.028.586 4.028l12.387.046c.674.002.223-.426-.325-.818-.898-.641-1.622-1.065-4.483-2.402-.187-.089-.867-.508-1.113-.653-.621-.369-1.248-.954-1.79-1.539-.902-.977-1.039-5.765-1.039-5.765l-4.139-.971z" fill="#F7A491"/><path d="M146.495 340.487c-3.265.879-5.694.34-7.054-.188-.338.991-.963 4.266-.594 4.346 1.585.336 5.736.587 14.635.447.319-.005.28-1.099.072-1.34-.571-.667-6.813-3.118-7.059-3.265z" fill="#355389"/><path d="M123.992 267.706s.176 7.758 2.399 12.723c2.166 4.837 12.532 16.77 15.286 23.735-.852 3.929-3.192 9.45-3.022 13.803.191 4.933-.095 17.989-.095 17.989l5.562.177 7.298-33.69-10.996-36.351-4.989-8.827-11.443 10.441z" fill="#D95B3F"/><path d="M111.754 325.873s-2.504 5.234-3.767 6.674c-.676.772-2.674 2.009-2.71 3.082-.035 1.074 11.636 8.351 11.636 8.351.615.37.437-.266.149-.922-.47-1.076-.902-1.856-2.787-4.634-.124-.18-.516-.935-.661-1.201-.367-.675-.623-1.55-.798-2.38-.291-1.382 2.192-5.831 2.192-5.831l-3.254-3.139z" fill="#F7A491"/><path d="M113.613 337.223c-3.461-.975-5.384-2.789-6.341-4.011-.848.721-3.186 2.361-2.9 2.646 2.239 2.233 4.661 5.076 12.865 9.789.294.168 1.102-1.268 1.044-1.602-.158-.922-4.523-6.556-4.668-6.822z" fill="#355389"/><path d="M56.325 281.144c-1.56.854-5.335 4.311-6.616 5.487-.025.149-.205 1.002-1.24 2.026-.733.721-1.379 2.451-1.778 1.914-.399-.537.802-1.854.305-1.904-.498-.048-3.197 2.537-3.558 2.051-.36-.487 2.349-2.76 1.904-2.804-.445-.044-2.687 2.298-3.197 1.613-.512-.688 2.892-2.512 2.617-2.881-.275-.369-2.388.837-2.801.285-.412-.553 2.967-1.51 2.705-1.535-.262-.025-2.16-.126-2.145-.49.017-.413 4.876-.673 5.522-1.34 1.415-1.9 3.941-5.374 6.334-6.798 2.926-1.74 9.661-5.39 9.661-5.39l2.854 4.361c-.002-.004-8.72 4.392-10.567 5.405z" fill="#F7A491"/><path d="M123.927 262.156s-3.05 7.135-3.081 12.576c-.03 5.301 4.468 20.45 4.094 27.931-2.401 3.224-6.817 7.282-8.464 11.316-1.868 4.57-7.531 16.337-7.531 16.337l4.991 2.462 20.585-27.654 4.358-32.606.843-10.8-15.795.438z" fill="#F47458"/><path d="M54.672 333.734s-2.262 2.078-2.268 2.08c-.317.235-1.167.748-1.415 1.002-.927.954 5.016 3.33 4.479 1.979-.048-.121-.14-1.197.147-1.549.443-.543 1.24-1.315 1.24-1.315l-2.182-2.197z" fill="#F7A491"/><path d="M55.468 338.776s-1.276-.679-1.855-1.105c-.58-.425-.653-1.694-1.174-1.88-.572-.206-2.982 2.258-2.982 2.258s4.71 5.116 7.174 6.82c.53.367 1.173.25 1.402.254.869.015-1.197-3.682-2.565-6.347z" fill="#184655"/><path d="M86.723 337.64s.703 3.401.703 3.407c.044.445.05 1.568.153 1.954.386 1.453 6.116-2.958 4.5-3.216-.147-.023-.873-.315-1.123-.763-.434-.78-.848-2.24-.848-2.24l-3.385.858z" fill="#F7A491"/><path d="M92.06 339.776s-1.393.85-2.138 1.168c-.745.319-2.107-.566-2.59-.165-.529.44.332 4.334.332 4.334s9.799-2.598 11.883-3.944c.827-.535-4.118-1.185-7.486-1.393z" fill="#184655"/><path d="M81.373 290.393l6.072 24.265 3.838 23.498-4.78.643s-8.45-21.533-9.074-23.514c-1.335-4.246-12.37-15.948-12.37-15.948l16.314-8.944z" fill="#355389"/><path d="M65.196 290.284s-1.732 22.151-2.105 24.313c-.376 2.162-9.243 18.805-9.243 18.805l3.425 3.722s14.448-17.805 15.09-19.292c1.006-2.333 7.806-32.872 7.806-32.872l-14.973 5.324z" fill="#184655"/><path d="M92.942 276.267c1.807.633 7.296 1.168 9.162 1.344.136-.088.952-.558 2.516-.465 1.106.065 2.955-.661 2.815.046-.143.706-2.064.694-1.745 1.128.319.434 4.334.732 4.206 1.371-.128.64-3.903.107-3.616.495.286.388 3.776.495 3.595 1.398-.182.904-4.094-.505-4.193-.021-.099.485 2.393 1.311 2.246 2.038-.147.728-3.348-1.289-3.18-1.06.168.228 1.457 1.819 1.152 2.071-.344.285-4.05-3.42-5.049-3.455-2.542.235-7.145.715-10.008-.176-3.503-1.091-11.277-3.852-11.277-3.852l1.438-5.426c-.004 0 9.795 3.811 11.938 4.564z" fill="#F7A491"/><path d="M104.932 278.899a2.143 2.143 0 01-.536.673c-.044.021-.703.685-1.744.484.643-.103 1.354-.22 2.28-1.157z" fill="#F48C7F"/><path d="M87.425 273.764s-.26 1.22-4.947 5.294l-9.79-5.127 4.197-5.401 10.54 5.234z" fill="#F7CC7F"/><path d="M73.017 268.952s3.358-.556 3.726-.556c3.186 1.224 8.626 26.874 7.78 31.935-5.631 1.208-21.433 1.262-21.433 1.262s.033-4.873.822-7.382c1.367-4.347 2.14-14.294 2.14-16.046 0-1.03-5.338 2.541-5.338 2.541l-2.237-8.079s6.814-2.736 9.203-3.229c.667-.14 5.337-.446 5.337-.446z" fill="#FAE0B2"/><path d="M82.848 286.176c-1.17-4.52-6.477-16.49-7.832-17.644l1.313-.423c.574.551 5.963 12.127 6.87 16.518l-.35 1.549zM63.858 290.732l-.764-1.216c.065-.042 6.52-4.16 7.25-9.416.734-5.311-3.01-10.893-3.048-10.947l1.188-.809c.167.245 4.094 6.086 3.282 11.953-.82 5.923-7.62 10.253-7.908 10.435z" fill="#3C8F7C"/><path d="M74.832 265.859s-.107 3.59.229 3.925c.337.338.808.895.312 1.753-.495.855-2.648.31-3.652-.18-.963-.47-1.584-1.346-1.584-1.346l.501-5.685 4.194 1.533z" fill="#F7A491"/><path d="M73.398 267.346c-.69-.241-1.9-.709-2.832-2.223l.07-.797 4.193 1.533s-.027.877-.012 1.803c-.588-.025-1.09-.201-1.42-.316z" fill="#B75742"/><path d="M69.9 260.267s-.102-2.109-1.397-1.7c-1.295.409-.309 3.594.766 3.489 1.074-.103.631-1.789.631-1.789z" fill="#F7A491"/><path d="M73.973 253.375s2.03-.044 3.067 1.533c1.037 1.577 2.164 6.084.451 9.192-1.713 3.109-3.9 2.344-4.802 2.027-.9-.314-2.682-1.015-3.583-3.921-.902-2.903-.247-9.439 4.867-8.831z" fill="#F7A491"/><path d="M76.676 262.425l-3.914.155s.149 1.482 1.872 1.463c2.1-.021 2.042-1.618 2.042-1.618z" fill="#fff"/><path d="M137.201 252.606c-.167-.868-2.732-17.04-2.732-17.04l7.367 2.887 1.614 12.505c.203.643 3.322 15.951 4.462 20.906a3.04 3.04 0 001.903 2.157l.015.007c.64.245 1.853.895 2.095 1.122.281.264.843.824 1.177 1.167.334.342.741.73.894.933.095.124.395.298.613.418a.41.41 0 01-.092.757c-.34.083-.79-.141-1.069-.283-.787-.399-1.729-1.441-1.784-1.319-.054.121.865 2.317.955 2.572.088.258 1.146 2.814 1.186 3.378.04.564-.302.684-.55.47-.212-.185-1.933-3.607-1.933-3.607s-.22-.436-.319-.195c-.098.244 1.459 3.353 1.604 3.861.145.507.004.914-.456.723-.56-.233-2.017-3.655-2.017-3.655s-.191-.425-.333-.285c-.143.143 1.225 2.768 1.232 3.066.006.297-.271.582-.655.32-.451-.308-1.725-3.373-1.725-3.373s-.164-.206-.221-.067c-.056.138.949 2.459.859 2.79-.078.279-.328.214-.328.214-.564-.019-1.232-2.411-1.87-3.407-.636-.99-9.705-26.06-9.892-27.022z" fill="#F8A492"/><path d="M140.287 219.719c.149-3.596-.378-7.148-1.982-10.494-1.379-2.881-4.789-4.514-7.902-4.519-9.879-.012-11.134 13.092-17.422 18.145-1.922 1.546-4.07 2.804-5.887 4.468-6.714 6.15-3.69 17.535 2.474 22.928 4.278 3.74 11.002 5.866 16.275 2.942 2.751-1.527 4.842-4.066 6.33-6.846 2.113-3.946 3.473-8.5 4.976-12.706 1.599-4.479 2.938-9.14 3.138-13.918z" fill="#0E2E35"/><path d="M109.032 274.011c-.019-.082 3.264-14.017 4.59-17.097 1.327-3.08 6.483-17.392 6.483-17.392l-6.674-1.457s-4.305 11.198-6.267 16.262c-1.962 5.064-1.123 14.398-1.211 17.032-.002.037-.287 2.228-.29 2.264-.067.292-.128.535-.157.581-.08.128-.308 1.013-.319 1.088-.01.076-.206.375-.285.503-.08.13-.261 1.919-.301 2.208-.039.289.089.942.089.942l-.07 1.199c-.052.881.863.648.863.648-.021.415.124.633.357.711.233.077.51.01.554.029.044.017.061.149.061.149-.025.264.273.467.466.505.193.038.535-.09.631-.205.097-.116.164-.099.164-.099.195.166.94.159 1.112-.082.173-.239.33-1.505.408-1.618.077-.114.243-.309.268-.491.025-.182.636-1.48.672-1.738.036-.258-.342-1.132-.426-1.654-.084-.523-.594-1.338-.718-1.571-.048-.088-.034-.388 0-.717z" fill="#F48C7F"/><path d="M141.899 237.132c-3.085-9.358-6.536-8.959-6.536-8.959l2.668 19.671c1.906-.52 4.386-1.679 6.29-2.218-.63-2.956-1.662-6.19-2.422-8.494z" fill="#13375B"/><path d="M127.468 226.493s-5.686-.363-7.934 2.093c-2.25 2.455 4.989 21.885 5.398 25.011.41 3.127-2.084 11.438-2.084 11.438s13.355 2.692 17.173.161c0 0 .409-22.478 0-24.711-.41-2.233-3.818-11.314-4.634-12.207-.821-.892-7.919-1.785-7.919-1.785z" fill="#355389"/><path d="M129.358 218.882s-.029.168-.082.453c-.253 1.369-1.229 5.913-1.888 7.162-.798 1.51 2.728 6.324 6.12 5.737 1.009-.174-.855-4.422-.764-4.873.172-.861.403-2.036.642-3.241.134-.68.271-1.369.397-2.017l.659-3.347-5.084.126z" fill="#F7A491"/><path d="M129.276 219.335c.053-.285.082-.453.082-.453l5.084-.126-.659 3.347a614.22 614.22 0 00-.395 2.004c-.785-.115-1.606-.499-2.428-1.218a6.43 6.43 0 01-1.839-2.74c.065-.325.116-.602.155-.814z" fill="#F47458"/><path d="M132.78 207.302s-2.397-.277-3.898 1.669c-1.503 1.946-3.121 7.966.611 11.239 3.732 3.272 7.417-.432 7.965-4.36.546-3.927.758-8.688-4.678-8.548z" fill="#F7A491"/><path d="M138.561 215.794c-.445.868-1.192 1.348-1.671 1.073-.476-.274-.501-1.201-.057-2.069.445-.868 1.193-1.348 1.671-1.074.477.275.502 1.202.057 2.07z" fill="#F7A491"/><path d="M133.047 206.658s-3.2 5.724-5.492 5.989c-2.29.264-2.59 3.306-2.59 3.306s.818-7.009 3.085-8.36c2.269-1.35 4.997-.935 4.997-.935z" fill="#0E2E35"/><path d="M128.158 214.087c.187 1.017-.189 1.948-.837 2.082-.649.134-1.325-.583-1.511-1.6-.187-1.017.189-1.948.837-2.082.649-.134 1.324.583 1.511 1.6z" fill="#F7A491"/><path d="M130.403 216.853l4.789.188s-.183 1.814-2.29 1.791c-2.571-.027-2.499-1.979-2.499-1.979z" fill="#fff"/><path d="M116.974 247.888s7.371-8.814 8.702-12.077c1.33-3.262-.662-8.148-3.77-8.532-3.108-.383-10.886 14.086-10.886 14.086l5.954 6.523z" fill="#355389"/><path d="M74.732 252.811s-2.833 5.986-5.935 5.67c-3.102-.317-.592-4.5-.592-4.5s3.514-1.337 3.681-1.337c.168 0 2.846.167 2.846.167z" fill="#A34B3D"/><path d="M222.766 221.589l-.096-.187.006-.05c-.179-.44-.372-.876-.586-1.31-1.416-2.871-4.921-4.5-8.116-4.504a10.123 10.123 0 00-2.858.388c-1.31.587-4.509 2.623-5.34 8.684a9.723 9.723 0 001.157 6.085c-.861.541-1.992 1.635-2.813 3.847-1.505 4.064-9.033 4.968-9.785 10.385-.753 5.418 7.076 15.2 15.355 8.88 6.303-4.812 5.279-13.981 4.431-18.088 1.967.27 4.078-.101 6.11-1.328 2.583-1.559 3.631-3.665 3.912-5.726-.071-2.405-.487-4.78-1.377-7.076z" fill="#13375B"/><path d="M215.405 235.75c-5.129 0-8.786-4.642-8.939-4.841a.45.45 0 11.714-.554c.035.044 3.543 4.491 8.223 4.491a.45.45 0 01.451.451.45.45 0 01-.449.453z" fill="#F47458"/><path d="M232.89 277.406a.952.952 0 01-.147-.137c-1.399-1.644-13.144-15.448-13.487-16.197-.31-.675-2.99-14.373-2.99-14.373l6.586.889 2.044 12.66c.35.577 7.186 11.027 7.186 11.027s1.203 1.95 1.984 3.057c.31.138.608.266.856.367.558.184 1.081.27 1.534.329.571.071 1.69.363 1.933.499.281.159.852.505 1.192.717.34.212.75.449.915.583.101.082.38.166.584.218.302.08.353.491.075.635-.26.137-.671.042-.927-.019-.72-.169-1.698-.83-1.719-.721-.021.111 1.167 1.717 1.291 1.91.123.193 1.496 2.068 1.641 2.52.145.453-.111.617-.355.493-.21-.107-2.296-2.558-2.296-2.558s-.266-.312-.3-.094c-.031.218 1.857 2.447 2.078 2.83.22.386.184.747-.229.682-.504-.078-2.374-2.581-2.374-2.581s-.239-.311-.329-.166c-.088.145 1.551 2.013 1.616 2.256.065.241-.105.529-.47.392-.431-.161-2.08-2.409-2.08-2.409s-.174-.134-.193-.01c-.019.125 1.263 1.818 1.255 2.107-.007.243-.225.239-.225.239-.464.096-1.486-1.721-2.204-2.407-.719-.686-1.202-1.791-2.149-2.514-.056-.046-.203-.155-.296-.224z" fill="#F8A492"/><path d="M235.558 281.555v5.315c0 2.764-2.313 5.005-5.167 5.005h-5.317v-12.392h8.343c.571 0 1.089.216 1.473.571.412.375.668.908.668 1.501z" fill="#B75742"/><path d="M217.289 281.752l1.578-.031-.89-41.574c1.654.296 3.039 1.485 3.509 3.089l10.984 37.541 1.519-.417-10.983-37.542c-.737-2.516-3.136-4.273-5.837-4.273h-.806l.926 43.207z" fill="#B75742"/><path d="M234.889 280.052h-.035c-1.098 0-1.986.861-1.986 1.922v3.911c0 3.306-2.768 5.988-6.183 5.988h-3.236c-3.415 0-6.183-2.682-6.183-5.988v-3.892c0-1.388 1.16-2.512 2.594-2.512h13.556a2.17 2.17 0 011.473.571z" fill="#F47458"/><path d="M194.711 331s-2.909 2.669-2.915 2.673c-.407.302-1.501.962-1.818 1.287-1.192 1.225 6.446 4.28 5.757 2.544-.063-.158-.18-1.539.189-1.992.569-.696 1.593-1.69 1.593-1.69L194.711 331z" fill="#F7A491"/><path d="M195.734 337.481s-1.642-.875-2.385-1.42c-.745-.545-.839-2.178-1.509-2.417-.736-.265-3.832 2.901-3.832 2.901s6.051 6.576 9.218 8.767c.682.472 1.509.321 1.801.327 1.118.019-1.535-4.732-3.293-8.158z" fill="#184655"/><path d="M231.336 336.176l.905 4.38c.056.571.062 2.015.195 2.512.497 1.866 7.858-3.801 5.782-4.132-.189-.03-1.121-.405-1.444-.982-.558-1.002-1.089-2.878-1.089-2.878l-4.349 1.1z" fill="#F7A491"/><path d="M238.195 338.923s-1.792 1.092-2.749 1.501c-.957.409-2.71-.727-3.327-.214-.68.565.428 5.571.428 5.571s12.593-3.338 15.273-5.069c1.058-.688-5.297-1.523-9.625-1.789z" fill="#184655"/><path d="M224.556 276.217l7.803 31.184 4.935 30.199-6.144.828s-8.653-23.095-8.894-25.751c-.242-2.659-4.584-15.084-4.584-15.084l6.884-21.376z" fill="#2D3B68"/><path d="M206.344 272.606s.584 29.901.103 32.68c-.483 2.778-13.556 26.485-13.556 26.485l4.401 4.783s18.707-21.682 19.531-23.597c1.293-2.998 7.674-36.803 7.674-36.803l-18.153-3.548z" fill="#35478F"/><path d="M203.487 282.358a.835.835 0 01-.078-.185c-.6-2.073-5.635-19.482-5.639-20.306-.005-.745 3.181-14.333 3.181-14.333l5.64 3.516-3.339 12.381c.082.669 2.021 13.004 2.021 13.004s.296 2.27.552 3.6c.226.254.445.493.632.685.434.399.875.692 1.263.929.491.3 1.392 1.026 1.557 1.25.193.26.569.811.794 1.145.222.333.499.717.596.908.059.115.279.306.443.438a.343.343 0 01-.193.61c-.294.017-.63-.237-.84-.398-.588-.451-1.207-1.456-1.27-1.363-.065.092.359 2.046.393 2.27.033.227.514 2.5.459 2.971-.052.472-.354.518-.526.305-.147-.185-1.041-3.276-1.041-3.276s-.116-.394-.233-.209c-.12.184.688 2.992.73 3.434.042.44-.139.757-.489.529-.426-.277-1.102-3.328-1.102-3.328s-.092-.382-.231-.285c-.14.094.586 2.472.546 2.719-.04.248-.315.439-.59.164-.325-.323-.907-3.051-.907-3.051s-.102-.195-.172-.088c-.069.105.405 2.177.279 2.437-.104.218-.304.125-.304.125-.464-.102-.646-2.18-1.02-3.101-.374-.92-.359-2.126-.925-3.174a7.442 7.442 0 01-.187-.323z" fill="#F8A492"/><path d="M211.876 237.325s-5.53-.352-7.717 2.027c-2.187 2.378 4.852 21.196 5.251 24.224.397 3.027-3.264 9.064-3.264 9.064s15.219 7.114 18.929 4.663c0 0-.596-24.263-.992-26.425-.399-2.162-3.713-10.957-4.509-11.821-.793-.868-7.698-1.732-7.698-1.732z" fill="#F7CC7F"/><path d="M205.355 257.432s4.653-9.23 5.153-12.36c.499-3.13-2.246-7.003-5.048-6.703-2.802.3-6.655 14.566-6.655 14.566l6.55 4.497z" fill="#F47458"/><path d="M212.896 229.668s-.029.167-.084.45c-.26 1.365-1.263 5.892-1.941 7.138-.819 1.503 2.802 6.3 6.288 5.715 1.037-.174-.877-4.407-.785-4.856.176-.857.416-2.029.659-3.231.139-.677.277-1.365.409-2.01l.678-3.334-5.224.128z" fill="#F7A491"/><path d="M212.814 230.119c.055-.286.084-.451.084-.451l5.222-.126-.678 3.334-.407 1.998c-.806-.115-1.65-.497-2.494-1.216a6.42 6.42 0 01-1.889-2.73c.068-.321.122-.598.162-.809z" fill="#F47458"/><path d="M216.413 218.127s-2.462-.276-4.005 1.663c-1.542 1.94-3.207 7.938.628 11.201 3.832 3.262 7.621-.43 8.181-4.345.563-3.912.781-8.659-4.804-8.519z" fill="#F7A491"/><path d="M222.35 226.59c-.458.863-1.226 1.344-1.715 1.069-.489-.275-.516-1.197-.059-2.061.458-.864 1.226-1.344 1.715-1.069.489.274.516 1.197.059 2.061z" fill="#F7A491"/><path d="M216.69 217.488s-3.289 5.705-5.642 5.969c-2.353.264-2.661 3.294-2.661 3.294s.841-6.984 3.171-8.332c2.328-1.349 5.132-.931 5.132-.931z" fill="#13375B"/><path d="M211.664 224.889c.191 1.013-.193 1.942-.859 2.076-.665.132-1.36-.581-1.553-1.593-.191-1.013.193-1.942.859-2.076.665-.134 1.362.581 1.553 1.593z" fill="#F7A491"/><path d="M214.49 228.265l3.503.748s-.365 1.313-1.914 1.028c-1.891-.346-1.589-1.776-1.589-1.776z" fill="#fff"/><path opacity=".8" d="M119.41 50.403c1.129-3.615 5.531-6.313 10.792-6.313.966 0 1.902.092 2.796.262 2.596-4.083 8.231-6.911 14.765-6.911 1.69 0 3.318.188 4.85.54 3.518-4.28 9.909-7.145 17.211-7.145 8.687 0 16.085 4.053 18.887 9.727 1.983-.814 4.269-1.28 6.701-1.28 7.615 0 13.785 4.538 13.785 10.134 0 .331-.023.66-.065.984H119.41v.002zM105.226 194.755c0 .271-.019.537-.052.799H37.806a64.003 64.003 0 01-.751-4.435 11.691 11.691 0 014.01-.694c.785 0 1.545.074 2.271.214 2.11-3.315 6.685-5.613 11.993-5.613 1.373 0 2.695.153 3.94.439 2.856-3.479 8.048-5.804 13.978-5.804 7.056 0 13.065 3.292 15.34 7.9 1.612-.66 3.467-1.038 5.444-1.038 6.183.003 11.195 3.686 11.195 8.232zM173.23 159.367c.788-2.737 3.852-4.777 7.516-4.777.672 0 1.325.07 1.948.2 1.809-3.089 5.732-5.23 10.284-5.23 1.178 0 2.311.143 3.379.409 2.45-3.239 6.901-5.407 11.987-5.407 6.048 0 11.201 3.067 13.153 7.359 1.381-.616 2.974-.966 4.668-.966 5.301 0 9.602 3.434 9.602 7.669 0 .252-.017.499-.046.745H173.23v-.002zM343.89 86.011c-.755-2.386-3.702-4.166-7.222-4.166-.646 0-1.274.06-1.87.172-1.738-2.694-5.509-4.56-9.883-4.56-1.131 0-2.221.123-3.247.356-2.355-2.826-6.632-4.716-11.518-4.716-5.814 0-10.765 2.676-12.642 6.418-1.328-.536-2.856-.842-4.485-.842-5.096 0-9.226 2.994-9.226 6.688 0 .218.015.436.044.65h60.049z" fill="#F0FBFF"/><path d="M436.919 132.838c51.069 0 92.469-11.894 92.469-26.567s-41.4-26.568-92.469-26.568c-51.07 0-92.47 11.895-92.47 26.568 0 14.673 41.4 26.567 92.47 26.567z" fill="#184655"/><path d="M437.494 130.528c24.424 0 47.351-2.779 64.557-7.828 15.668-4.599 25.022-10.739 25.022-16.429 0-5.69-9.354-11.831-25.022-16.43-17.204-5.048-40.131-7.828-64.557-7.828-24.427 0-47.351 2.78-64.557 7.828-15.669 4.599-25.023 10.74-25.023 16.43 0 5.69 9.354 11.83 25.023 16.429 17.206 5.049 40.13 7.828 64.557 7.828z" fill="#fff"/><path d="M479.785 79.868c.472-.189 1.069-.283 1.447.094.314.314.251.817.157 1.194-.283 1.226-.88 2.388-1.478 3.488-2.704 4.871-6.414 9.207-10.754 12.664-1.698 1.383-3.584 2.577-5.503 3.645-1.446 2.326-2.924 4.682-4.056 7.165-.471 1.068-.975 2.2-.975 3.394-.031.597.252 1.319.881 1.477.849.219 1.761 0 2.578-.252 1.918-.754 3.616-2.042 5.126-3.425 1.603-2.483 3.836-4.588 6.477-5.939 1.132-.597 2.421-.849 3.679-.911.22-.409.503-.849.975-1.006.503-.157 1.006-.283 1.509-.409-.346.472-.692.975-1.006 1.477.597.095 1.289-.031 1.824.315 0 .062-.032.22-.032.282a8.07 8.07 0 00-1.949-.22c-.44.598-.786 1.289-1.164 1.917-.88 1.509-1.729 3.048-2.484 4.651-.44.974-.88 1.948-1.069 2.985-.063.472-.126 1.037.283 1.383.409.283.944.22 1.415.157 1.258-.251 2.327-.974 3.365-1.697 2.295-1.697 4.308-3.739 6.131-5.907.032.094.283.251.126.377a49.418 49.418 0 01-3.993 4.116c-1.604 1.414-3.333 2.797-5.346 3.551-.849.314-1.792.471-2.673.251-.817-.188-1.163-1.131-1.1-1.885.189-1.477.912-2.828 1.666-4.085-1.069 1.257-2.169 2.514-3.49 3.551-.849.66-1.729 1.288-2.736 1.602-.408.095-.911.158-1.289-.031-.377-.189-.534-.66-.503-1.037.063-.911.44-1.76.818-2.577-1.258 1.1-2.673 2.074-4.182 2.797-1.321.628-2.83 1.006-4.308.786-.598-.095-1.164-.409-1.447-.943-.346-.534-.377-1.226-.22-1.854.283-1.1.818-2.106 1.321-3.08.849-1.634 1.824-3.236 2.798-4.808.849-1.319 1.761-2.639 2.579-3.99a605.349 605.349 0 015.188-8.39c1.321-2.106 2.673-4.243 4.371-6.065.912-.974 1.981-1.791 3.05-2.577 1.258-.911 2.578-1.697 3.993-2.231zm-2.767 2.042c-1.1 1.1-2.012 2.357-3.018 3.52-1.824 2.388-3.491 4.902-5.126 7.416-1.603 2.482-3.239 4.933-4.811 7.416 3.868-2.137 7.264-5.09 10.094-8.453 1.729-2.105 3.27-4.4 4.276-6.945.346-.974.692-2.01.661-3.08 0-.282-.189-.628-.504-.66-.628-.062-1.132.378-1.572.786zm-3.144 22.028c-1.006.692-1.887 1.54-2.673 2.483-1.226 1.477-2.295 3.142-2.956 4.965-.157.471-.346.974-.251 1.477.126.251.44.188.629.094.408-.157.786-.44 1.163-.691a18.246 18.246 0 003.679-3.457c1.415-1.822 2.484-3.896 3.71-5.876-1.194-.094-2.326.346-3.301 1.005zM389.155 90.458c.378-.095.692-.377 1.007-.566 0 .22.031.471-.126.66-.661 1.006-1.006 2.2-1.227 3.394-.88 3.99-1.54 8.013-2.295 12.035-.22 1.32-.409 2.64-.566 3.991-.094.723-.031 1.508.346 2.137.189.345.566.565.975.597.723.094 1.415-.283 2.138-.252-.032.252-.283.315-.472.346-1.541.377-3.018.88-4.591 1.194-.503.094-.911-.314-1.069-.754-.125-.251 0-.566.032-.817.283-1.666.534-3.362.817-5.028.063-.471.189-.943.126-1.414-.189-.723-.817-1.257-1.478-1.54-1.006-.44-2.138-.345-3.239-.408-2.169 0-4.307 0-6.446-.126-.251-.063-.408.189-.566.314-3.396 2.986-6.634 6.128-9.464 9.616-.692.88-1.447 1.791-1.667 2.891-.094.409-.063.848-.314 1.194-.252-.22-.189-.566-.252-.848-.094-1.037-.503-2.231.252-3.143 1.1-1.382 2.515-2.482 3.804-3.676 6.101-5.437 12.232-10.841 18.553-16.026 1.257-1.006 2.484-2.043 3.804-2.986.535-.471 1.258-.565 1.918-.785zm-3.616 2.702a364.646 364.646 0 00-6.729 5.437c-1.603 1.35-3.207 2.702-4.654 4.273.189.189.441.346.692.377 1.038.252 2.107.252 3.176.252 1.792.031 3.585-.063 5.377.062.44 0 .849.22 1.258.189.22-.471.251-1.006.377-1.54.535-2.922 1.069-5.813 1.604-8.736.063-.408.22-.848.22-1.257-.472.283-.912.629-1.321.943zM440.439 91.903c.157-.377.252-.817.597-1.037.126.189.158.44.409.503.849.283 1.792.22 2.673.251 2.547.032 5.062-.188 7.609-.471 1.227-.094 2.422-.251 3.648-.22 1.541.094 3.176.283 4.496 1.163 1.007.66 1.761 1.728 1.793 2.954.157 1.602-.629 3.142-1.572 4.367-2.17 2.734-5.597 4.306-9.025 4.557-1.195.063-2.453.126-3.585-.314-.157-.032-.157-.252-.125-.377.188-.032.377.031.566.062 2.106.44 4.402.158 6.32-.879 1.918-.975 3.49-2.609 4.339-4.588.566-1.257.786-2.671.503-4.022-.157-.755-.629-1.415-1.32-1.76-1.667-.88-3.679-.849-5.472-.472-.691.126-1.069.786-1.415 1.352-3.175 5.09-6.288 10.244-9.244 15.492-.44.817-.944 1.602-1.164 2.482-.157.597-.063 1.351.503 1.728 1.038.629 2.296.44 3.428.597-.063.126-.126.283-.283.283-1.667.252-3.365.409-5.031.346-.692-.126-1.541-.22-1.981-.817-.22-.629.189-1.257.44-1.791 1.038-2.074 2.327-3.991 3.522-5.971 1.572-2.482 3.05-5.028 4.528-7.573.943-1.697 2.012-3.33 2.704-5.154.063-.157.094-.345.157-.502-.126-.032-.283-.063-.409-.094-2.295.03-4.528.534-6.823.44-.377-.032-.692-.22-.786-.535zM404.941 97.81c.346-.47.66-1.005 1.195-1.288.314-.094.566.126.66.409-1.132 2.137-2.484 4.148-3.899 6.128.754.094 1.541.377 1.949 1.068.126.157.158.503-.094.503-.283-.189-.44-.472-.723-.66-.409-.283-.912-.377-1.415-.534-4.371 5.907-8.364 12.066-12.263 18.32-1.447 2.356-2.83 4.776-4.183 7.196a73.739 73.739 0 00-3.207 6.285c-.346.817-.755 1.665-.629 2.576.063.409.535.534.849.377.786-.282 1.384-.88 1.981-1.445 2.767-2.923 5.283-6.096 7.641-9.364 2.83-3.897 5.692-7.794 8.522-11.69 1.289-1.76 2.578-3.551 3.899-5.279.283-.409.66-.786.88-1.226 1.038-2.042 2.233-3.991 3.396-5.97.126-.189.252-.472.535-.377.503.094.817.597 1.1 1.005-.346.629-.786 1.194-1.163 1.823-1.101 1.728-2.139 3.488-2.956 5.373-.22.566-.472 1.163-.283 1.76.157.377.66.346.975.188.849-.439 1.509-1.131 2.106-1.885 1.101-1.32 1.824-2.86 2.705-4.305.566-1.006 1.195-2.011 1.792-2.985a1.54 1.54 0 01.503-.503c.755.566.975 1.76.346 2.514-1.038 1.477-2.295 2.797-3.082 4.431-.597 1.131-1.006 2.419-.849 3.676.032.44.441.786.912.786 1.132.063 2.107-.597 3.05-1.163a22.182 22.182 0 002.83-2.325c.283-.252.378-.629.566-.974 1.007-1.949 2.453-3.614 4.12-4.997 1.446-1.131 3.05-2.199 4.905-2.545.534-.126 1.069-.126 1.604-.189.22-.408.503-.88.974-1.005.503-.157 1.007-.283 1.51-.409-.346.503-.692.974-1.007 1.477.598.094 1.29-.031 1.824.314 0 .063-.031.22-.031.283-.661-.188-1.321-.22-1.981-.22-1.227 2.074-2.421 4.18-3.491 6.348-.471 1.037-.943 2.074-1.163 3.205-.063.471-.126 1.069.283 1.383.409.283.943.22 1.384.157 1.257-.252 2.358-.974 3.364-1.697 2.296-1.697 4.308-3.739 6.132-5.908.188.126.22.346.031.503-1.478 1.666-3.018 3.268-4.748 4.714-1.289 1.099-2.704 2.105-4.308 2.734-.912.345-1.918.565-2.861.314-.786-.22-1.132-1.131-1.069-1.854.188-1.477.912-2.828 1.666-4.085-1.415 1.697-2.955 3.362-4.842 4.525-.66.408-1.384.785-2.201.722-.378 0-.755-.22-.881-.565-.188-.534-.031-1.1.126-1.634-1.352 1.225-2.798 2.388-4.496 3.079-.818.315-1.761.503-2.61.22-.566-.188-.975-.722-1.038-1.32-.126-.942.157-1.885.535-2.733-.881 1.005-1.761 2.168-3.082 2.576-.66.189-1.509.283-2.012-.314-.441-.566-.252-1.288-.126-1.948-1.101 1.54-2.264 3.017-3.365 4.556-2.515 3.52-5.031 6.976-7.546 10.464-2.642 3.583-5.314 7.196-8.427 10.433-1.101 1.1-2.359 2.074-3.805 2.671-.535.22-1.164.346-1.73.189-.503-.22-.628-.817-.566-1.32.189-1.446 1.007-2.671 1.761-3.897 4.748-7.824 9.874-15.429 14.873-23.065-1.006 1.006-2.043 2.106-3.49 2.42-.503.094-1.1.126-1.541-.22-.408-.346-.44-.943-.377-1.446.126-.848.503-1.634.943-2.356a18.293 18.293 0 013.333-3.96c1.101-.942 2.233-1.854 3.585-2.388a7.967 7.967 0 012.987-.503c1.069-1.728 2.076-3.488 3.208-5.153zm20.03 6.694a17.079 17.079 0 00-4.843 6.693c-.188.535-.409 1.069-.314 1.634.22.346.66.095.975-.063 1.572-.911 2.955-2.168 4.15-3.55 1.635-1.917 2.767-4.18 4.056-6.317-1.509-.094-2.892.66-4.024 1.603zm-25.313-.88c-1.163.377-2.012 1.257-2.799 2.137-1.54 1.76-2.987 3.645-3.993 5.751-.189.502-.472 1.068-.22 1.571.283.031.534 0 .786-.126.912-.408 1.635-1.068 2.295-1.76 1.038-1.162 1.981-2.419 2.893-3.676.975-1.383 1.95-2.766 2.83-4.211-.597.063-1.226.094-1.792.314zM505.158 101.488a21.942 21.942 0 011.541-.409c-.377.471-.692.974-1.037 1.477.597.094 1.32-.031 1.823.314 0 .063-.031.22-.031.283a8.594 8.594 0 00-2.012-.22c-1.195 2.043-2.39 4.085-3.428 6.222-.503 1.068-1.006 2.168-1.226 3.331-.063.44-.126.911.157 1.288.22.283.597.346.943.346.912.031 1.73-.409 2.516-.817 1.666-.974 3.144-2.263 4.528-3.582a50.16 50.16 0 003.05-3.268c.031.062.126.251.189.314a44.259 44.259 0 01-4.843 4.87c-1.32 1.1-2.735 2.137-4.339 2.797-.912.346-1.95.597-2.924.283-.755-.22-1.07-1.131-1.007-1.854.189-1.477.912-2.828 1.667-4.085-1.415 1.697-2.956 3.362-4.874 4.525-.692.408-1.478.817-2.295.691-.472 0-.818-.44-.849-.911-.032-.628.157-1.226.345-1.823.818-2.074 2.202-3.865 3.837-5.373 1.32-1.163 2.767-2.2 4.402-2.828.912-.346 1.887-.503 2.861-.534.252-.44.535-.88 1.006-1.037zm-5.502 3.268c-1.698 1.477-3.019 3.299-4.025 5.31-.377.849-.818 1.697-.849 2.64 0 .377.44.346.66.22.912-.409 1.698-1.069 2.484-1.697.944-.848 1.856-1.76 2.61-2.765 1.289-1.76 2.296-3.677 3.428-5.531-1.635-.126-3.113.786-4.308 1.823z" fill="#184655"/><path d="M487.236 102.179c.188-.094.408-.346.597-.126-.409.566-.629 1.288-.44 2.011.126.66.723 1.1 1.352 1.257.975.22 1.981-.031 2.83-.471 1.069-.566 2.012-1.32 2.893-2.106.251-.251.723.032.629.378-.252.314-.629.471-.944.722-1.729 1.194-3.238 2.608-4.936 3.834-1.95 1.445-3.962 2.765-5.975 4.085.346.409.849.629 1.289.911 3.774 2.326 7.579 4.651 11.666 6.411 1.384.565 2.799 1.1 4.277 1.32 1.949.282 3.993-.158 5.565-1.32 1.227-.849 2.17-2.011 2.925-3.3.063-.22.471-.188.377.063-.377 1.603-1.698 2.828-3.082 3.677-2.169 1.288-4.748 1.728-7.232 1.477-2.578-.22-5.062-1.037-7.389-2.106-3.333-1.54-6.383-3.613-9.433-5.625-.315-.157-.598-.502-.944-.44-.786.346-1.446.975-2.264 1.226-.063-.126-.188-.251-.188-.44.062-.157.22-.251.377-.314 3.553-1.634 6.886-3.708 9.999-6.034.661-.502 1.321-1.005 1.887-1.634-.063-.031-.157-.125-.22-.157-1.038.283-2.076.597-3.176.66a3.068 3.068 0 01-1.572-.565c-.535-.409-.692-1.132-.598-1.76.378-.691 1.069-1.163 1.73-1.634z" fill="#184655"/></svg>