<?xml version="1.0" encoding="utf-8"?><svg width="17" height="17" fill="none" xmlns="http://www.w3.org/2000/svg" viewBox="0 0 17 17"><path d="M6.006 9.379a.386.386 0 00-.386-.386H4.274a.386.386 0 00-.386.386v1.346c0 .213.173.386.386.386H5.62a.386.386 0 00.386-.386V9.38zM9.37 9.379a.386.386 0 00-.386-.386H7.638a.386.386 0 00-.386.386v1.346c0 .213.173.386.386.386h1.346a.386.386 0 00.386-.386V9.38zM12.736 9.379a.386.386 0 00-.386-.386h-1.346a.386.386 0 00-.386.386v1.346c0 .213.173.386.386.386h1.346a.386.386 0 00.386-.386V9.38zM6.006 12.744a.386.386 0 00-.386-.385H4.274a.386.386 0 00-.386.385v1.346c0 .213.173.386.386.386H5.62a.386.386 0 00.386-.386v-1.346zM9.37 12.744a.386.386 0 00-.386-.385H7.638a.386.386 0 00-.386.385v1.346c0 .213.173.386.386.386h1.346a.386.386 0 00.386-.386v-1.346zM12.736 12.744a.386.386 0 00-.386-.385h-1.346a.386.386 0 00-.386.385v1.346c0 .213.173.386.386.386h1.347a.386.386 0 00.385-.386v-1.346z" fill="#787878"/><path d="M15.143 1.893v2.056a1.68 1.68 0 01-1.683 1.679h-1.062c-.93 0-1.693-.75-1.693-1.679V1.886H5.918v2.063c0 .93-.764 1.679-1.693 1.679H3.163A1.68 1.68 0 011.48 3.949V1.893A1.53 1.53 0 000 3.416v12.051C0 16.31.682 17 1.524 17h13.575c.84 0 1.524-.693 1.524-1.533V3.416a1.53 1.53 0 00-1.48-1.523zm-.493 12.824a.659.659 0 01-.659.659H2.604a.659.659 0 01-.66-.66V8.493c0-.364.296-.66.66-.66H13.99c.364 0 .66.296.66.66v6.225z" fill="#787878"/><path d="M3.16 4.525h1.05a.577.577 0 00.577-.577V.578A.577.577 0 004.21 0H3.16a.577.577 0 00-.578.577v3.371c0 .32.259.577.578.577zM12.385 4.525h1.05a.577.577 0 00.577-.577V.578A.577.577 0 0013.435 0h-1.05a.577.577 0 00-.577.577v3.371c0 .32.258.577.577.577z" fill="#787878"/></svg>