<?xml version="1.0" encoding="utf-8"?><svg width="14" height="13" fill="none" xmlns="http://www.w3.org/2000/svg" viewBox="0 0 14 13"><path d="M5.504 7.172a.295.295 0 00-.295-.295H4.18a.295.295 0 00-.294.295v1.03c0 .163.132.295.294.295h1.03a.295.295 0 00.295-.295v-1.03zM8.076 7.172a.295.295 0 00-.294-.295h-1.03a.295.295 0 00-.295.295v1.03c0 .163.132.295.295.295h1.03a.295.295 0 00.294-.295v-1.03zM10.65 7.172a.295.295 0 00-.295-.295h-1.03a.295.295 0 00-.294.295v1.03c0 .163.132.295.295.295h1.03a.295.295 0 00.294-.295v-1.03zM5.504 9.746a.295.295 0 00-.295-.295H4.18a.295.295 0 00-.294.295v1.029c0 .163.132.295.294.295h1.03a.295.295 0 00.295-.295v-1.03zM8.076 9.746a.295.295 0 00-.294-.295h-1.03a.295.295 0 00-.295.295v1.029c0 .163.132.295.295.295h1.03a.295.295 0 00.294-.295v-1.03zM10.65 9.746a.295.295 0 00-.294-.295h-1.03a.295.295 0 00-.295.295v1.029c0 .163.132.295.295.295h1.03a.295.295 0 00.294-.295v-1.03z" fill="#fff"/><path d="M12.492 1.448V3.02c0 .71-.577 1.284-1.288 1.284h-.812c-.71 0-1.295-.573-1.295-1.284V1.442h-3.66V3.02a1.29 1.29 0 01-1.295 1.284H3.33c-.71 0-1.287-.573-1.287-1.284V1.448A1.17 1.17 0 00.91 2.612v9.216c0 .644.522 1.172 1.165 1.172h10.382c.642 0 1.165-.53 1.165-1.172V2.612a1.17 1.17 0 00-1.131-1.164zm-.378 9.806a.504.504 0 01-.504.504H2.902a.504.504 0 01-.503-.504v-4.76c0-.279.225-.504.503-.504h8.71c.278 0 .503.225.503.504v4.76z" fill="#fff"/><path d="M3.327 3.46h.804a.441.441 0 00.441-.44V.44A.441.441 0 004.131 0h-.804a.441.441 0 00-.441.441V3.02c0 .244.198.442.441.442zM10.382 3.46h.803a.441.441 0 00.441-.44V.44a.441.441 0 00-.44-.441h-.804a.441.441 0 00-.442.441V3.02c0 .244.198.442.442.442z" fill="#fff"/></svg>