<?xml version="1.0" encoding="utf-8"?><svg width="21" height="21" fill="none" xmlns="http://www.w3.org/2000/svg" viewBox="0 0 21 21"><path d="M10.5 21C4.722 21 0 16.278 0 10.5S4.722 0 10.5 0c.448 0 .791.343.791.791a.777.777 0 01-.791.792c-4.907 0-8.917 4.01-8.917 8.917s4.01 8.917 8.917 8.917 8.917-4.01 8.917-8.917c0-.448.343-.791.792-.791.448 0 .791.343.791.791C21 16.278 16.278 21 10.5 21z" fill="#000"/><path d="M8.965 13a.62.62 0 01-.483-.227L5.168 9.054a.694.694 0 01.044-.952.642.642 0 01.922.045l2.853 3.198 7.902-8.14c.263-.273.68-.273.922 0 .241.271.263.702 0 .951l-8.385 8.64a.589.589 0 01-.46.204z" fill="#13A3EF"/></svg>