<?xml version="1.0" encoding="utf-8"?><svg width="28" height="25" fill="none" xmlns="http://www.w3.org/2000/svg" viewBox="0 0 28 25"><path d="M.812 1.624h4.982c.447 0 .812.365.812.813 0 .07-.103-.881 1.547 13.975a2.44 2.44 0 00-1.547 2.268 2.439 2.439 0 002.436 2.436h.952a2.44 2.44 0 002.297 3.25 2.44 2.44 0 002.297-3.25h5.152a2.44 2.44 0 002.297 3.25 2.44 2.44 0 002.436-2.437 2.44 2.44 0 00-2.436-2.437H9.042a.813.813 0 010-1.624H23.91a2.429 2.429 0 002.403-2.036l1.398-8.389a.812.812 0 00-.801-.946h-2.436v-4.06a.812.812 0 00-.813-.813h-6.497a.812.812 0 00-.812.813v.812H12.29a.812.812 0 00-.812.812v2.436H8.686l-.456-4.11A2.44 2.44 0 005.794 0H.812a.812.812 0 100 1.624zM13.103 21.93a.813.813 0 01-1.624 0c0-.448.364-.813.812-.813.448 0 .812.365.812.813zm8.934.812a.813.813 0 010-1.625.813.813 0 010 1.625zm-4.06-19.492h4.872v3.248h-4.873V3.25zm-4.874 1.624h3.249v1.624h-3.249V4.873zm12.848 3.249l-1.24 7.443a.81.81 0 01-.801.679H9.77l-.903-8.122H25.95z" fill="#fff"/><path d="M12.29 14.62a.812.812 0 00.813-.813v-3.249a.812.812 0 10-1.624 0v3.249c0 .449.363.812.812.812zM17.164 14.62a.812.812 0 00.812-.813v-3.249a.812.812 0 10-1.624 0v3.249c0 .449.363.812.812.812zM22.037 14.62a.812.812 0 00.812-.813v-3.249a.812.812 0 10-1.624 0v3.249c0 .449.363.812.812.812z" fill="#fff"/></svg>