<?xml version="1.0" encoding="utf-8"?><svg width="32" height="28" fill="none" xmlns="http://www.w3.org/2000/svg" viewBox="0 0 32 28"><path d="M.912 1.824h5.595c.503 0 .912.41.912.913 0 .078-.115-.99 1.738 15.696A2.74 2.74 0 007.42 20.98a2.739 2.739 0 002.737 2.736h1.069a2.74 2.74 0 002.58 3.65 2.74 2.74 0 002.579-3.65h5.787a2.74 2.74 0 002.58 3.65 2.74 2.74 0 002.736-2.737 2.74 2.74 0 00-2.737-2.737H10.155a.913.913 0 010-1.824h16.699a2.728 2.728 0 002.699-2.287l1.57-9.422a.912.912 0 00-.9-1.062h-2.736v-4.56a.912.912 0 00-.912-.913h-7.298a.912.912 0 00-.912.913v.912h-4.56a.912.912 0 00-.913.912v2.736H9.756l-.513-4.616A2.74 2.74 0 006.507 0H.912a.912.912 0 100 1.824zM14.716 24.63a.913.913 0 01-1.824 0c0-.503.41-.913.912-.913.503 0 .912.41.912.913zm10.034.912a.913.913 0 010-1.825.913.913 0 010 1.825zM20.19 3.649h5.473v3.648h-5.474V3.65zm-5.474 1.824h3.65v1.824h-3.65V5.473zm14.43 3.649l-1.393 8.36a.91.91 0 01-.9.762H10.973L9.958 9.122h19.189z" fill="#13A3EF"/><path d="M13.803 16.42a.912.912 0 00.912-.913v-3.649a.912.912 0 10-1.824 0v3.649c0 .504.408.912.912.912zM19.276 16.42a.912.912 0 00.912-.913v-3.649a.912.912 0 10-1.825 0v3.649c0 .504.409.912.913.912zM24.752 16.42a.912.912 0 00.912-.913v-3.649a.912.912 0 10-1.824 0v3.649c0 .504.408.912.912.912z" fill="#13A3EF"/></svg>