<?xml version="1.0" encoding="utf-8"?><svg width="15" height="15" fill="none" xmlns="http://www.w3.org/2000/svg" viewBox="0 0 15 15"><g clip-path="url(#atclip0)" fill="#216AB1"><path d="M13.682 1.787H1.319c-.203 0-.393.05-.565.132L7.47 8.636 8.977 7.19l5.27-5.27a1.303 1.303 0 00-.565-.133zM14.868 2.54L9.908 7.5l4.96 4.96c.082-.173.132-.363.132-.566V3.105c0-.202-.05-.392-.132-.564zM.132 2.54A1.303 1.303 0 000 3.106v8.79c0 .202.05.392.132.564l4.96-4.96-4.96-4.958z"/><path d="M9.288 8.122L7.782 9.569a.438.438 0 01-.621 0L5.713 8.122.753 13.08c.173.082.363.132.566.132h12.363c.203 0 .393-.05.565-.132l-4.96-4.96z"/></g><defs><clipPath id="atclip0"><path fill="#fff" d="M0 0h15v15H0z"/></clipPath></defs></svg>