<?xml version="1.0" encoding="utf-8"?><svg width="260" height="222" fill="none" xmlns="http://www.w3.org/2000/svg" viewBox="0 0 260 222"><path d="M72.186 201.377c0 10.937 34.761 19.796 77.633 19.796 42.878 0 77.632-8.866 77.632-19.796 0-10.938-34.754-19.796-77.632-19.796-42.872 0-77.633 8.865-77.633 19.796z" fill="#A9E1FF"/><path d="M230.642 36.163h-44.913M217.128 42.46h-44.913M98.572 10.964H53.66M85.059 17.26H40.146M47.267 128.893H18.054M33.753 135.196h-31.4M254.128 167.425h-29.213M240.614 173.722h-31.399" stroke="#216AB1" stroke-width="3" stroke-miterlimit="10"/><path d="M166.575 6.482a4.476 4.476 0 004.471 4.482 4.477 4.477 0 004.472-4.482A4.477 4.477 0 00171.046 2a4.476 4.476 0 00-4.471 4.482zM35.675 105.614a4.477 4.477 0 004.472 4.483 4.477 4.477 0 004.471-4.483 4.476 4.476 0 00-4.471-4.482 4.485 4.485 0 00-4.472 4.482zM249.657 65.612a4.476 4.476 0 004.471 4.482 4.477 4.477 0 004.472-4.482 4.477 4.477 0 00-4.472-4.482 4.484 4.484 0 00-4.471 4.482zM49.195 166.095a4.476 4.476 0 004.471 4.482 4.476 4.476 0 004.472-4.482 4.476 4.476 0 00-4.472-4.483 4.476 4.476 0 00-4.471 4.483z" stroke="#216AB1" stroke-width="2.5" stroke-miterlimit="10"/><path d="M74.967 34.647l-9.306 9.328M65.66 34.647l9.307 9.328" stroke="#216AB1" stroke-width="1.563" stroke-miterlimit="10" stroke-linecap="round"/><path d="M70.31 33.475v11.672M64.485 39.314h11.65" stroke="#216AB1" stroke-width="1.749" stroke-miterlimit="10" stroke-linecap="round"/><path d="M11.481 53.251L2.175 62.58M2.175 53.251l9.306 9.329" stroke="#216AB1" stroke-width="1.563" stroke-miterlimit="10" stroke-linecap="round"/><path d="M6.825 52.08v11.678M1 57.919h11.65" stroke="#216AB1" stroke-width="1.749" stroke-miterlimit="10" stroke-linecap="round"/><path d="M250.998 122.716l-9.306 9.328M241.692 122.716l9.306 9.328" stroke="#216AB1" stroke-width="1.563" stroke-miterlimit="10" stroke-linecap="round"/><path d="M246.342 121.544v11.672M240.516 127.376h11.651" stroke="#216AB1" stroke-width="1.749" stroke-miterlimit="10" stroke-linecap="round"/><path d="M81.267 129.727c3.144 12.738 16.433 23.159 29.524 23.159h70.75c13.091 0 28.196-9.792 33.559-21.762l19.669-43.849c5.363-11.97-.951-21.762-14.042-21.762H89.207c-13.091 0-21.228 10.42-18.078 23.159l10.138 41.055zM236.678 79.138H70.891M231.672 94.174H72.477M224.935 109.203H76.195M217.821 124.232H79.907M209.711 139.261H85.752M222.939 65.612l-34.992 81.408M196.99 65.612l-34.992 81.408M171.046 65.612l-34.999 81.408M145.096 65.612l-34.992 81.408M119.146 65.612l-32.291 75.119M93.195 65.612l-17.49 40.704" stroke="#216AB1" stroke-width="7.264" stroke-miterlimit="10" stroke-linecap="round" stroke-linejoin="round"/><path d="M36.21 48.683s21.518-12.825 25.996 5.8c4.471 18.624 31.247 130.07 31.247 130.07h106.284" stroke="#216AB1" stroke-width="10.897" stroke-miterlimit="10" stroke-linecap="round" stroke-linejoin="round"/><path d="M28.819 52.192c0 4.317 3.494 7.819 7.794 7.819 4.306 0 7.793-3.496 7.793-7.82 0-4.316-3.487-7.812-7.793-7.812-4.3 0-7.794 3.496-7.794 7.813zM172.294 195.034c0 6.839 5.528 12.381 12.351 12.381 6.823 0 12.351-5.542 12.351-12.381s-5.528-12.381-12.351-12.381c-6.823 0-12.351 5.542-12.351 12.381zM97.753 195.034c0 6.839 5.528 12.381 12.351 12.381 6.823 0 12.351-5.542 12.351-12.381s-5.528-12.381-12.351-12.381c-6.823 0-12.35 5.542-12.35 12.381z" fill="#216AB1"/><path d="M88.585 153.164c.007 3.317 2.438 6.005 5.436 6.005l108.503-.145c2.999-.007 5.423-2.702 5.416-6.019-.006-3.316-2.437-6.011-5.435-6.004l-108.504.145c-2.992.007-5.422 2.701-5.416 6.018z" fill="#ECECEC" stroke="#216AB1" stroke-width="7.264" stroke-miterlimit="10" stroke-linecap="round" stroke-linejoin="round"/></svg>