<?xml version="1.0" encoding="utf-8"?><svg width="24" height="20" fill="none" xmlns="http://www.w3.org/2000/svg" viewBox="0 0 24 20"><path d="M12.17 19.633c-.329 0-.645-.113-.891-.32-.93-.78-1.828-1.512-2.62-2.159l-.003-.003c-2.321-1.894-4.325-3.53-5.72-5.142C1.379 10.207.653 8.499.653 6.632c0-1.813.65-3.486 1.828-4.71C3.672.681 5.308 0 7.087 0c1.33 0 2.547.403 3.619 1.197.54.4 1.031.891 1.463 1.464a7.238 7.238 0 011.463-1.464A5.957 5.957 0 0117.253 0c1.778 0 3.415.682 4.607 1.921 1.178 1.225 1.827 2.898 1.827 4.711 0 1.866-.726 3.575-2.284 5.377-1.395 1.611-3.398 3.247-5.719 5.142a261.18 261.18 0 00-2.624 2.162c-.246.207-.562.32-.89.32zM7.086 1.293c-1.398 0-2.682.534-3.616 1.505-.947.985-1.47 2.346-1.47 3.834 0 1.57.61 2.974 1.975 4.552 1.32 1.525 3.282 3.128 5.555 4.983l.004.004c.794.649 1.695 1.384 2.632 2.17.943-.788 1.845-1.524 2.641-2.174 2.273-1.856 4.235-3.458 5.555-4.983 1.365-1.578 1.974-2.982 1.974-4.552 0-1.488-.522-2.85-1.47-3.834-.934-.97-2.218-1.505-3.616-1.505a4.601 4.601 0 00-2.793.926c-.74.549-1.255 1.242-1.557 1.726a.853.853 0 01-.732.399.853.853 0 01-.731-.399c-.302-.484-.818-1.177-1.557-1.726a4.6 4.6 0 00-2.794-.926z" fill="#13A3EF"/></svg>