<?xml version="1.0" encoding="utf-8"?><svg width="17" height="22" fill="none" xmlns="http://www.w3.org/2000/svg" viewBox="0 0 17 22"><path d="M4.42 22c-2.825-8.059 3.146-11.001 3.146-11.001-.418 4.3 2.405 7.65 2.405 7.65 1.038-.27 3.02-1.538 3.02-1.538 0 1.538-1.045 4.887-1.045 4.887s3.66-2.45 4.813-6.52c1.15-4.069-2.192-8.154-2.192-8.154.201 2.88-.925 5.713-3.13 7.877.11-.11.203-.233.274-.365.396-.686 1.032-2.469.66-6.597C11.846 2.444 5.78 0 5.78 0c.523 3.53-1.045 4.344-4.718 11.046C-2.61 17.747 4.421 22 4.421 22z" fill="#216AB1"/></svg>