<?xml version="1.0" encoding="utf-8"?><svg width="10" height="13" fill="none" xmlns="http://www.w3.org/2000/svg" viewBox="0 0 10 13"><path d="M2.6 12.94C.938 8.2 4.45 6.47 4.45 6.47c-.245 2.53 1.415 4.5 1.415 4.5.611-.16 1.777-.905 1.777-.905 0 .905-.615 2.875-.615 2.875s2.153-1.441 2.831-3.835c.677-2.394-1.29-4.797-1.29-4.797.119 1.694-.543 3.36-1.84 4.634a.917.917 0 00.16-.215c.234-.404.608-1.452.389-3.88C6.968 1.436 3.4 0 3.4 0c.307 2.077-.615 2.555-2.775 6.498C-1.535 10.439 2.6 12.94 2.6 12.94z" fill="#fff"/></svg>