<?xml version="1.0" encoding="utf-8"?><svg width="22" height="22" fill="none" xmlns="http://www.w3.org/2000/svg" viewBox="0 0 22 22"><g clip-path="url(#bbclip0)" fill="#000"><path d="M17.188 22H4.813a2.065 2.065 0 01-2.063-2.063v-9.625c0-1.137.926-2.062 2.063-2.062h12.375c1.136 0 2.062.925 2.062 2.063v9.624A2.065 2.065 0 0117.187 22zM4.813 9.625a.688.688 0 00-.688.688v9.624c0 .38.309.688.688.688h12.375a.688.688 0 00.687-.688v-9.625a.688.688 0 00-.688-.687H4.813z"/><path d="M15.813 9.625a.688.688 0 01-.688-.688V5.5A4.13 4.13 0 0011 1.375 4.13 4.13 0 006.875 5.5v3.438a.688.688 0 01-1.375 0V5.5C5.5 2.467 7.967 0 11 0s5.5 2.467 5.5 5.5v3.438c0 .379-.308.687-.688.687zM10.997 15.583a1.835 1.835 0 01-1.833-1.833c0-1.011.822-1.833 1.833-1.833 1.011 0 1.834.822 1.834 1.833a1.835 1.835 0 01-1.834 1.833zm0-2.291a.459.459 0 10.002.918.459.459 0 00-.002-.918z"/><path d="M11 18.333a.688.688 0 01-.688-.687v-2.521a.688.688 0 011.376 0v2.52c0 .38-.309.688-.688.688z"/></g><defs><clipPath id="bbclip0"><path fill="#fff" d="M0 0h22v22H0z"/></clipPath></defs></svg>