<?xml version="1.0" encoding="utf-8"?><svg width="19" height="19" fill="none" xmlns="http://www.w3.org/2000/svg" viewBox="0 0 19 19"><path d="M16.218 12.283a9.464 9.464 0 00-3.61-2.265 5.49 5.49 0 002.384-4.526A5.498 5.498 0 009.5 0a5.498 5.498 0 00-5.492 5.492 5.49 5.49 0 002.385 4.526 9.464 9.464 0 00-3.61 2.264A9.438 9.438 0 000 19h1.484c0-4.42 3.596-8.016 8.016-8.016S17.516 14.58 17.516 19H19a9.438 9.438 0 00-2.782-6.717zM9.5 9.5a4.012 4.012 0 01-4.008-4.008A4.012 4.012 0 019.5 1.484a4.012 4.012 0 014.008 4.008A4.012 4.012 0 019.5 9.5z" fill="#000"/></svg>