<?xml version="1.0" encoding="utf-8"?><svg width="29" height="28" fill="none" xmlns="http://www.w3.org/2000/svg" viewBox="0 0 29 28"><path fill-rule="evenodd" clip-rule="evenodd" d="M19.611 6.393h-9.565a2.772 2.772 0 00-2.769 2.769v9.565a2.772 2.772 0 002.77 2.769h9.564a2.772 2.772 0 002.77-2.77V9.163a2.772 2.772 0 00-2.77-2.77zM14.83 18.916a4.978 4.978 0 01-4.972-4.972 4.978 4.978 0 014.972-4.972 4.978 4.978 0 014.972 4.972 4.978 4.978 0 01-4.972 4.972zM19.96 10a1.178 1.178 0 01-1.177-1.176 1.178 1.178 0 012.353 0c0 .649-.528 1.176-1.176 1.176z" fill="#D3298F"/><path fill-rule="evenodd" clip-rule="evenodd" d="M14.828 11.073a2.875 2.875 0 00-2.871 2.87 2.875 2.875 0 002.871 2.872 2.874 2.874 0 002.871-2.871 2.874 2.874 0 00-2.87-2.87z" fill="#D3298F"/><path fill-rule="evenodd" clip-rule="evenodd" d="M.887 0v27.888h27.888V0H.887zm23.596 18.727a4.875 4.875 0 01-4.87 4.87h-9.565a4.875 4.875 0 01-4.87-4.87V9.162a4.875 4.875 0 014.87-4.87h9.565a4.875 4.875 0 014.87 4.87v9.565z" fill="#D3298F"/></svg>