<?xml version="1.0" encoding="utf-8"?><svg width="225" height="84" fill="none" xmlns="http://www.w3.org/2000/svg" viewBox="0 0 225 84"><path d="M180.002.23c.656-.263 1.486-.394 2.01.13.437.437.349 1.136.218 1.66-.393 1.704-1.223 3.32-2.053 4.85-3.757 6.771-8.912 12.8-14.941 17.606-2.359 1.922-4.98 3.582-7.645 5.068-2.01 3.233-4.063 6.51-5.636 9.96-.655 1.486-1.354 3.059-1.354 4.719-.044.83.349 1.835 1.223 2.053 1.179.306 2.446 0 3.582-.35 2.665-1.048 5.024-2.84 7.121-4.761 2.228-3.452 5.33-6.379 9-8.257 1.573-.83 3.364-1.18 5.111-1.267.306-.568.699-1.18 1.355-1.398a37.307 37.307 0 012.097-.568 33.749 33.749 0 00-1.398 2.053c.83.131 1.791-.044 2.534.437 0 .087-.044.306-.044.393-.874-.218-1.791-.306-2.709-.306-.611.83-1.092 1.791-1.616 2.665-1.223 2.097-2.403 4.238-3.451 6.466-.612 1.354-1.224 2.709-1.486 4.15-.087.656-.175 1.442.393 1.923.568.393 1.311.305 1.966.218 1.748-.35 3.233-1.354 4.675-2.36 3.189-2.358 5.985-5.198 8.519-8.212.044.13.393.35.175.524-1.748 2.01-3.583 3.932-5.549 5.723-2.228 1.966-4.631 3.888-7.427 4.937-1.179.437-2.49.655-3.713.35-1.136-.263-1.616-1.574-1.529-2.622.262-2.053 1.267-3.932 2.315-5.68-1.485 1.748-3.014 3.495-4.849 4.937-1.179.918-2.403 1.791-3.801 2.228-.568.131-1.267.219-1.791-.043-.524-.263-.743-.918-.699-1.442.087-1.267.612-2.447 1.136-3.583-1.748 1.53-3.713 2.884-5.81 3.889-1.835.873-3.932 1.398-5.986 1.092-.83-.131-1.616-.568-2.009-1.31-.481-.743-.525-1.704-.306-2.578.393-1.53 1.136-2.927 1.835-4.282 1.179-2.271 2.534-4.5 3.888-6.684 1.18-1.835 2.446-3.67 3.582-5.548a836.703 836.703 0 017.209-11.665c1.835-2.927 3.713-5.898 6.072-8.431 1.267-1.355 2.753-2.49 4.238-3.583 1.748-1.267 3.582-2.359 5.548-3.102zm-3.844 2.839c-1.529 1.53-2.796 3.277-4.194 4.893-2.534 3.32-4.849 6.815-7.121 10.31-2.228 3.452-4.5 6.86-6.684 10.31 5.373-2.97 10.091-7.077 14.023-11.751 2.403-2.927 4.544-6.117 5.942-9.655.48-1.355.961-2.796.917-4.282 0-.393-.262-.873-.699-.917-.874-.088-1.573.524-2.184 1.092zm-4.369 30.625c-1.398.961-2.621 2.14-3.713 3.451-1.704 2.054-3.19 4.37-4.107 6.903-.218.655-.481 1.354-.349 2.053.174.35.611.262.873.131.568-.218 1.092-.611 1.617-.96a25.38 25.38 0 005.111-4.806c1.966-2.534 3.451-5.418 5.155-8.17-1.66-.131-3.233.48-4.587 1.398zM39.634 14.952c.524-.13.96-.524 1.398-.786 0 .306.043.655-.175.917-.917 1.398-1.398 3.058-1.704 4.719-1.223 5.548-2.14 11.14-3.19 16.732-.305 1.835-.567 3.67-.785 5.548-.131 1.005-.044 2.097.48 2.97.262.481.786.787 1.354.83 1.005.132 1.966-.392 2.971-.349-.043.35-.393.437-.655.481-2.14.524-4.194 1.223-6.379 1.66-.698.131-1.266-.437-1.485-1.048-.175-.35 0-.787.044-1.136.393-2.316.743-4.675 1.136-6.99.087-.656.262-1.31.174-1.966-.262-1.005-1.135-1.748-2.053-2.14-1.398-.612-2.97-.481-4.5-.569-3.014 0-5.985 0-8.956-.175-.35-.087-.568.263-.786.437-4.718 4.15-9.218 8.52-13.15 13.369-.961 1.223-2.01 2.49-2.315 4.019-.131.568-.088 1.18-.437 1.66-.35-.306-.262-.786-.35-1.18-.13-1.441-.699-3.101.35-4.368 1.529-1.923 3.495-3.452 5.286-5.112 8.475-7.558 16.994-15.072 25.776-22.28 1.747-1.398 3.45-2.84 5.286-4.15.742-.656 1.747-.787 2.665-1.093zM34.61 18.71a505.198 505.198 0 00-9.35 7.558c-2.228 1.879-4.456 3.757-6.465 5.942.262.262.611.48.96.524 1.443.35 2.928.35 4.413.35 2.49.043 4.98-.088 7.47.087.613 0 1.18.306 1.748.262.306-.655.35-1.398.525-2.14.742-4.064 1.485-8.083 2.228-12.146.087-.568.305-1.18.305-1.747-.655.393-1.266.873-1.834 1.31zM123.734 16.962c.218-.524.349-1.136.83-1.442.175.262.218.612.568.699 1.179.393 2.49.306 3.713.35 3.539.043 7.034-.263 10.573-.656 1.704-.13 3.364-.35 5.067-.306 2.141.132 4.413.394 6.248 1.617 1.398.917 2.446 2.403 2.49 4.107.218 2.227-.874 4.368-2.184 6.072-3.015 3.8-7.777 5.985-12.539 6.335-1.66.087-3.407.175-4.98-.437-.219-.044-.219-.35-.175-.524.262-.044.524.043.787.087 2.927.612 6.116.218 8.781-1.223 2.665-1.355 4.849-3.626 6.029-6.379.786-1.747 1.092-3.713.699-5.592-.219-1.048-.874-1.966-1.835-2.446-2.316-1.223-5.112-1.18-7.602-.655-.961.174-1.485 1.092-1.966 1.878-4.412 7.078-8.737 14.242-12.844 21.538-.612 1.136-1.311 2.228-1.616 3.451-.219.83-.088 1.879.699 2.403 1.441.874 3.189.612 4.762.83-.088.175-.175.393-.394.393-2.315.35-4.674.568-6.99.481-.961-.175-2.14-.306-2.752-1.136-.306-.874.262-1.747.612-2.49 1.441-2.883 3.232-5.548 4.893-8.3 2.184-3.452 4.237-6.99 6.291-10.53 1.31-2.358 2.796-4.63 3.757-7.164.087-.219.131-.48.218-.7-.175-.043-.393-.086-.568-.13-3.189.044-6.291.742-9.48.611-.524-.043-.961-.305-1.092-.742zM61.563 25.175c.481-.656.918-1.398 1.66-1.791.438-.131.787.174.918.567-1.573 2.971-3.451 5.767-5.417 8.52 1.048.13 2.14.524 2.709 1.485.174.218.218.699-.132.699-.393-.262-.611-.655-1.004-.918-.568-.393-1.267-.524-1.966-.742-6.073 8.213-11.621 16.776-17.039 25.47-2.01 3.276-3.931 6.64-5.81 10.004a102.526 102.526 0 00-4.456 8.738c-.48 1.136-1.049 2.315-.874 3.582.087.568.743.743 1.18.524 1.092-.393 1.922-1.223 2.752-2.01 3.845-4.062 7.34-8.475 10.616-13.018 3.932-5.417 7.908-10.835 11.84-16.252 1.79-2.447 3.582-4.937 5.417-7.34.393-.567.917-1.092 1.223-1.703 1.442-2.84 3.102-5.549 4.718-8.301.175-.262.35-.655.743-.524.699.13 1.136.83 1.529 1.398-.48.873-1.092 1.66-1.617 2.534-1.528 2.402-2.97 4.849-4.106 7.47-.306.787-.655 1.617-.393 2.447.218.524.917.48 1.354.262 1.18-.612 2.097-1.573 2.927-2.621 1.53-1.835 2.534-3.976 3.757-5.986.787-1.398 1.66-2.796 2.49-4.15.175-.306.437-.524.7-.699 1.048.786 1.354 2.447.48 3.495-1.442 2.053-3.19 3.888-4.281 6.16-.83 1.573-1.398 3.364-1.18 5.111.044.612.612 1.093 1.267 1.093 1.573.087 2.927-.83 4.238-1.617a30.937 30.937 0 003.932-3.233c.393-.35.524-.873.786-1.354 1.398-2.709 3.408-5.024 5.723-6.946 2.01-1.573 4.238-3.058 6.815-3.539.743-.175 1.486-.175 2.228-.262.306-.568.7-1.223 1.355-1.398a37.307 37.307 0 012.097-.568c-.48.699-.962 1.354-1.398 2.053.83.131 1.79-.043 2.534.437 0 .087-.044.306-.044.393-.918-.262-1.835-.306-2.752-.306-1.704 2.884-3.364 5.811-4.85 8.825-.655 1.442-1.31 2.884-1.616 4.456-.088.656-.175 1.486.393 1.923.568.393 1.31.306 1.922.218 1.748-.35 3.277-1.354 4.675-2.359 3.189-2.359 5.985-5.199 8.519-8.213.262.175.306.48.044.699-2.054 2.315-4.194 4.543-6.597 6.553-1.791 1.529-3.757 2.927-5.986 3.8-1.266.481-2.664.787-3.975.438-1.092-.306-1.573-1.573-1.485-2.578.262-2.053 1.266-3.932 2.315-5.68-1.966 2.36-4.107 4.675-6.728 6.292-.917.568-1.922 1.092-3.058 1.005-.524 0-1.049-.306-1.223-.787-.262-.742-.044-1.529.174-2.272-1.878 1.704-3.888 3.32-6.247 4.282-1.136.437-2.446.699-3.626.306-.786-.263-1.354-1.005-1.442-1.835-.174-1.31.219-2.621.743-3.801-1.223 1.398-2.446 3.014-4.281 3.582-.918.262-2.097.394-2.796-.437-.612-.786-.35-1.79-.175-2.708-1.53 2.14-3.145 4.194-4.675 6.334-3.495 4.894-6.99 9.7-10.485 14.548-3.67 4.98-7.383 10.005-11.708 14.505-1.529 1.529-3.276 2.883-5.286 3.713-.743.306-1.616.48-2.403.262-.699-.305-.874-1.136-.786-1.835.262-2.01 1.398-3.713 2.446-5.417 6.597-10.878 13.718-21.45 20.664-32.066-1.398 1.398-2.84 2.927-4.849 3.363-.699.132-1.529.175-2.14-.305-.569-.481-.612-1.311-.525-2.01.175-1.18.7-2.272 1.31-3.277 1.268-2.053 2.84-3.888 4.632-5.504 1.529-1.31 3.102-2.578 4.98-3.32 1.31-.481 2.709-.743 4.15-.7 1.486-2.402 2.884-4.849 4.456-7.164zm27.83 9.305c-2.971 2.49-5.287 5.723-6.728 9.306-.263.742-.568 1.485-.437 2.271.306.481.917.131 1.354-.087 2.184-1.267 4.107-3.014 5.767-4.937 2.272-2.665 3.844-5.81 5.635-8.78-2.096-.132-4.019.917-5.591 2.227zm-35.169-1.223c-1.616.524-2.796 1.748-3.888 2.97-2.14 2.447-4.15 5.069-5.548 7.995-.263.7-.656 1.486-.306 2.185.393.044.742 0 1.092-.175 1.267-.568 2.272-1.485 3.19-2.446 1.44-1.617 2.751-3.364 4.018-5.112 1.355-1.922 2.709-3.844 3.932-5.854-.83.087-1.704.131-2.49.437zM215.258 30.286a30.62 30.62 0 012.141-.568c-.524.656-.961 1.355-1.442 2.054.83.13 1.835-.044 2.534.437 0 .087-.044.305-.044.393a11.915 11.915 0 00-2.796-.306c-1.66 2.84-3.32 5.68-4.762 8.65-.699 1.486-1.398 3.015-1.703 4.631-.088.612-.175 1.267.218 1.791.306.393.83.48 1.311.48 1.267.044 2.402-.567 3.495-1.135 2.315-1.354 4.368-3.145 6.291-4.98 1.485-1.442 2.883-2.971 4.237-4.544.044.087.175.35.263.437a61.623 61.623 0 01-6.728 6.772c-1.835 1.529-3.801 2.97-6.029 3.888-1.267.48-2.709.83-4.063.393-1.049-.306-1.486-1.573-1.398-2.578.262-2.053 1.267-3.931 2.315-5.679-1.966 2.36-4.106 4.675-6.771 6.291-.961.568-2.054 1.136-3.19.961-.655 0-1.135-.611-1.179-1.267-.044-.874.218-1.704.48-2.534 1.136-2.883 3.059-5.373 5.33-7.47 1.835-1.617 3.845-3.058 6.117-3.932 1.267-.48 2.621-.7 3.975-.743.35-.612.743-1.223 1.398-1.442zm-7.645 4.544c-2.359 2.053-4.194 4.587-5.592 7.383-.524 1.18-1.136 2.36-1.18 3.67 0 .524.612.48.918.306 1.267-.568 2.359-1.486 3.451-2.36 1.311-1.179 2.578-2.446 3.626-3.844 1.791-2.446 3.189-5.111 4.762-7.689-2.272-.175-4.325 1.092-5.985 2.534z" fill="#070809"/><path d="M190.357 31.247c.262-.13.568-.48.83-.174-.568.786-.874 1.79-.612 2.796.175.917 1.005 1.529 1.879 1.747 1.354.306 2.752-.044 3.932-.655 1.485-.786 2.796-1.835 4.019-2.927.349-.35 1.005.044.874.524-.35.437-.874.655-1.311 1.005-2.403 1.66-4.5 3.626-6.859 5.33-2.709 2.01-5.505 3.844-8.301 5.68.481.567 1.18.873 1.792 1.266 5.242 3.233 10.528 6.466 16.208 8.912 1.922.787 3.888 1.53 5.941 1.835 2.709.393 5.548-.218 7.733-1.835 1.704-1.18 3.014-2.796 4.063-4.587.087-.306.655-.262.524.088-.524 2.228-2.359 3.931-4.281 5.111-3.015 1.791-6.597 2.403-10.048 2.053-3.583-.305-7.034-1.441-10.267-2.927-4.631-2.14-8.869-5.024-13.106-7.82-.437-.218-.83-.699-1.311-.611-1.092.48-2.01 1.354-3.145 1.703-.088-.174-.263-.35-.263-.611.088-.219.306-.35.525-.437 4.936-2.272 9.567-5.155 13.892-8.388.918-.7 1.835-1.398 2.622-2.272-.088-.044-.219-.175-.306-.218-1.442.393-2.884.83-4.413.917-.786-.044-1.572-.35-2.184-.786-.743-.568-.961-1.573-.83-2.447.524-.96 1.485-1.616 2.403-2.271zM154.969 57.33h.786v5.984h-.786V57.33zM156.891 57.33h.786v5.984h-.786V57.33zM170.477 57.33h.786v.873h-.786v-.874zM168.162 57.94c.263-.174.525-.305.787-.48v1.53h.786v.567h-.786c0 1.005-.044 2.01 0 3.015l.786.13c0 .22.044.438.044.656-.568.044-1.398.131-1.573-.568-.175-1.092 0-2.184-.087-3.276h-.568v-.568h.568c.043-.306.043-.656.043-1.005zM145.75 60.038c.481-1.224 2.228-1.53 3.189-.7.262.219.393.612.524.918-.262.044-.524.044-.786.087-.175-.568-.743-1.005-1.354-.83-1.049.262-1.136 1.617-.874 2.49.175.743 1.18 1.049 1.791.612.306-.218.393-.568.524-.874.263.044.525.044.743.088-.175.524-.437 1.092-.961 1.354-.917.48-2.272.218-2.752-.786-.306-.7-.306-1.617-.044-2.36zM177.906 59.557c.612-.743 1.748-.917 2.534-.35.437.35.437.962.48 1.486 0 .874.044 1.747-.043 2.621h-.743c-.044-1.048.044-2.097-.044-3.145-.218-1.049-1.922-.787-2.053.174-.087.962-.044 1.923-.044 2.884-.262.044-.524.044-.786.087v-4.369h.699c.044.175.044.481 0 .612zM151.166 58.99c.918-.35 2.097-.044 2.622.83.436.742.393 1.703.087 2.49-.655 1.441-3.058 1.485-3.757.043-.524-1.136-.306-2.927 1.048-3.364zm.306.61c-.917.394-.961 1.617-.699 2.404.262.786 1.354 1.048 1.966.524.568-.48.612-1.31.481-2.01-.131-.742-1.005-1.267-1.748-.917zM159.251 59.426c.83-.786 2.272-.742 3.015.131.436.48.524 1.18.524 1.791h-3.408c.088.7.568 1.53 1.355 1.486.611.087 1.004-.393 1.266-.874.263.044.525.044.787.087-.219.437-.437.918-.918 1.18-1.004.48-2.49.306-3.014-.786-.437-1.005-.35-2.272.393-3.015zm.175 1.31h2.577c-.087-.654-.567-1.31-1.266-1.266-.743-.044-1.267.611-1.311 1.267zM163.751 59.82c.612-1.006 2.185-1.268 3.058-.481.306.218.394.611.525.96-.263.044-.525.044-.787.088-.131-.262-.218-.568-.524-.743-.655-.393-1.529.044-1.704.743-.175.612-.175 1.267.088 1.835.349.699 1.441.83 1.878.218.175-.218.219-.48.306-.699.262.044.48.044.743.088-.088.35-.175.699-.394.96-.786.962-2.577.875-3.232-.218-.394-.873-.35-1.922.043-2.752zM170.477 58.99h.786v4.368c-.262-.044-.524-.044-.786-.087v-4.282zM173.493 58.99c1.049-.394 2.447.174 2.753 1.31.131.655.131 1.354-.088 1.966-.611 1.442-3.014 1.573-3.757.13-.611-1.135-.306-2.97 1.092-3.407zm.131.654c-.83.437-.873 1.53-.611 2.316.262.83 1.398 1.136 2.009.568.568-.48.525-1.31.437-1.966-.087-.83-1.092-1.354-1.835-.917z" fill="#070809"/></svg>