<?xml version="1.0" encoding="utf-8"?><svg width="23" height="23" fill="none" xmlns="http://www.w3.org/2000/svg" viewBox="0 0 23 23"><path d="M22.852 12.545l-1.69-2.682a.96.96 0 01-.126-.715l.67-3.098a.96.96 0 00-.644-1.117l-3.019-.968a.96.96 0 01-.556-.467L16.01.694a.96.96 0 00-1.212-.442l-2.935 1.2a.962.962 0 01-.726 0L8.203.251A.96.96 0 006.99.695L5.513 3.498a.96.96 0 01-.556.467l-3.019.968a.96.96 0 00-.645 1.117l.67 3.098a.96.96 0 01-.125.715l-1.69 2.682a.96.96 0 00.224 1.27l2.505 1.943a.96.96 0 01.363.628l.43 3.141a.96.96 0 00.988.83l3.167-.123a.96.96 0 01.683.248l2.347 2.13a.96.96 0 001.29 0l2.348-2.13a.959.959 0 01.682-.248l3.168.122a.96.96 0 00.988-.829l.429-3.14a.96.96 0 01.363-.63l2.505-1.942a.96.96 0 00.224-1.27zM8.84 15.351l-2.797-1.954 1.15 2.665-.766.33-1.764-4.085.803-.347 2.85 2.007-1.178-2.729.766-.33 1.764 4.086-.828.357zm1.7-.734l-1.763-4.086 3.03-1.308.298.692-2.205.951.39.906 2.052-.886.297.689-2.051.885.48 1.112 2.283-.985.297.689-3.108 1.341zm6.907-2.98l-2.132-2.704.507 3.404-.895.386L12.19 9.06l.844-.365 1.827 2.541-.464-3.129.981-.423 1.948 2.545-.604-3.125.83-.359.771 4.515-.875.377z" fill="#00B633"/></svg>