<?xml version="1.0" encoding="utf-8"?><svg width="563" height="297" fill="none" xmlns="http://www.w3.org/2000/svg" viewBox="0 0 563 297"><path d="M356.616 267.065c2.832 0 4.144-1.932 4.144-4.693v-6.833c0-2.795-1.105-4.659-4.144-4.659-3.038 0-4.143 1.864-4.143 4.659v6.834c.001 2.76 1.312 4.692 4.143 4.692zM314.801 251.191h-3.66v5.729h3.867c2.382 0 3.66-1.001 3.66-2.795 0-1.45-.726-2.934-3.867-2.934zM381.688 254.124c0-1.449-.725-2.933-3.867-2.933h-3.661v5.729h3.868c2.382.001 3.66-1 3.66-2.796zM332.031 251.191v5.729h3.867c2.383 0 3.66-1.001 3.66-2.795 0-1.449-.725-2.934-3.867-2.934h-3.66zM157.194 196.978a2.654 2.654 0 10-.046 5.308 2.654 2.654 0 10.046-5.308zM158.819 123.687a1.49 1.49 0 10.025-2.981 1.49 1.49 0 10-.025 2.981zM373.281 224.011c0 2.69 2.183 4.87 4.875 4.87a4.871 4.871 0 100-9.741 4.873 4.873 0 00-4.875 4.871zM276.469 108.749a4.873 4.873 0 00-4.875 4.87 4.873 4.873 0 004.875 4.871 4.872 4.872 0 004.873-4.871 4.872 4.872 0 00-4.873-4.87zM194.995 52.658a2.7 2.7 0 00-5.401 0 2.7 2.7 0 002.7 2.7 2.7 2.7 0 002.701-2.7zM202.983 224.011a2.7 2.7 0 00-5.401 0 2.7 2.7 0 005.401 0zM9.27 218.613a2.7 2.7 0 100 5.4 2.7 2.7 0 000-5.4zM197.696 5.399a2.7 2.7 0 002.701-2.7 2.7 2.7 0 00-5.401 0 2.7 2.7 0 002.7 2.7zM375.98 185.313a2.7 2.7 0 00-2.7-2.698 2.7 2.7 0 102.7 2.698zM273.771 137.09a2.7 2.7 0 10-.002 5.4 2.7 2.7 0 00.002-5.4zM519.313 105.718c5.545 0 10.04-4.493 10.04-10.034 0-5.542-4.495-10.035-10.04-10.035-5.545 0-10.04 4.493-10.04 10.035 0 5.541 4.495 10.034 10.04 10.034zM495.234 93.165a3.356 3.356 0 003.358 3.355 3.357 3.357 0 10-3.358-3.355zM559.126 179.566a7.033 7.033 0 00-5.935-.188c-2.292-.809-3.921-3.08-4.092-5.756.412-.558.66-1.245.66-1.992a3.357 3.357 0 00-3.358-3.356 3.357 3.357 0 00-3.358 3.356 3.357 3.357 0 003.358 3.355c.18 0 .356-.018.529-.045 2.07 1.146 3.384 3.62 3.131 6.355a7.235 7.235 0 01-.159.966c-.082.138-.166.275-.239.419a7.033 7.033 0 00-.57 1.597 7.034 7.034 0 003.686 7.86 7.045 7.045 0 009.462-3.114 7.036 7.036 0 00-3.115-9.457zM512.162 266.059a3.357 3.357 0 103.358 3.356 3.355 3.355 0 00-3.358-3.356zM17.897 141.148a3.356 3.356 0 10-3.358-3.356 3.356 3.356 0 003.358 3.356zM106.933 18.983a7.182 7.182 0 000-10.16 7.192 7.192 0 00-10.166 0 7.182 7.182 0 000 10.16 7.192 7.192 0 0010.166 0z" fill="#00A4FF"/><path d="M527.034 165.239c-4.13-1.087-7.297-2.198-9.722-3.294-8.514-.179-15.363-7.129-15.363-15.682 0-6.854 4.397-12.676 10.525-14.814v-12.36c0-10.075-8.961-17.631-19.322-17.631-10.921 0-19.321 7.557-19.321 17.631v42.821h-7.323c-.739 1.08-1.508 2.944-2.205 6.048.074 1.948-.859 3.793-2.582 4.693-2.462 1.286-5.599.152-7.004-2.536a5.83 5.83 0 01-.666-2.99c-.222-.9-1.125-3.247-4.631-5.215h-10.592c13.339-30.8 24.603-56.133 37.199-84.978a7.045 7.045 0 007.862-.768 7.025 7.025 0 002.54-5.365c1.657-1.778 4.389-2.365 6.913-1.453a3.34 3.34 0 001.564 1.4 3.359 3.359 0 004.419-1.74 3.358 3.358 0 00-6.158-2.678 3.39 3.39 0 00-.169.504c-1.877 1.44-4.671 1.657-7.079.334a7.214 7.214 0 01-.823-.53c-.094-.13-.186-.262-.289-.388a7.046 7.046 0 00-1.238-1.16 6.86 6.86 0 00-1.945-1.006l2.097-4.832.601-1.387.151-.346c1.119-2.519 1.119-4.477 1.119-6.157 0-.905-.084-1.8-.244-2.676.628-1.07 1.302-1.63 1.612-1.85a5.954 5.954 0 00.427-9.85 5.953 5.953 0 00-4.97-1.004c-2.258.44-4.027.63-5.421.648a21.176 21.176 0 00-4.929-2.46c-1.886-.643-3.846-1-5.795-1-7.281 0-14.561 4.198-17.36 10.915l-20.695 47.724c-9.07 1.86-18.427-3.083-21.854-12.041-.445-1.165-1.39-3.247-2.24-5.354a16.437 16.437 0 00-1.658-5.703l-.001-.005-.001.001c-2.714-5.413-8.311-9.131-14.781-9.131-8.926 0-16.195 7.074-16.511 15.918l-.042-.033c-.032.43-.078.863-.147 1.297-1.073 6.821-6.235 11.98-12.596 13.385-16.366-31.531-49.322-53.077-87.317-53.077-17.189 0-33.344 4.414-47.402 12.163a16.365 16.365 0 01-5.952 1.118c-9.028 0-16.347-7.266-16.347-16.23 0-1.03.106-2.035.293-3.012.507-1.378.786-2.866.786-4.42 0-7.06-5.727-12.783-12.79-12.783-7.064 0-12.79 5.723-12.79 12.783 0 6.865 5.416 12.464 12.21 12.768l-.038.07c.418-.034.838-.056 1.265-.056 8.731 0 15.808 7.074 15.808 15.8 0 3.209-.96 6.193-2.606 8.686-17.437 16.495-28.827 39.303-30.518 64.765-2.228 3.172-6.479 4.328-10.02 2.542a7.858 7.858 0 01-1.277-.81 6.214 6.214 0 00-1.714-1.285 6.217 6.217 0 00-7.757 1.803c-.027-.034-.052-.068-.08-.101a7.513 7.513 0 01-.283.64c-.031.052-.061.106-.091.16-2.202 4.132-7.783 5.561-12.771 3.338v-22.402c0-10.075-8.961-17.63-19.321-17.63-2.43 0-4.734.375-6.851 1.068-6.829-2.213-12.434-7.203-15.49-13.673a7667.188 7667.188 0 0013.661-31.335c1.12-2.519 1.12-4.477 1.12-6.157 0-3.245-1.08-6.334-2.864-9.018a2.698 2.698 0 10-2.818-3.362c-3.683-3.546-8.697-5.81-13.638-5.81-7.28 0-14.56 4.198-17.361 10.915l-9.556 22.034c-3.564 1.38-6.07.868-6.928.607a8.933 8.933 0 00-3.304-.608c-4.874.034-8.796 3.938-8.762 8.717.018 2.688 1.285 5.083 3.258 6.656 2.766 2.44 4.656 4.465 5.924 6.152 4.83.988 8.462 5.26 8.462 10.379 0 5.851-4.746 10.594-10.6 10.594a10.56 10.56 0 01-5.746-1.693l-19.407 44.754c-1.338.244-2.27.033-2.651-.089a5.28 5.28 0 00-7.254 4.893c0 1.631.741 3.09 1.904 4.057 1.231 1.121 2.167 2.096 2.88 2.952l-1.984 4.574c-1.68 3.639-2.8 8.676-2.8 9.796 0 4.903 1.928 9.538 5.257 13.007-.973 4.974-5.074 8.938-10.348 9.476-.745.076-1.478.074-2.197.011a9.275 9.275 0 00-3.246-.24c-5.095.52-8.802 5.068-8.282 10.16.52 5.092 5.07 8.797 10.165 8.278 4.955-.507 8.597-4.823 8.314-9.742l.053.022a11.55 11.55 0 01-.132-.907c-.644-6.292 3.94-11.915 10.236-12.557.681-.07 1.353-.075 2.013-.026 1.375.566 2.848.984 4.402 1.244.217.112.434.227.642.352.005-.083.007-.168.01-.252.969.132 1.966.204 2.992.204h61.605v22.948c0 10.077 8.401 17.632 19.321 17.632 10.921 0 19.321-7.556 19.321-17.632v-22.948h3.641c4.531 0 8.601-1.424 11.785-3.812a4.557 4.557 0 008.974-1.09 4.56 4.56 0 00-4.063-4.57 17.03 17.03 0 002.064-8.16 15.88 15.88 0 00-.674-4.551 31.854 31.854 0 0117.791.275c8.73 24.323 26.78 44.208 49.852 55.346-1.426 8.371-7.112 15.763-15.604 18.931a24.379 24.379 0 01-4.393 1.182c-2.237.005-4.51.398-6.729 1.226-.458.172-.904.363-1.342.565-4.477-.92-7.826-4.876-7.785-9.587a9.645 9.645 0 01.199-1.852c.3-.808.475-1.677.483-2.588a7.647 7.647 0 00-7.583-7.711 7.647 7.647 0 00-7.715 7.579c-.035 4.106 3.177 7.477 7.241 7.691l-.027.05c.249-.018.502-.028.756-.026 5.222.045 9.418 4.311 9.373 9.529-.001.104-.011.204-.015.307-5.568 5.177-7.782 13.385-4.957 20.949 3.741 10.017 14.897 15.106 24.919 11.367 9.746-3.636 14.827-14.281 11.659-24.076.04.004.079.012.119.017a24.49 24.49 0 01-.748-1.764c-4.03-10.791.236-22.645 9.601-28.572 10.944 4.203 22.828 6.513 35.252 6.513 15.533 0 30.22-3.605 43.28-10.016 6.551-1.11 9.874 1.248 10.758 2.024.08.08.165.156.248.235.428.403.903.764 1.416 1.084 1.409 8.936-9.913 9.812-19.402 11.406-19.87 3.337-34.326-5.876-48.22 9.775-5.986 6.743-14.759 31.185-7.909 39.85 10.731 13.574 27.79.792 40.026-3.378 20.085-6.842 34.952-7.594 55.64-1.556 16.586 4.841 48.34 23.513 64.248 7.876 12.107-11.9.267-19.721-2.062-33.04-3.481-19.904 5.017-23.615-18.525-25.352-20.688-1.526-40.78.601-50.677-14.958a8.747 8.747 0 00-.683-1.791c-1.302-2.881-2.148-5.226-2.654-7.135 18.24-16.293 30.359-39.284 32.486-65.109 10.305 1.912 19.6 8.517 24.531 18.664a34.382 34.382 0 011.966 5.019l-.386.893c-1.681 3.638-2.801 8.675-2.801 9.795 0 2.917.685 5.737 1.937 8.277-1.441 5.198-6.293 8.902-11.877 8.647a11.765 11.765 0 01-2.176-.311 9.269 9.269 0 00-3.175-.715c-5.116-.234-9.452 3.72-9.686 8.833-.233 5.112 3.724 9.446 8.839 9.681 4.976.226 9.212-3.508 9.655-8.415.017.009.033.02.05.03-.01-.304-.012-.609.003-.917.288-6.318 5.649-11.207 11.971-10.918a11.7 11.7 0 011.084.105c3.41 2.915 7.963 4.733 13.258 4.733h61.604v22.949c0 10.075 8.4 17.631 19.321 17.631 1.372 0 2.702-.12 3.982-.348 4.855 1.506 7.901 6.429 6.914 11.498a9.892 9.892 0 01-.551 1.84 7.877 7.877 0 00-.981 2.54 7.898 7.898 0 006.246 9.262c4.284.833 8.433-1.962 9.266-6.243.812-4.165-1.816-8.191-5.903-9.177.013-.015.026-.029.038-.045-.258-.03-.515-.066-.774-.116-5.294-1.03-8.75-6.155-7.719-11.446.035-.182.082-.357.127-.534 5.279-3.075 8.677-8.457 8.677-14.862v-16.656c4.316-12.358 11.276-14.499 13.22-14.86a11.655 11.655 0 004.341-1.281c5.727-2.991 7.942-10.058 4.948-15.78a11.703 11.703 0 00-7.954-6.021zm-426.685-52.635v42.82H65.347C75.99 130.85 85.31 109.759 95.041 87.586a26.813 26.813 0 017.842 16.056c-1.616 2.594-2.534 5.64-2.534 8.962zm54.772 47.255c-3.278-2.73-7.618-4.435-12.489-4.435h-.976a5.69 5.69 0 01-2.285 0h-.38v-.092a6.304 6.304 0 01-1.733-.793c-4.806-3.122-2.5-11.26 1.754-13.444 2.643-3.767 8.283-4.872 13.195-2.394.133.067.26.141.389.211a6.18 6.18 0 001.776 1.349 6.212 6.212 0 008.213-2.507l.026.038a7.76 7.76 0 01.253-.56c1.845-3.654 6.208-5.188 9.915-3.578-.009.556-.021 1.11-.021 1.668 0 2.499.095 4.976.278 7.429-4.051 7.759-10.361 13.844-17.915 17.108zm52.004-20.096a2.674 2.674 0 110-5.347 2.674 2.674 0 010 5.347zm41.449-74.848a5.404 5.404 0 015.405 5.402 5.404 5.404 0 01-5.405 5.401 5.403 5.403 0 110-10.803zm13.018 139.513a6.222 6.222 0 01-6.225-6.22 6.223 6.223 0 016.225-6.221 6.222 6.222 0 016.223 6.221 6.222 6.222 0 01-6.223 6.22zm47.27 3.053a2.674 2.674 0 01-2.675-2.673 2.674 2.674 0 015.349 0 2.674 2.674 0 01-2.674 2.673zm8.609-38.825c-1.044 4.665-5.745 7.586-10.5 6.523a8.957 8.957 0 01-3.08-1.336c-.909-.523-3.955-1.901-8.991-.529a42.669 42.669 0 01-9.321 4.718c-.629.371-.985.485-1.108.382-1.65.543-3.344.99-5.076 1.331-.491 5.298 2.78 10.389 8.07 12.002.295.09.592.164.889.229l-.041.041a9.264 9.264 0 015.765 11.434c-1.493 4.895-6.674 7.653-11.574 6.16-4.898-1.493-7.657-6.671-6.162-11.567a9.23 9.23 0 011.478-2.896 11.78 11.78 0 00.841-2.029c1.461-4.786-.302-9.787-4.047-12.708a43.302 43.302 0 01-3.546.148c-23.632 0-42.787-19.147-42.787-42.765 0-23.618 19.156-42.765 42.787-42.765 23.632 0 42.787 19.147 42.787 42.765a42.637 42.637 0 01-2.845 15.358c.793 2.075 2.271 4.772 4.79 8.292 1.565 1.975 2.258 4.59 1.671 7.212zm-16.55 102.483h-9.15c-1.692 0-3.211-.587-3.211-2.451v-19.429c0-1.208 1.139-2.45 2.658-2.45h9.358c1.312 0 2.416 1.035 2.416 2.243 0 1.242-1.104 2.139-2.416 2.139h-7.183v5.557h6.526c1.208 0 2.383.932 2.383 2.174s-1.036 2.209-2.383 2.209h-6.526v5.625h7.527c1.278 0 2.417.966 2.417 2.139.002 1.242-1.104 2.244-2.416 2.244zm20.407.275c-.863 0-1.588-.379-2.037-1.07l-5.801-9.076h-2.347v7.903c0 1.208-1.139 2.277-2.452 2.277-1.277 0-2.383-1.035-2.383-2.277v-19.879c0-1.345 1.209-2.484 2.624-2.484h6.009c6.491 0 8.563 3.692 8.563 7.316 0 3.417-1.83 5.66-4.8 6.626l4.731 7.11c1.139 1.725-.553 3.554-2.107 3.554zm47.997-22.121c0-1.345 1.208-2.484 2.623-2.484h6.009c6.491 0 8.563 3.692 8.563 7.316 0 3.417-1.831 5.66-4.8 6.626l4.73 7.11c1.14 1.724-.552 3.554-2.106 3.554-.863 0-1.588-.379-2.037-1.07l-5.801-9.076h-2.348v7.903c0 1.208-1.14 2.277-2.451 2.277-1.278 0-2.382-1.035-2.382-2.277v-19.879zm-21.685 6.246c0-4.9 2.521-9.042 8.978-9.042s8.977 4.142 8.977 9.042v6.834c0 5.039-3.004 9.076-8.977 9.076-5.974 0-8.978-4.037-8.978-9.076v-6.834zm-26.889-102.132a5.347 5.347 0 015.349-5.346 5.347 5.347 0 110 10.692 5.347 5.347 0 01-5.349-5.346zm23.643 100.717c0 3.417-1.83 5.66-4.799 6.626l4.73 7.11c1.139 1.724-.552 3.554-2.106 3.554-.863 0-1.588-.379-2.037-1.07l-5.801-9.076h-2.348v7.903c0 1.208-1.139 2.277-2.451 2.277-1.279 0-2.383-1.035-2.383-2.277v-19.879c0-1.345 1.208-2.484 2.624-2.484h6.008c6.491.001 8.563 3.693 8.563 7.316zm62.564-110.276c-.434 0-.865-.016-1.293-.041l-.023.053c-13.251 3.768-27.449-.545-36.295-10.782-.315-14.052-3.584-27.372-9.208-39.373 3.666-3.724 8.991-5.688 14.524-4.818 1.538.242 2.992.691 4.343 1.308l-.003-.048a16.453 16.453 0 008.677 2.461c3.298 0 6.368-.97 8.948-2.633 9.913-3.027 20.609 2.072 24.355 11.868a19.616 19.616 0 011.014 3.751c4.338 4.032 7.055 9.782 7.055 16.17 0 12.197-9.891 22.084-22.094 22.084zm55.994 38.688a2.701 2.701 0 01-2.702-2.7 2.701 2.701 0 015.402 0 2.7 2.7 0 01-2.7 2.7zM533.35 149.104a2.7 2.7 0 100-5.4 2.7 2.7 0 000 5.4z" fill="#00A4FF"/></svg>