<?xml version="1.0" encoding="utf-8"?><svg width="30" height="29" fill="none" xmlns="http://www.w3.org/2000/svg" viewBox="0 0 30 29"><g clip-path="url(#bjclip0)" fill="#FF9736"><path d="M15.291 11.597a2.9 2.9 0 002.902-2.928 2.909 2.909 0 00-2.917-2.916 2.913 2.913 0 00-2.924 2.952 2.907 2.907 0 002.94 2.892z"/><path d="M28.23 0H2.317C1.464 0 .773.69.773 1.543v25.914c0 .853.691 1.543 1.543 1.543h25.915c.852 0 1.542-.69 1.542-1.543V1.543C29.773.69 29.083 0 28.231 0zM15.299 2.704c3.3.009 5.951 2.71 5.935 6.048-.018 3.26-2.711 5.904-6.007 5.893-3.263-.011-5.938-2.716-5.92-5.984.02-3.304 2.697-5.966 5.992-5.957zm6.687 14.286c-.73.75-1.61 1.292-2.585 1.671-.923.357-1.934.538-2.935.657.151.165.223.245.316.34 1.36 1.365 2.723 2.725 4.077 4.094.461.466.559 1.045.304 1.588-.278.593-.9.983-1.51.941-.386-.027-.687-.22-.954-.488-1.026-1.032-2.07-2.044-3.074-3.095-.293-.306-.433-.249-.692.018a204.287 204.287 0 01-3.133 3.146c-.473.468-1.036.551-1.586.285-.584-.283-.955-.879-.926-1.478.02-.405.219-.714.497-.992 1.344-1.342 2.684-2.688 4.026-4.033.089-.088.172-.184.301-.322-1.83-.19-3.479-.64-4.89-1.745-.175-.138-.356-.27-.516-.424-.618-.593-.68-1.272-.191-1.973.418-.6 1.12-.76 1.85-.416.142.066.276.15.405.239 2.631 1.808 6.246 1.858 8.887.082.261-.2.541-.365.866-.447.63-.162 1.218.069 1.556.62.388.63.383 1.244-.093 1.732z"/></g><defs><clipPath id="bjclip0"><path fill="#fff" transform="translate(.773)" d="M0 0h29v29H0z"/></clipPath></defs></svg>