<?xml version="1.0" encoding="utf-8"?><svg width="13" height="13" fill="none" xmlns="http://www.w3.org/2000/svg" viewBox="0 0 13 13"><g clip-path="url(#bmclip0)" fill="#232323"><path d="M5.384 7.617C4.143 6.377 3.863 5.135 3.8 4.638a.446.446 0 01.128-.373l1.004-1.003a.448.448 0 00.063-.555L3.396.224a.448.448 0 00-.58-.163L.248 1.27a.446.446 0 00-.247.445C.137 2.993.694 6.133 3.78 9.22c3.087 3.086 6.227 3.643 7.505 3.778a.446.446 0 00.445-.247l1.21-2.566a.448.448 0 00-.163-.58l-2.483-1.599a.448.448 0 00-.555.063L8.736 9.073a.446.446 0 01-.373.128c-.497-.063-1.738-.343-2.98-1.584z"/><path d="M10.31 6.948A.448.448 0 019.86 6.5 3.366 3.366 0 006.5 3.138a.448.448 0 110-.897 4.263 4.263 0 014.259 4.26c0 .247-.201.447-.449.447z"/><path d="M12.55 6.948a.448.448 0 01-.448-.448A5.61 5.61 0 006.5.897.448.448 0 116.5 0 6.507 6.507 0 0113 6.5a.449.449 0 01-.448.448z"/></g><defs><clipPath id="bmclip0"><path fill="#fff" d="M0 0h13v13H0z"/></clipPath></defs></svg>