<?xml version="1.0" encoding="utf-8"?><svg width="17" height="17" fill="none" xmlns="http://www.w3.org/2000/svg" viewBox="0 0 17 17"><path d="M7.04 9.96C5.418 8.339 5.051 6.716 4.97 6.066a.583.583 0 01.167-.487L6.45 4.265a.586.586 0 00.083-.725L4.442.293a.586.586 0 00-.76-.214L.325 1.66a.583.583 0 00-.322.583c.176 1.67.904 5.777 4.94 9.814 4.036 4.036 8.143 4.764 9.814 4.94a.583.583 0 00.583-.323l1.58-3.356a.586.586 0 00-.212-.758l-3.246-2.09a.586.586 0 00-.726.082l-1.313 1.313a.583.583 0 01-.487.167c-.65-.082-2.273-.449-3.896-2.071z" fill="#9A9A9A"/><path d="M13.483 9.086a.586.586 0 01-.586-.586A4.401 4.401 0 008.5 4.103a.586.586 0 010-1.172A5.575 5.575 0 0114.07 8.5a.586.586 0 01-.587.586z" fill="#9A9A9A"/><path d="M16.414 9.086a.586.586 0 01-.586-.586A7.336 7.336 0 008.5 1.172.586.586 0 118.5 0 8.51 8.51 0 0117 8.5a.586.586 0 01-.586.586z" fill="#9A9A9A"/></svg>