<?xml version="1.0" encoding="utf-8"?><svg width="17" height="17" fill="none" xmlns="http://www.w3.org/2000/svg" viewBox="0 0 17 17"><path d="M7.039 9.96c-1.623-1.622-1.99-3.245-2.072-3.895a.583.583 0 01.167-.487l1.313-1.313a.586.586 0 00.083-.725L4.44.293A.586.586 0 003.68.08L.324 1.66A.583.583 0 000 2.243c.176 1.67.904 5.777 4.94 9.814 4.036 4.036 8.143 4.764 9.814 4.94a.583.583 0 00.583-.323l1.58-3.356a.586.586 0 00-.212-.758l-3.246-2.09a.586.586 0 00-.726.082l-1.312 1.313a.583.583 0 01-.488.167c-.65-.082-2.273-.449-3.895-2.071z" fill="#216AB1"/><path d="M13.481 9.086a.586.586 0 01-.586-.586 4.402 4.402 0 00-4.397-4.396.586.586 0 110-1.173 5.575 5.575 0 015.57 5.57.586.586 0 01-.587.585z" fill="#216AB1"/><path d="M16.412 9.086a.586.586 0 01-.586-.586 7.336 7.336 0 00-7.328-7.328.586.586 0 110-1.172 8.51 8.51 0 018.5 8.5.586.586 0 01-.586.586z" fill="#216AB1"/></svg>