<?xml version="1.0" encoding="utf-8"?><svg width="613" height="353" fill="none" xmlns="http://www.w3.org/2000/svg" viewBox="0 0 613 353"><path d="M588.986 279.251c-35.106 0-573.46.041-573.46 0-19.72-19.994-25.528-67.724 17.181-113.82C48.35 148.55 6.847 116.174 33.79 64.233 44.029 44.497 84.923 10.57 192.845 36.897c45.888 11.194 84.827-6.68 93.449-13.134 4.856-3.633 10.176-6.806 15.87-9.55C361.559-14.527 464.178 3.775 508.971 38.32c6.347 4.897 35.21 30.233 12.46 65.051-14.364 21.988 45.816 42.985 67.197 68.088 54.374 63.833.851 106.96.358 107.792z" fill="#E2F5FF"/><path d="M562.105 269.005c-33.473 0-546.785-.012-546.785 0-18.803 6.014-24.341 20.371 16.381 34.236 14.916 5.077-24.657 14.816 1.033 30.439 9.762 5.936 48.755 16.141 151.657 8.222 43.753-3.367 80.881 2.01 89.101 3.951 4.631 1.092 9.703 2.047 15.133 2.872 56.632 8.644 154.477 3.139 197.187-7.251 6.052-1.473 33.571-9.094 11.88-19.566-13.696-6.614 43.685-12.93 64.071-20.48 51.846-19.2.812-32.172.342-32.423z" fill="#E2F5FF"/><path d="M418.418 132.012l1.672.419 2.225-8.864-1.671-.419-2.226 8.864z" fill="#8ACDF0"/><path d="M420.902 120.256v.008c-.082.684.114 1.421.762 1.663.863.324 1.448-.24 1.667-1.107 0-.005.056-.223.056-.225.073-.305.778-.056.88.239a2.485 2.485 0 11-4.762.203c.099-.396.29-.749.544-1.037.242-.278.904-.111.853.256zM420.053 135.474v-.007c.083-.684-.113-1.421-.761-1.663-.865-.324-1.45.239-1.668 1.107-.002.005-.055.222-.058.227-.072.305-.778.056-.88-.241a2.494 2.494 0 01.034-1.712 2.487 2.487 0 114.184 2.545c-.241.281-.901.114-.851-.256z" fill="#8ACDF0"/><path d="M416.263 95.484s-1.216-1.523-2.004-2.857c-.79-1.334-5.629-4.143-5.975-1.78-.317 2.171 1.25 1.526 1.82 3.24.571 1.713 1.269 2.45 4.825 4.02l1.334-2.623z" fill="#FFB27D"/><path d="M415.101 96.335c1.061-1.586 1.378-1.668 1.378-1.668s17.553 6.719 19.23 7.28c1.675.561 26.721 1.975 26.721 1.975l7.558 15.94s-33.375-7.304-37.59-8.805c-6.966-2.48-18.14-12.196-18.14-12.196s.009-1.281.843-2.526z" fill="#E58638"/><path d="M458.71 245.378s-.382 5.912-1.527 7.302h-17.609c.111-.59.609-2.045 2.811-2.414 2.782-.465 7.44-2.34 9.122-5.869 1.777-3.71 7.203.981 7.203.981zM490.01 242.947s1.11 8.967-.398 9.1c-.201.017-7.254.005-9.171.28-3.13.45-8.353.058-8.353.058-.655.027-1.083-.652-.749-1.194.365-.592 1.063-1.228 2.393-1.472 2.772-.512 7.393-2.465 9.013-6.023 1.701-3.742 7.265-.749 7.265-.749z" fill="#163560"/><path d="M450.434 166.693s4.425 14.862 17.115 40.677c4.155 8.455 6.934 15.297 8.793 20.68a105.826 105.826 0 011.583 4.928c.203.699.389 1.361.559 1.985 1.663 6.212 1.629 9.037 1.629 9.037s2.881 1.042 6.323.713c1.752-.169 5.6-1.747 5.6-1.747s-.416-4.162-1.252-10.046c-.094-.647-.193-1.312-.295-1.998-.135-.919-.283-1.869-.437-2.843-.107-.655-.215-1.32-.329-1.989-1.474-8.767-3.662-18.943-6.579-25.29-5.995-13.025-7.218-48.675-7.218-48.675l-25.492 14.568z" fill="#233862"/><path d="M443.352 159.111c.14 8.353.802 25.874 3.77 46.071 1.434 9.76 2.207 17.582 2.601 23.639.046.713.087 1.4.121 2.062.06 1.066.106 2.071.143 3.012.026.713.048 1.389.062 2.032.167 6.519-.183 9.514-.183 9.514s.251.147.776.336h.004c.895.321 2.572.756 5.098.756a12.73 12.73 0 002.896-.328c1.365-.319 2.146-.757 2.146-.757s.667-3.763 1.426-9.226c.094-.655.186-1.332.278-2.032.126-.926.244-1.888.37-2.882.08-.664.162-1.339.242-2.025 1.003-8.675 1.779-18.981.942-25.942a32.307 32.307 0 01-.2-3.682v-.005c-.008-6.267 1.327-14.707 2.929-22.575l.015-.065c1.651-8.097 3.582-15.576 4.626-19.448.471-1.755.761-2.767.761-2.767l-.877-.029h-.005l-6.937-.213-18.926-.59-1.165-.036-.942-.029c.002 0-.029 1.873.029 5.209z" fill="#2A4E96"/><path d="M462.937 100.038l-4.689 3.333-6.775-1.368c.094-.592.541-3.05.947-5.277.024-.13.048-.263.073-.391.348-1.893.65-3.522.65-3.522l6.328-3.026 2.359-1.129a345.45 345.45 0 00-.208 2.403c-.44 5.346 1.315 8.977 1.315 8.977z" fill="#FFB27D"/><path d="M451.95 98.355c.15-.06 9.218-2.627 10.202-2.315.986.311 1.569 2.141 1.569 2.141l-14.002 3.826c.002.003.336-2.886 2.231-3.652z" fill="#E58638"/><path d="M476.369 156.744c-1.535 6.729-33.583-14.384-33.158-18.49l.14-1.356c.593-5.717 1.158-11.312 1.199-14.962.032-3.166.486-6.405 1.093-9.347a74.767 74.767 0 011.837-7.101 7.773 7.773 0 012.24-3.478 8.144 8.144 0 012.558-1.562 6.99 6.99 0 01.795-.265c3.86-1.076 9.199-2.405 10.65-2 3.922 1.11 6.835 7.733 8.899 16.178 3.858 15.803 4.75 37.999 3.747 42.383z" fill="#F99746"/><path d="M461.154 91.155c-1.39 2.552-6.567 4.76-8.728 5.569l.072-.392c.348-1.892.65-3.521.65-3.521l6.328-3.027c1.397-.019 2.251.322 1.678 1.37z" fill="#FCA56B"/><path d="M450.071 92.458s11.419 3.417 13.526-3.438c2.108-6.854 5.004-11.031-2.199-13.504-7.201-2.472-9.429-.258-10.713 1.866-1.281 2.125-3.529 14.01-.614 15.076z" fill="#FFB27D"/><path d="M451.136 76.723s.727 7.976 2.448 7.63c1.719-.345 3.278-.602 3.026 1.803-.251 2.405-2.637 5.183 2.664 5.608 5.298.425 12.917-12.687 11.459-15.17-4.198-7.166-25.667-8.611-19.597.129z" fill="#163560"/><path d="M444.179 153.902c3.174 1.1-.055-3.026 0-3.887.247-3.783-1.3-8.566-.827-13.117l19.385-11.119s4.6 27.946-18.558 28.123z" fill="#E58638"/><path d="M476.365 156.744c-8.276 14.715-9.593 20.335-9.593 20.335-7.203-.788-19.544-14.374-23.458-18 0 0-.531-16.719-.106-20.825l5.982-.165s10.814 2.63 13.618-.94c2.804-3.567 1.59-21.086 1.59-21.086l8.218-1.707c3.86 15.808 5.971 38.436 3.749 42.388z" fill="#2A4E96"/><path d="M427.268 128.542s-3.94-2.557-4.686-2.779c-.747-.223-3.198-.465-3.312-.278-.113.183-.449.751-.022.945.428.191.962.123.8.258-.159.133-1.769-.602-2.141.186-.372.788-.699 3.488 1.192 4.305 1.89.82 6.552.08 6.888.174 2.855.795 1.281-2.811 1.281-2.811z" fill="#FFB27D"/><path d="M427.231 127.851s19.225 3.137 20.929 2.34c2.72-1.272-1.056-19.987-1.056-19.987s-.162-4.242 5.001-5.243c4.488-.87 8.817 2.357 8.817 2.357s3.938 3.381 3.435 7.13c-1.114 8.312-2.85 25.217-8.643 27.808-7.474 3.343-29.097-9.267-29.097-9.267s-.72-.846-.619-2.417c.092-1.387 1.233-2.721 1.233-2.721z" fill="#F99746"/><path d="M465.997 115.732l-1.593.331s-3.367-13.985-14.681-14.053a8.128 8.128 0 012.557-1.562c4.145 1.064 11.343 4.465 13.717 15.284z" fill="#2A4E96"/><path opacity=".5" d="M476.344 228.05c.241.694.466 1.363.674 2.006 4.249.005 8.283-.759 11.266-1.503.641-.16 1.238-.322 1.769-.474-.106-.655-.215-1.32-.328-1.989-3.019.872-8.093 2.076-13.381 1.96zM477.926 232.979c.203.698.389 1.36.558 1.984 3.865-.104 7.495-.803 10.236-1.487.762-.19 1.453-.384 2.062-.555-.094-.648-.193-1.313-.295-1.999-2.765.809-7.5 1.996-12.561 2.057z" fill="#fff"/><path d="M415.785 94.863s-.22-1.518-.686-2.618c-.467-1.1-1.059-2.497-1.185-1.779-.128.72.339 1.946 0 2.54-.338.595 1.871 1.857 1.871 1.857z" fill="#FFB27D"/><path d="M449.727 228.821c.045.713.087 1.4.12 2.062 3.921.706 7.745.73 10.648.59a64.53 64.53 0 002.368-.162c.08-.665.162-1.339.242-2.026-2.881.271-8.104.571-13.378-.464zM449.988 233.895c.027.713.049 1.39.063 2.033 3.623.568 7.123.585 9.823.452.87-.044 1.656-.097 2.337-.155.095-.655.187-1.332.278-2.033-2.716.251-7.526.537-12.501-.297z" fill="#fff"/><path d="M118.227 129.31v.358c0 6.857-5.81 12.436-12.95 12.436H66.463c-4.312 0-7.819 3.367-7.819 7.507v1.187c0 4.141 3.507 7.508 7.82 7.508h42.847c.87 0 1.581.705 1.581 1.578a3.33 3.33 0 01-.984 2.369 3.333 3.333 0 01-2.366.981H66.463c-7.142 0-12.953-5.579-12.953-12.436v-1.187c0-6.854 5.811-12.433 12.953-12.433h38.814c4.309 0 7.819-3.372 7.819-7.51v-.358c0-4.14-3.51-7.509-7.819-7.509H65.741c-7.14 0-12.95-5.579-12.95-12.436V107.7c0-6.858 5.81-12.436 12.95-12.436h39.536c4.309 0 7.819-3.367 7.819-7.508 0-4.14-3.51-7.51-7.819-7.51H27.336c.464-1.619.993-3.26 1.59-4.925h76.353c7.14 0 12.951 5.578 12.951 12.435 0 6.855-5.811 12.436-12.951 12.436H65.741c-4.31 0-7.82 3.367-7.82 7.508v1.665c0 4.143 3.51 7.51 7.82 7.51h39.536c7.14 0 12.95 5.578 12.95 12.435z" fill="#A0DEFF"/><path d="M341.428 76.793h-66.354v1.491h66.354v-1.491z" fill="#AFE2FF"/><path d="M274.309 77.32a1.573 1.573 0 111.573 1.574 1.573 1.573 0 01-1.573-1.574zM339.398 77.32a1.574 1.574 0 113.148 0 1.574 1.574 0 01-3.148 0z" fill="#AFE2FF"/><path d="M334.982 76.834v51.304c-5.093.871-18.389.124-25.966.994-7.58.87-24.778-.297-24.778-.297V77.071c0-.851.687-1.538 1.538-1.54l47.831-.073c.761 0 1.375.614 1.375 1.376z" fill="#F7CC7F"/><path d="M334.982 108.156v19.98c-5.093.87-18.389.123-25.966.993-7.58.871-24.778-.297-24.778-.297v-19.228c.119-.686.186-1.085.186-1.085s11.049.856 20.865.235c9.764-.617 21.499.978 29.693-.598z" fill="#EAB054"/><path d="M293.545 119.899c-4.153 0-9.006-.201-9.279-.211l.05-1.24c.09.003 8.963.368 12.982.126l.948-.058c4.87-.302 15.003-.93 19.237-.225 4.351.725 17.778-.164 17.913-.174l.082 1.24c-.558.039-13.709.907-18.2.16-4.095-.682-14.51-.037-18.955.239l-.95.058a70.87 70.87 0 01-3.828.085zM293.545 122.632c-4.153 0-9.006-.2-9.279-.21l.05-1.242c.09.002 8.963.367 12.982.125l.948-.058c4.87-.302 15.003-.93 19.237-.225 4.351.726 17.778-.164 17.913-.171l.082 1.24c-.558.036-13.707.906-18.2.159-4.095-.684-14.51-.036-18.955.24l-.95.058c-1.046.06-2.395.084-3.828.084z" fill="#fff"/><path d="M436.742 73.904s-15.846 12.782-17.451 11.977c-1.605-.8-1.9-2.823-1.9-2.823-3.316.64-6.064 4.916-7.299 7.156-.45.82-.696 1.368-.696 1.368-1.48.356-2.326-.749-2.326-.749 1.733-6.555 8.84-14.449 16.129-17.134 7.285-2.683 12.76-.433 13.543.205z" fill="#AFE2FF"/><path d="M438.277 75.444c1.336 2.84-2.047 7.246-7.558 9.84-5.511 2.593-11.063 2.393-12.4-.448-1.337-2.84 2.047-7.246 7.558-9.84 5.511-2.593 11.063-2.395 12.4.448z" fill="#13A3EF"/><path d="M429.366 80.157c.075.157-.145.416-.491.578-.343.162-.684.167-.759.01-.075-.157.145-.416.491-.58.345-.162.686-.165.759-.008zM425.143 82.144c.075.157-.145.416-.49.578-.344.162-.685.167-.759.01-.075-.158.145-.416.49-.578.344-.162.684-.167.759-.01zM431.479 79.164c.075.157-.145.416-.491.578-.345.161-.684.166-.759.01-.074-.158.146-.416.491-.58.346-.163.684-.168.759-.008zM433.593 78.168c.074.157-.145.416-.491.58-.343.162-.684.167-.759.007-.075-.157.145-.415.491-.58.345-.16.684-.164.759-.007zM436.324 76.882c.075.157-.145.416-.488.58-.343.162-.684.167-.759.007-.075-.157.145-.415.491-.577.343-.165.681-.17.756-.01zM427.253 81.15c.074.158-.145.416-.491.578-.343.162-.684.167-.759.01-.075-.157.145-.416.491-.578.345-.164.686-.166.759-.01zM422.547 83.367c.075.157-.145.416-.488.578-.346.162-.684.167-.759.007-.075-.157.145-.416.49-.578.344-.162.682-.164.757-.007zM428.768 78.886c.075.157-.145.416-.49.578-.346.162-.685.166-.759.01-.075-.158.145-.416.49-.58.346-.16.684-.165.759-.008zM424.543 80.875c.075.157-.145.416-.488.578-.343.162-.684.166-.759.007-.075-.157.145-.416.491-.578.343-.162.681-.164.756-.007zM422.346 81.687c.075.157-.145.416-.49.578-.346.162-.684.167-.759.01-.075-.158.145-.416.49-.578.346-.162.687-.167.759-.01zM434.643 75.9c.075.158-.145.416-.49.58-.344.163-.685.168-.759.008-.075-.157.145-.416.49-.578.346-.164.687-.166.759-.01zM423.762 79.696c.075.157-.145.415-.488.577-.346.162-.684.167-.759.008-.075-.158.145-.416.488-.578.346-.162.684-.167.759-.007zM430.882 77.892c.074.157-.146.416-.491.578-.343.162-.684.167-.759.01-.075-.157.145-.416.491-.58.345-.162.684-.165.759-.008zM432.995 76.899c.075.157-.145.416-.491.578-.346.162-.684.166-.759.007-.075-.157.145-.416.491-.578.345-.162.684-.167.759-.007zM426.656 79.88c.075.156-.145.415-.49.577-.343.162-.684.167-.757.01-.075-.157.145-.418.488-.58.346-.16.684-.165.759-.008zM429.901 81.288c.075.157-.145.416-.491.58-.343.162-.684.167-.759.008-.075-.157.145-.416.491-.58.346-.16.684-.165.759-.008zM425.674 83.278c.075.157-.145.415-.49.577-.346.162-.684.167-.759.01-.075-.157.145-.416.49-.58.346-.162.685-.164.759-.007zM424.203 84.668c.075.157-.145.415-.49.58-.344.162-.684.166-.757.007-.075-.157.145-.416.488-.578.346-.164.684-.167.759-.01zM432.012 80.295c.075.157-.145.416-.488.58-.346.162-.684.167-.759.007-.075-.157.145-.415.488-.577.346-.165.684-.167.759-.01zM434.121 79.302c.075.157-.145.415-.488.577-.346.162-.684.167-.759.007-.075-.157.145-.415.488-.577.346-.162.687-.165.759-.007zM435.856 78.484c.075.158-.145.416-.491.58-.343.163-.684.167-.757.008-.075-.157.145-.416.489-.578.343-.162.686-.167.759-.01zM434.721 80.57c.075.158-.145.416-.49.58-.344.162-.684.167-.759.008-.075-.157.145-.416.49-.578.346-.162.684-.167.759-.01zM427.786 82.284c.074.157-.146.416-.489.578-.346.162-.684.167-.759.01-.075-.158.145-.416.491-.578.343-.165.682-.17.757-.01zM430.496 82.56c.075.157-.145.415-.49.577-.344.162-.684.167-.757.008-.075-.157.145-.416.488-.578.346-.162.687-.164.759-.007zM427.542 76.28c.075.157-.145.416-.491.578-.343.162-.684.167-.759.007-.075-.157.145-.416.491-.578.345-.16.684-.164.759-.007zM431.12 83.882c.075.157-.145.416-.491.58-.346.162-.684.167-.759.007-.075-.157.145-.415.491-.577.345-.162.684-.167.759-.01zM432.608 81.566c.075.157-.145.416-.491.58-.343.162-.684.167-.759.008-.075-.157.145-.416.491-.578.346-.164.684-.167.759-.01zM428.385 83.553c.075.157-.145.416-.49.578-.346.162-.684.167-.759.01-.075-.158.145-.416.49-.58.346-.16.687-.165.759-.008zM426.469 84.455c.075.157-.145.415-.488.577-.344.162-.684.167-.759.008-.075-.158.145-.416.49-.578.344-.162.684-.164.757-.007zM428.171 77.62c.075.156-.145.415-.491.577-.346.162-.684.167-.759.007-.075-.157.145-.416.491-.578.345-.162.684-.166.759-.007zM430.284 76.623c.075.157-.145.416-.491.578-.343.162-.684.167-.759.01-.075-.157.145-.416.491-.578.346-.162.684-.167.759-.01zM429.788 75.572c.075.157-.145.416-.491.578-.346.162-.684.166-.759.01-.075-.158.145-.416.488-.578.348-.165.687-.167.762-.01zM433.098 82.603c.075.157-.145.416-.491.578-.343.162-.684.167-.756.01-.075-.157.145-.416.488-.578.345-.162.684-.167.759-.01zM429.078 84.496c.075.157-.145.416-.488.58-.346.162-.684.167-.759.007-.075-.157.145-.415.491-.58.343-.162.681-.167.756-.007zM425.565 77.561c.075.157-.145.416-.491.578-.343.162-.684.167-.759.007-.075-.157.145-.415.491-.577.346-.162.687-.165.759-.008zM432.397 75.63c.075.157-.145.416-.491.578-.345.162-.684.166-.759.007-.074-.157.145-.416.491-.578.346-.162.684-.164.759-.007zM426.059 78.613c.075.157-.145.415-.491.577-.343.162-.684.167-.756.008-.075-.157.145-.416.488-.578.343-.162.684-.165.759-.007z" fill="#AFE2FF"/><path d="M392.98 251.989h-3.273V68.712c0-.742.602-1.346 1.346-1.346h.694c.682 0 1.233.551 1.233 1.233v183.39z" fill="#76D0FF"/><path d="M393.075 140.001l-.188-2.236c1.979-.062 3.72-.628 5.32-1.735 5.158-3.565 8.247-12.334 8.928-25.36.525-9.99-.587-18.986-.599-19.075l3.671-.172c.189 1.491 4.441 36.633-9.235 46.086-2.258 1.562-4.914 2.4-7.897 2.492z" fill="#AFE2FF"/><path d="M423.244 177.488h-29.558a2.343 2.343 0 010-4.685h29.558a2.343 2.343 0 010 4.685zM412.36 93.753h-20.678a1.982 1.982 0 01-1.975-1.975c0-1.085.89-1.975 1.975-1.975h20.678c1.085 0 1.975.89 1.975 1.975s-.89 1.975-1.975 1.975z" fill="#76D0FF"/><path d="M422.104 142.781l-1.794 25.29h-7.348l-1.462-25.29h10.604z" fill="#3C8F7C"/><path d="M420.309 168.071h-7.348v4.732h7.348v-4.732z" fill="#fff"/><path d="M422.106 141.205H411.5v1.578h10.606v-1.578z" fill="#2F7E6C"/><path d="M419.739 151.429a1.548 1.548 0 10-3.097-.001 1.548 1.548 0 003.097.001zM417.674 155.192a1.919 1.919 0 10-3.838 0 1.919 1.919 0 003.838 0zM415.895 152.009a.969.969 0 10-1.937 0 .969.969 0 001.937 0z" fill="#fff"/><path d="M415.563 151.676a.335.335 0 00-.336-.336.334.334 0 00-.336.336c0 .186.149.336.336.336a.337.337 0 00.336-.336zM415.493 155.934a.602.602 0 10-1.204.002.602.602 0 001.204-.002zM419.38 151.927a.654.654 0 10-1.308.002.654.654 0 001.308-.002zM408.723 150.204l-1.793 17.867h-7.348l-1.465-17.867h10.606z" fill="#3C8F7C"/><path d="M406.93 168.071h-7.348v4.732h7.348v-4.732z" fill="#fff"/><path d="M408.723 149.089h-10.606v1.115h10.606v-1.115z" fill="#2F7E6C"/><path d="M406.357 155.045a1.55 1.55 0 10-3.098 0 1.55 1.55 0 003.098 0zM404.291 158.808a1.919 1.919 0 10-3.838 0 1.919 1.919 0 003.838 0zM402.513 155.627a.97.97 0 10-1.939 0 .97.97 0 001.939 0z" fill="#fff"/><path d="M402.18 155.292a.335.335 0 00-.336-.336.335.335 0 10.336.336zM402.11 159.55a.603.603 0 10-1.205.001.603.603 0 001.205-.001zM406.001 155.543a.654.654 0 10-1.308.002.654.654 0 001.308-.002z" fill="#3C8F7C"/><path d="M417.385 83.058c-3.316.64-6.064 4.916-7.299 7.156.152-2.784 5.424-9.134 6.845-8.63 1.421.497.454 1.474.454 1.474z" fill="#2192CE"/><path d="M412.286 268.792l-5.16 9.71h-2.661l2.062-9.71h5.759zM522.332 268.792l5.16 9.71h2.662l-2.062-9.71h-5.76z" fill="#13A3EF"/><path d="M578.15 200.682l-12.859 35.19c-7.894 21.608-28.449 35.98-51.455 35.98h-92.629c-19.837 0-36.991-13.83-41.194-33.218l-5.115-23.583c12.414 1.98 25.588 3.063 39.029 3.469 77.68 2.361 164.223-17.838 164.223-17.838z" fill="#A0DEFF"/><path d="M467.438 271.855h-46.231c-19.837 0-36.991-13.831-41.194-33.218l-5.115-23.584c12.414 1.98 25.588 3.063 39.029 3.469-.554 8.66.152 46.422 53.511 53.333z" fill="#76D0FF"/><path d="M436.047 220.17c-10.727 0-20.366-.319-28.376-.737-22.491-1.17-37.365-3.34-37.513-3.362a2.139 2.139 0 01.624-4.23c.145.022 14.865 2.168 37.169 3.324 20.567 1.068 51.975 1.489 84.813-2.562 32.874-4.056 55.406-8.076 68.521-10.735 14.21-2.878 20.729-4.826 20.792-4.846a2.138 2.138 0 111.233 4.095c-.266.079-6.7 2.003-21.06 4.918-13.202 2.679-35.884 6.73-68.964 10.81-20.361 2.516-40.174 3.325-57.239 3.325z" fill="#13A3EF"/><path d="M256.086 63.305h-61.481v78.299h61.481V63.305z" fill="#AFE2FF"/><path d="M253.594 65.756h-56.496v73.701h56.496v-73.7zM114.695 185.142H38.727v93.517h75.968v-93.517z" fill="#A0DEFF"/><path d="M114.695 199.086H38.727v1.269h75.968v-1.269zM61.204 197.849H41.012v-10.792h20.192v10.792zm-19.938-.254H60.95V187.31H41.266v10.285zM72.191 192.454a3.617 3.617 0 013.619-3.618 3.617 3.617 0 110 7.236 3.619 3.619 0 01-3.619-3.618zM81.969 192.454a2.948 2.948 0 115.898 0 2.948 2.948 0 11-5.898 0zM108.655 188.985h-16.17v6.937h16.17v-6.937zM75.81 263.255c15.546 0 28.148-12.602 28.148-28.147 0-15.545-12.602-28.147-28.147-28.147-15.545 0-28.147 12.602-28.147 28.147 0 15.545 12.602 28.147 28.147 28.147z" fill="#76D0FF"/><path d="M76.94 257.715c12.485-.618 22.106-11.24 21.488-23.725-.617-12.485-11.239-22.105-23.724-21.488-12.485.618-22.106 11.24-21.488 23.725.617 12.485 11.239 22.105 23.724 21.488z" fill="#13A3EF"/><path d="M98.064 241.194h-1.52a3.432 3.432 0 01-3.423-3.422v-3.044a3.432 3.432 0 013.423-3.422h1.52a3.432 3.432 0 013.423 3.422v3.044a3.431 3.431 0 01-3.423 3.422z" fill="#76D0FF"/><path d="M270.809 183.876h-84.348v94.625h84.348v-94.625z" fill="#A0DEFF"/><path d="M270.809 212.905h-84.348v1.119h84.348v-1.119zM236.049 188.985H222.39a.823.823 0 01-.82-.819v-.237c0-.449.37-.819.82-.819h13.659c.449 0 .819.37.819.819v.237c0 .45-.37.819-.819.819zM270.809 247.244h-84.348v1.119h84.348v-1.119zM236.049 218.213H222.39c-.45 0-.82-.37-.82-.82v-.237c0-.452.37-.819.82-.819h13.659c.449 0 .819.37.819.819v.237c0 .452-.37.82-.819.82zM236.049 254.084H222.39c-.45 0-.82-.37-.82-.819v-.237c0-.45.37-.82.82-.82h13.659c.449 0 .819.37.819.82v.237c0 .449-.37.819-.819.819z" fill="#76D0FF"/><path d="M275.465 178.943h-94.258v6.199h94.258v-6.199zM224.207 165.429a1.889 1.889 0 01-1.883-1.883v-17.14c0-1.037.849-1.883 1.883-1.883 1.037 0 1.883.849 1.883 1.883v17.14a1.888 1.888 0 01-1.883 1.883z" fill="#13A3EF"/><path d="M214.225 156.072s4.554-1.711 6.089-.672c1.535 1.042-.476 4.271-1.694 4.484-1.219.213-4.765-.317-4.765-.317l.37-3.495z" fill="#FFB27D"/><path d="M214.958 158.25c.715-1.948.111-2.917.111-2.917s-16.757-3.246-18.319-4.286c-1.561-1.039-15.699-20.644-15.699-20.644l-22.215 2.069s27.712 23.279 31.722 25.836c6.625 4.223 22.64 1.818 22.64 1.818s1.197-.346 1.76-1.876z" fill="#ED7D2B"/><path d="M214.415 161.203l1.554 1.281 6.79-8.234-1.553-1.281-6.791 8.234z" fill="#35488B"/><path d="M222.911 150.056l-.004.008c-.431.681-.593 1.556-.032 2.134.749.773 1.649.474 2.313-.334.003-.002.169-.205.174-.21.23-.283.849.331.808.694a2.905 2.905 0 01-4.465 2.11 2.906 2.906 0 01.433-5.103c.396-.169 1.01.339.773.701zM214.385 165.683l.005-.007c.43-.68.592-1.557.031-2.135-.749-.773-1.648-.473-2.313.334-.002.005-.169.205-.174.21-.229.283-.848-.331-.807-.694a2.892 2.892 0 01.894-1.788 2.904 2.904 0 113.138 4.781c-.397.169-1.011-.339-.774-.701z" fill="#35488B"/><path d="M220.313 155.4s-2.649-.082-2.733 1.23c-.085 1.313-.29 3.329 1.039 3.251 1.332-.075 5.064-3.086 1.694-4.481z" fill="#FFB27D"/><path d="M229.578 158.006s16.717-15.22 23.185-6.693c1.687 2.224-1.978 4.863-4.615 5.272-4.71.727-12.508-1.709-18.57 1.421z" fill="#0F7EB9"/><path d="M256.394 165.429c0 5.793-6.26 10.848-15.549 13.53H210.32c-9.286-2.682-15.547-7.737-15.547-13.53h61.621z" fill="#A0DEFF"/><path d="M257.912 165.429h-64.661a1.36 1.36 0 01-1.356-1.356c0-.747.609-1.356 1.356-1.356h64.661c.747 0 1.356.609 1.356 1.356a1.36 1.36 0 01-1.356 1.356z" fill="#1989C4"/><path d="M236.592 168.15s1.122 6.311-1.958 8.027c-3.081 1.719-5.513-1.933-2.811-3.579 2.7-1.646 3.778-1.571 4.769-4.448zM236.82 162.717s8.501 1.133 11.844 7.498c3.343 6.364 5.997 15.297-.832 16.668-6.828 1.37-9.997-2.113-7.874-10.13 2.997-11.324-3.138-14.036-3.138-14.036z" fill="#0F7EB9"/><path d="M114.696 264.625s-2.992 2.775-2.41 4.745c.585 1.97 3.285 3.284 3.65 5.694.365 2.41 1.825 3.723 3.14 3.723h6.265s.967-1.695-1.368-2.207c-2.335-.51-3.217-3.341-3.07-5.97.145-2.628-.22-6.133-.22-6.133l-4.965-1.167-1.022 1.315zM151.412 271.717s-.699 6.313.616 6.968h16.946s.032-2.006-2.67-2.443c-2.7-.438-7.445-2.045-8.248-5.62-.804-3.577-6.644 1.095-6.644 1.095z" fill="#2C3A64"/><path d="M165.608 182.01s-.887 11.065-1.929 24.366c-1.416 18.068-3.12 40.264-3.29 44.467-.292 7.302-1.459 18.979-1.459 18.979s-2.773 2.775-8.322 1.605c0 0-4.946-16.671-6.357-34.31l-.066-.873c-1.314-17.956-3.357-55.769-3.357-55.769l24.78 1.535z" fill="#35488B"/><path d="M165.608 182.01s-.887 11.065-1.929 24.366l-19.428 30.741-.066-.873c-1.314-17.956-3.357-55.769-3.357-55.769l24.78 1.535z" fill="#2C3A64"/><path d="M161.559 183.322s-.822 2.06-2.212 5.465c-3.248 7.933-9.6 23.175-15.892 36.682-2.915 6.26-5.818 12.145-8.392 16.76-10.512 18.836-13.797 24.091-13.797 24.091s-.152-.061-.403-.17c-1.09-.459-4.112-1.796-5.494-3.021-.336-.3-.578-.59-.67-.863 0 0 4.02-36.355 11.058-45.218 3.976-5.009 8.649-20.038 8.869-25.29.096-2.318.386-5.632.679-8.619a425.606 425.606 0 01.747-7.039l18.456 5.228 7.051 1.994z" fill="#35488B"/><path d="M157.801 188.475c-8.266-.43-11.94-1.348-16.673-2.509-2.847-.696-4.727-2.16-5.827-2.83.261-2.697.532-5.122.662-6.294l7.423 3.797 14.415 7.836z" fill="#2C3A64"/><path d="M168.602 120.237s6.523 11.476 12.897 12.975c0 0-.193-2.819-1.221-5.286a2.334 2.334 0 01.358-2.357c.256-.317.498-.619.723-.904 1.605-2.057 2.369-3.316 2.369-3.316l-2.164-5.818-1.467-3.947a19.112 19.112 0 01-2.294 3.306c-4.181 4.805-9.201 5.347-9.201 5.347z" fill="#FFB27D"/><path d="M177.8 114.89s-.778 5.75 3.558 9.772c1.605-2.056 2.369-3.316 2.369-3.316l-2.163-5.818c-2.323-.703-3.764-.638-3.764-.638z" fill="#ED975D"/><path d="M185.441 122.197s-9.746-3.8-7.285-9.833c2.458-6.033 2.857-10.586 9.185-8.413 6.325 2.17 6.589 4.962 6.258 7.176-.331 2.211-5.56 11.901-8.158 11.07z" fill="#FFB27D"/><path d="M179.87 147.743a60.428 60.428 0 01-4.073 9.156 74.575 74.575 0 00-.926 1.735c-.198.38-.386.759-.573 1.134-3.555 7.169-5.194 13.386-5.902 18.268-.135.94-.239 1.827-.312 2.666-.321 3.582-33.815-8.08-32.734-13.091.713-3.299 1.685-6.765 2.596-9.719 1.327-4.326 2.516-7.553 2.516-7.553 6.265-14.909 15.157-22.936 22.085-27.173a40.813 40.813 0 013.543-1.95c4.208-2.064 7.072-2.579 7.072-2.579s1.434 7.161 7.575 10.002c.008.021.96 3.889.965 3.906 1.025 3.681.208 9.312-1.832 15.198z" fill="#F99746"/><path d="M176.757 101.159c-.068-.135-.266-.278-.75-.428 0 0 .455-.152.982-.036.273-.667.938-1.806 2.185-1.813 0 0-.716.186-.979.902 1.709-1.083 4.878-1.4 12.789 1.237 10.424 3.474 5.216 9.523 3.637 10.009-1.58.486-4.488-2.627-7.106-3.053-2.615-.425-4.032 3.22-5.027 3.522-.999.302-.431-.527-1.475-1.358-1.044-.832-1.643 1.124-1.622 2.494.022 1.373-2.013 2.673-2.013 2.673l-1.194-2.189c-1.194-2.19-.87-10.145.271-11.576.099-.128.2-.256.302-.384z" fill="#216AB1"/><path d="M159.219 142.3s1.121 8.491 4.914 14.915c3.792 6.425 5.472-3.574 5.472-3.574L159.219 142.3z" fill="#ED7D2B"/><path d="M174.298 159.768c-3.555 7.169-5.194 13.386-5.902 18.268-.136.94-.24 1.827-.312 2.666a42.068 42.068 0 00-.005 7.718c.346 3.911-29.044-3.64-32.976-9.294-2.161-3.113.551-13.796 2.84-21.234.384.092 18.604 4.428 31.209-6.845l5.146 8.721z" fill="#35488B"/><path d="M176.531 139.59l-1.816-3.62c.005-.063.199-6.391-3.599-10.104-2.047-2.006-4.928-2.91-8.573-2.7a40.96 40.96 0 013.543-1.95c2.604.401 4.781 1.457 6.514 3.157 4.462 4.37 3.943 14.922 3.931 15.217z" fill="#2C3A64"/><path d="M201.594 164.52s5.716-1.025 6.664-.914c.95.111 4.21 1.661 4.242 1.931.031.271-.138.484-.713.496-.578.012-2.458-.322-2.35-.087.109.234 5.511 1.566 5.521 2.666.007 1.1-3.077 2.999-5.608 3.016-2.53.017-7.355-3.152-7.778-3.207-3.594-.486.022-3.901.022-3.901z" fill="#FFB27D"/><path d="M202.664 166.85c.112-1.129-1.07-2.328-1.07-2.328s-16.966-4.667-18.37-6.084c-1.404-1.416-7.909-23.977-7.909-23.977s-2.238-9.131-7.48-10.137c-4.557-.875-7.704 1.38-9.765 4.022-2.456 3.149-2.695 7.491-.658 10.925 4.573 7.706 13.799 23.006 16.494 25.619 5.997 5.818 27.664 4.616 27.664 4.616s.87-.391 1.094-2.656z" fill="#F99746"/><path d="M519.66 112.377s7.81-2.371 12.412 2.093c4.604 4.464 3.698 9.588 10.265 9.19 6.567-.399 8.068 2.015 7.22 5.793-.849 3.778 7.28 2.715 9.738 7.324 2.458 4.609 2.809 13.096-9.871 12.661-12.68-.438-18.302-7.261-23.731-4.426-5.429 2.833-14.381-1.726-12.032-5.697s-2.209-2.901-3.014-11.012c-.803-8.117 3.529-15.315 9.013-15.926z" fill="#163560"/><path d="M509.18 134.174s.42-3.346 2.042-4.815c1.61-1.46 3.495-2.13 3.906-1.143.414.986-.783 3.748-1.187 4.623-.403.878-.423 2.306-2.158 2.679-1.736.372-2.603-1.344-2.603-1.344z" fill="#FFB27D"/><path d="M513.536 133.717l-2.574-2.067a.89.89 0 01-.138-1.249l4.645-5.789a.89.89 0 011.25-.138l2.574 2.067a.89.89 0 01.138 1.249l-4.646 5.789a.888.888 0 01-1.249.138z" fill="#F99746"/><path d="M513.508 133.175l-2.011-1.614a.764.764 0 01-.119-1.073l4.298-5.354a.764.764 0 011.073-.119l2.011 1.615a.764.764 0 01.119 1.073l-4.298 5.354a.763.763 0 01-1.073.118zM535.993 138.176c-6.855-1.448-6.807-.744-11.293-.628 0 0-5.339.285-8.907 1.305-5.967 1.707-10.727 8.121-10.727 8.121l7.479-11.454-3.831-2.042s-17.335 15.976-13.103 22.266c3.526 5.242 17.473-5.63 17.142-4.071-.005.02-.007.036-.01.051-1.025 7.15 4.624 17.683 4.624 17.683l10.524 8.262 10.04-7.145h.003l.817-.295s1.655-.822 2.148-4.735c.061-.483.411-4.617.759-8.781.375-4.496.745-9.026.745-9.026l-6.41-9.511z" fill="#165999"/><path d="M518.14 171.732s-3.959 11.581-3.255 20.057c.425 5.124 7.304 41.557 7.691 43.921.362 2.228 5.307 31.078 5.307 31.078s-.85 4.803.967 4.291c2.521-.711 3.317-1.564 3.317-1.564s3.768-48.329 1.435-65.592c-2.332-17.263-2.359-32.193-2.359-32.193H518.14v.002z" fill="#919191"/><path d="M538.656 171.283s7.386 9.91 8.075 16.61c.689 6.7 1.08 30.23 2.548 36.761 1.467 6.531 6.857 19.1 6.857 39.468 0 0-.561 1.168-2.289 1.789-.554.198-.3-.795-1.018-.631-1.426.326-13.028-28.802-13.678-30.112-3.645-7.335-10.79-32.775-18.785-46.274-1.919-3.242 1.177-16.129 1.177-16.129l17.113-1.482z" fill="#555"/><path d="M527.615 140.042c1.317-.597 1.893-1.576 1.605-2.999-.42-2.088-1.192-4.041-1.283-7.089l-.44.101-7.392 1.723.329 4.595c.201 2.964.919 6.505 7.181 3.669z" fill="#FFB27D"/><path d="M520.105 131.778s.247 2.335.327 4.542c4.16-.256 6.233-4.128 7.063-6.263l-7.39 1.721z" fill="#E8945B"/><path d="M518.785 133.913s9.854-.167 9.656-6.304c-.198-6.137.94-10.289-5.361-10.442-6.301-.152-7.447 2.229-7.88 4.293-.43 2.064 1.015 12.339 3.585 12.453z" fill="#FFB27D"/><path d="M518.16 117.46s3.312 8.01 8.015 9.052c4.704 1.044 6.686-.274 6.686-.274s-3.672-2.721-4.581-7.657c0-.002-7.957-5.059-10.12-1.121z" fill="#163560"/><path d="M519.426 117.117s-2.226.918-3.099 2.593c-.853 1.639-1.554 2.166-1.288 4.771 0 0-2.475-3.811-.005-7.016 2.618-3.399 4.392-.348 4.392-.348z" fill="#163560"/><path d="M517.369 169.405s1.943 1.537 5.806 1.614c4.611.092 16.042-1.177 16.042-1.177s.507 1.419.488 2.918c0 0-13.959 3.521-22.046.514-.003.003-1.047-1.96-.29-3.869z" fill="#233862"/><path d="M522.066 174.995c-1.16 0-2.105-1.068-2.105-2.383 0-1.312.945-2.381 2.105-2.381 1.16 0 2.105 1.069 2.105 2.381-.002 1.315-.945 2.383-2.105 2.383zm0-4.065c-.776 0-1.407.757-1.407 1.685s.631 1.684 1.407 1.684 1.407-.756 1.407-1.684c0-.931-.633-1.685-1.407-1.685z" fill="#fff"/><path d="M536.613 230.337s9.889-2.19 15.412-4.791c0 0 5.58 31.267 7.7 41.956.329 1.662 1.165 4.181 1.487 5.68.599 2.794-.078 5.317-.078 5.317h-17.112s.108-2.632 3.113-3.606c3.007-.974 6.146-3.06 6.067-4.36-.08-1.301-16.589-40.196-16.589-40.196zM520.407 231.161l14.623-.109s-1.225 35.635-.667 39.427c.558 3.79.667 8.02.667 8.02h-18.846s-.244-2.214 2.763-4.007c3.007-1.794 6.417-.252 7.556-2.768 1.133-2.516-6.096-40.563-6.096-40.563z" fill="#F47458"/><path d="M519.246 130.249c.07.456-.176.875-.553.933-.377.058-.737-.266-.81-.723-.07-.457.176-.875.553-.933.377-.058.74.263.81.723z" fill="#fff"/><path d="M568.051 158.013s1.774-3.316 3.425-3.526c1.651-.211 4.643-1.349 4.452-.713-.191.635-2.086.87-2.238 1.254-.15.384 2.905.665 3.77.648.866-.017 2.884-.261 2.862.174-.022.435-3.451 2.54-6.004 2.523-2.552-.017-5.595 1.25-5.595 1.25l-.672-1.61z" fill="#FFB27D"/><path d="M536.396 152.06s9.842 15.45 15.452 16.891c4.421 1.133 17.451-7.43 17.451-7.43.764-2.855-.63-4.516-.63-4.516s-13.203 2.986-14.387 2.618c-4.769-1.474-9.059-13.415-11.88-17.405-2.366-3.345-6.41-4.041-6.41-4.041l.404 13.883zM504.626 145.71l5.182-3.565-2.598 5.767-5.081.464 2.497-2.666zM291.234 226.609s-16.636 3.807-16.636 14.728c0 0 .169 5.498 6.137 3.978 4.657-1.184-.549-7.655 10.499-18.706zM290.229 225.213s-11.752-2.345-12.833.403c-1.67 4.235 6.485-1.341 12.833-.403z" fill="#165999"/><path d="M609.28 280H.665a.668.668 0 01-.665-.665v-.169c0-.365.3-.665.665-.665h608.613c.365 0 .664.3.664.665v.169a.663.663 0 01-.662.665z" fill="#233862"/><path d="M303.467 225.751s7.133 8.221 4.3 13.41c-.396.725-1.23 1.985-3.517 1.161-2.286-.827.486-3.827.382-7.619-.084-3.012-1.165-6.952-1.165-6.952z" fill="#165999"/><path d="M297.372 224.144c1.856.293 6.175-.998 6.49-1.027 2.678-.256.094-2.893.094-2.893s-4.211-.926-4.917-.871a7.84 7.84 0 00-1.027.196l.723.706s-3.507.37-3.546 1.184c-.036.82.563 2.451 2.183 2.705z" fill="#FFB27D"/><path d="M299.045 219.353l-2.983.363c0 .783 2.294.527 2.408.913.111.387.64-.539.64-.539l-.065-.737zM326.859 219.593s-4.012.391-3.753.816c.258.426 2.018.612 2.018.612l1.412-.906.323-.522z" fill="#FFB27D"/><path d="M303.135 221.529c-.645-1.866.254-2.449.254-2.449s18.384-8.718 19.888-9.678c1.503-.959 11.611-19.368 11.611-19.368s3.747-7.526 8.518-7.374c4.148.131 6.451 2.717 7.73 5.426 1.523 3.229.88 7.065-1.571 9.661-5.506 5.825-16.559 17.362-19.424 19.112-6.373 3.896-25.478 7.048-25.478 7.048s-1.02-.913-1.528-2.378z" fill="#E58638"/><path d="M305.823 241.508c2.775 3.198 8.627 5.264 19.917 5.789a156.776 156.776 0 005.566.167c3.068.043 6.12.007 9.031-.09 2.82-.096 5.508-.251 7.942-.454 4.762-.397 8.561-.972 10.524-1.632.587-.198 1.01-.401 1.247-.614.201-.178.365-.391.488-.63.713-1.32.341-3.486-.519-5.871-1.255-3.474-3.556-7.409-5.105-9.874a73.24 73.24 0 00-.824-1.281c-.472-.723-.767-1.146-.767-1.146s-5.274.491-12.493 1.426c-1.472.191-3.029.401-4.636.629-15.523 2.194-30.99 6.141-30.975 11.377.002.793-.051 1.45.604 2.204z" fill="#216AB1"/><path d="M325.043 247.232c.943.029 5.318.217 6.263.229 3.067.044 6.12.008 9.03-.089l2.736-11.024c-4.232 5.905-16.668 10.504-18.029 10.884zM334.185 279.251h-15.048c.237-.573.809-1.32 2.207-1.564 2.371-.416 6.484-1.697 5.958-5.119-.535-3.469 5.237-3.916 5.237-3.916s2.4 9.279 1.646 10.599z" fill="#2C3A64"/><path d="M305.578 240.943s18.667 29.367 20.221 32.857c0 0 6.352.592 7.88-3.947 0 0-11.097-30.992-15.974-33.546-4.878-2.555-12.127 4.636-12.127 4.636z" fill="#216AB1"/><path d="M343.227 179.112s-6.427 8.798-12.158 9.269c0 0 .411-1.864 1.332-3.674a3.882 3.882 0 00-.068-3.676l-.029-.051c-1.126-1.994-1.624-3.186-1.624-3.186l2.634-4.769.544-2.564c.445 1.204.967 2.313 1.55 3.229 3.002 4.713 7.819 5.422 7.819 5.422z" fill="#FFB27D"/><path d="M335.659 173.642s.933 4.409-3.355 7.336c-1.126-1.994-1.624-3.186-1.624-3.186l2.634-4.769c2.106-.312 2.345.619 2.345.619z" fill="#ED975D"/><path d="M329.874 180.451s8.064-4.392 5.25-9.374c-2.813-4.979-3.667-8.899-8.933-6.306-5.267 2.594-5.185 5.054-4.651 6.944.534 1.891 6.166 9.749 8.334 8.736z" fill="#FFB27D"/><path d="M335.098 161.163c.044-.126.201-.274.607-.455 0 0-.413-.082-.858.077-.312-.551-1.018-1.467-2.105-1.336 0 0 .643.082.952.677-1.61-.754-4.404-.675-10.998 2.499-8.691 4.184-3.483 8.873-2.052 9.119 1.431.247 3.616-2.789 5.847-3.449 2.231-.662 3.87 2.355 4.771 2.507.902.152.317-.508 1.134-1.346.817-.839 1.557.795 1.69 1.991.133 1.197 1.576 2.192 1.576 2.192s.476-.089 1.271-2.129c.795-2.04-.372-8.931-1.525-10.05-.104-.094-.206-.196-.31-.297z" fill="#216AB1"/><path d="M383.242 269.65s1.876 2.847 2.313 3.768c.435.923-.421 2.886-1.706 3.181-1.134.261-1.303 2.272-1.303 2.272h5.499c.582 0 1.107-.321 1.331-.815.776-1.706.953-3.925 1.11-4.669.329-1.562.976-2.872.691-4.46-.285-1.583-2.995-2.501-7.933-2.487-5.426.019-.002 3.21-.002 3.21z" fill="#233862"/><path d="M367.073 235.325c-4.148 4.395-34.596-4.696-32.044-7.011.651-.588.428-1.296.692-2.244 1.264-4.495-1.252-12.186-2.33-15.167-.252-.691-.426-1.128-.457-1.215a52.251 52.251 0 01-2.347-8.482c-1.003-5.373-.986-10.369.387-13.429.009-.017.012-.031.021-.041 5.705-1.668 8.844-10.058 8.844-10.058s18.07 5.132 24.628 30.917c0 0 .338 1.644.756 4.112h.003c.126.756.261 1.592.396 2.482.701 4.587 1.107 10.471 1.523 14.853.017.152.031.307.046.464.208 1.885.57 4.089-.118 4.819z" fill="#F99746"/><path d="M343.098 230.965s3.036.399 9.158.851c6.345.469 13.07 1.469 14.162 3.601.363.706.109 2.492-.597 4.96-1.564 5.455-5.356 14.239-9.685 22.027 11.121.643 26.252 3.098 26.252 3.098 2.475 2.799 1.438 6.074 1.438 6.074-.793.008-3.181.344-6.437.871-11.8 1.899-26.172 5.805-35.081 5.805-1.948 0-3.408-1.385-4-3.193v-.002c-3.665-11.148 4.79-44.092 4.79-44.092z" fill="#216AB1"/><path d="M365.821 241.204c-6.14-.194-21.534-7.752-21.283-7.812 2.867-.706 5.431-1.194 7.72-1.501 6.345.512 13.069 1.6 14.162 3.918.358.768.106 2.709-.599 5.395z" fill="#2C3A64"/><path d="M342.872 178.933s-7.725 1.607-8.479 8.375c-.549 4.928 3.364 16.093 3.364 16.093l2.502-1.027s-4.73-13.783-4.003-16.127c.933-3.007 5.373-7.503 9.458-5.707l-2.842-1.607z" fill="#216AB1"/><path d="M367.074 235.325c-4.147 4.395-35.25-4.599-32.7-6.915.648-.587 1.083-1.392 1.346-2.34 1.264-4.495-1.252-12.186-2.33-15.167-.251-.691-2.63-8.88-2.663-8.967l8.757-1.895s2.477 4.266 5.694 6.456c4.218 2.874 11.036 6.195 20.045 6.209h.002c.126.757.261 1.593.397 2.483.701 4.587 1.107 10.47 1.522 14.853.017.152.032.307.046.464.211 1.885.573 4.089-.116 4.819z" fill="#216AB1"/><path d="M301.055 278.501h-6.028v-67.18c0-4.698-3.822-8.522-8.521-8.522h-15.694v-6.028h15.694c8.023 0 14.551 6.526 14.551 14.55v67.18h-.002z" fill="#A0DEFF"/><path d="M284.291 196.072h-1.088v7.703h1.088v-7.703zM302.129 216.869v-1.088h-7.703v1.088h7.703zM302.125 229.802v-1.088h-7.703v1.088h7.703zM301.543 269.503h-7.285v8.996h7.285v-8.996z" fill="#3ABBFF"/><path d="M301.973 214.483l28.318 11.128a1.102 1.102 0 001.429-.621l.186-.476a.931.931 0 00-.525-1.206l-28.478-11.191-.93 2.366z" fill="#216AB1"/><path d="M299.222 213.553l.631.246.191-1.433c.164-1.233 1.404-2.009 2.511-1.574l8.271 3.251.82-2.086-10.476-4.116c-1.02-.401-2.168.28-2.374 1.409l-.473 2.62c-.131.723.244 1.426.899 1.683z" fill="#216AB1"/><path d="M304.957 213.805l5.172 2.032 1.161-2.956-5.171-2.032-1.162 2.956z" fill="#216AB1"/><path d="M309.43 214.021a.348.348 0 00-.198-.454.35.35 0 00-.454.198.353.353 0 00.198.455c.181.07.384-.02.454-.199zM307.345 213.202a.35.35 0 10-.652-.256.35.35 0 00.652.256z" fill="#199DE2"/><path d="M332.806 219.24s-1.388.326-2.874.374c-1.339.044-2.756-.203-3.396.066-1.356.565-5.651 3.516-3.577 4.781 2.073 1.264 4.21.821 5.629-.327 1.416-1.148 5.269-1.242 5.269-1.242l-1.051-3.652z" fill="#FFB27D"/><path d="M347.239 185.142c9.313 2.688 14.983 25.036 13.673 31.727-1.312 6.688-27.6 7.038-27.6 7.038s-1.477-1.155-1.651-2.349c-.222-1.523.017-2.224.017-2.224s16.622-4.513 17.002-6.432c.379-1.919-8.001-12.092-7.875-17.608.128-5.516 1.361-11.616 6.434-10.152z" fill="#F99746"/><path d="M311.724 278.501s-3.604-5.699-13.823-4.498c-10.222 1.199-17.502 6.695-41.885.561-24.384-6.135-22.182 4.873-36.068 2.501-13.883-2.371-19.979 1.436-19.979 1.436h111.755zM285.934 196.072s2.791-6.243 8.169-5.104c0 0 1.38.345 1.035 1.757-.346 1.411-4.552-.51-9.204 3.347z" fill="#165999"/></svg>