<?xml version="1.0" encoding="utf-8"?><svg width="79" height="79" fill="none" xmlns="http://www.w3.org/2000/svg" viewBox="0 0 79 79"><path d="M60.216 43.1a.824.824 0 01.1-.635l11.421-18.18c.616-.98.649-2.168.09-3.18a3.092 3.092 0 00-2.74-1.617H52.474a.819.819 0 01-.719-.427L42.25 1.631a3.13 3.13 0 00-5.498 0l-9.507 17.43a.819.819 0 01-.719.427H9.915a3.092 3.092 0 00-2.741 1.617 3.092 3.092 0 00.089 3.18l4.447 7.078a1.156 1.156 0 101.957-1.23l-4.446-7.078a.803.803 0 01-.024-.832.803.803 0 01.717-.423h16.611a3.13 3.13 0 002.75-1.631l9.506-17.43a.802.802 0 01.72-.427c.146 0 .508.042.718.427l9.507 17.43a3.13 3.13 0 002.75 1.631h16.61c.436 0 .647.296.717.423a.803.803 0 01-.023.832l-11.42 18.18a3.146 3.146 0 00-.387 2.425l4.893 19.574a.793.793 0 01-.291.846.794.794 0 01-.892.074l-16.047-8.641v-7.577a1.156 1.156 0 10-2.313 0v6.332l-2.338-1.26c-.93-.5-2.04-.5-2.97 0l-2.492 1.343V39.943l1.485-1.336.802.906a2.156 2.156 0 003.227 0l.801-.906 1.486 1.336v3.066a1.156 1.156 0 102.312 0v-2.443l1.514-.024a3.784 3.784 0 003.708-3.767v-1.048a3.772 3.772 0 00-3.767-3.767 3.771 3.771 0 00-3.767 3.767v1.107l-.057-.052a2.14 2.14 0 00-1.564-.549 2.14 2.14 0 00-1.491.724l-.789.89-.788-.89a2.14 2.14 0 00-1.49-.724 2.13 2.13 0 00-1.565.55l-.057.05v-1.105a3.772 3.772 0 00-3.767-3.768 3.772 3.772 0 00-3.767 3.768v1.047a3.784 3.784 0 003.708 3.767l1.514.024v15.03l-15.894 8.558a.794.794 0 01-.891-.074.794.794 0 01-.292-.846l4.894-19.574a3.146 3.146 0 00-.387-2.425l-4.34-6.91a1.156 1.156 0 00-1.958 1.23l4.34 6.91a.822.822 0 01.102.634L13.89 62.673a3.094 3.094 0 001.116 3.232 3.11 3.11 0 001.915.666 3.14 3.14 0 001.491-.381l7.147-3.848v3.595h-.155a1.156 1.156 0 100 2.312h.32a6.005 6.005 0 005.236 4.574l2.455 3.659A5.677 5.677 0 0038.138 79h2.724a5.677 5.677 0 004.722-2.518l2.47-3.68a6.006 6.006 0 005.069-4.553h.694a1.156 1.156 0 100-2.312h-.53V62.26l7.3 3.93a3.093 3.093 0 003.407-.284 3.093 3.093 0 001.115-3.232L60.216 43.1zm-14.58-7.373c0-.802.652-1.455 1.455-1.455.802 0 1.455.653 1.455 1.455v1.048c0 .79-.643 1.443-1.432 1.455l-1.479.024v-2.527zM30.3 36.775v-1.047a1.457 1.457 0 012.91 0v2.526l-1.477-.023a1.462 1.462 0 01-1.433-1.456zm-2.428 24.322l3.486-1.877h16.285l3.332 1.794v.409H27.872v-.326zm11.24-6.053a.817.817 0 01.777 0l3.46 1.864h-7.697l3.46-1.864zm4.552 20.15a3.37 3.37 0 01-2.802 1.494h-2.724a3.37 3.37 0 01-2.802-1.494l-1.571-2.342h11.47l-1.57 2.342zm4.104-9.257a1.156 1.156 0 000 2.313h2.934a3.686 3.686 0 01-3.408 2.29H31.552a3.686 3.686 0 01-3.407-2.29h14.697a1.156 1.156 0 100-2.313h-14.97v-2.202h23.103v2.203h-3.207z" fill="#216AB1"/><path d="M54.468 9.724a1.156 1.156 0 001.518-.607l1.818-4.239a1.156 1.156 0 00-2.125-.911l-1.818 4.239c-.252.586.02 1.266.607 1.518zM59.67 13.753c.24 0 .48-.074.688-.228l3.532-2.624a1.156 1.156 0 00-1.379-1.856L58.98 11.67a1.156 1.156 0 00.69 2.084zM23.015 9.117a1.156 1.156 0 102.125-.911l-1.82-4.239a1.156 1.156 0 00-2.124.912l1.819 4.238zM15.11 10.901l3.532 2.624a1.154 1.154 0 001.617-.239 1.156 1.156 0 00-.238-1.617L16.49 9.045a1.156 1.156 0 10-1.379 1.856zM72.49 43.367h-3.638a1.156 1.156 0 100 2.312h3.639a1.156 1.156 0 100-2.312zM71.999 52.45l-3.53-2.274a1.156 1.156 0 00-1.252 1.944l3.53 2.273a1.156 1.156 0 101.252-1.944zM10.148 45.68a1.156 1.156 0 100-2.313H6.51a1.156 1.156 0 100 2.312h3.638zM10.531 50.176l-3.53 2.274a1.156 1.156 0 001.253 1.944l3.53-2.274a1.156 1.156 0 00-1.253-1.944z" fill="#216AB1"/></svg>