<?xml version="1.0" encoding="utf-8"?><svg width="68" height="68" fill="none" xmlns="http://www.w3.org/2000/svg" viewBox="0 0 68 68"><path d="M68 20.58v-3.314c0-.166-.031-.331-.092-.486l-2.83-7.203V4.516A4.52 4.52 0 0060.562 0H7.437a4.52 4.52 0 00-4.516 4.516v5.06L.091 16.78a1.33 1.33 0 00-.091.486v3.314c0 2.267 1.133 4.185 2.921 5.309v32.017H1.328c-.733 0-1.328.595-1.328 1.328v7.438C0 67.405.595 68 1.328 68h65.344c.733 0 1.328-.595 1.328-1.328v-7.438c0-.733-.595-1.328-1.328-1.328h-1.594V25.89C66.868 24.766 68 22.847 68 20.58zm-6.773 3.72c-2.386 0-4.118-1.565-4.118-3.72v-1.986h8.235v1.986c0 2.155-1.732 3.72-4.117 3.72zm-6.774-3.72c0 2.155-1.732 3.72-4.117 3.72-2.386 0-4.117-1.565-4.117-3.72v-1.986h8.234v1.986zm-10.89 0c0 2.155-1.732 3.72-4.118 3.72-2.385 0-4.117-1.565-4.117-3.72v-1.986h8.234v1.986zm-10.891 0c0 2.155-1.732 3.72-4.117 3.72-2.386 0-4.117-1.565-4.117-3.72v-1.986h8.234v1.986zm-10.89 0c0 2.155-1.732 3.72-4.118 3.72s-4.117-1.565-4.117-3.72v-1.986h8.234v1.986zM7.436 2.656h53.125c1.025 0 1.86.834 1.86 1.86V8.5H39.975a1.328 1.328 0 100 2.656h22.868l1.88 4.781H3.276l1.878-4.78h22.868a1.328 1.328 0 100-2.657H5.578V4.516c0-1.026.834-1.86 1.86-1.86zm-4.78 15.938h8.234v1.986c0 2.155-1.732 3.72-4.118 3.72-2.385 0-4.117-1.565-4.117-3.72v-1.986zm0 41.968h34.936l2.76 4.782H2.657v-4.781zm41.599-7.256l4.597 7.962-5.839 3.372-4.597-7.963a1.328 1.328 0 00-1.815-.486l-1.274.736V43.298l11.802 6.815-2.388 1.378a1.328 1.328 0 00-.486 1.815zm21.088 12.038H47.107l4.224-2.44a1.328 1.328 0 00.486-1.814l-.304-.528h13.83v4.782zm-2.922-7.438H49.979l-2.759-4.778 3.23-1.865a1.328 1.328 0 000-2.3l-15.786-9.115a1.328 1.328 0 00-1.992 1.15v16.908H5.578V26.863c.386.06.785.092 1.195.092 2.282 0 4.232-.957 5.446-2.49 1.213 1.533 3.163 2.49 5.445 2.49 2.282 0 4.232-.957 5.445-2.49 1.214 1.533 3.164 2.49 5.446 2.49 2.282 0 4.231-.957 5.445-2.49 1.214 1.533 3.163 2.49 5.445 2.49 2.282 0 4.232-.957 5.446-2.49 1.213 1.533 3.163 2.49 5.445 2.49 2.282 0 4.232-.957 5.445-2.49 1.214 1.533 3.164 2.49 5.446 2.49.41 0 .808-.032 1.195-.092v31.043z" fill="#216AB1"/><path d="M25.508 31.136a1.328 1.328 0 00-1.878 1.879l4.56 4.56a1.324 1.324 0 001.878 0 1.328 1.328 0 000-1.879l-4.56-4.56zM34 29.418c-.733 0-1.328.594-1.328 1.328v3.78a1.328 1.328 0 102.656 0v-3.78c0-.734-.595-1.328-1.328-1.328zM26.267 40.18h-4.22a1.328 1.328 0 100 2.655h4.22a1.328 1.328 0 100-2.656zM34 11.156c.35 0 .692-.142.939-.389.247-.247.39-.59.39-.939 0-.35-.143-.692-.39-.939A1.338 1.338 0 0034 8.5a1.333 1.333 0 00-1.328 1.328A1.333 1.333 0 0034 11.156z" fill="#216AB1"/></svg>