<?xml version="1.0" encoding="utf-8"?><svg width="22" height="22" fill="none" xmlns="http://www.w3.org/2000/svg" viewBox="0 0 22 22"><path d="M18.778 14.222a10.957 10.957 0 00-4.18-2.622 6.357 6.357 0 002.761-5.24A6.367 6.367 0 0011 0a6.367 6.367 0 00-6.36 6.36 6.357 6.357 0 002.762 5.24 10.957 10.957 0 00-4.18 2.622A10.928 10.928 0 000 22h1.719c0-5.118 4.163-9.281 9.281-9.281s9.281 4.163 9.281 9.281H22c0-2.938-1.144-5.7-3.222-7.778zM11 11a4.646 4.646 0 01-4.64-4.64A4.646 4.646 0 0111 1.718a4.646 4.646 0 014.64 4.64A4.646 4.646 0 0111 11z" fill="#000"/></svg>