<?xml version="1.0" encoding="utf-8"?><svg width="28" height="28" fill="none" xmlns="http://www.w3.org/2000/svg" viewBox="0 0 28 28"><path fill-rule="evenodd" clip-rule="evenodd" d="M0 0v27.888h27.888V0H0zm20.907 15.43c.64.624 1.317 1.212 1.892 1.902.254.305.494.62.677.974.26.506.024 1.061-.428 1.092l-2.812-.002c-.726.06-1.304-.233-1.792-.73-.388-.395-.75-.818-1.125-1.226a2.647 2.647 0 00-.505-.452c-.384-.248-.717-.173-.937.227-.223.408-.276.86-.296 1.314-.03.662-.23.836-.896.867-1.422.066-2.771-.15-4.024-.866-1.106-.632-1.963-1.525-2.708-2.535-1.453-1.969-2.565-4.13-3.564-6.354-.226-.501-.061-.77.49-.78a77.007 77.007 0 012.754 0c.374.005.621.219.764.571a17.12 17.12 0 001.866 3.459c.204.287.412.572.705.774.326.225.575.152.729-.213.097-.232.14-.478.16-.726.074-.848.083-1.697-.043-2.542-.078-.528-.377-.87-.904-.97-.269-.051-.228-.15-.099-.304.227-.264.44-.43.864-.43h3.178c.5.098.613.324.681.828l.003 3.532c-.006.195.098.773.448.9.28.094.467-.132.635-.31.761-.808 1.304-1.763 1.79-2.75.214-.435.4-.886.58-1.338.133-.334.34-.499.718-.493l3.06.004c.09 0 .182 0 .271.015.515.089.656.31.496.814-.25.79-.739 1.448-1.216 2.108-.51.707-1.055 1.388-1.562 2.099-.464.65-.427.977.15 1.54z" fill="#216AB1"/></svg>