<?xml version="1.0" encoding="utf-8"?><svg width="29" height="28" fill="none" xmlns="http://www.w3.org/2000/svg" viewBox="0 0 29 28"><g clip-path="url(#byclip0)" fill="#F43232"><path d="M13.087 20.712c0 .034 0 .077-.019.101-.13.167-.283.305-.484.38-.175.063-.315-.015-.352-.197a1.103 1.103 0 01-.015-.221c0-1.355-.004-4.133-.006-4.166h-1c0 .037-.001 3.907.002 4.638 0 .198.021.394.103.578.089.199.236.325.454.361.16.028.317.01.47-.042.312-.108.556-.31.772-.554l.076-.08v.606h1.002V19.46 16.6l-1.003.003v4.109zM17.825 17.04c-.212-.451-.656-.57-1.041-.474a1.153 1.153 0 00-.578.368c-.052.058-.108.171-.108.171v-2.458h-1.004v7.468h1.004v-.42l.097.104c.23.25.51.387.854.39.424.005.72-.2.853-.604.062-.187.082-.38.083-.575v-3.132c0-.289-.035-.573-.16-.839zm-.874 3.845a.803.803 0 01-.018.167c-.046.219-.213.317-.449.268a.658.658 0 01-.35-.215l-.033-.043v-.082l-.003-3.316s.022-.061.07-.102c.117-.105.247-.17.41-.155.139.014.25.078.301.206.039.098.07.207.07.311.005.987.003 1.974.002 2.96zM14.214 10.53c.234 0 .424-.19.424-.424V7.11a.425.425 0 00-.849 0v2.996c0 .234.19.424.425.424zM11.212 14.648H7.734v1.07h1.172v6.398h1.132v-6.4h1.174v-1.068zM20.692 20.157v.709a.447.447 0 11-.895 0v-1.378h1.922s.011-.962.003-1.398a2.964 2.964 0 00-.055-.557c-.1-.472-.354-.827-.828-.983-.14-.046-.29-.07-.437-.08-.488-.03-.916.109-1.25.483-.293.327-.395.722-.396 1.15-.002.817-.005 1.635.003 2.453.002.209.026.421.073.624.102.435.34.778.76.967.306.139.63.146.957.098.527-.078.886-.36 1.06-.87.13-.381.115-1.218.115-1.218h-1.032zm-.895-2.297a.448.448 0 01.895 0v.773h-.895v-.773z"/><path d="M.773 0v28h28V0h-28zm15.774 5.836h1.02v4.229c0 .056.004.112.014.167.031.174.16.256.328.198.204-.07.36-.212.493-.38.018-.023.015-.067.015-.102V5.836h1.027v5.545h-1.027v-.596c-.113.112-.21.216-.316.31-.19.167-.403.29-.653.34-.385.075-.712-.047-.834-.444a1.462 1.462 0 01-.067-.414v-4.74zm-2.333-.139c.812 0 1.47.659 1.47 1.471v2.88a1.471 1.471 0 01-2.941 0v-2.88a1.47 1.47 0 011.47-1.47zm-3.958-1.822s.467 1.985.69 2.925c.224-.94.691-2.925.691-2.925h1.17l-1.3 4.308a.527.527 0 00-.022.15v3.047h-1.077V8.333a.528.528 0 00-.021-.15l-1.3-4.308h1.17zm12.856 17.682a2.505 2.505 0 01-2.451 2.505c-3.924.084-7.85.084-11.775 0a2.505 2.505 0 01-2.45-2.505v-6.13a2.505 2.505 0 012.45-2.503c3.925-.085 7.85-.085 11.775 0a2.505 2.505 0 012.45 2.504v6.13z"/></g><defs><clipPath id="byclip0"><path fill="#fff" transform="translate(.773)" d="M0 0h28v28H0z"/></clipPath></defs></svg>